<svg width="22" height="22" viewBox="0 0 22 22" fill="none" xmlns="http://www.w3.org/2000/svg">
<g clip-path="url(#clip0_12818_201762)">
<g clip-path="url(#clip1_12818_201762)">
<g clip-path="url(#clip2_12818_201762)">
<mask id="mask0_12818_201762" style="mask-type:luminance" maskUnits="userSpaceOnUse" x="0" y="0" width="22" height="22">
<path d="M21.4322 0.375977H0.190674V21.6175H21.4322V0.375977Z" fill="white"/>
</mask>
<g mask="url(#mask0_12818_201762)">
<path d="M4.98838 21.5831C4.76316 21.5831 4.5058 21.5159 4.31276 21.3479C3.92671 21.0453 3.76585 20.5748 3.86236 20.1043L5.11706 14.1892C5.14923 13.9875 5.08488 13.8195 4.9562 13.685L0.580862 9.65199C0.226974 9.31591 0.0982871 8.81177 0.259145 8.37486C0.420003 7.90434 0.77389 7.56825 1.25646 7.53465L7.01519 6.96329C7.20821 6.92969 7.36907 6.82886 7.43341 6.66081L9.74977 1.11537C9.9428 0.678456 10.361 0.375977 10.8114 0.375977C11.294 0.375977 11.7122 0.644846 11.8731 1.11537L14.1895 6.66081C14.2538 6.82886 14.4147 6.96329 14.6077 6.96329L20.3664 7.53465C20.849 7.56825 21.235 7.90434 21.3637 8.37486C21.5246 8.84538 21.396 9.34951 21.042 9.6856L16.6988 13.7187C16.5701 13.8531 16.5058 14.0547 16.538 14.2228L17.7927 20.1379C17.8892 20.6084 17.7283 21.1126 17.3423 21.3815C16.9562 21.6839 16.4736 21.6839 16.0554 21.4486L11.0688 18.3902C10.908 18.2895 10.7149 18.2895 10.5541 18.3902L5.56746 21.415C5.37443 21.5159 5.1814 21.5831 4.98838 21.5831Z" fill="#C6FF3C"/>
</g>
</g>
</g>
</g>
<defs>
<clipPath id="clip0_12818_201762">
<rect width="21.2415" height="21.2415" fill="white" transform="translate(0.190674 0.375977)"/>
</clipPath>
<clipPath id="clip1_12818_201762">
<rect width="21.2415" height="21.2415" fill="white" transform="translate(0.190674 0.375977)"/>
</clipPath>
<clipPath id="clip2_12818_201762">
<rect width="21.2415" height="21.2415" fill="white" transform="translate(0.190674 0.375977)"/>
</clipPath>
</defs>
</svg>
