<svg width="250" height="65" viewBox="0 0 250 65" fill="none" xmlns="http://www.w3.org/2000/svg">
<path d="M8.21199 50.2263C9.72421 50.2263 10.147 50.1775 10.0657 50.0311V50.0148C10.0169 49.9172 10.3584 50.2589 10.8299 50.7957C11.3015 51.3326 12.0982 52.1785 12.586 52.6665C13.0739 53.1546 13.4966 53.6589 13.5291 53.7565C13.5617 53.9192 13.0576 53.968 9.10631 53.968L7.96808 52.5689C7.35019 51.8043 6.69977 50.9747 6.26074 50.2263H8.21199Z" fill="#CDCDCD"/>
<path d="M51.546 53.9029L53.4159 51.9019C54.4403 50.812 55.3021 49.9172 55.3184 49.9172C55.3346 49.9172 55.3184 49.9823 55.2859 50.0799C55.2371 50.1775 55.8875 50.2426 57.0745 50.2426C58.0989 50.2426 58.9444 50.2914 58.9444 50.3565C58.9444 50.4378 58.5867 50.9584 58.1477 51.544C57.7087 52.1297 57.0745 52.9105 56.0989 54.0005L51.546 53.9029Z" fill="#CDCDCD"/>
<path d="M11.3344 53.9689C12.7978 53.9689 13.5458 53.9038 13.4807 53.8062C13.432 53.7086 13.432 53.6436 13.4807 53.6436C13.5295 53.6436 14.1962 54.1316 14.9442 54.7335C15.6922 55.3517 16.9117 56.1976 17.6597 56.6531C18.4076 57.0924 19.1556 57.5804 19.302 57.7431C19.5784 58.0196 19.4808 58.0359 13.7246 58.1173L12.1474 56.7833C11.2856 56.0675 10.2449 55.1239 9.10669 53.9689H11.3344Z" fill="#CDCDCD"/>
<path d="M49.1073 55.6771C49.6439 55.3029 50.4569 54.6847 50.8959 54.3105C51.3512 53.9364 51.7252 53.6436 51.7415 53.6436C51.7577 53.6436 51.7415 53.7086 51.7089 53.8062C51.6602 53.9038 52.4244 53.9689 56.0667 53.9689L55.0261 55.0426C54.457 55.6283 53.4326 56.5555 51.4976 58.1173L48.5219 58.0684C46.0991 58.0359 45.595 57.9871 45.7902 57.8082C45.9202 57.6943 46.4894 57.3364 47.0747 56.9948C47.6601 56.6531 48.5707 56.0675 49.1073 55.6771Z" fill="#CDCDCD"/>
<path d="M0.895752 35.097L2.48927 35.0644L4.06653 35.0156L4.18035 35.585C4.2454 35.8941 4.45678 36.9515 4.65191 37.9439C4.84703 38.9362 5.02589 39.896 5.05842 40.0912C5.12346 40.4654 5.09094 40.4654 1.70877 40.4654L1.54617 39.6032C1.44861 39.1477 1.26974 38.1391 1.1234 37.3745C0.993314 36.6099 0.895752 35.7965 0.895752 35.097Z" fill="#CDCDCD"/>
<path d="M60.5389 38.6434C60.734 37.7324 60.9454 36.5285 61.0105 35.9917L61.108 35.0156H62.7991C63.726 35.0156 64.4739 35.0644 64.4739 35.097C64.4739 35.1458 64.3764 35.9104 64.2463 36.8051L64.2266 36.9255C64.0842 37.7968 63.916 38.8256 63.8073 39.2453C63.7097 39.7008 63.5471 40.1563 63.4495 40.2702C63.3194 40.4166 62.7991 40.4817 61.8072 40.4817C60.9942 40.4817 60.295 40.4491 60.2625 40.4003C60.2137 40.3678 60.3438 39.5707 60.5389 38.6434Z" fill="#CDCDCD"/>
<path d="M0.813681 29.9734L2.43972 29.8758C3.33404 29.827 4.06576 29.7782 4.06576 29.7619V35.0164L0.894983 35.0978L0.813681 34.5609C0.7649 34.2844 0.732379 33.1294 0.813681 29.9734Z" fill="#CDCDCD"/>
<path d="M61.2048 35.0164L61.1723 32.4136L61.1398 29.8107H64.4732L64.3919 35.0164H61.2048Z" fill="#CDCDCD"/>
<path d="M1.70923 40.4673L3.44909 40.4348L5.18895 40.386L5.56294 41.4759C5.77433 42.0941 6.16458 43.0539 6.42475 43.6396C6.68491 44.2252 6.86378 44.7295 6.79873 44.7783C6.74995 44.8271 5.92067 44.8597 3.25397 44.8597L2.86372 43.8511C2.63607 43.2817 2.2946 42.2893 1.70923 40.4673Z" fill="#CDCDCD"/>
<path d="M58.9296 43.5257C59.1898 42.9726 59.5475 42.0291 59.7426 41.4434L60.0841 40.386H61.7914C62.7345 40.386 63.4988 40.4348 63.4988 40.4673C63.4988 40.5161 63.3849 40.9554 63.2386 41.4434C63.1085 41.9477 62.767 42.9075 62.0353 44.8597H60.328C59.3524 44.8597 58.5881 44.7946 58.5393 44.697C58.4906 44.6157 58.6694 44.0788 58.9296 43.5257Z" fill="#CDCDCD"/>
<path d="M10.2446 9.541C10.4235 9.34578 11.1877 8.67879 11.952 8.02807L13.3341 6.87305L16.1309 6.90558C18.3098 6.93812 18.9277 7.00319 18.8627 7.1496C18.8139 7.26348 18.4236 7.5563 18.0009 7.78405C17.5781 8.02807 16.635 8.66253 15.9033 9.21564C15.1553 9.76875 14.5862 10.1266 14.635 10.0453C14.6837 9.9477 13.8707 9.88263 9.91943 9.89889L10.2446 9.541Z" fill="#CDCDCD"/>
<path d="M49.0349 6.90629L49.0745 6.90558L51.8713 6.87305L52.5217 7.36109C52.8794 7.62137 53.6437 8.30463 55.286 9.86636H52.9607C51.1721 9.88263 50.6843 9.91516 50.7656 10.0778C50.8631 10.2243 50.8306 10.2405 50.6517 10.1266C50.5217 10.0453 50.0826 9.71995 49.6761 9.39459C49.2696 9.08549 48.4729 8.53238 47.8875 8.17449C47.3021 7.83286 46.7005 7.40989 46.5379 7.24721C46.279 6.95582 46.3582 6.95439 49.0349 6.90629Z" fill="#CDCDCD"/>
<path d="M0.895752 29.3237C0.895752 29.0147 0.977054 28.2175 1.07462 27.5831L1.25348 26.3955H2.94456C3.87141 26.3955 4.63564 26.4118 4.63564 26.428C4.63564 26.4606 4.52182 27.1926 4.37548 28.0548C4.24539 28.9333 4.09905 29.6979 4.05027 29.763C4.01775 29.8443 3.28603 29.8931 0.895752 29.8931V29.3237Z" fill="#CDCDCD"/>
<path d="M60.9617 28.5103C60.8641 27.7946 60.734 27.03 60.6853 26.8022L60.5877 26.3955H62.2788C63.9536 26.3955 63.9699 26.4118 64.0674 26.8022C64.0999 27.03 64.2138 27.762 64.3113 28.429C64.3926 29.1123 64.4251 29.7142 64.3438 29.7793C64.2788 29.8443 63.5308 29.8931 61.1568 29.8118L60.9617 28.5103Z" fill="#CDCDCD"/>
<path d="M7.72353 12.3718C7.85361 12.2091 8.3902 11.591 8.91054 10.989L9.8699 9.88281L14.7968 9.89908L11.8699 12.6484H9.67478C7.57718 12.6646 7.49588 12.6484 7.72353 12.3718Z" fill="#CDCDCD"/>
<path d="M52.1469 11.4933C51.464 10.8589 50.8299 10.2407 50.7486 10.1106C50.6347 9.93162 51.0087 9.89908 55.3665 9.89908L56.5047 11.1517C57.1226 11.8512 57.643 12.4694 57.643 12.5345C57.643 12.5996 56.6836 12.6646 53.4153 12.6646L52.1469 11.4933Z" fill="#CDCDCD"/>
<path d="M2.94304 20.8312C2.91051 20.7498 3.13816 20.1154 3.44711 19.3996L4.01622 18.0981L5.86991 18.1307C6.89431 18.1632 7.72359 18.212 7.72359 18.2608C7.72359 18.3096 7.43091 18.9278 6.42276 20.945H4.71542C3.77232 20.945 2.97556 20.8962 2.94304 20.8312Z" fill="#CDCDCD"/>
<path d="M57.4804 18.1795L59.3016 18.1307L61.139 18.0981L61.7407 19.3182C62.0659 19.9852 62.3423 20.636 62.3423 20.7336C62.3586 20.8962 61.9033 20.945 58.8626 20.945L57.4804 18.1795Z" fill="#CDCDCD"/>
<path d="M5.59473 15.3331L6.52157 13.9992L7.43215 12.6489H9.61105C10.8143 12.6489 11.7899 12.6815 11.7899 12.7303C11.7899 12.7791 11.4322 13.2346 10.9932 13.7551C10.5379 14.2595 10.0501 14.8451 9.88747 15.0566C9.61105 15.4145 9.51348 15.4308 5.59473 15.3331Z" fill="#CDCDCD"/>
<path d="M55.4329 15.1379C55.3353 14.9752 54.8312 14.3571 54.3272 13.7551L53.384 12.6652H57.8069L58.7175 13.9178C59.2053 14.6174 59.6118 15.2355 59.6118 15.3006C59.5955 15.3657 58.7012 15.4308 57.6118 15.4308C55.8881 15.4308 55.5955 15.3819 55.4329 15.1379Z" fill="#CDCDCD"/>
<path d="M4.14722 18.016C4.14722 17.9346 4.45616 17.3002 4.83015 16.6332L5.52935 15.4131H7.51312C8.61883 15.4131 9.49689 15.4619 9.46437 15.527C9.44811 15.6083 9.05786 16.2265 7.80581 18.1786H5.98464C4.86267 18.1786 4.14722 18.1136 4.14722 18.016Z" fill="#CDCDCD"/>
<path d="M57.4326 18.0973L56.5708 16.7633L55.6927 15.4131H59.7415L60.392 16.6006C60.7497 17.2351 61.0424 17.8696 61.0424 17.9834C61.0424 18.1298 60.6033 18.1624 57.4326 18.0973Z" fill="#CDCDCD"/>
<path d="M21.5139 62.2816C20.7172 62.005 20.083 61.7122 20.083 61.6146C20.083 61.5007 24.3595 61.4519 32.571 61.4519C39.4329 61.4519 45.1078 61.5007 45.1728 61.5658C45.2379 61.6471 44.7663 61.9074 44.1159 62.1514C43.4655 62.3954 42.311 62.7859 41.5467 63.0136C40.7825 63.2251 39.3678 63.5667 38.376 63.7457C37.1564 63.9734 35.628 64.1199 33.5791 64.1687C31.3677 64.2337 30.0506 64.1849 28.6197 63.9897C27.5465 63.8596 25.8229 63.5179 24.7985 63.2577C23.7741 62.9974 22.2944 62.5581 21.5139 62.2816Z" fill="#CDCDCD"/>
<path d="M15.0744 5.70102C15.9036 5.14791 17.0581 4.44838 17.6435 4.12302C18.2289 3.79766 18.798 3.56991 18.8956 3.61872C19.0094 3.66752 21.4322 3.71632 24.2615 3.71632C27.1071 3.73259 29.2209 3.7814 28.9445 3.81393C28.6681 3.84647 28.3103 3.94408 28.1315 4.02542C27.9526 4.09049 27.3347 4.25317 26.7493 4.35078C26.164 4.46465 24.8469 4.82255 23.8225 5.16418C22.7981 5.5058 21.3021 6.09145 20.4891 6.48188C19.6761 6.87231 18.9443 7.21394 18.863 7.26275C18.7655 7.31155 18.7492 7.26275 18.8305 7.14887C18.9118 7.00246 18.3102 6.95365 16.2614 6.95365C14.7817 6.95365 13.5784 6.90485 13.5784 6.82351C13.5621 6.75844 14.2451 6.25413 15.0744 5.70102Z" fill="#CDCDCD"/>
<path d="M36.4568 3.8302C36.1804 3.79766 38.278 3.74886 41.1398 3.70006C44.0016 3.65125 46.3594 3.60245 46.3919 3.56991C46.4082 3.55364 46.9122 3.7814 47.5139 4.09049C48.1318 4.39958 49.3025 5.08284 50.1318 5.63595C50.9448 6.18906 51.6603 6.70963 51.7091 6.79097C51.7578 6.88858 50.7985 6.95365 48.9936 6.95365C47.1182 6.95365 46.2618 7.00788 46.4244 7.11633C46.5545 7.19767 46.6195 7.27901 46.5545 7.27901C46.4732 7.27901 45.8878 7.01873 45.2537 6.69337C44.6033 6.36801 43.4488 5.8637 42.6845 5.57087C41.9203 5.27805 40.4569 4.83882 39.4325 4.5948C38.408 4.35078 37.4324 4.09049 37.2861 4.00915C37.1235 3.92781 36.7495 3.84647 36.4568 3.8302Z" fill="#CDCDCD"/>
<path d="M2.14665 22.8147C2.27674 22.3755 2.48812 21.741 2.61821 21.4319L2.84585 20.8625L6.42314 20.9439L6.08167 21.7898C5.88655 22.2616 5.6589 22.8635 5.56134 23.1401C5.46378 23.4166 5.31743 23.6769 5.21987 23.742C5.12231 23.8071 4.39059 23.8721 3.57757 23.8721C2.76455 23.8721 2.06535 23.8233 2.00031 23.7583C1.93527 23.6769 2.00031 23.2702 2.14665 22.8147Z" fill="#CDCDCD"/>
<path d="M59.5459 22.7008C59.2857 22.0501 59.0418 21.3831 58.993 21.2367C58.8955 20.9764 59.0581 20.9439 62.5215 20.9439L62.928 22.2453C63.1557 22.9611 63.302 23.6118 63.2532 23.7094C63.2045 23.8071 62.4727 23.8721 60.0012 23.8884L59.5459 22.7008Z" fill="#CDCDCD"/>
<path d="M6.09773 46.924C7.47986 46.9566 7.87011 46.924 7.78881 46.7776V46.7613C7.74003 46.6637 7.82133 46.7125 7.96767 46.8915C8.09776 47.0704 8.60183 47.77 9.07338 48.4369C9.54493 49.1039 9.98396 49.7872 10.049 49.9336C10.1466 50.2102 10.0002 50.2264 6.17903 50.2264L5.25219 48.681C4.73185 47.835 4.30908 47.0867 4.30908 47.0054C4.30908 46.9403 5.10584 46.9077 6.09773 46.924Z" fill="#CDCDCD"/>
<path d="M55.9521 48.8111C56.4562 48.1278 56.944 47.3958 57.0416 47.1843C57.1391 46.9728 57.318 46.8589 57.4318 46.9077C57.5456 46.9566 58.3749 46.9891 59.2692 46.9891C60.7489 46.9891 60.879 47.0216 60.7977 47.2656C60.7489 47.4283 60.3424 48.1767 59.0904 50.324L57.2692 50.2752C56.2611 50.259 55.3505 50.1939 55.2529 50.1613C55.1066 50.1125 55.3667 49.6408 55.9521 48.8111Z" fill="#CDCDCD"/>
<path d="M25.3672 1.24424C26.164 1.06529 27.5298 0.805007 28.3754 0.691131C29.2209 0.577255 31.0096 0.479647 32.3592 0.463379C33.6925 0.463379 35.4649 0.528451 36.2617 0.609791C37.0584 0.707399 38.4243 0.935151 39.2698 1.09783C40.1154 1.27678 41.5138 1.65094 42.3593 1.9275C43.2049 2.20405 44.4407 2.64329 45.0748 2.90358C45.7252 3.16387 46.2618 3.44042 46.2618 3.53803C46.2618 3.63564 44.4407 3.70071 41.1398 3.70071H32.6844H24.1477C21.2858 3.70071 18.9443 3.65191 18.9443 3.57057C18.9281 3.5055 19.6923 3.1476 20.6029 2.7897C21.5298 2.41554 22.6355 1.99257 23.0907 1.84616C23.5298 1.71601 24.5704 1.43946 25.3672 1.24424Z" fill="#CDCDCD"/>
<path d="M242.444 24.3936C242.72 24.296 243.078 24.1821 243.257 24.1333C243.435 24.0845 244.102 24.0845 244.72 24.1171C245.631 24.1659 246.086 24.296 246.997 24.7515C247.614 25.0606 248.557 25.695 249.062 26.1343C249.582 26.5898 250.005 27.0616 250.005 27.1754C250.005 27.273 249.322 28.4281 248.509 29.7295C247.696 31.031 246.931 32.2022 246.818 32.3324C246.623 32.5439 246.476 32.4625 245.647 31.6654C245.143 31.1611 244.476 30.6243 244.183 30.4778C243.907 30.3314 243.468 30.2176 243.208 30.2176C242.964 30.2176 242.557 30.364 242.281 30.5266C242.005 30.6893 241.598 31.2262 240.899 32.5764V45.1841H234.557V24.5238H237.728C240.785 24.5238 240.899 24.54 240.899 24.8491C240.899 25.0281 240.931 25.1745 240.98 25.1745C241.029 25.1745 241.257 25.0443 241.5 24.8816C241.761 24.719 242.167 24.4912 242.444 24.3936Z" fill="#CDCDCD"/>
<path d="M16.7812 58.0358C18.7108 58.0358 19.5942 57.9816 19.4316 57.8731C19.3016 57.7918 19.2203 57.7104 19.269 57.7104C19.3178 57.7104 19.9357 57.9707 20.6512 58.2961C21.3666 58.6052 22.6512 59.1095 23.4967 59.4186C24.3423 59.7114 25.7407 60.1018 26.5862 60.2808C27.4318 60.4597 28.8464 60.6875 29.7245 60.7851C30.5863 60.8827 31.8871 60.964 32.6026 60.964C33.318 60.964 34.6189 60.8827 35.4969 60.7851C36.3587 60.6875 37.7734 60.4597 38.6189 60.2808C39.4645 60.1018 40.8303 59.7439 41.6271 59.4674C42.4238 59.2071 43.7084 58.7028 44.4727 58.3449C45.2369 57.987 45.8873 57.7104 45.9361 57.7104C45.9849 57.7104 45.9036 57.7918 45.7735 57.8731C45.6109 57.9816 46.4944 58.0358 48.4239 58.0358C50.0012 58.0358 51.302 58.0846 51.302 58.166C51.302 58.231 50.6679 58.6865 49.8711 59.1908C49.0906 59.6951 47.8548 60.4109 45.7735 61.4521H19.3503L17.8056 60.6224C16.9601 60.1506 15.7568 59.4511 15.1389 59.0282C14.521 58.6215 14.0007 58.231 13.9681 58.166C13.9356 58.0846 15.2039 58.0358 16.7812 58.0358Z" fill="#CDCDCD"/>
<path d="M1.43209 25.7102C1.49713 25.2709 1.62721 24.669 1.70851 24.3599L1.85486 23.7905H3.57846C4.52156 23.7905 5.2858 23.8393 5.2858 23.9044C5.2858 23.9857 5.15572 24.4901 5.00937 25.0432C4.86303 25.6125 4.66791 26.1657 4.57034 26.2795C4.44026 26.4259 3.91993 26.491 1.302 26.4747L1.43209 25.7102Z" fill="#CDCDCD"/>
<path d="M59.9858 23.9532L61.6281 23.8719C62.5224 23.8231 63.3029 23.8231 63.368 23.8719C63.4168 23.9207 63.5794 24.4738 63.7257 25.092C63.9371 25.9867 63.9533 26.2633 63.807 26.3609C63.6932 26.4259 62.9452 26.4585 60.6687 26.3934L59.9858 23.9532Z" fill="#CDCDCD"/>
<path d="M3.33472 44.9396C3.33472 44.8908 4.11522 44.842 5.09084 44.8257L5.07458 44.8095C6.09899 44.7932 6.87948 44.842 6.96079 44.9396C7.02583 45.0372 7.23721 45.3951 7.43234 45.753C7.6112 46.1109 7.79007 46.5339 7.82259 46.6803C7.88763 46.9406 7.72503 46.9731 4.14774 46.8918L3.74123 45.9482C3.51358 45.4439 3.33472 44.9884 3.33472 44.9396Z" fill="#CDCDCD"/>
<path d="M57.4656 46.9081C57.3843 46.8592 57.5632 46.3712 57.8396 45.8018L58.3437 44.7932L59.8234 44.842C60.6526 44.8583 61.4657 44.9071 61.6608 44.9234C61.986 44.9559 61.986 44.9722 61.0754 46.9894H59.3355C58.3599 46.9894 57.5306 46.9569 57.4656 46.9081Z" fill="#CDCDCD"/>
<path d="M17.2367 47.5418L17.1879 46.2404L17.1392 44.939H19.1229L19.0254 47.5418H17.2367Z" fill="#CDCDCD"/>
<path d="M46.2615 45.0203L47.1233 44.9715L47.9689 44.939L48.0177 46.0777C48.0339 46.7122 48.0177 47.3141 47.9689 47.4117C47.9201 47.5418 47.5786 47.6232 46.2615 47.6232V45.0203Z" fill="#CDCDCD"/>
<path d="M17.2367 50.4724L17.1879 49.0083L17.1392 47.5442H19.1229L19.0254 50.4724H17.2367Z" fill="#CDCDCD"/>
<path d="M46.2615 47.6255L47.1233 47.5767L47.9689 47.5442L48.0177 48.8456C48.0339 49.5614 48.0177 50.2447 47.9689 50.3586C47.9201 50.4724 47.5786 50.5538 46.2615 50.5538V47.6255Z" fill="#CDCDCD"/>
<path fill-rule="evenodd" clip-rule="evenodd" d="M17.1392 34.2029H19.1229L19.0254 37.9445H17.2367L17.1392 34.2029ZM21.2205 34.2029L22.1148 34.2517C22.8953 34.2842 23.0092 34.333 23.0417 34.6584C23.0742 34.9675 23.188 35.0163 23.9035 35.0651C24.3425 35.0976 25.1718 35.0814 25.7247 35.0325C26.6515 34.9512 26.7491 34.9024 26.7491 34.5608C26.7491 34.2354 26.8141 34.2029 28.7328 34.2029L28.6515 35.0163C28.5865 35.667 28.4727 35.911 28.0661 36.2364C27.7084 36.5455 27.5621 36.8058 27.4808 37.9445H25.6921L25.6434 37.3263C25.6108 36.7244 25.5946 36.7244 24.8791 36.7244C24.1474 36.7244 24.1474 36.7244 24.0661 37.9445L22.3587 38.0259V37.3751C22.3587 36.8546 22.2449 36.6105 21.7896 36.155C21.3181 35.6833 21.2205 35.4718 21.2205 34.8861V34.2029ZM36.6679 34.2029H37.5622C38.424 34.2029 38.4565 34.2191 38.4565 34.6584C38.4565 35.0976 38.4565 35.1139 39.546 35.1139C40.1476 35.1139 40.9932 35.0488 41.4159 34.9837C42.0501 34.8861 42.1964 34.8048 42.1964 34.5445C42.1964 34.2517 42.2777 34.2191 43.9851 34.3005V35.0325C43.9851 35.6182 43.8875 35.8459 43.5135 36.2038C43.1721 36.5129 43.0257 36.8383 42.9282 37.9608L41.1395 37.9445L41.0907 37.3426C41.0582 36.7407 41.042 36.7244 40.3265 36.7244C39.5948 36.7244 39.5948 36.7407 39.5135 37.9445L37.8061 38.0259V37.2938C37.8061 36.9034 37.7248 36.5617 37.6435 36.5617C37.546 36.5617 37.2858 36.3828 37.0744 36.155C36.7492 35.8459 36.6679 35.5857 36.6679 34.9837V34.2029ZM46.2615 34.2029H48.0502L47.9689 37.9445L46.2615 38.0259V34.2029ZM24.9604 34.2842C25.7734 34.268 25.8222 34.3005 25.6108 34.5282C25.4645 34.6747 25.1718 34.7885 24.9604 34.7885C24.7328 34.7885 24.4401 34.6747 24.31 34.5282C24.0824 34.3168 24.1637 34.2842 24.9604 34.2842ZM40.3265 34.2842C40.7167 34.2842 41.0582 34.3493 41.0582 34.4469C41.0582 34.5445 40.8793 34.6584 40.6842 34.7072C40.4891 34.756 40.1476 34.756 39.9525 34.7072C39.7574 34.6584 39.5948 34.5445 39.5948 34.4469C39.5948 34.3493 39.92 34.2842 40.3265 34.2842Z" fill="#CDCDCD"/>
<path d="M17.2367 34.2025L17.1879 32.3317L17.1392 30.4608H19.1229L19.0254 34.2025H17.2367Z" fill="#CDCDCD"/>
<path d="M22.3587 30.5422L23.2206 30.4934L24.0661 30.4608L24.1474 31.6809H25.7734V30.4608H39.5948V31.6809H41.0582V30.4608H43.0095V31.079C43.0095 31.5345 43.1395 31.7948 43.4973 32.169C43.92 32.5757 43.9851 32.7872 43.9851 34.2838L43.1395 34.2513C42.3265 34.2025 42.2777 34.17 42.2452 33.7633C42.2127 33.4379 42.1314 33.324 41.9525 33.3891C41.8225 33.4379 41.5948 33.4704 41.4647 33.4704C41.3184 33.4704 41.2208 33.6331 41.2208 33.9259C41.2208 34.3489 41.2046 34.3652 40.3265 34.3652C39.4647 34.3652 39.4322 34.3489 39.4322 33.9259C39.4322 33.5355 39.3671 33.4704 38.9444 33.4704C38.5704 33.4704 38.4565 33.5518 38.424 33.8446C38.3752 34.17 38.2939 34.2025 36.7492 34.2025L36.7167 33.4379C36.6842 32.7546 36.7329 32.592 37.1557 32.169C37.4321 31.8924 37.6435 31.5183 37.6435 30.9489H27.5621V31.3556C27.5783 31.6159 27.7572 31.9087 28.0824 32.169C28.5214 32.5269 28.5865 32.6896 28.619 34.2025H27.7247C26.8629 34.2025 26.8304 34.1862 26.7978 33.7633C26.7653 33.4379 26.684 33.324 26.5052 33.3891C26.3751 33.4379 26.1962 33.4704 26.0986 33.4704C26.0173 33.4704 25.9198 33.6331 25.9035 33.8446C25.8547 34.17 25.7572 34.2025 24.9279 34.2513C24.0173 34.2838 23.9848 34.2676 23.9848 33.8771C23.9848 33.5355 23.9197 33.4704 23.497 33.4704C23.0905 33.4704 23.0092 33.5355 23.0092 33.8771C23.0092 34.2676 22.9766 34.2838 21.3018 34.2025L21.2856 33.503C21.2856 32.9173 21.3669 32.7058 21.8222 32.2503C22.2287 31.8274 22.3587 31.5345 22.3587 30.5422Z" fill="#CDCDCD"/>
<path d="M46.3591 34.1862L46.3103 32.3317L46.2615 30.4446L48.0664 30.4608L47.9851 34.1862H46.3591Z" fill="#CDCDCD"/>
<path d="M17.2367 41.0347L17.1879 39.4892L17.1392 37.9438H19.1229L19.0254 41.0347H17.2367Z" fill="#CDCDCD"/>
<path d="M22.3587 38.0251L23.2206 37.9763L24.0661 37.9438L24.1149 39.3265C24.1311 40.0911 24.1149 40.8069 24.0661 40.9208C24.0173 41.0347 23.6758 41.116 22.3587 41.116V38.0251Z" fill="#CDCDCD"/>
<path d="M25.7084 41.0347L25.6596 39.4892L25.6108 37.9438L27.5783 37.9275L27.497 41.0347H25.7084Z" fill="#CDCDCD"/>
<path d="M37.8224 38.0251L38.6679 37.9763L39.5297 37.9438L39.5785 39.3265C39.5948 40.0749 39.5785 40.7907 39.5297 40.9045C39.481 41.0347 39.1232 41.116 37.8224 41.116V38.0251Z" fill="#CDCDCD"/>
<path d="M41.1395 41.0184L41.107 39.4729L41.0582 37.9275H43.0257L42.9282 41.0184H41.1395Z" fill="#CDCDCD"/>
<path d="M46.2778 38.0088L47.1233 37.9763L47.9851 37.9275L48.0177 39.3103C48.0502 40.0749 48.0339 40.7907 47.9851 40.9045C47.9364 41.0184 47.5786 41.0997 46.2778 41.0997V38.0088Z" fill="#CDCDCD"/>
<path d="M23.3606 15.2656C26.311 15.1688 26.3435 15.1678 26.4084 14.7947C26.4571 14.453 26.5222 14.4205 27.384 14.4693C28.2133 14.5181 28.2946 14.5506 28.2458 14.876C28.2295 15.1526 28.2946 15.2502 28.5385 15.2502C28.7336 15.2502 28.9287 15.0875 29.0263 14.8435C29.1726 14.4856 29.2864 14.4368 30.0019 14.4368C30.7661 14.4368 30.8149 14.4693 30.8149 15.2502H32.6036C34.3434 15.2502 34.3922 15.2339 34.4247 14.876C34.4735 14.5506 34.5548 14.5181 35.3678 14.5181C36.1809 14.5181 36.2622 14.5506 36.2947 14.876C36.3272 15.1254 36.4519 15.2502 36.6687 15.2502C36.9126 15.2502 36.9776 15.1526 36.9451 14.876C36.9126 14.5506 36.9776 14.5181 37.8069 14.5181C38.5711 14.5181 38.7337 14.5669 38.8638 14.876C39.0264 15.2176 39.1403 15.2339 41.9533 15.2827C44.4574 15.3315 44.9777 15.3803 45.6119 15.6731C46.0184 15.8521 46.3924 16.0798 46.4737 16.1937C46.555 16.3401 43.4655 16.3889 32.6849 16.3889C23.5303 16.3889 18.7822 16.3401 18.7822 16.2262C18.7822 16.1286 19.1237 15.9009 19.5465 15.7057C20.2294 15.3966 20.701 15.3478 23.3351 15.2664L23.3606 15.2656Z" fill="#CDCDCD"/>
<path d="M18.5376 28.0702C19.4156 28.0864 19.8872 28.0376 19.8384 27.94C19.7896 27.8424 20.001 27.94 20.2774 28.1515C20.5701 28.363 21.1717 28.5745 21.627 28.6558C22.2937 28.7534 22.4563 28.7209 22.5539 28.5257C22.6352 28.3793 22.9441 28.1515 23.2531 28.0214C23.5783 27.875 24.31 27.7773 24.9604 27.7773C25.6108 27.7773 26.3425 27.875 26.6678 28.0214C27.0092 28.1678 27.3182 28.4606 27.432 28.7372C27.6434 29.1927 27.6596 29.2089 29.3507 29.3065C30.2938 29.3553 31.8223 29.4041 32.7654 29.4041C33.7085 29.4041 35.1882 29.3553 36.0825 29.274C37.546 29.1764 37.6923 29.1276 37.8224 28.8022C37.9037 28.5907 38.2126 28.2817 38.4891 28.1027C38.9444 27.8099 39.237 27.7611 40.5216 27.8099C41.92 27.8587 42.0501 27.8912 42.4729 28.3142C42.8794 28.7209 43.0095 28.7697 43.5786 28.6721C43.9363 28.607 44.5379 28.3955 44.9119 28.1678C45.3022 27.9563 45.5786 27.8424 45.5298 27.94C45.481 28.0376 45.9201 28.0864 48.0664 28.0214L47.9689 30.4616H47.1559C46.3916 30.4616 46.3428 30.429 46.2941 30.0223C46.2778 29.762 46.2128 29.5831 46.1315 29.6156C46.0664 29.6482 45.7412 29.7946 45.3997 29.941C45.0745 30.0874 44.0826 30.2989 43.2046 30.4128C42.3428 30.5104 41.4972 30.5429 41.3509 30.4941C41.1558 30.4128 41.0582 30.2013 41.0582 29.8922C41.0582 29.4529 41.0094 29.4041 40.5216 29.4041C40.2452 29.4041 39.92 29.4692 39.8224 29.5343C39.7086 29.5994 39.5948 29.8271 39.5135 30.4616H25.8547L25.806 29.941C25.7734 29.4529 25.7247 29.4041 25.2043 29.4041C24.8954 29.4041 24.5214 29.4367 24.3913 29.4855C24.2612 29.5343 24.1474 29.7458 24.1474 29.9735C24.1474 30.2175 24.0336 30.429 23.8547 30.4941C23.7084 30.5429 22.9116 30.5266 22.1148 30.429C21.3018 30.3314 20.3099 30.1037 19.1067 29.5668L19.0741 30.0061C19.0254 30.4453 18.9928 30.4616 17.2367 30.4616L17.1392 28.0214L18.5376 28.0702Z" fill="#CDCDCD"/>
<path d="M17.579 17.6596C17.7254 17.3667 18.018 16.9438 18.2294 16.716L18.6034 16.3093L46.8315 16.3744L47.3681 17.1553C47.6608 17.5782 47.9047 18.0337 47.8884 18.1313C47.8884 18.2778 47.5795 18.3428 46.9128 18.3428C46.0998 18.3428 45.9046 18.294 45.7746 18.0175C45.677 17.8385 45.368 17.5457 45.0916 17.3667C44.5722 17.0582 44.1986 17.0577 32.7927 17.0415L32.7337 17.0414C22.8799 17.0414 20.8148 17.0739 20.4571 17.2691C20.1969 17.3993 19.8229 17.6921 19.5953 17.9199C19.2538 18.294 19.0587 18.3428 18.262 18.3428C17.7416 18.3428 17.3188 18.3103 17.3188 18.2615C17.3188 18.2127 17.4327 17.9361 17.579 17.6596Z" fill="#CDCDCD"/>
<path d="M17.2367 24.1172L17.1879 23.1411L17.1392 22.165H19.1229L19.0254 24.1172H17.2367Z" fill="#CDCDCD"/>
<path d="M46.3428 24.1172L46.2941 23.1411L46.2453 22.165H48.0664L47.9689 24.1172H46.3428Z" fill="#CDCDCD"/>
<path d="M17.155 19.5612C17.155 19.1545 17.2038 18.7152 17.2526 18.5851C17.3176 18.4061 17.6103 18.3411 18.3095 18.3411C19.09 18.3411 19.2526 18.3899 19.1876 18.5851C19.1388 18.7152 19.1063 19.1545 19.1063 20.2932H17.155V19.5612Z" fill="#CDCDCD"/>
<path d="M46.2612 19.854C46.2612 19.5937 46.2124 19.1545 46.1636 18.8779L46.0498 18.3411H48.0498V20.2932H47.1555C46.2937 20.2932 46.2612 20.277 46.2612 19.854Z" fill="#CDCDCD"/>
<path d="M17.2367 22.1643L17.1879 21.237L17.1392 20.2935H19.0579L19.0254 22.1643H17.2367Z" fill="#CDCDCD"/>
<path d="M46.3428 22.1805L46.2941 21.237L46.2453 20.3097H48.0177L47.9689 22.1805H46.3428Z" fill="#CDCDCD"/>
<path d="M18.2124 53.0748L20.7328 52.9772C22.1149 52.9284 23.6596 52.8958 24.1474 52.9284C24.6353 52.9609 26.7166 53.0585 28.7817 53.1724C31.7085 53.3188 33.3996 53.3025 36.5867 53.1399C38.8143 53.026 40.977 52.9284 41.3835 52.9284C41.79 52.9284 43.1884 52.9446 44.5055 52.9609C45.9852 52.9772 46.912 53.0585 46.912 53.1561C46.912 53.2537 46.5218 53.4978 46.0665 53.7255C45.4161 54.0183 44.6518 54.1973 43.0095 54.3762C41.8062 54.5064 39.5623 54.6853 38.0501 54.7829C36.5379 54.8643 34.0826 54.9456 32.6029 54.9456C31.1232 54.9456 28.7166 54.8643 27.2369 54.7829C25.7572 54.6853 23.5621 54.5064 22.3588 54.3762C21.1555 54.2624 19.9523 54.0671 19.6758 53.9695C19.3994 53.8557 18.9766 53.6279 18.2124 53.0748Z" fill="#CDCDCD"/>
<path d="M26.6831 13.9836C26.7319 13.7396 26.9595 13.2353 27.1709 12.8774L27.5611 12.1942L37.6426 12.1616L37.9515 12.6009C38.1141 12.8611 38.3743 13.3492 38.5207 13.7071C38.667 14.065 38.7808 14.3903 38.7808 14.4391C38.7808 14.4879 38.358 14.5205 36.9109 14.5205L36.4718 13.7396C36.2117 13.3166 35.984 12.975 35.9353 12.975C35.8865 12.975 35.919 13.154 36.0166 13.3817C36.1141 13.6095 36.1792 13.9348 36.1792 14.1138C36.1792 14.3903 36.0653 14.4391 35.2848 14.4717C34.797 14.5042 34.3905 14.4879 34.3905 14.4391C34.3905 14.3903 34.1141 14.2602 33.7889 14.1626C33.4474 14.0487 32.9108 13.9511 32.6019 13.9511C32.2929 13.9511 31.7888 14.0162 31.5124 14.1138C31.2197 14.1951 30.9758 14.3253 30.9758 14.3903C30.9758 14.4717 30.5368 14.5205 30.0002 14.5205C29.4636 14.5205 29.0246 14.4554 29.0246 14.3578C29.0246 14.2602 29.0896 13.9511 29.1872 13.6583C29.2956 13.3112 29.2956 13.1648 29.1872 13.219C29.0896 13.2678 28.8782 13.5769 28.7156 13.9023C28.4067 14.5205 28.4067 14.5205 27.4961 14.4717L27.4927 14.4716C26.6017 14.4391 26.5856 14.4386 26.6831 13.9836Z" fill="#CDCDCD"/>
<path d="M17.2367 26.2315L17.1879 25.1741L17.1392 24.1167H19.1229L19.0254 26.2315H17.2367Z" fill="#CDCDCD"/>
<path d="M46.3428 26.2315L46.2941 25.1741L46.2453 24.1167H48.0664L47.9689 26.2315H46.3428Z" fill="#CDCDCD"/>
<path d="M17.2367 44.9413L17.1879 43.8026L17.1392 42.6638H19.1229L19.0254 44.9413H17.2367Z" fill="#CDCDCD"/>
<path d="M46.2615 42.7452L47.1233 42.6964L47.9689 42.6638L48.0177 43.6399C48.0502 44.1767 48.0177 44.7136 47.9689 44.8112C47.9201 44.9413 47.5786 45.0227 46.2615 45.0227V42.7452Z" fill="#CDCDCD"/>
<path d="M23.9197 43.5586C23.4157 43.282 23.0254 42.9892 23.0254 42.9078V42.8916C23.0254 42.794 23.7734 42.7289 24.9767 42.7289C26.0499 42.7289 26.9279 42.794 26.9279 42.859C26.9117 42.9241 26.6027 43.1681 26.2287 43.3796C25.8547 43.6074 25.3669 43.8514 25.1718 43.9165C24.9116 43.9978 24.5539 43.9002 23.9197 43.5586Z" fill="#CDCDCD"/>
<path d="M39.3671 43.5586C38.8631 43.2983 38.424 43.0054 38.3752 42.9078V42.9241C38.3102 42.8102 38.9931 42.7614 40.3265 42.7452C41.4485 42.7452 42.3753 42.8102 42.3753 42.8753C42.359 42.9404 42.0501 43.1844 41.6761 43.3959C41.3021 43.6236 40.8143 43.8677 40.6192 43.9327C40.359 44.0141 40.0013 43.9165 39.3671 43.5586Z" fill="#CDCDCD"/>
<path fill-rule="evenodd" clip-rule="evenodd" d="M32.9287 9.76964C33.8555 9.81844 34.3921 9.94859 35.2051 10.3228C35.7905 10.5993 36.5547 11.0711 36.9125 11.3964C37.2702 11.7055 37.5304 11.9984 37.4816 12.0472C37.4328 12.096 36.5547 12.161 35.5141 12.1936C33.6279 12.2424 33.6116 12.2424 33.1888 11.8031C32.8474 11.429 32.701 11.3802 32.4409 11.5103C32.262 11.6079 32.0344 11.8031 31.9368 11.9658C31.7904 12.2098 31.514 12.2424 27.644 12.161L28.2132 11.5754C28.5221 11.2663 29.0424 10.8433 29.3514 10.6481C29.6603 10.4529 30.327 10.1763 30.8148 10.0137C31.449 9.80218 32.0669 9.7371 32.9287 9.76964ZM192.931 16.228H199.273L199.354 31.2271L204.882 24.5247H208.508C210.752 24.5247 212.151 24.5898 212.2 24.6874C212.248 24.785 210.443 27.0137 208.216 29.6491C205.972 32.2845 204.151 34.5133 204.151 34.6109C204.151 34.7085 205.988 36.8071 208.248 39.2961C210.492 41.7688 212.639 44.1114 213.663 45.1851H205.777L199.354 37.9783L199.273 45.1851H192.931V16.228ZM81.3034 16.6673C82.0188 16.6998 83.1896 16.8462 83.905 16.9926C84.6205 17.1228 85.6124 17.3993 86.1002 17.5945C86.588 17.7898 87.4173 18.229 87.9376 18.5544C88.4417 18.8797 89.1571 19.4328 89.5149 19.7582C89.8889 20.0998 90.1815 20.4414 90.1815 20.5391C90.1653 20.6204 89.1409 21.7266 85.6286 25.2568L85.0107 24.6874C84.6693 24.362 84.1327 23.9553 83.8237 23.7601C83.5148 23.5649 82.8156 23.2883 82.279 23.1582C81.7424 23.0118 80.9944 22.8979 80.6204 22.8979C80.2302 22.8979 79.6448 23.0118 79.3196 23.1582C78.9781 23.2883 78.5716 23.5324 78.3928 23.6788C78.2301 23.8252 78.0025 24.1506 77.8724 24.3946C77.7098 24.7362 77.6936 24.9965 77.7911 25.3707C77.8887 25.6635 78.1976 26.119 78.4903 26.3793C78.783 26.6233 79.4659 27.0463 80.0025 27.2903C80.5391 27.5506 81.7749 28.0549 82.7668 28.429C83.7587 28.7869 85.1246 29.4051 85.84 29.7793C86.5392 30.1534 87.5636 30.8692 88.1165 31.3735C88.6856 31.8941 89.336 32.6912 89.6287 33.2444C89.9214 33.7649 90.2628 34.7247 90.3929 35.3429C90.5393 35.9611 90.6531 36.9209 90.6531 37.4578C90.6531 37.9946 90.5718 38.7592 90.4742 39.1659C90.3767 39.5726 90.0677 40.3697 89.7913 40.9391C89.4986 41.5085 88.9458 42.3219 88.5392 42.7449C88.1327 43.1678 87.3685 43.786 86.8319 44.1439C86.2953 44.5018 85.3034 44.9736 84.6367 45.1851C83.5148 45.5592 83.1733 45.5918 80.4903 45.5918C77.9537 45.5755 77.3846 45.5267 76.2626 45.2176C75.5472 45.0061 74.3764 44.5506 73.661 44.209C72.9455 43.8511 71.8073 43.1353 71.1406 42.6147C70.4739 42.0942 69.9048 41.5736 69.8723 41.4434C69.856 41.3133 70.8479 40.1745 74.3764 36.6444L74.7504 36.9372C74.9618 37.0999 75.5634 37.5228 76.1 37.8807C76.6366 38.2386 77.4822 38.6779 77.97 38.8568C78.4578 39.052 79.3684 39.231 80.0025 39.2798C80.6367 39.3286 81.4172 39.3286 81.7587 39.2635C82.1326 39.1985 82.6042 38.9382 83.0107 38.5477C83.5636 38.0434 83.6774 37.8482 83.6611 37.3276C83.6611 36.9047 83.531 36.5793 83.2221 36.2214C82.9619 35.9449 82.2627 35.4731 81.6286 35.1803C80.9944 34.8712 79.7261 34.3506 78.783 33.9927C77.8399 33.6511 76.6692 33.1468 76.1813 32.9027C75.6935 32.6587 74.848 32.1544 74.3114 31.764C73.7748 31.3898 73.0756 30.7554 72.7667 30.3649C72.4414 29.9745 72.0512 29.4376 71.8886 29.1611C71.7097 28.8845 71.4496 28.2989 71.3032 27.8597C71.1406 27.4042 70.9618 26.5745 70.8967 25.9888C70.8479 25.4032 70.8642 24.4271 70.9618 23.7927C71.0756 23.1094 71.3845 22.1659 71.7423 21.4338C72.1325 20.6367 72.6691 19.9046 73.2545 19.319C73.7585 18.8309 74.6041 18.1965 75.1407 17.9199C75.661 17.6434 76.5065 17.2855 76.9944 17.1228C77.4822 16.9601 78.3602 16.7811 78.9456 16.7161C79.531 16.651 80.5879 16.6347 81.3034 16.6673ZM102.848 24.0529C103.515 24.0367 104.507 24.1505 105.044 24.2807C105.58 24.4271 106.426 24.7362 106.913 24.964C107.401 25.208 108.214 25.8099 108.702 26.2979C109.19 26.8022 109.792 27.5668 110.035 28.0223C110.279 28.4616 110.605 29.275 110.751 29.8118C110.995 30.6577 111.044 31.7314 111.141 45.1851H104.8V38.7917C104.8 34.3506 104.751 32.2357 104.621 31.8453C104.507 31.5362 104.296 31.0807 104.117 30.8204C103.954 30.5764 103.515 30.2185 103.141 30.0396C102.588 29.763 102.23 29.6979 101.385 29.7467C100.67 29.7955 100.019 29.9582 98.4581 30.7066V45.1851H92.1165V24.5247H95.2873C98.3443 24.5247 98.4581 24.541 98.4581 24.8501C98.4581 25.1754 98.4581 25.1754 99.1573 24.8663C99.5313 24.6874 100.247 24.4271 100.735 24.297C101.222 24.1668 102.182 24.0529 102.848 24.0529ZM121.141 24.0529C121.857 24.0529 122.946 24.1505 123.58 24.2807C124.215 24.4108 125.19 24.7525 125.776 25.0453C126.426 25.3544 127.206 25.94 127.808 26.5419C128.345 27.0951 128.979 27.8922 129.223 28.3477C129.467 28.7869 129.792 29.6003 129.938 30.1372C130.182 30.9831 130.231 32.0405 130.328 45.1851H127.158C125.32 45.1851 123.971 45.12 123.954 45.0387C123.922 44.9411 123.467 45.0387 122.93 45.2339C122.101 45.5267 121.597 45.5918 119.515 45.5918C117.385 45.5918 116.962 45.543 116.182 45.2339C115.662 45.0387 114.881 44.5181 114.344 44.0138C113.694 43.4281 113.223 42.8099 112.881 42.0942C112.393 41.1018 112.361 40.9391 112.361 39.1659C112.361 37.4252 112.393 37.23 112.849 36.319C113.109 35.7822 113.694 34.9688 114.149 34.5295C114.605 34.074 115.45 33.4884 116.019 33.1956C116.605 32.9027 117.515 32.5611 118.052 32.3984C118.702 32.2195 119.857 32.1056 121.515 32.0731C122.865 32.0405 123.987 31.9755 123.987 31.9267C123.987 31.8778 123.889 31.6501 123.759 31.3898C123.645 31.1458 123.32 30.7554 123.028 30.4951C122.702 30.2185 122.198 29.9908 121.597 29.8769C121.076 29.7793 120.393 29.7467 120.084 29.7955C119.775 29.8443 119.255 29.9582 118.946 30.0396C118.637 30.1372 117.922 30.5439 116.312 31.764L112.442 27.8597L112.897 27.3879C113.141 27.1439 113.84 26.5745 114.475 26.1352C115.109 25.6797 116.084 25.1429 116.67 24.9151C117.255 24.7037 118.198 24.4108 118.784 24.2807C119.369 24.1668 120.426 24.0529 121.141 24.0529ZM119.532 37.474C119.125 37.6693 118.816 37.9621 118.686 38.2712C118.556 38.5965 118.54 38.9056 118.637 39.1984C118.719 39.4587 118.946 39.7353 119.158 39.8492C119.353 39.9468 119.743 40.0932 120.003 40.1745C120.296 40.2559 120.881 40.2396 121.467 40.1257C122.003 40.0281 122.8 39.8004 123.223 39.6051L124.003 39.2473L123.987 36.8884C122.036 36.9209 121.174 36.986 120.816 37.0511C120.458 37.1161 119.873 37.3114 119.532 37.474ZM141.792 24.0367C142.329 24.0367 143.353 24.1831 144.069 24.362C144.784 24.5573 145.695 24.8826 146.101 25.1104C146.508 25.3218 147.256 25.8262 147.776 26.2329C148.28 26.6396 149.028 27.3879 149.434 27.8922C149.841 28.4128 150.426 29.3726 150.735 30.007C151.044 30.6577 151.418 31.6501 151.548 32.2032C151.678 32.7726 151.792 33.9927 151.792 34.9362C151.792 36.1401 151.695 37.0185 151.467 37.9458C151.272 38.6616 150.817 39.8329 150.443 40.5487C150.004 41.3946 149.386 42.208 148.703 42.9076C148.052 43.542 147.191 44.209 146.508 44.5669C145.873 44.8922 144.93 45.2827 144.394 45.4454C143.792 45.608 142.849 45.7219 141.955 45.7219C141.077 45.7219 140.133 45.6243 139.597 45.4616C139.109 45.3152 138.572 45.1363 138.394 45.0712C138.101 44.9411 138.101 45.0875 138.215 53.6444H131.955V24.5247H135.044C136.995 24.5247 138.133 24.5898 138.133 24.6874C138.133 24.785 138.264 24.8013 138.426 24.7362C138.572 24.6874 139.174 24.5084 139.76 24.3458C140.345 24.1831 141.255 24.0529 141.792 24.0367ZM138.735 30.3487L138.117 30.6252L138.215 39.0846C139.678 39.8817 140.052 39.9793 140.898 39.9793C141.662 39.9793 142.182 39.8654 142.768 39.6051C143.223 39.3937 143.825 38.9382 144.134 38.5803C144.443 38.2386 144.849 37.6205 145.028 37.2138C145.288 36.6444 145.353 36.1401 145.369 34.9362C145.369 33.6836 145.304 33.2444 145.012 32.5774C144.8 32.1219 144.329 31.4549 143.955 31.0807C143.564 30.7066 142.995 30.2999 142.686 30.1697C142.377 30.0396 141.792 29.8932 141.386 29.8444C140.979 29.7955 140.361 29.8281 140.003 29.9094C139.646 29.9908 139.077 30.186 138.735 30.3487ZM161.223 24.0529C161.89 24.0529 162.947 24.1505 163.581 24.2807C164.215 24.4108 165.256 24.785 165.89 25.0941C166.638 25.452 167.386 25.9888 167.923 26.5257C168.394 27.0137 169.012 27.8271 169.305 28.364C169.597 28.8845 169.955 29.8281 170.101 30.4625C170.313 31.3898 170.378 32.8377 170.492 45.1851H167.321C165.483 45.1851 164.134 45.12 164.101 45.0387C164.085 44.9411 163.646 45.0224 163.126 45.2013C162.622 45.364 161.516 45.5755 160.687 45.6731C159.711 45.7707 158.8 45.7707 158.052 45.6568C157.418 45.5755 156.459 45.2827 155.89 45.0224C155.337 44.7458 154.556 44.209 154.15 43.8023C153.743 43.3956 153.239 42.6798 153.012 42.208C152.784 41.7525 152.524 40.8903 152.426 40.3047C152.28 39.5401 152.28 38.9544 152.394 38.1898C152.491 37.6042 152.735 36.7582 152.947 36.319C153.158 35.8635 153.727 35.0989 154.231 34.5946C154.752 34.0578 155.548 33.4884 156.183 33.1793C156.768 32.9027 157.678 32.5448 158.215 32.3984C158.833 32.2357 160.069 32.1056 161.581 32.0731C163.37 32.0243 163.988 31.9592 163.988 31.7965C163.988 31.6989 163.841 31.3573 163.662 31.0644C163.483 30.7879 163.109 30.43 162.849 30.2999C162.589 30.1697 162.02 29.9745 161.581 29.8769C161.028 29.7467 160.557 29.763 159.841 29.8932C159.305 30.007 158.638 30.2022 158.378 30.3324C158.117 30.4788 157.581 30.8367 157.191 31.1295C156.817 31.4386 156.459 31.6826 156.378 31.6826C156.313 31.6826 155.646 31.0482 154.882 30.2673C154.117 29.4702 153.288 28.5917 152.605 27.7783L153.272 27.1601C153.646 26.8348 154.345 26.2817 154.849 25.94C155.369 25.6147 156.248 25.1429 156.833 24.9314C157.418 24.7037 158.361 24.4108 158.947 24.2807C159.532 24.1668 160.557 24.0529 161.223 24.0529ZM159.516 37.5066C159.256 37.6693 158.914 37.9946 158.784 38.2386C158.605 38.5477 158.573 38.7755 158.703 39.1008C158.784 39.3449 159.077 39.6865 159.321 39.8817C159.695 40.1583 160.004 40.2233 160.866 40.2071C161.613 40.1908 162.296 40.0444 163.044 39.7516L164.15 39.3286V36.8884C162.329 36.9209 161.386 36.986 160.898 37.0836C160.41 37.1649 159.776 37.3602 159.516 37.5066ZM183.337 24.118C184.589 24.1668 185.386 24.2807 186.346 24.5898C187.061 24.8175 188.102 25.273 188.671 25.6147C189.24 25.9563 190.102 26.6396 191.468 28.0223L187.24 32.496L186.297 31.52C185.793 30.9994 185.045 30.4137 184.638 30.2348C184.167 30.0233 183.549 29.8932 182.931 29.8932C182.183 29.8932 181.76 29.9908 181.077 30.3324C180.573 30.5927 179.874 31.1458 179.484 31.6013C179.077 32.0731 178.654 32.7563 178.508 33.2281C178.378 33.6673 178.264 34.5133 178.28 35.0989C178.297 35.831 178.41 36.4004 178.671 36.9697C178.882 37.409 179.272 38.0434 179.549 38.3525C179.825 38.6616 180.443 39.1334 180.915 39.4099C181.646 39.8166 181.971 39.898 182.85 39.898C183.565 39.8817 184.134 39.7841 184.638 39.5563C185.045 39.3611 185.581 39.0032 185.858 38.7429C186.134 38.4827 186.541 38.0109 187.224 37.1324L191.711 41.6224L190.524 42.7449C189.793 43.4607 188.931 44.0951 188.215 44.453C187.598 44.7621 186.508 45.1851 185.809 45.364C184.898 45.6243 184.085 45.7219 182.85 45.7219C181.809 45.7219 180.736 45.608 180.085 45.4454C179.5 45.299 178.41 44.876 177.646 44.5018C176.573 43.9812 175.988 43.542 175.045 42.5985C174.264 41.8013 173.597 40.9554 173.223 40.2233C172.898 39.5889 172.475 38.4989 172.28 37.7831C172.063 36.9155 171.955 35.9665 171.955 34.9362C171.955 33.9059 172.063 32.957 172.28 32.0893C172.475 31.3735 172.898 30.2673 173.223 29.6491C173.597 28.9333 174.264 28.0549 175.045 27.274C175.776 26.5419 176.687 25.8099 177.321 25.4683C177.906 25.1429 178.784 24.7525 179.272 24.6061C179.76 24.4434 180.492 24.2644 180.898 24.1831C181.305 24.118 182.394 24.0855 183.337 24.118ZM222.525 24.1017C223.81 24.1505 224.557 24.2807 225.533 24.6061C226.249 24.8338 227.192 25.2405 227.647 25.5008C228.086 25.7611 228.818 26.2491 229.273 26.607C229.712 26.9486 230.444 27.7132 230.883 28.2826C231.322 28.852 231.875 29.763 232.135 30.2999C232.379 30.8367 232.704 31.8941 232.85 32.6587C233.078 33.7161 233.11 34.4319 233.029 35.7008C232.98 36.6281 232.899 37.4415 232.85 37.5391C232.802 37.6367 230.167 37.7018 225.452 37.7018C220.688 37.7018 218.135 37.7506 218.135 37.8645C218.135 37.9458 218.476 38.3688 218.899 38.7755C219.37 39.231 220.021 39.6377 220.574 39.8492C221.289 40.1095 221.712 40.1583 222.688 40.0932C223.354 40.0444 224.265 39.8654 224.688 39.7028C225.127 39.5401 225.858 39.1334 227.159 38.1573L229.159 40.1745C230.249 41.2645 231.143 42.2406 231.143 42.3382C231.143 42.4195 230.574 42.875 229.891 43.3468C229.192 43.8023 228.216 44.3717 227.728 44.5994C227.24 44.8272 226.249 45.1688 225.533 45.3478C224.606 45.5918 223.696 45.7056 222.362 45.7056C221.094 45.7219 220.151 45.6406 219.435 45.4616C218.85 45.2989 217.761 44.876 216.996 44.5018C215.907 43.9812 215.338 43.5583 214.297 42.5171C213.257 41.476 212.834 40.9066 212.313 39.8166C211.939 39.052 211.517 37.9946 211.387 37.4578C211.256 36.9209 211.143 35.7822 211.143 34.9362C211.143 34.0903 211.256 32.919 211.403 32.3334C211.533 31.7477 211.891 30.7554 212.2 30.1372C212.509 29.5027 213.078 28.5917 213.468 28.1037C213.858 27.6156 214.655 26.851 215.224 26.4118C215.793 25.9726 216.785 25.3707 217.403 25.0778C218.021 24.785 219.061 24.4434 219.679 24.297C220.46 24.118 221.354 24.0529 222.525 24.1017ZM219.435 30.6089C219.127 30.8367 218.72 31.2271 218.525 31.4711C218.346 31.7152 218.151 32.0243 218.086 32.1219C217.988 32.2845 218.834 32.3334 222.037 32.3334C224.265 32.3334 226.102 32.2845 226.102 32.2032C226.118 32.1381 225.826 31.764 225.484 31.3573C225.127 30.9506 224.492 30.4463 224.053 30.2348C223.566 29.9908 222.883 29.8118 222.281 29.7793C221.663 29.7467 221.062 29.8118 220.655 29.9745C220.297 30.1046 219.744 30.3975 219.435 30.6089ZM224.72 48.7966C225.257 48.7966 225.923 48.8779 226.216 48.9755C226.492 49.0894 227.062 49.4148 227.468 49.6913C227.875 49.9841 228.216 50.3583 228.216 50.5047C228.216 50.6674 227.923 51.0904 226.932 52.099L226.265 51.4808C225.858 51.1066 225.387 50.8463 225.013 50.7813C224.59 50.7162 224.2 50.7813 223.744 50.9927C223.387 51.1717 222.931 51.5621 222.736 51.8712C222.525 52.1966 222.362 52.7009 222.362 53.0751C222.362 53.498 222.492 53.921 222.72 54.2789C222.931 54.588 223.354 54.9621 223.663 55.1411C223.972 55.3038 224.427 55.4339 224.671 55.4339C224.931 55.4339 225.289 55.3526 225.484 55.255C225.696 55.1574 226.102 54.8483 226.932 54.0511L228.46 55.6129L227.972 56.1009C227.696 56.3775 227.11 56.7679 226.671 56.9956C225.972 57.3535 225.696 57.4023 224.557 57.3535C223.777 57.321 223.029 57.1746 222.688 57.0119C222.379 56.8655 221.842 56.4751 221.501 56.1334C221.159 55.7918 220.769 55.255 220.622 54.9459C220.476 54.6368 220.314 53.9047 220.281 53.3191C220.232 52.5545 220.297 52.0502 220.509 51.5296C220.671 51.1229 221.062 50.521 221.37 50.1631C221.696 49.8215 222.167 49.431 222.411 49.2846C222.655 49.1545 223.062 48.9918 223.305 48.9104C223.549 48.8454 224.184 48.7966 224.72 48.7966ZM232.688 48.7803C233.387 48.764 233.891 48.8779 234.476 49.1382C234.915 49.3497 235.533 49.7726 235.842 50.0817C236.151 50.3908 236.525 50.9277 236.688 51.2856C236.883 51.7085 236.997 52.3267 236.997 53.0751C236.997 54.0023 236.915 54.3765 236.558 55.0923C236.298 55.5803 235.891 56.166 235.615 56.3775C235.338 56.6052 234.802 56.9306 234.395 57.1095C233.826 57.3535 233.403 57.4186 232.444 57.3535C231.777 57.321 230.964 57.1746 230.655 57.0282C230.346 56.8655 229.826 56.5076 229.517 56.2148C229.208 55.9057 228.801 55.3851 228.639 55.0272C228.46 54.653 228.281 53.921 228.249 53.3191C228.2 52.5545 228.265 52.0502 228.476 51.5296C228.639 51.1229 229.029 50.521 229.338 50.1631C229.663 49.8215 230.135 49.431 230.379 49.2846C230.623 49.1545 231.029 48.9918 231.273 48.9104C231.517 48.8454 232.151 48.7803 232.688 48.7803ZM230.655 51.8875C230.476 52.1803 230.33 52.7172 230.33 53.0751C230.33 53.4818 230.46 53.9373 230.688 54.2952C230.899 54.6042 231.322 54.9947 231.631 55.1411C231.94 55.3038 232.411 55.4339 232.688 55.4339C232.964 55.4339 233.419 55.2712 233.728 55.076C234.037 54.8645 234.428 54.5229 234.59 54.2952C234.785 54.0511 234.915 53.6119 234.915 53.2377C234.932 52.8798 234.802 52.343 234.655 52.0502C234.509 51.7736 234.2 51.3832 233.94 51.2042C233.696 51.0253 233.241 50.8463 232.932 50.7975C232.541 50.7325 232.151 50.8138 231.663 51.0415C231.289 51.2205 230.834 51.6109 230.655 51.8875ZM237.972 48.9267H240.249L241.176 50.6349C241.696 51.5784 242.151 52.343 242.2 52.343C242.249 52.343 242.72 51.5621 244.233 48.9267H246.428V57.2234H244.314V52.9124L243.289 54.653C242.737 55.6129 242.233 56.41 242.151 56.41C242.086 56.41 241.598 55.6291 240.086 52.9124V57.2234H237.972V48.9267ZM217.484 55.2712H219.598V57.2234H217.484V55.2712Z" fill="#CDCDCD"/>
<path d="M17.4152 51.7722C17.2689 51.4143 17.1713 50.9751 17.155 50.7961C17.155 50.5033 17.2689 50.4708 18.1307 50.4708C19.0412 50.4708 19.1063 50.5033 19.1063 50.8287C19.1063 51.0402 19.3177 51.4631 19.5941 51.7722C19.9356 52.1626 20.277 52.3741 20.6835 52.4392C21.025 52.5043 21.3827 52.6019 21.464 52.6832C21.5616 52.7483 22.0006 52.8296 22.4397 52.8622C22.895 52.911 22.1145 52.9435 20.7323 52.976C18.5046 52.9923 18.1794 52.976 17.9355 52.7158C17.7729 52.5531 17.5453 52.1301 17.4152 51.7722Z" fill="#CDCDCD"/>
<path d="M46.0498 51.2028C46.3262 50.5847 46.375 50.5521 47.1555 50.5033C47.5945 50.4708 47.9848 50.4382 48.0173 50.422C48.0498 50.4057 48.0335 50.7311 47.9848 51.154C47.936 51.5933 47.7246 52.1952 47.123 53.0737L44.6188 53.0086C42.7326 52.9598 42.3099 52.911 42.9278 52.8134C43.3668 52.7483 44.0335 52.6182 44.3912 52.5205C44.7489 52.4229 45.2042 52.2277 45.4156 52.0976C45.6107 51.9674 45.9034 51.5607 46.0498 51.2028Z" fill="#CDCDCD"/>
<path d="M17.2367 28.0224L17.1879 27.1277L17.1392 26.2329H18.131C18.8953 26.2329 19.1067 26.2817 19.1067 26.4769C19.1067 26.6071 19.3018 27.03 19.9197 28.1037L17.2367 28.0224Z" fill="#CDCDCD"/>
<path d="M45.481 28.0224L45.8876 27.1277L46.3103 26.2329H48.0502V27.0788C48.0502 27.6157 47.9689 27.9736 47.8551 28.0224C47.7412 28.0712 47.1559 28.0875 45.481 28.0224Z" fill="#CDCDCD"/>
<path d="M17.2367 42.6627L17.1879 41.8493L17.1392 41.0359H19.1229L19.0254 42.6627H17.2367Z" fill="#CDCDCD"/>
<path d="M22.3587 41.1172L23.2206 41.0684C23.9197 41.0359 24.0661 41.0847 24.1149 41.3124C24.1311 41.4751 24.3263 41.7191 24.5539 41.8493C24.8791 42.0445 25.0255 42.0608 25.2856 41.8818C25.4645 41.7842 25.6108 41.5402 25.6108 41.3612C25.6108 41.0684 25.7247 41.0359 27.5621 41.0359V41.6053C27.5621 41.9144 27.4808 42.3048 27.367 42.4675C27.1881 42.7278 26.8791 42.7603 24.8791 42.7603C23.1555 42.7603 22.5701 42.7115 22.4888 42.5488C22.4238 42.4349 22.3587 42.0608 22.3587 41.1172Z" fill="#CDCDCD"/>
<path d="M37.8061 41.1172L38.6679 41.0684C39.3671 41.0359 39.5135 41.0847 39.5623 41.3124C39.5785 41.4751 39.7736 41.7191 40.0013 41.8493C40.3265 42.0445 40.4728 42.0608 40.733 41.8818C40.9119 41.7842 41.0582 41.5402 41.0582 41.3612C41.0582 41.0684 41.172 41.0359 43.0095 41.0359V41.6053C43.0095 41.9144 42.9282 42.3048 42.8143 42.4675C42.6355 42.7278 42.3428 42.7603 40.3265 42.7603C38.6517 42.7603 38.0175 42.6952 37.9362 42.5488C37.8712 42.4349 37.8061 42.0608 37.8061 41.1172Z" fill="#CDCDCD"/>
<path d="M46.2615 41.1172L47.1233 41.0684L47.9689 41.0359L48.0177 41.6866C48.0502 42.0445 48.0177 42.4349 47.9689 42.5325C47.9201 42.6627 47.5786 42.744 46.2615 42.744V41.1172Z" fill="#CDCDCD"/>
<path d="M25.6097 28.0538C25.2032 28.0863 24.5853 28.0863 24.2275 28.0538C23.8698 28.0213 24.195 27.9888 24.9593 27.9888C25.7235 27.9888 26.0162 28.0213 25.6097 28.0538Z" fill="#CDCDCD"/>
<path d="M41.1384 28.0538C40.7806 28.0863 40.1302 28.0863 39.6749 28.0538C39.2196 28.0213 39.5286 28.005 40.3253 28.005C41.1221 28.005 41.4961 28.0213 41.1384 28.0538Z" fill="#CDCDCD"/>
</svg>
