<svg width="139" height="65" viewBox="0 0 139 65" fill="none" xmlns="http://www.w3.org/2000/svg">
<path d="M75.2592 1.29049C76.6523 1.03542 78.5163 0.741101 79.3796 0.642995C80.243 0.54489 82.0481 0.466406 83.402 0.466406C84.7558 0.446785 86.4629 0.525269 87.2281 0.623374C87.9933 0.741101 89.2687 0.996175 90.0731 1.19239C90.8776 1.40822 91.9764 1.72216 92.5258 1.89875C93.0555 2.07534 94.5664 2.74245 95.8614 3.37033C97.1563 3.9982 99.295 5.25395 100.61 6.15652C101.924 7.05909 103.906 8.55029 105.024 9.47249C106.123 10.4143 107.379 11.4738 107.791 11.827C108.34 12.2979 108.537 12.6119 108.478 12.9454C108.419 13.3378 108.301 13.279 106.947 12.1606C106.143 11.4935 104.416 10.1592 103.121 9.19779C101.826 8.23636 99.7856 6.8825 98.6083 6.17614C97.431 5.46978 95.7044 4.54759 94.7822 4.15517C93.86 3.74313 92.408 3.19374 91.5447 2.91904C90.6814 2.64435 89.0921 2.27155 88.0129 2.07534C86.4432 1.82026 85.3445 1.7614 82.519 1.8595C80.3411 1.91837 78.0454 2.1342 76.5346 2.38927C75.1807 2.6051 73.2382 3.01715 72.2179 3.27222C71.1976 3.5273 69.471 4.05706 68.3918 4.42987C67.3127 4.80267 63.8594 6.15652 60.7396 7.45151C57.6199 8.7465 47.4954 12.9454 38.2735 16.8108C29.0516 20.6565 21.3601 23.8351 21.2031 23.8744C21.0462 23.9136 20.8696 23.9529 20.8107 23.9725C20.7518 23.9921 20.6537 24.0117 20.5556 23.9921C20.4771 23.9921 20.4183 24.051 20.4183 24.1687C20.4183 24.2864 20.2613 24.4041 20.0651 24.4434C19.8885 24.4826 19.5746 24.5611 19.3784 24.6396C19.2018 24.6985 19.0448 24.6788 19.0448 24.5611C19.0448 24.4434 20.0847 23.9136 21.3405 23.3642C22.6158 22.8148 30.2681 19.4792 38.3716 15.9278C46.4555 12.396 55.2065 8.58954 57.7964 7.49076C60.3864 6.39197 63.6631 5.0185 65.0562 4.44949C66.4493 3.88048 68.7646 3.05639 70.1577 2.6051C71.5508 2.15382 73.8661 1.56519 75.2592 1.29049Z" fill="#CDCDCD"/>
<path d="M77.0251 10.4535C77.9865 10.3358 79.0068 10.1985 79.2815 10.1592C79.5562 10.12 81.3614 10.0807 83.3039 10.0611C85.6388 10.0611 87.542 10.1592 88.8959 10.3554C90.0339 10.532 91.9764 10.9637 93.2125 11.3169C94.4486 11.67 96.3519 12.3372 97.431 12.7884C98.5102 13.2201 100.492 14.1619 101.846 14.8683C103.2 15.5746 105.26 16.7519 106.417 17.4583C108.105 18.5178 108.537 18.871 108.517 19.6558L107.869 19.283C107.536 19.0868 106.633 18.5571 105.868 18.1254C105.103 17.6937 103.298 16.7519 101.846 16.0063C100.394 15.2803 98.2159 14.3189 97.0386 13.848C95.8614 13.3967 94.0366 12.7884 93.0163 12.5138C91.996 12.2391 90.3086 11.8859 89.2883 11.7093C88.0914 11.5327 86.1097 11.415 83.7944 11.415C81.793 11.415 79.3208 11.5131 78.3005 11.6112C77.2802 11.7289 75.3769 11.984 74.0819 12.1998C72.787 12.4353 70.3539 12.9062 68.6861 13.279C67.0184 13.6518 63.3492 14.6132 60.5434 15.4177C57.7376 16.2418 52.5772 17.733 49.0651 18.7533C45.5529 19.7539 38.7444 21.7553 33.9176 23.168C29.0712 24.5807 25.0881 25.7384 25.0292 25.7384C24.9704 25.7384 24.9311 25.601 24.9311 25.4441C24.9311 25.2871 25.0096 25.1497 25.1273 25.1497C25.2451 25.1497 25.3628 25.2675 25.402 25.4048C25.4544 25.5618 25.4871 25.5422 25.5001 25.3459C25.5198 25.1301 27.7958 24.3453 33.7214 22.5009L34.039 22.4024C38.4506 21.0346 43.316 19.5261 44.9446 19.028C46.6124 18.4982 50.3208 17.3602 53.1855 16.4968C56.0502 15.6139 59.6997 14.5151 61.3282 14.0442C62.9372 13.5537 65.5075 12.8473 67.0184 12.4745C68.5292 12.0821 71.0014 11.5327 72.5123 11.2188C74.0231 10.9244 76.0637 10.5713 77.0251 10.4535Z" fill="#CDCDCD"/>
<path d="M78.0062 19.9698C79.6151 19.7932 81.381 19.6166 81.9304 19.597C82.4602 19.5577 83.3039 19.5185 83.7944 19.4989C84.2849 19.4792 86.1293 19.5577 87.9148 19.6558C89.7003 19.7539 92.2118 20.0286 93.5068 20.2445C94.8018 20.4603 97.0582 20.9508 98.5102 21.3236C99.9622 21.6964 102.807 22.5598 104.848 23.2465C107.771 24.2079 108.517 24.5415 108.517 24.8162C108.517 24.9928 108.399 25.1497 108.262 25.1497C108.144 25.1497 106.869 24.7966 105.476 24.3649C104.083 23.9529 101.551 23.2465 99.8837 22.8148C98.2159 22.3832 95.7829 21.8534 94.4879 21.6376C93.1929 21.4021 90.9757 21.147 89.5826 21.0293C88.1895 20.9312 86.1489 20.8331 85.0698 20.8331C83.9906 20.8331 82.0481 20.9312 80.7531 21.0293C79.4581 21.147 76.77 21.4217 74.7687 21.6376C72.7673 21.8534 68.5684 22.3832 65.4487 22.8148C62.3289 23.2465 58.9541 23.737 57.9927 23.894C57.0312 24.051 53.0089 24.6592 49.0651 25.2675C45.1212 25.8561 37.5671 27.053 32.289 27.9163C27.011 28.7796 22.557 29.4271 22.4392 29.3683C22.3019 29.3094 22.1842 29.3486 22.1842 29.4664C22.1842 29.5841 22.0468 29.6626 21.8899 29.6626C21.7329 29.6626 21.6348 29.5449 21.6936 29.4271C21.7525 29.2898 22.6158 29.0151 23.6165 28.8385C24.5976 28.6619 27.6192 28.1125 30.3269 27.6024C33.015 27.1118 37.4298 26.327 40.1375 25.8365C42.8256 25.3656 48.2214 24.4238 52.1063 23.7763C55.9913 23.1288 62.741 22.0692 67.1165 21.4414C71.492 20.7939 76.3776 20.1267 78.0062 19.9698Z" fill="#CDCDCD"/>
<path d="M110.675 23.0699C110.499 22.9129 110.44 22.6971 110.518 22.5009C110.597 22.3439 110.715 22.2066 110.773 22.2066C110.832 22.2066 112.48 23.011 114.462 23.9921C116.424 24.9731 118.072 25.8169 118.131 25.8561C118.19 25.8953 118.19 25.9738 118.131 26.0327C118.072 26.0915 116.444 25.5029 114.501 24.7377C112.559 23.9528 110.832 23.2072 110.675 23.0699Z" fill="#CDCDCD"/>
<path d="M21.2031 26.6213C21.2031 26.5036 21.9291 26.1897 22.812 25.915C23.7146 25.6206 24.4995 25.3852 24.5779 25.3656C24.6761 25.3656 24.7349 25.4637 24.7349 25.601C24.7349 25.7384 24.0089 26.0327 22.969 26.327C21.988 26.6017 21.2031 26.739 21.2031 26.6213Z" fill="#CDCDCD"/>
<path d="M19.241 27.2884C19.3587 27.1315 19.7315 26.9156 20.0847 26.7783C20.4379 26.6606 20.7322 26.5428 20.7518 26.5428C20.7911 26.5232 20.8107 26.6606 20.8107 26.8175C20.8107 26.9745 20.5752 27.1511 20.2613 27.21C19.967 27.2688 19.5746 27.3865 19.3784 27.4454C19.084 27.5631 19.0448 27.5239 19.241 27.2884Z" fill="#CDCDCD"/>
<path d="M110.616 28.3872C110.538 28.3284 110.479 28.1125 110.479 27.8967C110.479 27.6809 110.538 27.5043 110.616 27.5043C110.715 27.5043 112.402 27.9163 114.403 28.4068C116.405 28.917 118.072 29.3683 118.131 29.4075C118.19 29.4468 118.19 29.5056 118.131 29.5645C118.072 29.6233 116.405 29.3879 114.403 29.0543C112.402 28.7404 110.715 28.4265 110.616 28.3872Z" fill="#CDCDCD"/>
<path d="M65.1544 29.7607C71.0407 29.486 76.515 29.2505 77.3194 29.2113C78.1239 29.1721 80.6943 29.1328 83.0095 29.1132C85.3248 29.0936 89.2098 29.1721 91.6428 29.2702C94.0758 29.3879 98.7653 29.7018 102.081 29.9569C105.417 30.2316 108.223 30.4474 108.321 30.4474C108.419 30.4474 108.517 30.624 108.517 30.8399C108.517 31.1342 108.38 31.2323 107.968 31.2323C107.677 31.2323 104.967 31.0798 101.884 30.9064L101.748 30.8987C97.4899 30.6436 93.0752 30.5652 84.1868 30.5652C76.515 30.5848 69.5102 30.7025 64.3695 30.8987C59.994 31.0949 51.7924 31.4089 46.1219 31.6247C40.4514 31.8405 33.0739 32.1152 29.6991 32.2526C25.0096 32.4488 23.5184 32.4488 23.3222 32.2722C23.126 32.0956 23.4399 32.0171 24.7349 31.9386C25.6571 31.8601 32.7207 31.4677 40.4318 31.0361C48.1429 30.6044 59.268 30.0354 65.1544 29.7607Z" fill="#CDCDCD"/>
<path d="M19.1429 29.898C19.0252 29.8392 19.1625 29.7214 19.4372 29.643C19.7119 29.5645 20.124 29.5056 20.3594 29.486C20.6145 29.4664 20.8107 29.5252 20.8107 29.6233C20.8107 29.7018 20.4771 29.8196 20.0847 29.898C19.6727 29.9765 19.241 29.9765 19.1429 29.898Z" fill="#CDCDCD"/>
<path d="M20.3202 32.6058C19.8296 32.6058 19.3784 32.5273 19.3195 32.4095C19.241 32.2918 19.5549 32.2133 20.1043 32.2133C20.5949 32.2133 21.0462 32.2918 21.105 32.4095C21.1639 32.5273 20.8499 32.6058 20.3202 32.6058Z" fill="#CDCDCD"/>
<path d="M110.44 33.4691C110.42 33.2532 110.499 32.9982 110.597 32.9197C110.695 32.8216 111.303 32.8216 111.951 32.8804C112.598 32.9393 113.991 32.9982 115.031 32.9982C116.091 32.9982 116.954 33.057 116.954 33.1551C116.954 33.2336 116.365 33.3514 115.639 33.4298C114.894 33.5083 113.442 33.6457 112.382 33.7242C110.538 33.8811 110.479 33.8615 110.44 33.4691Z" fill="#CDCDCD"/>
<path d="M19.8296 35.1565C19.8296 35.0388 19.6727 34.921 19.4765 34.8818C19.2999 34.8426 19.3784 34.8033 19.6727 34.7837C19.9866 34.7837 20.2221 34.8229 20.2221 34.921C20.2221 34.9995 20.5752 35.0388 21.0069 35.0191C21.4386 34.9799 21.7918 35.0388 21.7918 35.1565C21.7918 35.2742 21.3405 35.3527 20.8107 35.3527C20.2613 35.3527 19.8296 35.2742 19.8296 35.1565Z" fill="#CDCDCD"/>
<path d="M23.4595 35.5489C23.0867 35.5489 22.7728 35.4704 22.7728 35.3527C22.7728 35.235 23.0867 35.1565 23.4595 35.1565C23.8323 35.1565 24.1463 35.235 24.1463 35.3527C24.1463 35.4704 23.8323 35.5489 23.4595 35.5489Z" fill="#CDCDCD"/>
<path d="M25.3628 35.647C25.3432 35.5882 25.3628 35.4704 25.402 35.3919C25.4217 35.2938 25.716 35.2546 26.0299 35.2938C26.3438 35.3331 33.4859 35.804 41.9034 36.3338C50.3208 36.8635 60.1706 37.4914 63.7809 37.7072C67.3912 37.9034 72.2964 38.1781 74.6706 38.2762C77.0447 38.394 80.3018 38.5313 81.9304 38.5902C83.5393 38.6687 86.6394 38.6294 88.7978 38.4921C90.9561 38.3744 94.3898 38.0997 96.45 37.8838C98.4906 37.668 101.846 37.2756 103.906 37.0205C105.947 36.7458 107.83 36.53 108.066 36.53C108.38 36.53 108.497 36.6281 108.458 36.8831C108.419 37.1578 108.007 37.2756 106.359 37.5503C105.221 37.7465 102.886 38.1193 101.159 38.394C99.4324 38.649 96.4304 39.0807 94.4879 39.3162C91.4074 39.689 90.0339 39.7478 83.5982 39.7478C77.2606 39.7478 75.0238 39.6693 67.4108 39.12C62.5447 38.7668 54.6963 38.1781 49.948 37.8053C45.1997 37.4129 37.7437 36.8047 33.3682 36.4319C28.9927 36.0591 25.402 35.7059 25.3628 35.647Z" fill="#CDCDCD"/>
<path d="M2.42574 55.2092C2.77892 54.9738 3.44604 54.6402 3.93656 54.4833C4.44671 54.3067 5.2708 54.2282 5.89867 54.2674C6.48731 54.3067 7.37025 54.5029 7.86078 54.7187C8.35131 54.9345 8.99881 55.3662 9.33236 55.6802C9.6463 56.0137 10.0976 56.622 10.3134 57.034C10.5881 57.603 10.7058 58.2113 10.7058 59.2904C10.7058 60.4088 10.6077 60.9386 10.2742 61.5469C10.0387 61.9785 9.60706 62.5672 9.29312 62.8615C8.99881 63.1558 8.35131 63.5678 7.86078 63.7837C7.25253 64.0584 6.56579 64.1957 5.60436 64.1957C4.56444 64.1957 3.99543 64.078 3.24983 63.7248C2.70044 63.4697 2.03332 63.0184 1.739 62.7045C1.44469 62.3906 1.07189 61.8216 0.914917 61.4487C0.757949 61.076 0.581359 60.3303 0.502874 59.781C0.42439 59.1138 0.483253 58.486 0.679464 57.8189C0.856054 57.2891 1.16999 56.5631 1.40544 56.2492C1.62128 55.9352 2.09218 55.4643 2.42574 55.2092Z" fill="#CDCDCD"/>
<path d="M101.846 55.1896C102.336 54.9149 103.121 54.5814 103.612 54.444C104.102 54.3067 104.985 54.2282 105.574 54.2871C106.162 54.3459 107.026 54.5617 107.477 54.7776C108.085 55.0523 108.478 55.4447 108.851 56.1118C109.282 56.8378 109.38 57.2695 109.38 58.2113C109.361 59.0354 109.223 59.7221 108.87 60.4677C108.595 61.0563 107.987 61.9197 107.516 62.3906C107.045 62.8418 106.261 63.4109 105.77 63.6463C105.201 63.921 104.377 64.0976 103.415 64.1565C102.258 64.2349 101.748 64.1565 101.061 63.8621C100.551 63.6463 99.9229 63.1558 99.5894 62.7241C99.04 62.0178 99.0007 61.8608 99.0007 60.2911C99.0007 58.9569 99.0988 58.4467 99.4128 57.8189C99.6482 57.3872 100.08 56.7397 100.394 56.3669C100.708 56.0137 101.355 55.4839 101.846 55.1896Z" fill="#CDCDCD"/>
<path d="M11.785 56.308C11.785 55.9548 11.8439 55.3662 11.9027 55.0327C12.0205 54.4048 12.0401 54.3852 13.08 54.3852C13.6686 54.3852 14.1395 54.444 14.1395 54.5421C14.1395 54.6206 14.0414 55.1896 13.649 56.9359H12.7072C11.8046 56.9359 11.785 56.9359 11.785 56.308Z" fill="#CDCDCD"/>
<path d="M15.7092 63.9995L15.7288 59.1727L15.7485 54.3459L18.9075 54.4244C21.4582 54.4636 22.2038 54.5617 22.7139 54.8364C23.0671 55.013 23.4988 55.4447 23.6558 55.7586C23.8127 56.0726 23.9501 56.6612 23.9501 57.034C23.9501 57.5442 23.7735 57.917 22.6747 59.1138L23.1064 59.4082C23.3614 59.5455 23.695 59.9576 23.852 60.2715C24.0089 60.5854 24.1463 61.1544 24.1463 61.5076C24.1463 61.8412 24.0286 62.3513 23.8912 62.626C23.7735 62.8811 23.3418 63.3128 22.969 63.5482C22.3215 63.9799 22.1057 64.0191 15.7092 63.9995Z" fill="#CDCDCD"/>
<path d="M25.8729 59.3297C25.8533 56.6808 25.9318 54.5814 26.0299 54.5029C26.128 54.4244 27.4819 54.3852 29.0516 54.4244C31.4649 54.4833 31.9947 54.5421 32.5637 54.8757C32.9365 55.0915 33.4074 55.5232 33.6429 55.8371C33.898 56.1903 34.0746 56.7593 34.1138 57.4068C34.153 58.0935 34.0549 58.6233 33.8195 59.0942C33.6233 59.467 33.1327 59.9576 31.9947 60.5658L32.6422 61.5469C32.9954 62.0962 33.4663 62.8615 34.153 63.9995H31.5042L30.6212 62.4298C29.8168 61.0171 29.6794 60.8601 29.0908 60.8209C28.718 60.7816 28.3844 60.8013 28.3452 60.8601C28.2863 60.919 28.2471 61.645 28.2667 63.9995H25.9122L25.8729 59.3297Z" fill="#CDCDCD"/>
<path d="M35.9189 63.9995V59.1923V54.3852H38.2735V63.9995H35.9189Z" fill="#CDCDCD"/>
<path d="M40.4318 63.9995V59.1923V54.3852L47.5935 54.4833V56.4454L42.7863 56.5435V58.1132H47.4954V60.2715H42.7863V62.0374H47.6916V63.9995H40.4318Z" fill="#CDCDCD"/>
<path d="M49.6537 63.9995V59.1923V54.3852H52.1063L54.0684 57.0144C55.1476 58.486 56.1483 59.6632 56.2856 59.6829C56.4622 59.6829 56.5211 59.0157 56.5211 54.3852L58.7775 54.4833L58.8756 63.9995H56.3249L52.1063 58.2505L52.0082 63.9995H49.6537Z" fill="#CDCDCD"/>
<path d="M65.6645 58.9961C66.155 56.622 66.6063 54.6206 66.6456 54.5225C66.7044 54.444 67.2342 54.3852 67.8228 54.3852C68.4115 54.3852 68.8824 54.4636 68.8824 54.5814C68.8824 54.6795 68.4507 56.8378 67.9013 59.3297C67.3519 61.8412 66.9202 63.921 66.9202 63.9406C66.9202 63.9799 66.3905 63.9995 65.743 63.9995C64.7227 63.9995 64.5853 63.9602 64.6638 63.6463C64.7031 63.4697 65.1544 61.3703 65.6645 58.9961Z" fill="#CDCDCD"/>
<path d="M72.5123 55.1111C72.9439 54.8953 73.5129 54.6402 73.7876 54.5617C74.0623 54.4833 74.8079 54.4048 75.4554 54.4048C76.201 54.4048 76.927 54.5225 77.4175 54.758C77.8492 54.9542 78.379 55.3074 78.9872 55.9745L77.3587 57.6226L76.7112 57.0929C76.3384 56.7985 75.8282 56.5042 75.5535 56.4454C75.2788 56.3669 74.7491 56.4061 74.3763 56.5042C74.0035 56.622 73.4541 56.8967 73.1598 57.1321C72.8458 57.3479 72.4338 57.8777 72.2179 58.3094C72.0021 58.741 71.8255 59.4082 71.8255 59.781C71.8255 60.1538 71.9433 60.7032 72.0806 60.9778C72.1983 61.2722 72.5515 61.6253 72.8654 61.7627C73.1598 61.9197 73.6307 62.0374 73.9446 62.0374C74.2389 62.0374 74.9257 61.8216 75.4554 61.5469C76.0048 61.2722 76.4953 61.0563 76.5934 61.0563C76.6719 61.0563 76.927 61.3703 77.1821 61.7627C77.6137 62.4887 77.6137 62.4887 77.2213 62.7634C77.0055 62.9399 76.3384 63.2931 75.7497 63.5678C74.906 63.9799 74.3763 64.0976 73.2971 64.0976C72.1591 64.0976 71.7667 63.9995 71.0014 63.5482C70.3343 63.1754 69.9419 62.783 69.6672 62.1747C69.4514 61.7038 69.2748 60.919 69.2748 60.3696C69.2748 59.8202 69.3925 58.9961 69.5691 58.5056C69.7261 58.0151 70.2755 57.1517 70.7856 56.5631C71.3154 55.9745 72.0806 55.327 72.5123 55.1111Z" fill="#CDCDCD"/>
<path d="M79.3796 59.3689C79.8702 57.1125 80.3018 55.0719 80.3607 54.8168C80.4588 54.3852 80.498 54.3852 83.9905 54.3852H83.9906C85.9331 54.3852 87.5616 54.444 87.6009 54.5225C87.6401 54.6206 87.5616 55.0719 87.2281 56.4454L84.7362 56.4846C82.4994 56.5435 82.2247 56.5827 82.2247 56.877C82.2247 57.0732 82.1855 57.4264 82.1266 57.6619C82.0285 58.1132 82.0481 58.1132 84.383 58.1132C86.5021 58.1132 86.7375 58.1524 86.7375 58.4467C86.7375 58.6429 86.6591 59.1335 86.3451 60.2715H83.8925C82.0677 60.2715 81.4398 60.3303 81.4398 60.5069C81.4398 60.6443 81.381 61.0563 81.1455 62.0374H83.5589C85.3445 62.0374 85.9527 62.0962 85.9527 62.2728C85.9527 62.4102 85.8938 62.8615 85.6584 63.9995H82.0873C79.1834 63.9995 78.4967 63.9406 78.4967 63.7248C78.4967 63.5875 78.8891 61.6253 79.3796 59.3689Z" fill="#CDCDCD"/>
<path d="M88.4642 60.3303C88.8174 58.5252 89.249 56.4454 89.406 55.6998L89.7003 54.3852H90.8776C91.5251 54.3852 92.0352 54.4636 92.0352 54.5814C92.0352 54.6795 91.8979 55.4251 91.7409 56.1903C91.5643 56.9751 91.3877 57.7796 91.3485 57.9562C91.27 58.2701 91.427 58.3094 95.2727 58.2113L96.0576 54.3655L97.2937 54.3852C98.1766 54.3852 98.4906 54.444 98.4317 54.6206C98.3925 54.758 97.9412 56.9359 96.45 63.9995H95.2335C94.0562 63.9995 93.9973 63.9799 94.0955 63.5482C94.1543 63.3128 94.3113 62.5083 94.4486 61.7823C94.5664 61.0563 94.6448 60.4088 94.586 60.35C94.5271 60.3107 93.6638 60.2519 90.858 60.2715L90.544 61.7823C90.3871 62.626 90.2105 63.4697 90.1516 63.6463C90.0928 63.9406 89.8573 63.9995 88.8959 63.9995C88.2484 63.9995 87.7382 63.921 87.7775 63.8229C87.7971 63.7248 88.111 62.1551 88.4642 60.3303Z" fill="#CDCDCD"/>
<path d="M110.97 57.8581C111.342 56.0529 111.656 54.5225 111.656 54.4636C111.656 54.4244 112.186 54.3655 112.834 54.3655C113.481 54.3655 114.011 54.4244 114.011 54.4636C114.011 54.5225 113.756 55.7586 113.422 57.2106C113.108 58.6822 112.834 60.2126 112.834 60.6443C112.834 61.2722 112.951 61.5076 113.383 61.8412C113.697 62.057 114.207 62.2336 114.599 62.2336C114.992 62.2336 115.581 62.0374 115.934 61.8216C116.287 61.6057 116.699 61.2329 116.856 60.9975C117.013 60.762 117.425 59.1923 118.426 54.4636L119.564 54.4244C120.211 54.3852 120.682 54.4636 120.682 54.5617C120.682 54.6795 120.407 56.1118 120.074 57.76C119.74 59.4082 119.25 61.1741 118.995 61.6842C118.74 62.1943 118.249 62.8222 117.896 63.0969C117.543 63.352 116.856 63.7052 116.365 63.8818C115.894 64.0584 114.894 64.1957 114.168 64.1957C113.344 64.1761 112.52 64.0584 112.029 63.8425C111.578 63.6463 111.048 63.2735 110.871 62.9988C110.675 62.7437 110.459 62.214 110.401 61.8216C110.302 61.3703 110.499 60.0753 110.97 57.8581Z" fill="#CDCDCD"/>
<path d="M122.546 55.7586C122.88 55.4055 123.488 54.9345 123.92 54.7383C124.43 54.5029 125.195 54.3852 126.078 54.3852C126.843 54.3655 127.863 54.5029 128.334 54.6599C128.825 54.8168 129.335 55.0523 129.453 55.1896C129.629 55.4055 129.531 55.6605 128.334 57.3087L127.412 56.8182C126.843 56.5239 126.156 56.3276 125.685 56.3276C125.254 56.3276 124.783 56.4454 124.645 56.5827C124.508 56.7201 124.41 56.9751 124.41 57.1713C124.41 57.3676 124.665 57.6423 124.959 57.7796C125.254 57.9366 125.94 58.1916 126.47 58.3486C127.098 58.5448 127.667 58.9176 128.02 59.3101C128.491 59.8594 128.57 60.0949 128.511 60.8601C128.452 61.4684 128.256 61.9981 127.844 62.5083C127.53 62.94 126.863 63.4697 126.372 63.6856C125.725 63.9799 125.116 64.078 124.018 64.0584C122.958 64.0584 122.311 63.9406 121.663 63.6267C121.192 63.4109 120.604 63.0773 120.388 62.9203C120.015 62.626 120.015 62.6064 120.584 61.8216C120.917 61.3703 121.251 60.9582 121.33 60.919C121.408 60.8797 121.722 61.0367 122.016 61.2525C122.311 61.4684 123.017 61.7823 123.586 61.9393C124.43 62.1747 124.704 62.1747 125.136 61.9785C125.411 61.8412 125.744 61.5861 125.862 61.4095C126.039 61.1544 126.019 60.9975 125.784 60.762C125.627 60.5658 125.018 60.2911 124.41 60.1341C123.821 59.9575 123.076 59.6632 122.742 59.467C122.428 59.2904 122.036 58.8784 121.899 58.5644C121.742 58.1916 121.702 57.7404 121.8 57.2106C121.879 56.7789 122.212 56.1314 122.546 55.7586Z" fill="#CDCDCD"/>
<path d="M129.884 60.8209C130.218 59.2708 130.689 57.191 130.905 56.1903L131.317 54.3655H134.829C136.771 54.3655 138.38 54.444 138.439 54.5225C138.478 54.601 138.419 55.0719 138.027 56.4258L135.535 56.4846C133.318 56.5239 133.043 56.5631 133.043 56.877C133.043 57.0732 133.004 57.4264 132.945 57.6619C132.847 58.0935 132.867 58.0935 137.556 58.0935L137.458 58.8391C137.399 59.2512 137.301 59.7221 137.262 59.9183C137.183 60.2126 136.889 60.2519 134.711 60.2519C132.886 60.2519 132.258 60.3303 132.258 60.5069C132.258 60.6443 132.2 61.0367 131.964 62.0374H134.476C136.752 62.0178 136.968 62.057 136.889 62.3709C136.85 62.5672 136.752 62.9988 136.575 63.9799H132.945C130.963 63.9799 129.315 63.921 129.296 63.8229C129.276 63.7248 129.551 62.3906 129.884 60.8209Z" fill="#CDCDCD"/>
</svg>
