<svg width="93" height="93" viewBox="0 0 93 93" fill="none" xmlns="http://www.w3.org/2000/svg">
<path d="M46.8325 0.158203L50.2925 28.0182C51.2525 35.7082 57.3125 41.7682 65.0025 42.7282L92.8625 46.1882L65.0025 49.6482C57.3125 50.6082 51.2525 56.6682 50.2925 64.3582L46.8325 92.2182L43.3725 64.3582C42.4125 56.6682 36.3525 50.6082 28.6625 49.6482L0.80249 46.1882L28.6625 42.7282C36.3525 41.7682 42.4125 35.7082 43.3725 28.0182L46.8325 0.158203Z" fill="black"/>
<path d="M70.0825 22.9482L64.0725 30.6582C56.9625 39.7882 56.9625 52.5882 64.0725 61.7282L70.0825 69.4382L62.3725 63.4282C53.2425 56.3182 40.4425 56.3182 31.3025 63.4282L23.5925 69.4382L29.6025 61.7282C36.7125 52.5982 36.7125 39.7982 29.6025 30.6582L23.5925 22.9482L31.3025 28.9582C40.4325 36.0682 53.2325 36.0682 62.3725 28.9582L70.0825 22.9482Z" fill="black"/>
</svg>
