<svg width="159" height="272" viewBox="0 0 159 272" fill="none" xmlns="http://www.w3.org/2000/svg">
<path d="M139.047 165.882C138.98 166.061 138.868 166.218 138.756 166.397V166.442C137.86 167.718 136.763 168.905 135.464 169.935C132.866 171.996 129.484 173.586 125.319 174.482C122.676 175.041 119.72 175.377 116.495 175.422C96.0477 175.624 70.0687 164.314 51.8386 148.435C47.4043 144.583 43.4626 140.463 40.148 136.163C39.9465 135.894 39.745 135.648 39.521 135.356C37.7294 132.982 36.2064 130.653 34.9746 128.391L35.6913 128.055C36.296 127.787 36.9678 127.54 37.6397 127.249C37.8189 127.204 37.998 127.115 38.1548 127.025C40.6631 126.04 42.6564 123.733 44.0001 120.172C44.2913 119.388 44.5376 118.537 44.7839 117.641C44.8063 117.597 44.8064 117.529 44.8288 117.485C45.0079 116.656 45.1871 115.805 45.3438 114.864C45.5454 113.498 45.7022 112.042 45.8142 110.475C46.0157 106.824 45.859 102.793 45.3662 98.5379C44.8512 93.7452 43.9105 88.6838 42.6339 83.4432C41.8501 80.2854 40.9543 77.0605 39.9465 73.8131C35.7585 60.5325 29.6221 47.0054 22.4555 35.8076C20.9102 33.4112 19.2977 31.1045 17.6628 28.9321C17.2597 28.3722 16.8342 27.8123 16.4311 27.2972C13.4525 23.5124 10.5633 20.4665 7.80866 18.1149C3.82224 14.7332 0.149399 12.8073 -3.05318 12.3594C-4.15057 12.225 -5.15834 12.2473 -6.09896 12.4265H-6.16621C-7.01725 12.7624 -7.84588 13.0984 -8.67452 13.4119C-8.54014 13.3447 -8.40578 13.2552 -8.27141 13.188C-8.15943 13.1432 -8.0474 13.076 -7.93542 13.0312L-8.27141 13.1656C-9.79432 13.7927 -11.2948 14.3974 -12.7281 15.0245L-13.5792 15.3827C-13.5792 15.3827 -13.6016 15.3827 -13.6016 15.4051H-13.6687C-16.513 16.6817 -20.2307 18.5181 -23.1198 19.8619C-22.6718 19.6603 -22.1791 19.526 -21.664 19.5036C-20.8577 19.4364 -19.9619 19.5483 -18.9765 19.8619C-16.2666 20.7129 -12.8849 23.0645 -9.10004 26.8941C-6.41256 29.5592 -3.50111 32.9409 -0.410509 37.0393C-0.231342 37.2633 -0.0746174 37.532 0.104548 37.756C2.07537 40.3987 4.00148 43.1981 5.92751 46.1095C12.1535 55.7397 18.0436 66.736 22.8586 77.5755C24.3367 80.9349 25.7252 84.2942 27.0018 87.6088C29.1741 93.2525 30.9882 98.6947 32.332 103.756C33.4517 107.966 34.2803 111.908 34.6835 115.447C34.8626 116.925 34.9747 118.268 35.0195 119.545C35.0643 121.337 34.997 122.904 34.7954 124.248C34.3475 127.249 33.2726 129.13 31.6377 129.937C31.6377 129.959 31.6152 129.959 31.5929 129.959C31.5257 130.004 31.4361 130.071 31.369 130.093C32.8695 132.938 34.7954 135.961 37.1694 139.096C37.4605 139.5 37.7741 139.88 38.0428 140.239C55.1531 162.186 87.0894 182.253 110.157 185.411C112.508 185.747 114.681 185.881 116.674 185.814C120.235 185.747 123.191 185.097 125.543 183.933C127.021 183.216 128.253 182.275 129.238 181.156C129.44 180.932 129.641 180.663 129.843 180.394C129.865 180.372 129.888 180.327 129.91 180.282L130.716 179.117C130.716 179.117 130.761 179.073 130.783 179.05C130.918 178.894 131.007 178.692 131.119 178.535C131.142 178.513 131.164 178.513 131.164 178.49C131.836 177.527 132.553 176.452 133.292 175.355C134.143 174.034 135.016 172.645 135.845 171.234L136.561 170.114C136.673 169.913 136.785 169.734 136.897 169.555C137.032 169.353 137.121 169.174 137.256 168.995L138.196 167.337C138.487 166.867 138.734 166.397 139.003 165.971C139.294 165.501 139.54 165.031 139.809 164.583C139.876 164.448 139.943 164.292 140.01 164.18C139.943 164.292 139.876 164.359 139.831 164.471C139.742 164.65 139.63 164.807 139.54 164.986L140.167 163.888C140.167 163.888 140.167 163.866 140.167 163.844C139.921 164.291 139.674 164.717 139.428 165.165C139.316 165.389 139.182 165.59 139.07 165.792L139.047 165.882Z" fill="#C3F00F"/>
<path d="M114.075 200.013C113.202 200.729 112.015 201.177 110.514 201.312C108.7 201.468 106.483 201.177 103.796 200.438C102.452 200.057 100.974 199.565 99.4063 198.938C90.784 195.511 80.2803 188.927 69.7767 180.73C63.6403 175.937 57.4815 170.607 51.7483 165.031C44.7608 158.267 38.3108 151.168 33.115 144.225C30.4052 140.597 28.1657 137.26 26.4636 134.237C26.262 133.901 26.0828 133.542 25.8589 133.206C25.8589 133.184 25.8364 133.184 25.8364 133.162C25.1422 133.609 24.4032 134.035 23.7985 134.393L23.6641 134.46C23.261 134.729 22.813 135.02 22.3203 135.311C22.2531 135.356 22.1636 135.423 22.0964 135.446C22.4323 135.244 22.6115 134.752 22.6115 134.012C22.6115 133.341 22.4548 132.467 22.1637 131.37C21.8725 130.34 21.4693 129.063 20.9318 127.607C20.5287 126.577 20.0585 125.39 19.4986 124.114C18.0652 120.844 16.2735 117.104 14.1236 113.005C11.2345 107.407 7.74079 101.203 3.91113 94.7305C-3.1435 82.8384 -11.4075 70.0729 -19.358 58.9199C-21.3064 56.21 -23.21 53.5897 -25.0689 51.0814C-27.0845 48.3939 -28.9658 45.9751 -30.7126 43.8699C-34.8334 38.8309 -38.1031 35.3148 -40.4323 33.3663C-41.2609 32.6945 -41.9776 32.2019 -42.5823 31.9331C-43.0974 31.6644 -43.5229 31.5972 -43.814 31.6644H-43.8589C-43.9932 31.7316 -44.1276 31.8211 -44.2171 31.8883C-44.1947 31.8659 -44.1724 31.8436 -44.15 31.8212C-44.3292 31.9555 -44.5083 32.0451 -44.6875 32.1794C-46.0536 33.0305 -47.4197 33.9039 -48.6514 34.7326C-48.8082 34.8669 -48.9874 34.9564 -49.1442 35.0684L-49.3234 35.2028C-50.7791 36.1882 -52.4364 37.3752 -54.0937 38.5621C-54.1161 38.5621 -54.116 38.5846 -54.1384 38.5846C-54.2952 38.6965 -54.452 38.7862 -54.5863 38.8981C-54.7431 39.0325 -54.8999 39.1221 -55.0567 39.2341C-55.6166 39.6148 -56.1765 40.0179 -56.714 40.3986C-56.8931 40.533 -57.0498 40.6674 -57.2066 40.757C-57.3186 40.869 -57.4082 40.9137 -57.5202 40.9809C-57.565 41.0257 -57.6322 41.0929 -57.677 41.1153C-57.6994 41.1377 -57.7218 41.1377 -57.7442 41.1601C-57.789 41.2049 -57.8561 41.2273 -57.9009 41.2721C-57.968 41.3393 -58.0577 41.4065 -58.1249 41.4513L-58.192 41.5184C-58.192 41.5184 -57.8114 42.0111 -57.1619 42.8174C-56.6692 43.4668 -55.9973 44.3178 -55.1687 45.4152C-52.8395 48.4386 -49.2338 53.2313 -44.4188 59.5917C-43.6349 60.6219 -42.851 61.6969 -42.0224 62.7943C-37.4985 68.7963 -32.5266 75.4255 -27.4428 82.2114C-24.2178 86.5338 -20.9257 90.9232 -17.6783 95.2456C-10.8252 104.428 -4.19616 113.341 1.33558 120.777C4.26941 124.741 6.88977 128.302 9.10695 131.28C9.91319 132.378 10.6299 133.341 11.257 134.237C12.1528 135.446 12.9141 136.454 13.5188 137.282C14.8178 139.096 15.4225 139.97 15.4225 140.015C14.4147 140.776 13.2277 141.672 12.2647 142.456C12.1079 142.59 11.9736 142.725 11.8169 142.814C11.8169 142.837 11.7944 142.836 11.772 142.859C11.7496 142.881 11.7049 142.904 11.6601 142.971H11.6824C12.8469 144.359 14.1235 145.905 15.4897 147.607C17.1469 149.712 18.961 152.063 20.9318 154.639C23.037 157.416 25.187 160.372 27.3593 163.396C35.0634 174.146 43.1036 186.217 50.1582 197.504C54.0775 203.775 57.6607 209.799 60.7289 215.242C63.1477 219.519 65.2304 223.416 66.8653 226.775C67.4476 227.962 67.9627 229.06 68.3882 230.045C69.1497 231.747 69.6873 233.158 70.0456 234.278C70.5607 235.935 70.6726 236.988 70.3815 237.413C70.3591 237.458 70.3143 237.481 70.2919 237.503C70.7175 237.234 71.143 236.943 71.5461 236.697L72.4642 236.092L72.5762 236.025C75.5996 233.942 79.3846 231.165 82.5871 228.813C83.1694 228.388 83.7293 227.962 84.2668 227.582C84.2668 227.582 84.222 227.582 84.222 227.559C83.998 227.447 83.4158 226.82 82.4976 225.768C81.7138 224.872 80.7059 223.662 79.4965 222.184C78.8023 221.333 78.0408 220.415 77.2121 219.407C74.6142 216.205 71.4789 212.285 68.0075 207.874C60.7065 198.646 51.8826 187.314 43.1931 176.004C43.1483 175.937 43.0811 175.87 43.0363 175.803C36.6759 167.539 30.3829 159.275 24.8288 151.884C24.0897 150.877 23.3506 149.913 22.6787 149.018C19.8345 145.233 17.6173 142.209 15.8256 139.813C16.3184 139.455 16.811 139.074 17.3261 138.693L18.7595 137.663L19.6105 137.058C19.6105 137.058 19.6777 137.036 19.7225 137.014L19.9241 136.879C20.1257 136.745 20.3048 136.61 20.484 136.499C20.5064 136.499 20.5063 136.476 20.5287 136.476C20.9094 136.207 21.335 135.939 21.7381 135.67C23.7537 139.052 26.4635 143.038 29.8901 147.54C31.7937 150.093 33.8542 152.713 36.0266 155.356C47.5827 169.51 62.1622 184.515 74.9501 195.645C80.7282 200.64 86.1033 204.872 90.7168 207.896C91.9261 208.702 93.0683 209.374 94.0985 209.956C96.1366 211.098 97.8161 211.838 99.2047 212.218C100.571 212.599 101.601 212.577 102.295 212.173C102.34 212.151 102.407 212.106 102.452 212.061C102.497 212.017 102.564 211.95 102.609 211.927L102.676 211.86L102.743 211.793L104.356 210.27L104.468 210.158C104.468 210.158 104.512 210.113 104.535 210.091C104.804 209.822 105.095 209.553 105.386 209.284C106.506 208.209 107.693 207 108.835 205.813C109.104 205.544 109.35 205.276 109.619 205.007C110.268 204.335 110.918 203.641 111.545 202.969C111.567 202.924 111.612 202.902 111.634 202.857C111.634 202.857 111.679 202.812 111.679 202.79L111.813 202.655C112.373 202.051 112.956 201.401 113.583 200.729C113.515 200.796 113.471 200.864 113.404 200.931C113.448 200.864 113.515 200.796 113.583 200.752C113.762 200.573 113.919 200.393 114.075 200.214C114.12 200.192 114.143 200.147 114.21 200.08C114.322 199.968 114.411 199.856 114.523 199.721C114.411 199.789 114.367 199.878 114.299 199.945C114.277 199.968 114.255 199.99 114.232 199.99L114.075 200.013Z" fill="#C3F00F"/>
<path d="M114.816 199.251C114.816 199.251 114.883 199.139 114.927 199.094C114.748 199.296 114.547 199.497 114.39 199.721C114.547 199.565 114.681 199.408 114.838 199.251H114.816Z" fill="#C3F00F"/>
<path d="M158.396 92.2894C158.396 92.2894 158.396 92.1998 158.396 92.1326V91.9982C158.374 91.7519 158.352 91.4831 158.329 91.2592C158.285 90.6769 158.24 90.0722 158.173 89.4227C158.128 88.8404 158.083 88.2358 158.016 87.6535C158.016 87.6311 158.016 87.5862 158.016 87.5638C158.016 87.5862 158.016 87.6087 158.016 87.6535C158.038 88.0118 158.061 88.3701 158.083 88.706C158.195 90.4753 158.307 91.9535 158.374 93.2524C158.284 91.9535 158.195 90.4753 158.083 88.706C158.8 102.031 153.872 120.396 127.334 134.505C127.356 134.864 127.378 135.222 127.446 135.603C127.401 135.244 127.378 134.886 127.311 134.505C123.011 136.61 118.532 138.268 113.986 139.499C107.334 141.269 100.504 142.142 93.8074 142.142C75.6669 142.142 58.2431 135.827 47.09 124.136C47.5827 124.002 48.0978 123.912 48.5681 123.8L49.2175 123.666H49.2624C49.4191 123.621 49.5759 123.598 49.7327 123.554C62.6102 134.214 81.4674 137.932 100.123 134.08C105.588 132.96 111.052 131.213 116.315 128.772C119.182 127.428 122.026 125.905 124.803 124.158C149.595 108.571 160.031 81.8753 151.275 60.4427C150.513 58.7854 149.908 57.3969 149.304 56.1428C149.259 56.0308 149.192 55.9187 149.125 55.7843C148.61 54.6422 148.094 53.612 147.579 52.6042C146.952 51.4172 146.348 50.2303 145.586 48.9537C145.273 48.461 144.981 47.9459 144.69 47.4308C144.175 46.6246 143.66 45.7736 143.055 44.833C146.93 51.4621 148.878 58.8751 149.013 66.5344C149.125 72.4244 148.162 78.4712 146.213 84.3837C142.092 96.8133 133.627 108.728 121.354 117.776C119.07 119.455 116.718 120.978 114.322 122.367C109.932 124.897 105.363 126.913 100.728 128.458C83.0574 134.236 64.7154 132.4 51.39 123.285H51.278C51.8155 123.173 52.3978 123.083 52.9353 122.949C65.9024 129.511 82.2064 129.153 97.4579 121.919C101.243 120.105 104.96 117.91 108.544 115.267C110.514 113.812 112.441 112.244 114.322 110.542C121.04 104.45 126.415 97.3507 130.357 89.781C139.898 71.5061 141.085 50.5439 132.507 34.6206C131.477 32.6721 130.29 30.8132 128.946 29.0663C126.572 25.8861 123.84 23.1762 120.839 20.9143C118.196 18.9659 114.501 16.592 111.724 14.8003H111.701C111.701 14.8003 111.679 14.7779 111.657 14.7555C110.671 14.1956 109.686 13.6133 108.768 13.1206C108.365 12.8967 107.961 12.6728 107.558 12.4712C107.424 12.404 107.267 12.3143 107.11 12.2472C106.483 11.9336 105.834 11.5977 105.184 11.2842L104.983 11.1498C104.983 11.1498 104.848 11.1051 104.804 11.0827C104.736 11.0603 104.647 11.0154 104.58 10.9706C104.378 10.8586 104.199 10.7916 103.975 10.6796C103.997 10.6796 104.02 10.7019 104.064 10.7243C104.042 10.7243 104.02 10.702 103.997 10.6796C103.818 10.59 103.639 10.5003 103.46 10.4107C103.505 10.4107 103.549 10.4556 103.594 10.478C103.438 10.4108 103.258 10.3212 103.102 10.254C103.079 10.254 103.057 10.254 103.034 10.2316C102.564 10.0077 102.071 9.80605 101.579 9.60449C101.579 9.60449 101.579 9.60449 101.601 9.60449C102.474 9.98521 103.37 10.3884 104.244 10.8139C104.714 11.0603 105.184 11.3065 105.677 11.5529C109.641 13.7477 113.292 16.7039 116.472 20.3992C117.121 21.1159 117.748 21.8774 118.331 22.6612C131.387 40.0402 131.477 66.6015 120.257 88.818C117.032 95.2007 112.866 101.248 107.805 106.6H107.76C106.125 108.392 104.445 109.96 102.721 111.46C99.6974 114.103 96.562 116.32 93.337 118.223C80.146 125.95 65.7455 127.54 53.5623 122.815C58.1758 121.493 62.4534 118.582 66.1486 113.991C67.6044 112.221 68.9258 110.206 70.1576 107.966C70.9862 106.443 71.77 104.808 72.5091 103.084C72.4419 103.084 72.3524 103.106 72.2852 103.106C72.3524 103.084 72.4419 103.084 72.5091 103.062C74.1664 99.0753 75.4429 94.7305 76.3164 90.1842C77.3242 85.0332 77.8392 79.6357 77.9288 74.104C77.9512 70.5655 77.8168 66.9598 77.4808 63.3541C76.1819 49.2224 72.0387 35.0685 65.4544 23.6915C64.0882 21.2951 62.5877 19.0331 60.9753 16.8831C60.4378 16.1888 59.8779 15.4946 59.3404 14.8227C56.2722 11.105 53.0249 8.1488 49.7103 5.99882C45.5895 3.28894 41.3791 1.81085 37.2583 1.5421C36.2057 1.49731 35.1306 1.49735 34.1004 1.58694C33.7645 1.60933 33.4287 1.6541 33.0927 1.69889L26.1052 2.88579L25.9037 2.93062C25.7693 2.95302 25.6126 2.97534 25.5006 2.99774C25.3438 3.02013 25.187 3.04259 25.0526 3.06499C22.3876 3.62488 19.1626 4.40874 16.5199 5.03582C17.6845 4.83426 18.8714 4.74459 20.0807 4.81178C23.9104 4.99095 28.0088 6.53631 32.1296 9.49254C35.0634 11.5529 37.9974 14.3525 40.9088 17.8238C41.6255 18.6748 42.3644 19.593 43.0587 20.5336C44.1113 21.8997 45.1192 23.3778 46.1046 24.8784C53.9431 36.9048 59.542 52.3579 62.1399 67.6317C62.7445 71.0807 63.1701 74.5071 63.4389 77.9113C63.842 83.1295 63.9091 88.2133 63.506 93.0508C63.17 97.3731 62.4982 101.516 61.468 105.301C60.9977 107.003 60.4826 108.593 59.9003 110.071C59.0493 112.244 58.0863 114.192 57.0113 115.894C54.1895 120.374 50.6285 123.173 46.6197 124.27H46.5524C46.5524 124.27 46.4181 124.315 46.3509 124.338C45.9478 124.45 45.4999 124.562 45.0295 124.696C45.0071 124.718 44.9848 124.718 44.9848 124.718C53.8311 135.491 67.5596 142.859 82.7215 146.061C90.6944 147.741 99.0255 148.279 107.289 147.539C114.232 146.89 121.085 145.345 127.558 142.836C145.922 135.11 155.978 123.576 158.307 107.653C158.329 107.474 158.352 107.294 158.374 107.115C158.374 107.048 158.374 106.958 158.396 106.891C158.419 106.04 158.464 105.167 158.508 104.226C158.508 103.957 158.531 103.733 158.531 103.51V103.33C158.598 101.808 158.62 100.531 158.665 99.4112C158.643 100.598 158.598 101.919 158.553 103.51C158.553 103.51 158.553 103.487 158.553 103.465C158.643 101.964 158.688 100.509 158.732 99.1872C158.777 97.1492 158.665 94.5289 158.553 92.3117L158.396 92.2894Z" fill="#C3F00F"/>
<path d="M51.6594 235.734C51.0995 232.24 50.1365 228.343 48.8824 224.133C47.3595 219.071 45.3661 213.539 43.037 207.873C41.2677 203.663 39.3642 199.363 37.2814 195.063C33.0263 186.284 28.1663 177.46 23.0601 169.465C20.9549 166.195 18.8497 163.082 16.7221 160.126C16.207 159.409 15.6696 158.692 15.1545 157.998C12.1759 154.012 9.35392 150.697 6.80081 148.054L6.30817 147.562L6.53207 147.338C5.83781 147.987 4.40453 147.853 2.23215 146.868C1.17955 146.375 -0.0522461 145.703 -1.44078 144.829C-2.42619 144.202 -3.50116 143.486 -4.64334 142.657H-4.66576C-8.76417 139.701 -13.4673 135.782 -18.5511 131.168C-31.8317 119.142 -47.4191 102.502 -59.5576 87.2726C-61.1925 85.2346 -62.7601 83.1743 -64.2606 81.2259C-68.8069 75.179 -72.1887 70.1176 -74.3611 66.1983C-75.3689 64.3619 -76.1304 62.7493 -76.6231 61.4056C-77.3845 59.39 -77.4965 57.9567 -77.0262 57.2176C-77.0038 57.1728 -77.0037 57.1505 -76.9813 57.1057L-76.7799 56.9041C-76.9142 57.016 -77.0038 57.1056 -77.1381 57.2176L-78.8402 58.8525L-81.1469 61.0249C-81.438 61.3161 -81.7516 61.5848 -82.0428 61.8984C-82.0428 61.8984 -82.0578 61.9057 -82.0876 61.9207C-82.7371 62.5701 -83.3865 63.2197 -84.0136 63.8692C-85.335 65.213 -86.6786 66.6014 -87.8656 67.8556C-88.1568 68.1915 -88.4703 68.505 -88.7615 68.8186C-88.8735 68.9305 -88.9855 69.0426 -89.0975 69.177C-89.1647 69.2442 -89.2318 69.3337 -89.2765 69.4009C-89.3213 69.4233 -89.3437 69.468 -89.3885 69.5128C-90.5755 71.1701 -90.5756 73.88 -89.3662 77.5081C-88.7167 79.5013 -87.6864 81.7857 -86.3203 84.2941C-84.4615 87.6534 -81.9756 91.4606 -78.7954 95.671C-74.6298 101.225 -69.6804 106.958 -64.3055 112.535C-56.5342 120.642 -47.8894 128.458 -39.4015 135.11C-30.1745 142.366 -21.0817 148.234 -13.5792 151.548H-13.5568C-12.0339 152.22 -10.6677 152.758 -9.34638 153.205C-7.46514 153.833 -5.80791 154.191 -4.35219 154.325C-1.88866 154.549 -0.14183 154.056 0.933159 152.937H0.955574C0.955574 152.937 1.08999 152.78 1.13478 152.735C1.24676 152.623 1.33637 152.534 1.44835 152.422L2.20972 151.638L3.01594 150.809C5.2779 152.981 7.62948 155.624 10.0482 158.737C10.3618 159.14 10.6753 159.566 11.0112 160.014C12.6685 162.231 14.3034 164.605 15.8934 167.046C23.0153 178.065 29.1966 191.301 33.6085 204.245C34.7059 207.448 35.6689 210.628 36.5423 213.763C37.998 219.116 39.0954 224.356 39.7673 229.216C40.372 233.404 40.6183 237.368 40.5511 240.974C40.5287 242.43 40.4167 243.796 40.2599 245.073C40.036 247.2 39.633 249.036 39.0955 250.604C38.0877 253.628 36.5648 255.71 34.6163 256.785C34.5491 256.808 34.4595 256.853 34.3923 256.897C34.0116 257.054 33.5861 257.233 33.183 257.39C33.4069 257.323 33.6757 257.233 33.8997 257.166L36.7438 255.934H36.7662C36.7662 255.934 36.7663 255.912 36.7887 255.912C40.1032 254.434 44.2689 252.396 47.785 250.649C48.3897 250.358 48.9272 250.112 49.4647 249.843C49.6438 249.731 49.8006 249.641 49.9797 249.507C51.1219 248.633 51.8386 246.999 52.1298 244.58C52.2865 243.191 52.2865 241.534 52.1298 239.586C52.0178 238.399 51.861 237.122 51.6594 235.756V235.734Z" fill="#C3F00F"/>
<path d="M24.6502 208.769C21.8284 194.055 16.2742 179.184 8.77164 167.382C7.60706 165.545 6.3754 163.754 5.09885 162.074C5.03166 162.074 4.98683 162.097 4.91964 162.119C4.85246 162.119 4.80763 162.141 4.74044 162.164C4.85242 162.141 4.98687 162.096 5.09885 162.052C4.47177 161.201 3.82221 160.394 3.19513 159.633C1.8066 157.953 0.418103 156.43 -0.970428 155.064C-1.21678 155.333 -1.44073 155.602 -1.66469 155.848C-1.66469 155.87 -1.70955 155.893 -1.73194 155.915C-1.77673 155.96 -1.7991 156.005 -1.84389 156.05C-1.84389 156.05 -1.88873 156.094 -1.88873 156.117C-1.91112 156.139 -1.95587 156.184 -1.97826 156.229C-2.00066 156.251 -2.02298 156.274 -2.04538 156.318C-2.04538 156.318 -2.0454 156.341 -2.06779 156.363C-2.47092 156.856 -2.91885 157.416 -3.34436 157.953C-2.53812 158.804 -1.73184 159.7 -0.925593 160.663C-0.298514 161.425 0.328487 162.208 0.955566 163.037C1.06754 163.037 1.202 162.992 1.31397 162.97C1.26918 162.97 1.22428 162.97 1.20189 162.992C1.1347 162.992 1.04517 163.015 0.977984 163.037C2.34412 164.874 3.66544 166.8 4.87481 168.838C11.9294 180.506 16.4757 195.22 17.9986 209.889C18.3346 213.181 18.5362 216.451 18.5809 219.698C18.6481 225.342 18.245 230.851 17.3492 236.092C16.5654 240.66 15.4232 244.983 13.8779 248.992C14.0347 248.969 14.1691 248.947 14.3259 248.902C14.1691 248.925 14.0123 248.969 13.8779 248.992C13.2284 250.671 12.5342 252.239 11.7727 253.695C10.5186 256.136 9.15236 258.308 7.65185 260.189C4.04615 264.758 -0.231421 267.625 -4.80014 268.767L-5.24808 268.834C-6.07672 268.969 -6.9053 269.125 -7.71155 269.26C-7.24124 269.215 -6.77092 269.17 -6.30061 269.081H-6.23349L-2.6501 268.409C-2.56052 268.409 -2.47095 268.364 -2.38137 268.342C-2.33658 268.342 -2.29179 268.342 -2.247 268.319C-2.15742 268.319 -2.09026 268.297 -2.00068 268.274C-1.57516 268.185 -1.12717 268.095 -0.656856 267.983C0.574905 267.737 1.80656 267.491 3.01593 267.222C4.49404 266.886 5.99465 266.527 7.316 266.169C7.60714 266.08 7.8983 266.012 8.16704 265.923C8.70454 265.766 9.19725 265.632 9.71235 265.475C9.82433 265.452 9.93623 265.408 10.0482 265.385C10.5857 265.229 11.168 265.072 11.7279 264.915C11.907 264.848 12.0638 264.803 12.2429 264.736C12.2653 264.736 12.3102 264.713 12.3326 264.691C15.58 263.415 18.4466 260.884 20.7534 257.054C21.8508 255.262 22.8138 253.18 23.6424 250.828C24.1127 249.462 24.5607 247.984 24.9414 246.439C24.7846 246.483 24.6278 246.528 24.4934 246.55C24.6502 246.506 24.807 246.461 24.9414 246.416C25.882 242.586 26.4418 238.443 26.6658 234.054C26.9121 228.992 26.7329 223.617 26.1059 218.13C25.7699 215.04 25.2773 211.904 24.6726 208.747L24.6502 208.769Z" fill="#C3F00F"/>
<path d="M-1.0602 250.268C1.42573 245.991 3.41882 241.4 4.98653 236.517C6.97974 230.336 8.25632 223.797 8.79382 217.145C9.15215 212.532 9.19691 207.873 8.90576 203.282C8.2115 193.003 5.79288 182.992 1.73927 174.302C0.283546 171.144 -1.39625 168.166 -3.27748 165.411C-3.74779 164.762 -4.17328 164.135 -4.64359 163.53C-5.13629 162.88 -5.62895 162.253 -6.14406 161.649C-5.98729 161.469 -5.85293 161.268 -5.74095 161.089L-5.47221 160.708C-6.592 162.231 -8.15966 163.44 -10.1977 164.246C-11.2279 164.65 -12.3701 164.963 -13.6243 165.21C-13.7586 165.21 -13.8481 165.232 -13.9601 165.254C-15.2591 165.433 -16.6252 165.545 -18.1481 165.523C-20.1189 165.523 -22.2689 165.322 -24.5981 164.918C-47.576 161.022 -79.8482 139.678 -96.6897 117.328C-97.2944 116.521 -97.8543 115.76 -98.3918 114.976C-101.035 111.191 -103.028 107.653 -104.394 104.428C-107.104 97.9553 -107.373 92.6475 -105.267 88.9746C-105.2 88.8178 -105.088 88.6612 -104.976 88.5044L-107.843 92.5132L-108 92.7371C-108 92.7371 -108.044 92.782 -108.067 92.8492C-108.089 92.894 -108.134 92.961 -108.201 93.0282C-108.694 93.7449 -109.187 94.5288 -109.724 95.335C-110.396 96.3429 -111.113 97.4402 -111.829 98.5152C-112.591 99.7022 -113.307 100.911 -114.024 102.121C-114.069 102.188 -114.091 102.255 -114.158 102.3L-114.27 102.502C-114.27 102.502 -114.315 102.569 -114.338 102.636C-114.36 102.681 -114.405 102.77 -114.449 102.815C-114.472 102.838 -114.472 102.86 -114.494 102.86C-114.539 102.972 -114.562 103.039 -114.629 103.129C-114.651 103.129 -114.651 103.151 -114.651 103.151C-114.785 103.42 -114.92 103.644 -115.032 103.912C-117.988 109.803 -117.003 117.932 -111.695 127.182C-110.485 129.287 -109.075 131.392 -107.417 133.609C-105.469 136.207 -103.296 138.738 -100.923 141.201C-82.8045 160.036 -53.5333 174.549 -31.1824 174.952C-27.9126 175.019 -24.9788 174.772 -22.3361 174.257C-18.2825 173.451 -14.9904 171.995 -12.4821 170.002C-12.4597 169.98 -12.4373 169.957 -12.3701 169.935C-6.81599 190.539 -17.2971 214.838 -40.1182 229.642C-42.9401 231.501 -45.874 233.113 -48.8302 234.524C-53.6677 236.808 -58.6395 238.533 -63.6561 239.72C-86.3205 245.028 -109.478 238.936 -121.907 222.43C-123.229 220.661 -124.393 218.825 -125.401 216.944C-124.908 217.951 -124.438 218.825 -124.035 219.631C-123.005 221.579 -122.154 223.102 -121.168 224.67C-119.892 226.686 -118.436 228.791 -116.219 231.971C-116.196 231.993 -116.196 232.016 -116.174 232.038C-116.129 232.083 -116.107 232.15 -116.017 232.217C-115.569 232.777 -115.077 233.427 -114.562 234.054C-114.248 234.435 -113.912 234.838 -113.576 235.196C-100.094 250.336 -77.116 254.165 -55.4594 246.282C-51.3386 244.781 -47.285 242.833 -43.321 240.504C-40.9694 239.07 -38.6402 237.525 -36.3782 235.801C-36.4454 235.733 -36.5126 235.621 -36.5798 235.509C-35.4153 235.666 -34.4297 233.807 -33.5339 233.068L-31.4289 231.232C-31.2049 231.03 -30.9584 230.829 -30.7345 230.605C-30.3537 230.269 -30.0178 229.911 -29.6371 229.552C-29.5699 229.508 -29.4804 229.418 -29.4132 229.351C-29.0773 229.015 -28.7413 228.701 -28.4054 228.365L-28.1142 228.074C-27.8902 227.805 -27.6215 227.559 -27.3975 227.335C-27.2632 227.201 -27.1288 227.044 -27.0393 226.932C-26.8377 226.73 -26.6361 226.484 -26.4121 226.282C-26.2777 226.126 -26.1434 225.991 -26.0314 225.835C-25.8523 225.633 -25.6507 225.431 -25.4715 225.185C-25.3372 225.051 -25.2028 224.894 -25.0908 224.737C-24.9117 224.536 -24.7325 224.289 -24.5534 224.088C-24.419 223.931 -24.2845 223.797 -24.1725 223.64C-24.1278 223.595 -24.1054 223.528 -24.0382 223.461C-23.8814 223.304 -23.747 223.125 -23.6351 222.968C-23.5231 222.811 -23.4112 222.677 -23.2992 222.52C-23.0977 222.296 -22.9185 222.05 -22.7393 221.803C-22.6273 221.669 -22.5377 221.535 -22.4258 221.423C-22.2018 221.109 -21.9555 220.796 -21.7315 220.482C-21.6867 220.437 -21.6195 220.348 -21.5971 220.303C-21.3732 219.967 -21.1268 219.653 -20.9029 219.317C-20.8581 219.273 -20.7909 219.205 -20.7685 219.161C-20.7013 219.049 -20.6116 218.937 -20.5445 218.825C-20.4773 218.713 -20.4102 218.623 -20.343 218.511C-20.3206 218.489 -20.2982 218.444 -20.231 218.377C-20.1862 218.31 -20.1189 218.22 -20.0965 218.153C-20.0517 218.108 -20.0294 218.041 -19.9846 218.018C-19.8726 217.862 -19.783 217.705 -19.6934 217.571C-19.559 217.391 -19.4247 217.212 -19.3351 217.033C-19.3127 216.988 -19.2904 216.921 -19.2232 216.876C-19.2232 216.876 -19.2232 216.854 -19.2008 216.854C-19.1784 216.787 -19.1336 216.697 -19.0664 216.63C-19.0216 216.563 -18.9544 216.473 -18.9096 216.406C-18.7528 216.182 -18.6184 215.936 -18.4617 215.712C-18.4393 215.667 -18.3945 215.577 -18.3497 215.533C-18.3497 215.533 -18.3273 215.51 -18.3273 215.488C-18.2825 215.421 -18.2153 215.309 -18.1705 215.219C-18.0137 214.995 -17.8794 214.749 -17.7674 214.525C-17.6554 214.368 -17.5882 214.211 -17.4763 214.055C-17.4539 214.01 -17.4091 213.943 -17.3643 213.875C-17.3419 213.853 -17.3195 213.808 -17.3195 213.763C-17.2747 213.696 -17.2075 213.607 -17.1627 213.495C-17.1403 213.45 -17.0955 213.36 -17.0507 213.293C-16.9388 213.136 -16.8716 212.979 -16.782 212.823C-16.7372 212.755 -16.7148 212.688 -16.6476 212.621C-16.6252 212.576 -16.6029 212.487 -16.5805 212.442C-16.5133 212.33 -16.4461 212.24 -16.4013 212.128C-16.3789 212.106 -16.3789 212.084 -16.3565 212.061C-16.3117 211.905 -16.2222 211.77 -16.155 211.658C-16.1326 211.613 -16.1101 211.524 -16.0429 211.479C-15.9757 211.322 -15.8862 211.165 -15.819 211.009C-15.7742 210.897 -15.707 210.785 -15.6398 210.673C-15.6398 210.628 -15.6175 210.606 -15.5951 210.538C-15.5951 210.516 -15.5727 210.494 -15.5503 210.471C-15.5279 210.426 -15.5054 210.359 -15.483 210.314C-15.4158 210.135 -15.3263 209.956 -15.2591 209.799C-15.1919 209.62 -15.08 209.441 -14.9904 209.262C-14.9904 209.262 -14.968 209.239 -14.968 209.217C-14.9456 209.172 -14.9231 209.15 -14.9231 209.083C-14.8559 208.926 -14.7664 208.769 -14.6992 208.612C-14.6768 208.545 -14.6545 208.456 -14.5873 208.411C-14.5649 208.276 -14.5201 208.142 -14.4305 208.052C-14.4305 208.03 -14.4081 207.985 -14.4081 207.94C-14.3857 207.896 -14.3856 207.873 -14.3632 207.828C-14.3408 207.761 -14.3185 207.694 -14.2961 207.649C-14.2513 207.582 -14.229 207.493 -14.1842 207.425C-14.0722 207.224 -14.005 207.045 -13.9154 206.821C-13.893 206.753 -13.8481 206.641 -13.8033 206.552C-13.7585 206.44 -13.7362 206.373 -13.6914 206.283C-13.669 206.261 -13.6467 206.238 -13.6467 206.216C-13.6467 206.194 -13.6467 206.171 -13.6243 206.149C-13.6019 206.104 -13.5794 206.014 -13.557 205.97C-13.5122 205.858 -13.4899 205.768 -13.4451 205.656C-13.4227 205.634 -13.4226 205.611 -13.4226 205.589C-13.3779 205.522 -13.3107 205.41 -13.2883 205.298C-13.2659 205.186 -13.2211 205.119 -13.1763 205.007C-13.1315 204.85 -13.0419 204.693 -12.9971 204.514C-12.9523 204.447 -12.93 204.335 -12.8852 204.223C-12.8628 204.156 -12.818 204.088 -12.7732 204.021C-12.7508 203.954 -12.7508 203.887 -12.7284 203.82C-12.6612 203.641 -12.5941 203.461 -12.5269 203.282C-12.4821 203.125 -12.4149 202.969 -12.3701 202.789C-12.3701 202.789 -12.3626 202.774 -12.3477 202.745C-12.2357 202.431 -12.1237 202.095 -12.0341 201.782C-11.9893 201.625 -11.9669 201.468 -11.8998 201.311C-11.8774 201.267 -11.8549 201.244 -11.8549 201.199C-11.7877 200.908 -11.6982 200.662 -11.631 200.393C-11.6086 200.326 -11.5862 200.236 -11.5638 200.169C-11.5414 200.102 -11.5415 200.035 -11.5191 199.968C-11.4071 199.632 -11.2951 199.273 -11.2055 198.937C-11.1607 198.758 -11.0935 198.601 -11.0711 198.445C-10.9368 197.997 -10.8471 197.594 -10.7576 197.168C-10.6904 196.944 -10.6232 196.698 -10.6008 196.474C-10.4664 196.071 -10.3992 195.645 -10.332 195.242C-10.3096 195.063 -10.2649 194.884 -10.2201 194.705C-10.2201 194.682 -10.2201 194.66 -10.1977 194.593C-10.1753 194.391 -10.1305 194.189 -10.0857 193.966C-9.97374 193.562 -9.92889 193.114 -9.88409 192.689C-9.8617 192.622 -9.86182 192.532 -9.86182 192.465C-9.81702 192.196 -9.79452 191.972 -9.74973 191.704C-9.74973 191.659 -9.74984 191.569 -9.72745 191.524C-9.72745 191.457 -9.70502 191.368 -9.70502 191.3C-9.68263 191.121 -9.66017 190.92 -9.63777 190.696L-9.57066 189.845C-9.57066 189.845 -9.54824 189.71 -9.54824 189.643C-9.54824 189.643 -9.52583 189.486 -9.52583 189.419C-9.52583 189.374 -9.5258 189.307 -9.50341 189.285V189.016C-9.50341 189.016 -9.48099 188.837 -9.48099 188.725C-9.4586 188.591 -9.45857 188.501 -9.45857 188.367C-9.45857 188.299 -9.43629 188.21 -9.43629 188.098V187.874C-9.41389 187.74 -9.41387 187.605 -9.41387 187.516V187.381C-9.41387 187.381 -9.39146 187.202 -9.39146 187.112V186.709C-9.39146 186.709 -9.36904 186.508 -9.36904 186.396V186.06V185.881C-9.36904 185.746 -9.34662 185.59 -9.34662 185.433V184.156C-9.34662 184.156 -9.34664 183.977 -9.36904 183.865V183.059C-9.36904 183.059 -9.39146 182.924 -9.39146 182.88V182.678C-9.39146 182.544 -9.41387 182.387 -9.41387 182.23V182.096C-9.41387 182.096 -9.41389 182.051 -9.43629 182.029C-9.43629 182.029 -9.43629 181.961 -9.43629 181.894V181.626C-9.43629 181.626 -9.43617 181.514 -9.45857 181.469C-9.45857 181.334 -9.4586 181.245 -9.48099 181.11C-9.48099 180.976 -9.48101 180.887 -9.50341 180.752C-9.50341 180.64 -9.50343 180.551 -9.52583 180.416V180.304C-9.52583 180.304 -9.54824 180.192 -9.54824 180.147V179.991C-9.54824 179.991 -9.57066 179.923 -9.57066 179.834C-9.57066 179.789 -9.57068 179.722 -9.59308 179.677V179.632C-9.61547 179.498 -9.61538 179.341 -9.63777 179.229V179.095C-9.66017 178.938 -9.68263 178.781 -9.70502 178.625V178.445C-9.70502 178.445 -9.72733 178.289 -9.74973 178.221C-9.74973 178.154 -9.74975 178.087 -9.77214 178.02C-9.77214 177.975 -9.77216 177.908 -9.79456 177.863C-9.79456 177.729 -9.817 177.572 -9.83939 177.46C-9.83939 177.438 -9.83942 177.393 -9.86182 177.348C-9.88421 177.169 -9.90653 177.012 -9.92893 176.833C-9.92893 176.833 -9.95135 176.721 -9.95135 176.676V176.631C-9.95135 176.631 -9.99607 176.407 -10.0185 176.273C-10.0409 176.071 -10.0858 175.87 -10.153 175.646C-10.153 175.579 -10.1752 175.489 -10.1752 175.422C-10.1976 175.377 -10.1977 175.288 -10.2201 175.243C-10.2201 175.176 -10.2425 175.086 -10.2425 175.019C-10.2873 174.84 -10.3097 174.683 -10.3769 174.504C-10.3993 174.392 -10.3993 174.325 -10.4217 174.213C-10.4441 174.145 -10.4664 174.056 -10.4888 173.944C-10.5112 173.832 -10.5337 173.742 -10.5561 173.63C-10.5561 173.563 -10.5784 173.496 -10.6008 173.429C-10.6008 173.384 -10.6232 173.294 -10.6232 173.25C-10.668 173.093 -10.6904 172.936 -10.7576 172.779C-10.8024 172.6 -10.8696 172.421 -10.9143 172.242C-10.9143 172.219 -10.9144 172.197 -10.9368 172.175C-10.9368 172.107 -10.9592 171.995 -10.9816 171.906C-11.004 171.883 -11.0039 171.839 -11.0039 171.839C-11.0039 171.816 -11.0039 171.794 -11.0263 171.771H-11.0487C-11.0487 171.771 -11.0487 171.66 -11.0711 171.637C-11.1383 171.346 -11.2279 171.1 -11.3399 170.808L-11.1382 170.361L-10.2873 168.681C-2.80718 184.671 -4.39716 205.163 -13.8033 223.013C-17.5882 230.202 -22.6497 236.943 -28.8981 242.788C-28.8757 242.788 -28.8533 242.811 -28.8309 242.833C-28.8533 242.833 -28.8757 242.81 -28.8981 242.788C-30.757 244.445 -32.6158 245.968 -34.4971 247.402C-37.7892 249.887 -41.1261 252.015 -44.4854 253.762C-61.0358 262.452 -78.191 262.496 -93.3752 253.471C-93.4648 253.404 -93.5768 253.359 -93.6664 253.292C-93.532 253.381 -93.3976 253.471 -93.2633 253.56C-92.8154 253.874 -92.3898 254.165 -91.9643 254.456C-91.7851 254.591 -91.5835 254.703 -91.382 254.837C-91.2924 254.904 -91.2028 254.949 -91.0908 255.016C-90.9117 255.128 -90.7325 255.24 -90.5533 255.352C-89.8143 255.822 -89.0976 256.248 -88.4033 256.651C-88.3137 256.718 -88.2019 256.763 -88.1123 256.83C-87.3284 257.278 -86.4101 257.793 -85.4919 258.308C-85.4695 258.308 -85.4248 258.353 -85.4024 258.353C-84.7305 258.711 -84.0586 259.07 -83.3867 259.406C-82.1101 260.078 -80.9233 260.66 -79.4228 261.332C-78.5941 261.69 -77.6983 262.093 -76.6233 262.563C-76.5561 262.586 -76.4888 262.631 -76.3993 262.653C-76.4441 262.653 -76.4888 262.608 -76.5112 262.608C-77.3175 262.272 -78.1237 261.892 -78.9076 261.489C-77.0487 262.272 -75.0331 263.101 -73.0623 263.885C-61.5062 267.513 -48.2703 265.587 -36.1319 258.219C-32.9293 256.27 -29.794 253.964 -26.7929 251.254C-25.1581 249.776 -23.5455 248.208 -22.0002 246.506C-22.045 246.506 -22.0898 246.461 -22.1346 246.439C-22.0898 246.439 -22.045 246.483 -22.0002 246.506C-17.0732 241.108 -13.0195 235.062 -9.90651 228.656C-4.59874 217.75 -1.95612 205.858 -2.13528 194.481C-2.18007 191.748 -2.38156 189.061 -2.76229 186.418C-3.7477 179.408 -5.92015 172.779 -9.2795 166.912C-9.07794 166.553 -8.87634 166.217 -8.67477 165.881C-8.62999 165.859 -8.63006 165.814 -8.60766 165.769C-8.49568 165.613 -8.40609 165.456 -8.31651 165.299L-7.53258 164.09C-6.25603 165.814 -5.09148 167.695 -4.06127 169.599C-1.06026 175.064 1.08974 181.155 2.38869 187.605C2.59025 188.725 2.79185 189.822 2.99341 190.965C4.13559 198.288 4.20277 205.97 3.26215 213.584C2.32153 220.885 0.462692 228.119 -2.33676 234.927C-4.48675 240.145 -7.19663 245.117 -10.4664 249.641C-11.743 251.41 -13.0643 253.068 -14.4081 254.591C-16.7372 257.233 -19.1784 259.54 -21.7091 261.489C-30.309 268.185 -39.8944 271.119 -49.0542 270.088C-47.285 270.312 -45.4932 270.536 -43.7912 270.716H-43.7241C-43.5449 270.738 -43.3881 270.76 -43.2313 270.76C-42.8506 270.805 -42.4474 270.828 -42.0891 270.895C-41.8875 270.895 -41.686 270.917 -41.4621 270.917C-41.2157 270.917 -40.9469 270.939 -40.6781 270.962C-40.9469 270.962 -41.2157 270.939 -41.4621 270.917C-40.5438 270.984 -39.6032 271.051 -38.6402 271.119C-37.498 271.186 -36.3782 271.253 -35.3704 271.275C-35.3256 271.275 -35.2584 271.275 -35.2136 271.275C-35.0344 271.275 -34.8777 271.275 -34.6985 271.275C-34.5642 271.275 -34.4298 271.275 -34.2954 271.275C-34.1387 271.275 -34.0043 271.275 -33.8475 271.275C-33.534 271.275 -33.1981 271.275 -32.9069 271.275C-32.683 271.275 -32.459 271.275 -32.2351 271.275C-32.1455 271.275 -32.0335 271.275 -31.9439 271.275C-31.9439 271.275 -31.8991 271.275 -31.8767 271.275H-31.2048C-30.6001 271.275 -30.0179 271.253 -29.4356 271.208C-22.6273 270.693 -15.931 267.603 -9.97376 262.048C-7.93576 260.122 -5.96495 257.905 -4.10611 255.374C-2.96393 253.807 -1.88887 252.105 -0.813873 250.335L-1.0602 250.268Z" fill="#C3F00F"/>
<path d="M141.22 42.0105C141.87 42.9511 142.474 43.8917 143.057 44.8771C142.497 44.0036 141.892 43.0631 141.22 42.0105Z" fill="#C3F00F"/>
<path d="M146.259 144.359C141.242 149.376 134.12 153.295 125.072 155.535C125.072 155.579 125.05 155.624 125.028 155.691C125.028 155.647 125.05 155.602 125.072 155.535C113.651 158.379 100.93 158.11 88.6795 155.355C79.2509 153.228 70.0912 149.622 62.0512 144.807C54.3694 140.193 47.6731 134.483 42.7237 127.898C42.7237 127.898 42.7237 127.921 42.7237 127.943C42.7237 127.943 42.7237 127.921 42.7237 127.898C42.2086 127.226 41.7382 126.555 41.2679 125.86C40.7304 126.04 40.1258 126.263 39.3868 126.532C39.0284 126.667 38.6701 126.823 38.267 126.98C39.1852 128.503 40.2153 130.026 41.3799 131.571C41.4023 131.504 41.4471 131.437 41.4695 131.37C41.4471 131.437 41.4247 131.504 41.3799 131.571C43.8434 134.841 46.7324 137.976 49.935 140.91C55.0636 145.591 60.9985 149.801 67.4036 153.34C84.3347 162.724 104.536 167.628 121.512 165.322C126.909 164.582 131.567 163.171 135.464 161.201C140.212 158.804 143.795 155.557 146.124 151.727C146.192 151.615 146.259 151.526 146.304 151.414C146.55 151.011 146.774 150.585 146.976 150.182C147.043 150.07 147.088 149.958 147.155 149.846C147.267 149.6 147.379 149.353 147.491 149.107C147.491 149.107 147.491 149.062 147.513 149.04C147.916 148.01 148.342 146.89 148.79 145.748C148.857 145.546 148.946 145.345 149.013 145.143C150.357 141.582 151.768 137.64 152.933 134.169C152.933 134.124 152.955 134.079 152.978 134.035C152.978 134.035 152.978 134.08 152.955 134.102C151.544 137.864 149.282 141.336 146.214 144.381L146.259 144.359Z" fill="#C3F00F"/>
<path d="M60.8638 0.310173C61.043 0.332568 61.2221 0.354893 61.4013 0.377288C65.9252 0.93718 70.382 2.66171 74.5924 5.48357C78.2429 7.94709 81.7143 11.2168 84.8496 15.4048C85.2304 15.9199 85.6334 16.5022 86.0141 17.0397C88.0297 19.9063 89.7991 23.0418 91.2996 26.3564C95.3532 35.2922 97.6599 45.5718 98.1078 56.1202C98.287 60.3305 98.175 64.5857 97.7719 68.796C97.1448 75.3356 95.8011 81.7856 93.7631 87.8996C92.061 92.9386 89.8662 97.7537 87.1563 102.166C86.1037 103.957 84.9615 105.615 83.7746 107.16C81.9829 109.511 80.0793 111.639 78.0861 113.498C71.0315 120.037 62.9467 123.285 54.9291 123.106C54.9291 123.106 54.7051 123.061 54.5931 123.061L54.9066 123.106H54.5035C54.6603 123.106 54.8618 123.106 54.9962 123.128C65.007 124.897 75.7793 122.031 85.3199 114.685C87.8058 112.804 90.1797 110.586 92.4641 108.123C93.8526 106.578 95.1964 104.943 96.5625 103.173H96.585C100.123 98.3584 103.08 93.1178 105.409 87.5636C108.387 80.4418 110.336 72.8944 111.209 65.2799C112.911 50.8571 110.829 36.3 104.827 24.5423C103.46 21.8772 101.893 19.3464 100.146 17.0173C97.7495 13.8147 95.1069 11.1496 92.285 8.95487C87.8283 5.50594 82.9684 3.3112 77.8622 2.281C77.795 2.25861 77.683 2.23615 77.5711 2.21375L76.0704 1.98985C74.8611 1.78829 73.6294 1.54187 72.4201 1.3627C71.8154 1.29552 71.2331 1.20599 70.6956 1.1388C70.4044 1.11641 70.0908 1.09394 69.7997 1.07155C68.1424 0.869988 66.4852 0.713262 64.8055 0.556492C64.5143 0.534096 64.2008 0.534053 63.932 0.511657C63.4617 0.466866 62.9914 0.444497 62.4987 0.399706C62.3867 0.399706 62.2748 0.377288 62.1628 0.377288H61.8717C61.4685 0.354893 61.0206 0.332568 60.5727 0.310173C60.2143 0.287777 59.8113 0.287733 59.4082 0.265337C58.7811 0.265337 58.1091 0.24292 57.4596 0.24292C58.0195 0.265316 58.6243 0.287777 59.2514 0.310173C59.7665 0.332568 60.3488 0.354893 60.8863 0.377288L60.8638 0.310173Z" fill="#C3F00F"/>
</svg>
