<svg width="146" height="363" viewBox="0 0 146 363" fill="none" xmlns="http://www.w3.org/2000/svg">
<g opacity="0.9">
<path d="M164.812 51.2092C165.003 51.2192 165.186 51.2787 165.391 51.3314L165.433 51.3179C166.921 51.7868 168.383 52.475 169.758 53.4026C172.506 55.2578 175.042 58.0022 177.153 61.7034C178.484 64.054 179.696 66.7711 180.712 69.8323C187.073 89.2659 184.128 117.447 174.49 139.618C172.155 145.008 169.416 150.009 166.316 154.466C166.121 154.74 165.947 155.006 165.737 155.307C164.014 157.732 162.253 159.887 160.468 161.743L159.931 161.161C159.493 160.666 159.055 160.1 158.575 159.547C158.478 159.39 158.339 159.246 158.206 159.124C156.51 157.029 153.709 155.825 149.909 155.618C149.073 155.577 148.188 155.599 147.259 155.635C147.21 155.627 147.146 155.647 147.096 155.639C146.252 155.718 145.387 155.804 144.443 155.939C143.079 156.159 141.644 156.448 140.116 156.814C136.575 157.724 132.779 159.089 128.87 160.843C124.456 162.78 119.915 165.204 115.304 168.002C112.529 169.702 109.725 171.529 106.933 173.47C95.5347 181.469 84.4894 191.401 75.9756 201.612C74.1572 203.809 72.4444 206.042 70.8665 208.256C70.4543 208.809 70.049 209.384 69.6795 209.924C66.9697 213.905 64.9374 217.579 63.5265 220.915C61.5051 225.736 60.777 229.818 61.3162 233.007C61.5192 234.094 61.8446 235.048 62.2992 235.89L62.3195 235.954C62.8965 236.664 63.4668 237.353 64.0157 238.049C63.9111 237.941 63.7852 237.84 63.6806 237.732C63.6041 237.639 63.5063 237.552 63.4298 237.459L63.6593 237.739C64.7166 239.001 65.7458 240.249 66.7761 241.427L67.3745 242.13C67.3745 242.13 67.3813 242.151 67.4026 242.145L67.4229 242.209C69.4981 244.535 72.3706 247.526 74.5234 249.875C74.196 249.508 73.9193 249.079 73.7426 248.595C73.4353 247.846 73.2717 246.959 73.2733 245.924C73.2671 243.084 74.4888 239.151 76.9981 234.387C78.7281 231.02 81.0738 227.224 84.0488 223.041C84.2083 222.803 84.4172 222.572 84.5767 222.334C86.5016 219.658 88.5895 216.977 90.7841 214.262C98.0871 205.421 106.794 196.487 115.676 188.626C118.432 186.203 121.216 183.866 123.991 181.649C128.717 177.875 133.358 174.504 137.778 171.695C141.454 169.358 144.962 167.378 148.214 165.926C149.569 165.31 150.817 164.797 152.02 164.37C153.715 163.786 155.23 163.377 156.572 163.164C159.568 162.686 161.686 163.143 162.948 164.459C162.969 164.452 162.976 164.473 162.983 164.495C163.046 164.545 163.137 164.61 163.178 164.667C165.437 162.379 167.739 159.63 170.012 156.421C170.308 156.022 170.577 155.608 170.837 155.244C186.6 132.309 196.096 95.8067 192.147 72.8614C191.758 70.5181 191.231 68.4064 190.565 66.5264C189.427 63.1517 187.916 60.5291 186.096 58.6385C184.967 57.4455 183.698 56.5548 182.333 55.9532C182.059 55.8286 181.742 55.7176 181.425 55.6065C181.397 55.5919 181.347 55.584 181.298 55.5762L179.944 55.1589C179.944 55.1589 179.888 55.1296 179.86 55.115C179.67 55.0342 179.451 55.0097 179.268 54.9503C179.239 54.9357 179.233 54.9143 179.211 54.921C178.091 54.571 176.849 54.2121 175.58 53.8385C174.064 53.4258 172.476 53.0121 170.881 52.6477L169.597 52.3023C169.371 52.2564 169.167 52.2036 168.962 52.1509C168.729 52.0836 168.532 52.0523 168.32 51.9783L166.456 51.5814C165.92 51.4457 165.397 51.3528 164.911 51.225C164.374 51.0893 163.852 50.9963 163.344 50.8752C163.195 50.8517 163.025 50.8349 162.898 50.8046C163.025 50.8349 163.11 50.8787 163.23 50.8876C163.428 50.919 163.611 50.9785 163.809 51.0098L162.574 50.743C162.574 50.743 162.552 50.7498 162.531 50.7565C163.032 50.8563 163.512 50.9628 164.014 51.0625C164.261 51.1017 164.494 51.1691 164.72 51.215L164.812 51.2092Z" fill="#C3F00F"/>
<path d="M105.849 276.865L105.842 276.844L105.828 276.871L105.849 276.865Z" fill="#C3F00F"/>
<path d="M204.886 64.7192C205.833 65.3357 206.618 66.3323 207.199 67.7223C207.896 69.4046 208.287 71.6063 208.393 74.3915C208.436 75.7875 208.412 77.3453 208.287 79.0291C207.622 88.2835 204.513 100.284 199.867 112.771C197.149 120.068 193.926 127.548 190.339 134.696C185.999 143.399 181.176 151.69 176.124 158.738C173.483 162.417 170.977 165.559 168.608 168.094C168.349 168.387 168.061 168.666 167.808 168.981C167.787 168.988 167.794 169.009 167.773 169.016C168.409 169.543 169.038 170.119 169.562 170.587L169.666 170.695C170.044 170.998 170.457 171.338 170.883 171.719C170.946 171.77 171.037 171.835 171.079 171.892C170.785 171.633 170.261 171.611 169.557 171.834C168.916 172.036 168.131 172.449 167.172 173.058C166.278 173.646 165.183 174.416 163.957 175.368C163.096 176.063 162.107 176.869 161.058 177.788C158.374 180.141 155.348 182.978 152.09 186.264C147.623 190.708 142.763 195.91 137.747 201.514C128.538 211.828 118.861 223.559 110.626 234.503C108.63 237.179 106.706 239.784 104.876 242.313C102.922 245.046 101.183 247.569 99.7031 249.87C96.1422 255.319 93.7764 259.497 92.6215 262.305C92.2309 263.298 91.9775 264.13 91.9037 264.788C91.8029 265.36 91.8673 265.786 92.0191 266.043L92.0327 266.086C92.1373 266.194 92.2632 266.295 92.3542 266.36C92.3261 266.345 92.2981 266.331 92.27 266.316C92.4522 266.446 92.5916 266.59 92.7737 266.72C93.9973 267.766 95.2422 268.805 96.4038 269.729C96.5793 269.838 96.7187 269.982 96.8727 270.098L97.0549 270.228C98.4336 271.319 100.065 272.541 101.697 273.763C101.704 273.784 101.725 273.777 101.732 273.798C101.886 273.914 102.019 274.037 102.166 274.131C102.341 274.24 102.474 274.362 102.628 274.478C103.16 274.897 103.713 275.309 104.238 275.707C104.421 275.837 104.596 275.946 104.729 276.068C104.869 276.141 104.939 276.213 105.037 276.3C105.093 276.329 105.177 276.373 105.212 276.409C105.24 276.423 105.247 276.445 105.275 276.459C105.331 276.488 105.373 276.546 105.429 276.575C105.514 276.618 105.605 276.684 105.668 276.734L105.752 276.778C105.752 276.778 106.107 276.266 106.68 275.404C107.15 274.738 107.759 273.841 108.555 272.72C110.735 269.587 114.216 264.703 118.828 258.194C119.573 257.136 120.362 256.064 121.158 254.943C125.515 248.819 130.336 242.079 135.271 235.184C138.419 230.805 141.611 226.342 144.752 221.942C151.439 212.638 157.937 203.629 163.357 196.112C166.251 192.118 168.855 188.546 171.026 185.533C171.829 184.434 172.531 183.46 173.196 182.592C174.079 181.373 174.81 180.343 175.418 179.516C176.755 177.73 177.406 176.89 177.448 176.877C178.478 177.608 179.69 178.469 180.728 179.151C180.904 179.26 181.072 179.347 181.205 179.47C181.226 179.463 181.233 179.484 181.261 179.499C181.289 179.514 181.324 179.55 181.402 179.572L181.395 179.551C182.368 178.022 183.456 176.338 184.666 174.522C186.173 172.307 187.868 169.868 189.729 167.212C191.741 164.367 193.911 161.425 196.138 158.442C204.063 147.854 213.146 136.546 221.779 126.415C226.575 120.786 231.238 115.552 235.5 110.985C238.849 107.389 241.936 104.227 244.645 101.655C245.601 100.742 246.492 99.9194 247.303 99.2164C248.696 97.9769 249.879 97.0387 250.839 96.3592C252.263 95.3681 253.233 94.9438 253.727 95.093C253.776 95.1008 253.811 95.1367 253.839 95.1513C253.455 94.8267 253.049 94.5089 252.692 94.1989L251.839 93.5059L251.741 93.4195C248.843 91.1653 245.053 88.3946 241.845 86.0508C241.264 85.624 240.689 85.2186 240.164 84.821C240.164 84.821 240.177 84.8638 240.156 84.8705C240.117 85.1178 239.695 85.8621 238.968 87.0551C238.351 88.0727 237.502 89.3984 236.457 90.9974C235.855 91.9161 235.21 92.9192 234.499 94.0133C232.229 97.4563 229.439 101.628 226.28 106.269C219.685 116.013 211.543 127.845 203.382 139.542C203.332 139.605 203.288 139.689 203.238 139.752C197.278 148.31 191.297 156.803 185.927 164.328C185.189 165.336 184.494 166.332 183.842 167.242C181.092 171.096 178.879 174.122 177.134 176.553C176.644 176.192 176.133 175.837 175.614 175.461L174.199 174.405L173.366 173.776C173.366 173.776 173.325 173.719 173.29 173.683L173.101 173.531C172.912 173.379 172.73 173.249 172.569 173.112C172.562 173.091 172.541 173.098 172.534 173.076C172.163 172.794 171.778 172.47 171.401 172.166C174.017 169.224 177 165.438 180.258 160.813C182.117 158.228 183.994 155.473 185.858 152.604C195.866 137.316 205.773 118.889 212.527 103.339C215.545 96.3233 217.959 89.9216 219.45 84.6109C219.853 83.2147 220.149 81.923 220.394 80.7651C220.868 78.4775 221.066 76.6532 221.01 75.2145C220.96 73.7971 220.628 72.8217 220.034 72.2814C219.999 72.2455 219.937 72.1949 219.88 72.1657C219.824 72.1365 219.74 72.0927 219.705 72.0568L219.621 72.0131L219.536 71.9692L217.598 70.8914L217.457 70.8183C217.457 70.8183 217.401 70.7892 217.373 70.7746C217.036 70.5994 216.692 70.4029 216.348 70.2064C214.985 69.4632 213.474 68.6965 211.997 67.9656C211.66 67.7905 211.329 67.6366 210.992 67.4615C210.156 67.045 209.298 66.6352 208.468 66.2401C208.419 66.2322 208.384 66.1963 208.334 66.1885C208.334 66.1885 208.278 66.1593 208.257 66.166L208.088 66.0785C207.343 65.7271 206.548 65.368 205.718 64.9728C205.802 65.0166 205.88 65.039 205.964 65.0827C205.887 65.0603 205.802 65.0166 205.739 64.966C205.515 64.8493 205.296 64.7538 205.078 64.6584C205.043 64.6225 204.994 64.6147 204.91 64.5709C204.769 64.4979 204.635 64.4462 204.473 64.38C204.571 64.4665 204.67 64.4823 204.754 64.526C204.783 64.5406 204.811 64.5551 204.817 64.5765L204.886 64.7192Z" fill="#C3F00F"/>
<path d="M88.8105 54.9645C88.8105 54.9645 88.7251 54.9916 88.661 55.0118L88.5329 55.0524C88.3048 55.1481 88.0553 55.2504 87.8485 55.3394C87.3069 55.5577 86.7439 55.7829 86.1449 56.0429C85.6033 56.2613 85.0403 56.4864 84.5055 56.7262C84.4841 56.7329 84.4413 56.7465 84.42 56.7532C84.4413 56.7465 84.4628 56.7397 84.5055 56.7262C84.8403 56.5967 85.1751 56.4672 85.4887 56.3445C87.1417 55.7039 88.5172 55.1513 89.7354 54.6954C88.524 55.1727 87.1417 55.7039 85.4887 56.3445C97.9769 51.6409 116.972 50.7977 138.431 71.843C138.766 71.7135 139.101 71.5841 139.443 71.4052C139.115 71.556 138.78 71.6855 138.438 71.8644C141.742 75.3288 144.673 79.0991 147.219 83.062C150.913 88.8697 153.807 95.1186 155.827 101.503C161.3 118.798 160.536 137.315 152.755 151.476C152.478 151.047 152.237 150.583 151.989 150.168L151.665 149.589L151.651 149.547C151.561 149.411 151.492 149.268 151.402 149.132C157.681 133.638 155.536 114.538 146.235 97.914C143.519 93.042 140.204 88.3592 136.289 84.0779C134.143 81.7503 131.833 79.4981 129.33 77.3775C106.989 58.4436 78.3885 56.5478 60.5965 71.3628C59.2462 72.5888 58.1049 73.5843 57.0916 74.5392C56.9983 74.6156 56.9117 74.7134 56.8039 74.818C55.8704 75.6537 55.0436 76.4556 54.2382 77.2508C53.2957 78.2068 52.3465 79.1414 51.3592 80.2525C50.984 80.7001 50.5808 81.1332 50.1775 81.5661C49.5643 82.3005 48.9083 83.0483 48.194 83.9086C53.3452 78.2146 59.8249 74.1205 67.0868 71.6815C72.6686 69.7977 78.7241 68.8915 84.9489 68.9653C98.0426 69.1439 111.956 73.6203 124.285 82.5914C126.576 84.2626 128.737 86.045 130.784 87.9108C134.521 91.3323 137.821 95.08 140.693 99.0336C151.533 114.137 155.316 132.178 150.646 147.633L150.68 147.74C150.411 147.261 150.15 146.733 149.86 146.261C152.204 131.918 146.943 116.482 135.445 104.124C132.573 101.063 129.359 98.1806 125.759 95.5616C123.776 94.1218 121.7 92.7585 119.51 91.4785C111.675 86.9107 103.285 83.9281 94.8786 82.454C74.5769 78.8717 54.2334 84.0646 41.64 97.0466C40.0932 98.6166 38.679 100.309 37.4189 102.117C35.1032 105.34 33.3439 108.763 32.0928 112.306C31.0324 115.414 29.8841 119.653 29.0138 122.841L29.0205 122.863C29.0205 122.863 29.0059 122.891 28.9913 122.919C28.7548 124.027 28.497 125.142 28.3043 126.166C28.2124 126.618 28.1205 127.07 28.05 127.515C28.0265 127.664 27.9883 127.84 27.9715 128.01C27.8618 128.702 27.7375 129.423 27.6345 130.137L27.5672 130.37C27.5672 130.37 27.5651 130.511 27.5573 130.561C27.5562 130.631 27.5404 130.73 27.518 130.808C27.472 131.034 27.4622 131.225 27.423 131.472C27.4162 131.451 27.4307 131.423 27.4386 131.373C27.4453 131.395 27.4308 131.423 27.4162 131.451C27.3849 131.649 27.3534 131.847 27.322 132.044C27.3085 132.002 27.3378 131.945 27.3456 131.896C27.3288 132.066 27.2976 132.264 27.2808 132.433C27.2876 132.455 27.2943 132.476 27.2797 132.504C27.2081 133.02 27.1645 133.551 27.121 134.081C27.121 134.081 27.121 134.081 27.1142 134.06C27.2137 133.112 27.3278 132.137 27.47 131.175C27.563 130.653 27.6559 130.13 27.7421 129.586C28.6386 125.144 30.3557 120.772 32.9193 116.625C33.4066 115.79 33.9434 114.962 34.5151 114.171C47.1449 96.479 72.4414 88.3799 97.0079 92.3744C104.066 93.5233 111.088 95.6704 117.718 98.8811L117.732 98.9238C119.933 99.942 121.935 101.07 123.886 102.262C127.317 104.347 130.377 106.667 133.165 109.168C144.511 119.413 150.372 132.663 149.542 145.704C146.891 141.704 142.824 138.504 137.332 136.366C135.206 135.512 132.886 134.86 130.379 134.362C128.677 134.031 126.882 133.777 125.015 133.593C125.035 133.657 125.084 133.735 125.104 133.799C125.062 133.742 125.035 133.657 124.994 133.599C120.693 133.222 116.166 133.316 111.568 133.855C106.353 134.448 101.051 135.586 95.7502 137.169C92.3698 138.215 88.9727 139.431 85.6364 140.839C72.5551 146.342 60.3107 154.562 51.4504 164.272C49.578 166.297 47.874 168.411 46.3107 170.597C45.811 171.318 45.318 172.062 44.8396 172.777C42.2209 176.824 40.3822 180.812 39.3324 184.62C37.9921 189.367 37.8531 193.827 38.8402 197.837C39.1151 198.854 39.4395 199.879 39.8357 200.834C39.9584 201.147 40.1024 201.454 40.2465 201.761L43.4863 208.065L43.5898 208.243C43.6517 208.365 43.7203 208.507 43.7754 208.607C43.844 208.75 43.9128 208.893 43.9747 209.014C45.3125 211.386 47.0329 214.224 48.428 216.555C47.8845 215.505 47.4409 214.401 47.1401 213.227C46.1555 209.522 46.3923 205.148 47.9675 200.328C49.0467 196.909 50.8306 193.267 53.2618 189.444C53.8569 188.504 54.5093 187.523 55.1967 186.577C56.1816 185.161 57.2867 183.754 58.42 182.362C67.5211 171.26 80.5649 161.26 94.3432 154.175C97.4489 152.558 100.587 151.118 103.752 149.835C108.605 147.876 113.432 146.279 118.166 145.203C122.388 144.22 126.541 143.61 130.46 143.45C132.225 143.385 133.896 143.397 135.481 143.506C137.809 143.662 139.957 143.992 141.904 144.503C147.026 145.842 150.769 148.393 153.025 151.884L153.045 151.948C153.045 151.948 153.129 152.062 153.17 152.12C153.399 152.47 153.64 152.863 153.91 153.271C153.939 153.286 153.945 153.307 153.945 153.307C161.547 141.623 164.429 126.311 162.908 110.89C162.104 102.782 160.103 94.6765 156.905 87.0206C154.191 80.5974 150.65 74.5298 146.306 69.1158C133.399 53.9383 119.369 47.8311 103.485 50.4146C103.307 50.4473 103.13 50.4801 102.952 50.5128C102.888 50.5331 102.803 50.5601 102.732 50.559C101.914 50.7945 101.068 51.0152 100.157 51.2563C99.901 51.3373 99.6807 51.3837 99.4672 51.4512L99.2965 51.5053C97.8243 51.9007 96.6005 52.2645 95.5194 52.5596C96.6578 52.2228 97.9309 51.8669 99.4605 51.4299C99.4605 51.4299 99.4392 51.4366 99.4178 51.4433C97.9602 51.8107 96.5587 52.2071 95.2855 52.5631C93.3289 53.1353 90.8645 54.0326 88.7844 54.8083L88.8105 54.9645Z" fill="#C3F00F"/>
<path d="M257.774 113.45C254.612 115.038 251.187 117.132 247.551 119.598C243.185 122.577 238.512 126.146 233.813 130.076C230.333 133.033 226.807 136.146 223.336 139.429C216.25 146.134 209.304 153.43 203.221 160.711C200.739 163.704 198.406 166.65 196.23 169.571C195.702 170.278 195.181 171.007 194.674 171.707C191.772 175.75 189.464 179.44 187.714 182.672L187.393 183.29L187.112 183.144C187.941 183.61 188.245 185.017 187.961 187.386C187.809 188.538 187.54 189.915 187.126 191.502C186.826 192.631 186.467 193.872 186.021 195.211L186.028 195.232C184.446 200.032 182.129 205.698 179.264 211.937C171.805 228.227 160.643 248.109 149.786 264.276C148.336 266.45 146.845 268.566 145.44 270.584C141.046 276.743 137.241 281.495 134.16 284.748C132.713 286.263 131.405 287.476 130.273 288.351C128.581 289.685 127.248 290.224 126.402 289.999C126.352 289.991 126.331 289.997 126.281 289.99L126.028 289.858C126.176 289.953 126.288 290.011 126.436 290.105L128.508 291.235L131.275 292.779C131.64 292.968 131.991 293.186 132.378 293.369C132.378 293.369 132.389 293.381 132.413 293.405C133.228 293.828 134.043 294.252 134.852 294.654C136.531 295.508 138.26 296.37 139.814 297.123C140.222 297.3 140.616 297.504 141.003 297.687C141.143 297.76 141.284 297.833 141.446 297.899C141.53 297.943 141.636 297.98 141.713 298.002C141.748 298.038 141.798 298.046 141.854 298.075C143.792 298.707 146.376 297.889 149.47 295.642C151.174 294.421 153.041 292.75 155.021 290.69C157.662 287.905 160.542 284.386 163.597 280.084C167.635 274.437 171.608 267.988 175.303 261.181C180.688 251.326 185.532 240.726 189.313 230.627C193.447 219.64 196.298 209.201 197.194 201.048L197.187 201.027C197.368 199.372 197.469 197.907 197.497 196.512C197.527 194.53 197.369 192.842 197.058 191.413C196.528 188.997 195.531 187.48 194.139 186.793L194.133 186.772C194.133 186.772 193.943 186.691 193.887 186.662C193.746 186.589 193.634 186.53 193.493 186.457L192.516 185.968L191.483 185.449C192.871 182.637 194.681 179.598 196.92 176.353C197.209 175.932 197.52 175.505 197.846 175.049C199.46 172.8 201.23 170.525 203.078 168.273C211.434 158.159 222.188 148.272 233.199 140.16C235.921 138.148 238.662 136.27 241.388 134.491C246.052 131.489 250.717 128.861 255.148 126.754C258.958 124.914 262.663 123.483 266.121 122.46C267.516 122.042 268.852 121.736 270.117 121.501C272.213 121.072 274.085 120.903 275.742 120.942C278.928 120.991 281.374 121.814 282.986 123.348C283.028 123.405 283.098 123.477 283.161 123.527C283.425 123.843 283.724 124.195 283.995 124.532C283.864 124.338 283.697 124.109 283.566 123.916L281.533 121.576L281.526 121.555C281.526 121.555 281.505 121.561 281.498 121.54C279.089 118.826 275.889 115.469 273.163 112.644C272.703 112.155 272.306 111.717 271.887 111.286C271.727 111.149 271.594 111.026 271.412 110.896C270.234 110.071 268.46 109.881 266.066 110.333C264.695 110.602 263.114 111.102 261.304 111.84C260.206 112.304 259.037 112.839 257.795 113.443L257.774 113.45Z" fill="#C3F00F"/>
<path d="M287.536 159.328C282.708 158.248 277.73 157.733 272.602 157.711C266.107 157.676 259.488 158.432 252.984 159.926C248.477 160.976 244.022 162.339 239.733 164.002C230.142 167.765 221.327 173.092 214.266 179.578C211.694 181.919 209.361 184.419 207.303 187.044C206.825 187.688 206.356 188.283 205.921 188.914C205.451 189.579 205.001 190.238 204.58 190.912C204.362 190.816 204.129 190.749 203.925 190.696L203.481 190.555C205.271 191.163 206.896 192.293 208.28 193.993C208.975 194.853 209.619 195.848 210.232 196.969C210.273 197.097 210.321 197.176 210.376 197.276C210.939 198.46 211.458 199.729 211.896 201.187C212.49 203.066 212.947 205.177 213.265 207.519C216.483 230.602 205.871 267.81 189.643 290.61C189.057 291.43 188.499 292.193 187.914 292.942C185.103 296.604 182.331 299.572 179.668 301.847C174.315 306.383 169.336 308.241 165.199 307.342C165.029 307.325 164.846 307.266 164.663 307.206L169.35 308.73L169.61 308.812C169.61 308.812 169.667 308.841 169.738 308.842C169.787 308.85 169.865 308.872 169.949 308.916C170.781 309.17 171.677 309.403 172.608 309.672C173.771 310.009 175.034 310.361 176.275 310.72C177.636 311.088 179.005 311.406 180.375 311.724C180.452 311.747 180.523 311.748 180.586 311.798L180.812 311.844C180.812 311.844 180.89 311.867 180.96 311.868C181.01 311.876 181.109 311.891 181.165 311.921C181.193 311.935 181.214 311.928 181.221 311.95C181.341 311.959 181.412 311.96 181.518 311.997C181.525 312.018 181.546 312.011 181.546 312.011C181.843 312.058 182.097 312.119 182.387 312.145C188.894 313.186 196.348 309.794 203.565 301.943C205.207 300.155 206.788 298.174 208.402 295.925C210.291 293.284 212.049 290.449 213.681 287.443C226.172 264.486 231.177 232.201 224.818 210.77C223.895 207.632 222.775 204.909 221.487 202.545C219.495 198.924 217.114 196.224 214.457 194.434C214.429 194.419 214.401 194.405 214.359 194.348C232.327 182.836 258.656 185.497 279.655 202.789C282.279 204.918 284.701 207.229 286.938 209.622C290.576 213.544 293.72 217.764 296.365 222.189C308.264 242.196 309.443 266.112 297.456 282.942C296.168 284.736 294.769 286.4 293.279 287.928C294.091 287.155 294.782 286.443 295.429 285.815C296.976 284.245 298.171 282.974 299.369 281.562C300.905 279.737 302.473 277.714 304.836 274.64C304.851 274.612 304.872 274.605 304.887 274.577C304.916 274.521 304.973 274.479 305.01 274.374C305.409 273.778 305.879 273.112 306.322 272.432C306.59 272.018 306.873 271.576 307.113 271.148C317.48 253.726 314.198 230.663 300.148 212.394C297.475 208.918 294.394 205.642 290.977 202.565C288.901 200.755 286.725 199.001 284.399 197.365C284.355 197.449 284.268 197.547 284.182 197.645C283.98 196.487 281.911 196.108 280.936 195.477L278.55 194.024C278.29 193.872 278.023 193.698 277.742 193.552C277.307 193.29 276.864 193.078 276.408 192.823C276.345 192.772 276.232 192.714 276.148 192.67C275.726 192.451 275.326 192.226 274.904 192.007L274.539 191.817C274.215 191.685 273.899 191.503 273.618 191.357C273.45 191.269 273.26 191.188 273.126 191.137C272.873 191.005 272.577 190.887 272.317 190.735C272.127 190.654 271.959 190.566 271.775 190.507C271.529 190.397 271.276 190.266 270.987 190.169C270.819 190.082 270.629 190.001 270.445 189.941C270.199 189.831 269.91 189.735 269.664 189.625C269.474 189.544 269.305 189.456 269.122 189.397C269.066 189.368 268.995 189.367 268.911 189.323C268.714 189.221 268.503 189.147 268.319 189.087C268.136 189.028 267.974 188.962 267.791 188.902C267.517 188.777 267.228 188.681 266.939 188.584C266.777 188.518 266.622 188.473 266.481 188.4C266.115 188.281 265.741 188.141 265.375 188.022C265.319 187.993 265.213 187.956 265.164 187.948C264.776 187.836 264.402 187.696 264.015 187.584C263.958 187.554 263.874 187.511 263.825 187.503C263.698 187.473 263.564 187.421 263.437 187.391C263.31 187.36 263.204 187.323 263.077 187.293C263.049 187.278 262.999 187.271 262.915 187.227C262.838 187.204 262.732 187.167 262.661 187.166C262.605 187.137 262.534 187.136 262.499 187.1C262.316 187.041 262.139 187.002 261.984 186.958C261.773 186.884 261.562 186.81 261.364 186.778C261.314 186.77 261.243 186.769 261.18 186.719C261.18 186.719 261.159 186.725 261.152 186.704C261.082 186.703 260.983 186.687 260.898 186.644C260.821 186.621 260.715 186.584 260.637 186.562C260.377 186.48 260.101 186.426 259.84 186.344C259.791 186.336 259.692 186.321 259.636 186.291C259.636 186.291 259.608 186.277 259.586 186.284C259.509 186.261 259.382 186.231 259.283 186.215C259.022 186.133 258.747 186.079 258.499 186.04C258.316 185.981 258.146 185.964 257.963 185.905C257.914 185.897 257.836 185.874 257.758 185.852C257.73 185.837 257.681 185.829 257.638 185.843C257.561 185.82 257.455 185.783 257.335 185.775C257.285 185.767 257.186 185.751 257.109 185.729C256.925 185.669 256.756 185.652 256.579 185.614C256.502 185.592 256.431 185.591 256.347 185.547C256.297 185.539 256.205 185.545 256.155 185.537C256.028 185.507 255.923 185.47 255.802 185.461C255.774 185.446 255.753 185.453 255.725 185.438C255.562 185.443 255.407 185.398 255.28 185.368C255.23 185.36 255.138 185.366 255.075 185.315C254.905 185.298 254.729 185.26 254.559 185.243C254.439 185.235 254.312 185.204 254.185 185.174C254.142 185.187 254.114 185.173 254.043 185.172C254.022 185.179 253.994 185.164 253.966 185.149C253.916 185.142 253.845 185.14 253.796 185.133C253.605 185.123 253.407 185.091 253.237 185.075C253.046 185.065 252.842 185.012 252.644 184.98C252.644 184.98 252.616 184.966 252.594 184.973C252.545 184.965 252.517 184.95 252.453 184.97C252.283 184.954 252.106 184.916 251.937 184.899C251.866 184.898 251.774 184.903 251.711 184.853C251.576 184.872 251.434 184.87 251.322 184.812C251.3 184.818 251.251 184.81 251.208 184.824C251.159 184.816 251.137 184.823 251.088 184.815C251.017 184.814 250.946 184.813 250.897 184.805C250.819 184.783 250.727 184.788 250.65 184.766C250.424 184.72 250.233 184.71 249.992 184.692C249.921 184.691 249.801 184.682 249.702 184.666C249.582 184.657 249.511 184.656 249.412 184.641C249.384 184.626 249.356 184.612 249.334 184.618C249.313 184.625 249.292 184.632 249.264 184.617C249.214 184.609 249.122 184.615 249.072 184.607C248.952 184.598 248.86 184.604 248.74 184.595C248.712 184.58 248.69 184.587 248.669 184.594C248.591 184.572 248.464 184.541 248.351 184.554C248.237 184.566 248.16 184.544 248.039 184.535C247.876 184.539 247.7 184.501 247.516 184.513C247.438 184.49 247.325 184.503 247.204 184.494C247.134 184.493 247.056 184.47 246.978 184.448C246.908 184.447 246.844 184.467 246.773 184.466C246.582 184.456 246.391 184.446 246.2 184.436C246.037 184.441 245.867 184.424 245.682 184.435C245.682 184.435 245.666 184.432 245.633 184.427C245.3 184.415 244.946 184.41 244.62 184.419C244.457 184.423 244.301 184.449 244.131 184.433C244.082 184.425 244.054 184.41 244.011 184.424C243.713 184.447 243.451 184.436 243.175 184.453C243.104 184.452 243.012 184.458 242.941 184.457C242.87 184.456 242.806 184.476 242.735 184.475C242.381 184.47 242.006 184.471 241.659 184.487C241.474 184.498 241.304 184.482 241.148 184.508C240.681 184.515 240.269 184.551 239.836 184.594C239.603 184.597 239.348 184.607 239.127 184.654C238.702 184.647 238.276 184.712 237.872 184.769C237.694 184.802 237.51 184.813 237.326 184.825C237.304 184.831 237.283 184.838 237.212 184.837C237.013 184.876 236.808 184.895 236.58 184.919C236.162 184.934 235.722 185.027 235.303 185.112C235.232 185.111 235.146 185.138 235.082 185.159C234.813 185.197 234.592 185.243 234.323 185.282C234.28 185.295 234.195 185.322 234.145 185.314C234.081 185.335 233.989 185.34 233.925 185.361C233.747 185.393 233.548 185.433 233.328 185.479L232.496 185.672C232.496 185.672 232.361 185.691 232.297 185.711C232.297 185.711 232.141 185.737 232.077 185.757C232.034 185.771 231.97 185.791 231.942 185.776L231.686 185.858C231.686 185.858 231.508 185.89 231.402 185.924C231.267 185.943 231.181 185.97 231.053 186.011C230.989 186.031 230.897 186.037 230.79 186.071L230.577 186.138C230.442 186.157 230.314 186.198 230.228 186.225L230.1 186.265C230.1 186.265 229.923 186.298 229.837 186.325L229.453 186.447C229.453 186.447 229.254 186.486 229.147 186.52L228.827 186.621L228.656 186.675C228.528 186.716 228.372 186.742 228.222 186.789L227.005 187.174C227.005 187.174 226.834 187.228 226.734 187.284L225.966 187.527C225.966 187.527 225.844 187.589 225.802 187.602L225.61 187.663C225.482 187.704 225.339 187.772 225.189 187.819L225.061 187.86C225.061 187.86 225.018 187.874 225.004 187.902C225.004 187.902 224.94 187.922 224.876 187.942L224.62 188.023C224.62 188.023 224.513 188.057 224.477 188.092C224.349 188.132 224.263 188.159 224.142 188.221C224.014 188.262 223.929 188.289 223.807 188.351C223.7 188.385 223.615 188.412 223.494 188.474L223.387 188.507C223.387 188.507 223.287 188.562 223.244 188.576L223.095 188.623C223.095 188.623 223.037 188.665 222.952 188.692C222.909 188.705 222.845 188.726 222.809 188.761L222.767 188.774C222.645 188.836 222.496 188.883 222.396 188.938L222.268 188.979C222.125 189.048 221.982 189.116 221.84 189.185L221.669 189.239C221.669 189.239 221.526 189.308 221.469 189.349C221.405 189.369 221.341 189.39 221.283 189.431C221.241 189.445 221.176 189.465 221.14 189.5C221.012 189.541 220.87 189.609 220.77 189.664C220.748 189.671 220.706 189.685 220.67 189.72C220.506 189.795 220.363 189.864 220.199 189.939C220.199 189.939 220.099 189.994 220.056 190.008L220.013 190.021C220.013 190.021 219.813 190.131 219.692 190.193C219.507 190.275 219.328 190.379 219.135 190.511C219.071 190.531 218.992 190.579 218.928 190.599C218.892 190.634 218.807 190.661 218.771 190.696C218.707 190.717 218.628 190.765 218.564 190.785C218.407 190.882 218.264 190.951 218.113 191.069C218.013 191.124 217.949 191.144 217.849 191.199C217.792 191.241 217.713 191.289 217.613 191.344C217.513 191.4 217.435 191.448 217.335 191.503C217.271 191.523 217.213 191.565 217.156 191.607C217.113 191.62 217.035 191.668 216.992 191.682C216.856 191.772 216.713 191.841 216.584 191.952C216.427 192.049 216.276 192.167 216.119 192.264C216.098 192.27 216.076 192.277 216.062 192.305C215.998 192.326 215.898 192.381 215.819 192.429C215.804 192.457 215.762 192.471 215.762 192.471C215.74 192.477 215.719 192.484 215.704 192.512L215.711 192.534C215.711 192.534 215.604 192.567 215.59 192.596C215.333 192.747 215.125 192.907 214.881 193.102L214.393 193.045L212.535 192.74C225.523 180.784 245.54 176.117 265.396 179.7C273.392 181.14 281.346 183.931 288.804 188.125C288.797 188.104 288.812 188.076 288.826 188.047C288.833 188.069 288.818 188.097 288.804 188.125C290.945 189.397 292.957 190.71 294.891 192.071C298.255 194.46 301.29 196.999 303.969 199.675C317.247 212.833 322.466 229.175 318.442 246.374C318.405 246.48 318.396 246.6 318.359 246.706C318.404 246.551 318.449 246.396 318.494 246.241C318.657 245.719 318.807 245.226 318.956 244.732C319.03 244.521 319.076 244.295 319.143 244.062C319.18 243.956 319.196 243.857 319.226 243.73C319.279 243.526 319.331 243.321 319.384 243.116C319.61 242.27 319.799 241.458 319.974 240.675C320.011 240.569 320.02 240.449 320.057 240.343C320.247 239.461 320.461 238.43 320.675 237.399C320.669 237.378 320.698 237.321 320.691 237.3C320.83 236.551 320.969 235.803 321.087 235.061C321.342 233.641 321.539 232.334 321.727 230.701C321.819 229.802 321.933 228.827 322.057 227.66C322.058 227.589 322.08 227.511 322.074 227.419C322.088 227.462 322.059 227.518 322.066 227.539C321.989 228.41 321.869 229.293 321.721 230.162C321.907 228.153 322.089 225.982 322.242 223.866C322.215 211.754 316.385 199.716 305.698 190.366C302.874 187.901 299.729 185.607 296.24 183.564C294.337 182.451 292.356 181.387 290.267 180.427C290.281 180.47 290.251 180.526 290.244 180.575C290.23 180.533 290.259 180.476 290.267 180.427C283.635 177.358 276.647 175.318 269.601 174.282C257.601 172.512 245.466 173.581 234.673 177.184C232.081 178.051 229.58 179.054 227.175 180.214C220.789 183.269 215.125 187.34 210.544 192.313C210.141 192.229 209.76 192.138 209.379 192.047C209.344 192.011 209.302 192.025 209.252 192.017C209.069 191.958 208.893 191.92 208.716 191.881L207.327 191.499C208.586 189.762 210.028 188.084 211.532 186.527C215.836 182.017 220.995 178.13 226.753 174.945C227.76 174.415 228.745 173.892 229.773 173.355C236.411 170.057 243.714 167.675 251.258 166.274C258.502 164.968 265.96 164.558 273.295 165.173C278.919 165.649 284.477 166.732 289.776 168.485C291.848 169.168 293.827 169.928 295.685 170.749C298.907 172.173 301.843 173.804 304.464 175.629C313.443 181.808 319.132 190.061 320.913 199.105C320.593 197.351 320.266 195.575 319.923 193.898L319.903 193.834C319.87 193.657 319.844 193.5 319.797 193.351C319.725 192.974 319.625 192.583 319.58 192.221C319.52 192.029 319.48 191.83 319.413 191.617C319.338 191.382 319.279 191.119 319.219 190.856C319.3 191.112 319.36 191.375 319.413 191.617C319.2 190.721 318.98 189.804 318.753 188.866C318.473 187.756 318.199 186.668 317.916 185.701C317.903 185.658 317.883 185.594 317.869 185.551C317.815 185.381 317.768 185.231 317.714 185.06C317.673 184.932 317.633 184.804 317.592 184.676C317.545 184.527 317.504 184.398 317.457 184.249C317.362 183.95 317.261 183.63 317.173 183.352C317.106 183.139 317.038 182.925 316.97 182.712C316.943 182.626 316.91 182.519 316.883 182.434C316.883 182.434 316.869 182.391 316.862 182.37L316.66 181.729C316.477 181.153 316.28 180.605 316.062 180.063C313.516 173.727 308.55 168.275 301.457 164.272C299.006 162.91 296.297 161.7 293.324 160.691C291.484 160.075 289.537 159.564 287.526 159.072L287.536 159.328Z" fill="#C3F00F"/>
<path d="M46.0566 86.5107C46.7575 85.6077 47.4718 84.7475 48.2356 83.895C47.5718 84.6923 46.8575 85.5526 46.0566 86.5107Z" fill="#C3F00F"/>
<path d="M142.116 50.8272C148.413 54.0965 154.298 59.704 159.163 67.6546C159.206 67.641 159.255 67.6488 159.326 67.6499C159.283 67.6634 159.234 67.6556 159.163 67.6546C165.321 77.686 168.903 89.895 169.972 102.406C170.789 112.037 170.114 121.858 167.949 130.976C165.869 139.691 162.444 147.799 157.66 154.504C157.66 154.504 157.681 154.497 157.703 154.49C157.703 154.49 157.681 154.497 157.66 154.504C157.175 155.198 156.676 155.849 156.156 156.507C156.489 156.965 156.885 157.474 157.364 158.098C157.6 158.399 157.858 158.693 158.129 159.03C159.304 157.695 160.445 156.254 161.567 154.677C161.496 154.676 161.419 154.653 161.348 154.652C161.419 154.653 161.49 154.655 161.567 154.677C163.941 151.342 166.059 147.641 167.89 143.703C170.805 137.401 173.029 130.473 174.47 123.298C178.308 104.325 176.889 83.5856 169.568 68.0967C167.235 63.1738 164.485 59.1583 161.43 56.0377C157.713 52.2341 153.536 49.7975 149.182 48.7323C149.055 48.702 148.949 48.6649 148.829 48.656C148.37 48.5428 147.897 48.4577 147.452 48.3871C147.325 48.3568 147.204 48.3479 147.077 48.3176C146.809 48.2852 146.54 48.2528 146.271 48.2204C146.271 48.2204 146.229 48.2339 146.201 48.2193C145.097 48.1458 143.901 48.0779 142.677 47.9955C142.464 47.9922 142.245 47.9677 142.033 47.9644C138.232 47.7577 134.049 47.6017 130.388 47.5388C130.345 47.5523 130.295 47.5444 130.246 47.5365C130.246 47.5365 130.289 47.523 130.317 47.5376C134.33 47.7476 138.322 48.8569 142.151 50.8632L142.116 50.8272Z" fill="#C3F00F"/>
<path d="M30.5439 175.703C30.5112 175.526 30.4784 175.348 30.4457 175.17C29.6146 170.688 29.9141 165.919 31.3342 161.053C32.5815 156.83 34.6516 152.534 37.6984 148.281C38.0747 147.763 38.5082 147.203 38.9057 146.677C41.0307 143.891 43.4862 141.258 46.1936 138.827C53.4901 132.267 62.5947 126.966 72.5163 123.356C76.4765 121.915 80.5671 120.738 84.7029 119.852C91.1269 118.477 97.6818 117.812 104.126 117.911C109.443 118.013 114.696 118.653 119.72 119.905C121.746 120.368 123.671 120.957 125.502 121.623C128.285 122.621 130.887 123.794 133.261 125.134C141.624 129.887 147.159 136.615 149.408 144.313C149.408 144.313 149.433 144.54 149.466 144.647L149.414 144.334L149.536 144.719C149.489 144.569 149.428 144.377 149.409 144.242C148.075 134.164 142.092 124.759 132.21 117.879C129.667 116.077 126.836 114.482 123.798 113.048C121.906 112.19 119.942 111.402 117.843 110.633L117.836 110.612C112.178 108.691 106.29 107.454 100.292 106.909C92.6032 106.218 84.8197 106.637 77.2965 108.102C63.0322 110.831 49.7819 117.208 40.3829 126.478C38.2542 128.585 36.3143 130.843 34.6208 133.211C32.2904 136.462 30.5468 139.785 29.3057 143.138C27.3621 148.428 26.7359 153.723 27.2943 158.902C27.2932 158.973 27.3056 159.087 27.318 159.2L27.5573 160.698C27.73 161.912 27.8667 163.161 28.0607 164.368C28.1791 164.965 28.2695 165.547 28.3676 166.08C28.4341 166.364 28.5073 166.67 28.5737 166.954C28.8816 168.595 29.2322 170.222 29.5895 171.871C29.656 172.155 29.7505 172.454 29.8103 172.717C29.9094 173.179 30.03 173.634 30.136 174.117C30.1698 174.224 30.1821 174.338 30.2159 174.444L30.3038 174.722C30.404 175.113 30.5179 175.547 30.6317 175.981C30.7185 176.329 30.84 176.713 30.9403 177.104C31.1295 177.702 31.3109 178.35 31.5068 178.969C31.3592 178.428 31.1982 177.845 31.0303 177.24C30.8963 176.743 30.7419 176.181 30.6011 175.662L30.5439 175.703Z" fill="#C3F00F"/>
</g>
</svg>
