<svg width="792" height="561" viewBox="0 0 792 561" fill="none" xmlns="http://www.w3.org/2000/svg">
<g opacity="0.7">
<path d="M779.465 474.726C785.882 385.865 634.687 302.536 441.762 288.605C248.837 274.675 87.2394 335.418 80.823 424.279C74.4066 513.141 225.601 596.47 418.526 610.4C611.451 624.331 773.049 563.588 779.465 474.726Z" stroke="#AFD903" stroke-width="2" stroke-miterlimit="10"/>
<path d="M766.583 456.205C769.101 369.326 618.206 294.465 429.55 288.998C240.895 283.531 85.9176 349.527 83.3998 436.406C80.882 523.285 231.777 598.146 420.433 603.613C609.089 609.081 764.066 543.084 766.583 456.205Z" stroke="#AFD903" stroke-width="2" stroke-miterlimit="10"/>
<path d="M422.865 596.827C607.221 593.834 755.554 522.577 754.176 437.669C752.797 352.761 602.23 286.355 417.874 289.348C233.518 292.341 85.1851 363.598 86.5634 448.506C87.9417 533.414 238.509 599.819 422.865 596.827Z" stroke="#AFD903" stroke-width="2" stroke-miterlimit="10"/>
<path d="M424.891 590.043C604.967 578.588 746.671 502.067 741.395 419.13C736.119 336.193 585.861 278.246 405.784 289.702C225.708 301.158 84.0048 377.678 89.2809 460.615C94.5569 543.552 244.815 601.499 424.891 590.043Z" stroke="#AFD903" stroke-width="2" stroke-miterlimit="10"/>
<path d="M426.64 583.584C602.458 563.676 737.555 481.912 728.389 400.957C719.223 320.003 569.264 270.515 393.446 290.422C217.629 310.33 82.5315 392.095 91.6978 473.049C100.864 554.003 250.823 603.491 426.64 583.584Z" stroke="#AFD903" stroke-width="2" stroke-miterlimit="10"/>
<path d="M428.599 576.957C600.125 548.592 728.585 461.556 715.521 382.557C702.457 303.558 552.816 262.511 381.29 290.876C209.763 319.242 81.3039 406.278 94.3679 485.277C107.432 564.275 257.072 605.322 428.599 576.957Z" stroke="#AFD903" stroke-width="2" stroke-miterlimit="10"/>
<path d="M430.625 570.05C597.881 533.215 719.721 440.927 702.761 363.919C685.802 286.911 536.466 254.344 369.21 291.179C201.954 328.014 80.1144 420.302 97.0739 497.31C114.033 574.318 263.37 606.885 430.625 570.05Z" stroke="#AFD903" stroke-width="2" stroke-miterlimit="10"/>
<path d="M432.531 563.598C595.494 518.313 710.695 420.761 689.839 345.711C668.984 270.66 519.969 246.531 357.006 291.817C194.043 337.102 78.8417 434.654 99.6973 509.704C120.553 584.755 269.568 608.884 432.531 563.598Z" stroke="#AFD903" stroke-width="2" stroke-miterlimit="10"/>
<path d="M434.727 556.127C593.396 502.359 701.951 399.543 677.193 326.481C652.434 253.42 503.737 237.779 345.069 291.547C186.4 345.315 77.8445 448.131 102.603 521.193C127.361 594.254 276.058 609.895 434.727 556.127Z" stroke="#AFD903" stroke-width="2" stroke-miterlimit="10"/>
<path d="M436.639 549.631C591.04 487.406 692.98 379.329 664.329 308.235C635.677 237.141 487.283 229.952 332.882 292.178C178.481 354.403 76.5408 462.48 105.192 533.573C133.844 604.667 282.238 611.857 436.639 549.631Z" stroke="#AFD903" stroke-width="2" stroke-miterlimit="10"/>
<path d="M438.545 543.279C588.665 472.605 683.976 359.266 651.427 290.127C618.878 220.989 470.795 222.233 320.675 292.906C170.555 363.58 75.2446 476.919 107.793 546.058C140.342 615.196 288.424 613.952 438.545 543.279Z" stroke="#AFD903" stroke-width="2" stroke-miterlimit="10"/>
<path d="M440.641 536.107C586.471 456.96 675.141 338.352 638.69 271.19C602.238 204.027 454.47 213.742 308.639 292.888C162.808 372.035 74.1383 490.642 110.59 557.805C147.041 624.968 294.81 615.253 440.641 536.107Z" stroke="#AFD903" stroke-width="2" stroke-miterlimit="10"/>
<path d="M442.519 529.724C584.076 442.126 666.133 318.275 625.798 253.095C585.464 187.915 438.012 206.089 296.455 293.687C154.898 381.285 72.8413 505.136 113.176 570.316C153.51 635.495 300.962 617.322 442.519 529.724Z" stroke="#AFD903" stroke-width="2" stroke-miterlimit="10"/>
<path d="M444.524 522.297C581.796 426.214 657.216 297.091 612.98 233.891C568.743 170.692 421.602 197.349 284.331 293.432C147.059 389.515 71.6391 518.639 115.875 581.838C160.111 645.038 307.252 618.38 444.524 522.297Z" stroke="#AFD903" stroke-width="2" stroke-miterlimit="10"/>
<path d="M446.489 515.626C579.483 411.083 648.272 276.69 600.133 215.451C551.995 154.212 405.158 189.316 272.165 293.859C139.171 398.402 70.3821 532.795 118.521 594.034C166.659 655.274 313.496 620.169 446.489 515.626Z" stroke="#AFD903" stroke-width="2" stroke-miterlimit="10"/>
<path d="M448.456 509.016C577.18 396.01 639.358 256.361 587.335 197.103C535.313 137.845 388.789 181.418 260.065 294.424C131.342 407.431 69.1637 547.079 121.186 606.337C173.209 665.595 319.733 622.023 448.456 509.016Z" stroke="#AFD903" stroke-width="2" stroke-miterlimit="10"/>
<path d="M450.426 501.99C574.851 380.526 630.389 235.627 574.474 178.348C518.559 121.07 372.364 173.102 247.939 294.566C123.514 416.03 67.9764 560.929 123.892 618.207C179.807 675.486 326.001 623.453 450.426 501.99Z" stroke="#AFD903" stroke-width="2" stroke-miterlimit="10"/>
<path d="M454.37 488.652C570.244 350.265 612.54 194.844 548.842 141.509C485.144 88.1735 339.573 157.121 223.7 295.507C107.827 433.894 65.5302 589.315 129.228 642.65C192.926 695.985 338.497 627.038 454.37 488.652Z" stroke="#AFD903" stroke-width="2" stroke-miterlimit="10"/>
<path d="M456.3 481.765C567.884 334.918 603.546 174.238 535.953 122.876C468.36 71.5142 323.108 148.921 211.523 295.768C99.9391 442.615 64.277 603.296 131.87 654.657C199.463 706.019 344.715 628.613 456.3 481.765Z" stroke="#AFD903" stroke-width="2" stroke-miterlimit="10"/>
<path d="M458.282 474.895C565.577 319.594 594.606 153.66 523.118 104.27C451.631 54.8808 306.699 140.739 199.404 296.041C92.1088 451.342 63.0807 617.276 134.568 666.666C206.055 716.055 350.987 630.197 458.282 474.895Z" stroke="#AFD903" stroke-width="2" stroke-miterlimit="10"/>
<path d="M460.483 468.785C563.526 305.028 585.948 133.824 510.564 86.3887C435.18 38.9536 290.536 133.25 187.493 297.007C84.45 460.763 62.0278 631.968 137.412 679.403C212.796 726.838 357.44 632.541 460.483 468.785Z" stroke="#AFD903" stroke-width="2" stroke-miterlimit="10"/>
</g>
</svg>
