<svg width="375" height="475" viewBox="0 0 375 475" fill="none" xmlns="http://www.w3.org/2000/svg">
<g opacity="0.7">
<path d="M425.425 294.718C429.406 239.584 335.597 187.882 215.897 179.239C96.1961 170.595 -4.06762 208.284 -8.0487 263.418C-12.0298 318.552 81.7794 370.254 201.48 378.897C321.18 387.54 421.444 349.852 425.425 294.718Z" stroke="#AFD903" stroke-width="2" stroke-miterlimit="10"/>
<path d="M417.433 283.226C418.995 229.322 325.372 182.875 208.32 179.482C91.2679 176.09 -4.88783 217.038 -6.45 270.942C-8.01217 324.846 85.6108 371.294 202.663 374.686C319.715 378.078 415.87 337.13 417.433 283.226Z" stroke="#AFD903" stroke-width="2" stroke-miterlimit="10"/>
<path d="M204.172 370.475C318.556 368.619 410.59 324.407 409.734 271.725C408.879 219.044 315.459 177.843 201.075 179.699C86.6911 181.556 -5.34227 225.768 -4.48709 278.45C-3.63192 331.131 89.788 372.332 204.172 370.475Z" stroke="#AFD903" stroke-width="2" stroke-miterlimit="10"/>
<path d="M205.429 366.267C317.157 359.159 405.078 311.682 401.804 260.223C398.531 208.765 305.303 172.812 193.574 179.919C81.8455 187.027 -6.07465 234.504 -2.80109 285.963C0.472466 337.421 93.7002 373.374 205.429 366.267Z" stroke="#AFD903" stroke-width="2" stroke-miterlimit="10"/>
<path d="M206.514 362.259C315.601 349.907 399.422 299.176 393.735 248.948C388.048 198.72 295.005 168.015 185.919 180.366C76.8328 192.718 -6.98868 243.449 -1.30141 293.677C4.38585 343.905 97.4282 374.61 206.514 362.259Z" stroke="#AFD903" stroke-width="2" stroke-miterlimit="10"/>
<path d="M207.729 358.147C314.153 340.548 393.856 286.546 385.751 237.531C377.645 188.516 284.8 163.049 178.376 180.648C71.9524 198.247 -7.7504 252.249 0.3552 301.264C8.4608 350.279 101.305 375.747 207.729 358.147Z" stroke="#AFD903" stroke-width="2" stroke-miterlimit="10"/>
<path d="M208.987 353.862C312.761 331.008 388.357 273.747 377.834 225.968C367.312 178.188 274.656 157.982 170.881 180.836C67.107 203.69 -8.48846 260.95 2.0341 308.73C12.5567 356.51 105.213 376.716 208.987 353.862Z" stroke="#AFD903" stroke-width="2" stroke-miterlimit="10"/>
<path d="M210.169 349.859C311.28 321.762 382.757 261.235 369.817 214.67C356.877 168.105 264.42 153.134 163.309 181.232C62.1986 209.329 -9.27806 269.855 3.66189 316.42C16.6018 362.986 109.058 377.957 210.169 349.859Z" stroke="#AFD903" stroke-width="2" stroke-miterlimit="10"/>
<path d="M211.532 345.223C309.978 311.863 377.332 248.07 361.97 202.739C346.609 157.408 254.349 147.703 155.903 181.064C57.4569 214.424 -9.8967 278.217 5.46473 323.548C20.8262 368.879 113.086 378.584 211.532 345.223Z" stroke="#AFD903" stroke-width="2" stroke-miterlimit="10"/>
<path d="M212.718 341.193C308.517 302.585 371.766 235.528 353.989 191.418C336.212 147.308 244.14 142.847 148.342 181.455C52.5433 220.063 -10.7056 287.119 7.07134 331.23C24.8483 375.34 116.919 379.801 212.718 341.193Z" stroke="#AFD903" stroke-width="2" stroke-miterlimit="10"/>
<path d="M213.901 337.251C307.043 293.402 366.179 223.08 345.984 180.183C325.789 137.286 233.911 138.058 140.768 181.907C47.6256 225.757 -11.5098 296.079 8.68516 338.976C28.8801 381.873 120.758 381.101 213.901 337.251Z" stroke="#AFD903" stroke-width="2" stroke-miterlimit="10"/>
<path d="M215.201 332.802C305.682 283.695 360.697 210.105 338.081 168.433C315.464 126.762 223.781 132.79 133.3 181.896C42.819 231.003 -12.1963 304.593 10.4199 346.265C33.0362 387.936 124.72 381.908 215.201 332.802Z" stroke="#AFD903" stroke-width="2" stroke-miterlimit="10"/>
<path d="M216.366 328.841C304.195 274.491 355.108 197.647 330.082 157.206C305.057 116.766 213.57 128.042 125.741 182.392C37.9114 236.742 -13.001 313.586 12.0246 354.027C37.0501 394.467 128.537 383.192 216.366 328.841Z" stroke="#AFD903" stroke-width="2" stroke-miterlimit="10"/>
<path d="M217.61 324.234C302.781 264.619 349.575 184.504 322.129 145.292C294.682 106.079 203.388 122.619 118.218 182.234C33.0475 241.849 -13.747 321.964 13.6995 361.176C41.1459 400.388 132.44 383.848 217.61 324.234Z" stroke="#AFD903" stroke-width="2" stroke-miterlimit="10"/>
<path d="M218.83 320.094C301.346 255.23 344.026 171.846 314.159 133.85C284.291 95.8539 193.186 117.635 110.67 182.499C28.1534 247.363 -14.5268 330.747 15.3408 368.743C45.2085 406.739 136.314 384.958 218.83 320.094Z" stroke="#AFD903" stroke-width="2" stroke-miterlimit="10"/>
<path d="M220.05 315.993C299.917 245.878 338.495 159.233 306.218 122.466C273.94 85.6995 183.029 112.734 103.163 182.849C23.2958 252.964 -15.2828 339.609 16.9948 376.376C49.2724 413.143 140.183 386.108 220.05 315.993Z" stroke="#AFD903" stroke-width="2" stroke-miterlimit="10"/>
<path d="M221.272 311.634C298.472 236.272 332.931 146.369 298.238 110.83C263.545 75.2914 172.838 107.575 95.6388 182.937C18.4391 258.3 -16.0195 348.203 18.6732 383.741C53.366 419.28 144.073 386.996 221.272 311.634Z" stroke="#AFD903" stroke-width="2" stroke-miterlimit="10"/>
<path d="M222.485 307.452C297.031 226.837 327.376 133.664 290.262 99.3446C253.149 65.0253 162.631 102.555 88.0854 183.171C13.5394 263.786 -16.8057 356.958 20.3077 391.278C57.4211 425.597 147.939 388.067 222.485 307.452Z" stroke="#AFD903" stroke-width="2" stroke-miterlimit="10"/>
<path d="M223.72 303.358C295.613 217.496 321.856 121.065 282.335 87.9726C242.813 54.8806 152.493 97.6593 80.5997 183.521C8.70588 269.384 -17.5371 365.815 21.9844 398.907C61.5059 431.999 151.826 389.22 223.72 303.358Z" stroke="#AFD903" stroke-width="2" stroke-miterlimit="10"/>
<path d="M224.917 299.086C294.149 207.974 316.276 108.279 274.338 76.4119C232.399 44.5444 142.277 92.5713 73.0446 183.683C3.81181 274.795 -18.3148 374.489 23.6235 406.357C65.5618 438.224 155.684 390.197 224.917 299.086Z" stroke="#AFD903" stroke-width="2" stroke-miterlimit="10"/>
<path d="M226.146 294.823C292.718 198.466 310.729 95.5113 266.374 64.8675C222.02 34.2238 132.097 87.4948 65.5252 183.852C-1.04639 280.209 -19.0569 383.163 25.2974 413.807C69.6518 444.451 159.575 391.18 226.146 294.823Z" stroke="#AFD903" stroke-width="2" stroke-miterlimit="10"/>
<path d="M227.512 291.032C291.446 189.429 305.357 83.2046 258.585 53.7734C211.813 24.3422 122.068 82.8488 58.1349 184.452C-5.79837 286.055 -19.7102 392.279 27.062 421.71C73.8342 451.142 163.579 392.635 227.512 291.032Z" stroke="#AFD903" stroke-width="2" stroke-miterlimit="10"/>
</g>
</svg>
