<svg width="64" height="63" viewBox="0 0 64 63" fill="none" xmlns="http://www.w3.org/2000/svg">
<path d="M32.0186 0L34.3864 19.0656C35.0433 24.3282 39.1904 28.4752 44.4529 29.1322L63.5186 31.5L44.4529 33.8678C39.1904 34.5248 35.0433 38.6719 34.3864 43.9344L32.0186 63L29.6508 43.9344C28.9938 38.6719 24.8467 34.5248 19.5842 33.8678L0.518555 31.5L19.5842 29.1322C24.8467 28.4752 28.9938 24.3282 29.6508 19.0656L32.0186 0Z" fill="#C3F00F"/>
<path d="M47.9291 15.5957L43.8162 20.8719C38.9506 27.1199 38.9506 35.8794 43.8162 42.1343L47.9291 47.4105L42.6528 43.2976C36.4048 38.432 27.6453 38.432 21.3905 43.2976L16.1143 47.4105L20.2271 42.1343C25.0928 35.8863 25.0928 27.1268 20.2271 20.8719L16.1143 15.5957L21.3905 19.7086C27.6385 24.5742 36.398 24.5742 42.6528 19.7086L47.9291 15.5957Z" fill="#C3F00F"/>
</svg>
