<svg width="263" height="73" viewBox="0 0 263 73" fill="none" xmlns="http://www.w3.org/2000/svg">
<path d="M262.213 0.293999V72.9097L0.548096 72.9097L0.548096 0.293999L262.213 0.293999ZM260.435 71.1291V2.0718L2.3287 2.0718L2.3287 71.1291L260.435 71.1291Z" fill="white"/>
<path d="M217.989 58.6621C217.967 58.6985 217.95 58.7349 217.944 58.7741C217.925 58.9169 218.084 59.0765 218.165 59.2305C218.28 59.0905 218.473 58.9589 218.49 58.8105C218.496 58.7741 218.49 58.7349 218.476 58.6957C218.437 58.5809 218.333 58.4606 218.275 58.343C218.188 58.4494 218.056 58.5529 217.989 58.6621Z" fill="white"/>
<path d="M225.011 42.7571C224.974 42.6787 224.938 42.6031 224.902 42.5247C224.84 42.5919 224.778 42.6591 224.717 42.7263C224.815 42.7375 224.913 42.7487 225.008 42.7571H225.011Z" fill="white"/>
<path d="M232.659 29.4921C232.642 29.5424 232.794 29.632 232.869 29.7048C232.97 29.5453 233.09 29.3885 233.155 29.2205C233.16 29.2093 233.155 29.1953 233.138 29.1785C233.096 29.1309 232.992 29.0665 232.931 29.0161C232.836 29.1729 232.715 29.3241 232.656 29.4921H232.659Z" fill="white"/>
<path d="M222.119 49.2998C222.133 49.2494 221.962 49.1626 221.875 49.0926C221.783 49.2662 221.668 49.437 221.615 49.619C221.612 49.6302 221.621 49.6442 221.635 49.661C221.651 49.6778 221.679 49.6974 221.71 49.717C221.761 49.7506 221.822 49.787 221.864 49.8206C221.954 49.647 222.069 49.479 222.119 49.2998Z" fill="white"/>
<path d="M178.309 35.7634C178.345 35.7858 178.384 35.8082 178.426 35.8138C178.522 35.8306 178.631 35.797 178.734 35.783C178.592 35.7746 178.449 35.769 178.309 35.7606V35.7634Z" fill="white"/>
<path d="M125.689 31.3651C125.423 31.3931 125.121 31.4239 124.735 31.4631C125.541 32.0174 126.132 32.4234 126.958 32.9917C127.005 32.471 127.154 32.149 127.022 32.0202C126.776 31.7766 126.165 31.7682 126.297 31.3063C126.109 31.3259 125.913 31.3455 125.692 31.3679L125.689 31.3651Z" fill="white"/>
<path d="M106.707 5.87388C106.847 5.88507 106.984 5.89627 107.124 5.90747C107.096 5.81508 107.088 5.71429 107.029 5.6387C107.001 5.60511 106.878 5.61911 106.8 5.61351C106.769 5.7003 106.738 5.78709 106.71 5.87388H106.707Z" fill="white"/>
<path d="M115.106 39.8006C115.086 39.8118 115.064 39.823 115.039 39.8342C114.966 39.8678 114.89 39.8986 114.879 39.9406C114.862 40.0106 114.946 40.0974 114.986 40.1758C115.12 40.0946 115.254 40.0134 115.386 39.935C115.352 39.9182 115.319 39.9042 115.285 39.8874C115.226 39.8594 115.165 39.8314 115.106 39.8034V39.8006Z" fill="white"/>
<path d="M66.7024 35.8446L66.6184 35.7998L66.6996 35.8474L66.7024 35.8446Z" fill="white"/>
<path d="M238.079 25.0741C237.808 25.4072 237.609 25.7824 237.374 26.1352C235.798 28.5093 234.177 30.8638 232.654 33.2632C231.299 35.3937 229.952 37.5355 228.779 39.7389C227.175 42.7541 225.727 45.8226 224.238 48.8771C221.581 54.3337 219.865 60.0423 217.941 65.6836C217.342 67.4391 216.872 69.3092 216.609 71.1291C216.567 71.4202 216.511 71.7114 216.46 71.9998H221.726C221.833 71.3558 221.962 70.7147 222.16 70.0904C222.636 68.6037 222.586 67.0471 223.297 65.5857C223.826 64.4994 224.403 63.2143 224.168 62.1364C223.846 60.6666 225.688 59.8043 225.187 58.4436C225.971 56.2711 226.632 54.0593 227.561 51.9315C229.44 47.6396 231.237 43.3141 233.774 39.2405C235.467 36.5164 237.032 33.7503 238.973 31.1186C240.325 29.2848 241.324 27.2718 243.063 25.62C243.292 25.4016 243.446 25.0965 243.519 24.8109C243.852 23.4894 244.869 22.5264 245.877 21.5381C246.736 20.6954 247.881 19.9002 248.265 18.9147C248.841 17.4337 249.889 16.2774 251.039 15.18V9.62817C249.161 11.7699 247.29 13.9201 245.451 16.0843C242.934 19.0435 240.526 22.07 238.082 25.0741H238.079Z" fill="white"/>
<path d="M242.509 4.8211C241.7 6.45892 240.353 7.69079 239.093 9.02345C238.494 9.65618 237.772 10.2581 237.397 10.9776C236.425 12.8394 234.899 14.3793 233.474 15.9835C232.973 16.549 232.539 17.1594 232.114 17.7697C231.515 18.632 230.98 19.5251 230.367 20.3762C228.754 22.616 226.828 24.7353 225.546 27.0983C223.664 30.5671 221.469 33.9015 219.585 37.3704C216.909 42.2922 214.73 47.3541 212.874 52.4915C211.225 57.0578 210.041 61.7641 209.184 66.4816C208.851 68.3182 208.56 70.1576 208.302 72.0026H210.85C211.22 69.5668 211.76 67.1479 212.325 64.7402C214.005 57.5869 216.561 50.6325 219.742 43.8404C219.792 43.7313 219.837 43.6165 219.89 43.5017C220.036 43.1769 220.243 42.8774 220.766 42.8298C220.618 43.5381 220.559 44.2744 220.366 44.9715C220.299 45.2095 220.218 45.4447 220.111 45.6686C217.432 51.338 215.313 57.139 213.697 63.0799C212.891 66.042 212.174 69.0097 211.651 72.0054H213.364C213.966 69.4325 214.548 66.8539 215.136 64.2782L215.131 64.2334C215.189 64.1438 215.273 64.0626 215.304 63.9675C216.514 60.2131 217.572 56.4223 218.969 52.7183C220.075 49.7814 221.553 46.9397 222.95 44.084C224.442 41.0351 225.968 37.9947 227.617 35.0018C227.676 34.8926 227.738 34.7834 227.797 34.6714C227.85 34.5735 227.903 34.4755 227.962 34.3775C228.356 33.6916 228.858 33.0224 229.835 32.7201C229.835 32.7397 229.835 32.7565 229.835 32.7761C229.843 32.7649 229.851 32.7537 229.86 32.7425C229.84 32.2749 229.602 31.7066 229.835 31.351C231.341 29.0637 232.892 26.7931 234.541 24.573C236.448 22.0056 238.368 19.4467 240.395 16.9354C243.797 12.7218 247.201 8.5223 251.037 4.56913V1.75823C250.855 1.99061 250.631 2.20339 250.37 2.39377C250.127 2.57015 249.853 2.73253 249.553 2.88091C249.603 4.09039 248.593 4.8659 247.739 5.63022C244.133 8.86386 241.798 12.8534 238.447 16.2355C237.777 16.913 237.542 17.8817 236.884 18.5704C236.285 19.1975 236.131 20.2922 234.785 20.2894C234.983 18.8728 235.913 17.7305 236.84 16.591C238.326 14.7656 239.821 12.943 241.339 11.1344C242.03 10.3113 242.789 9.53019 243.5 8.71828C244.919 7.09726 246.308 5.45943 247.75 3.85241C248.164 3.39046 248.716 3.0097 249.203 2.58974C249.433 2.0718 249.721 1.59865 250.121 1.2067H245.958C245.768 1.38587 245.575 1.56226 245.381 1.73863C244.323 2.70173 243.086 3.66483 242.512 4.82391L242.509 4.8211Z" fill="white"/>
<path d="M17.3518 4.1017C17.377 5.38676 16.4391 6.34145 15.6804 7.32415C14.8993 8.33484 15.0337 9.5331 14.2749 10.611C13.1635 12.1956 12.5727 14.049 11.3465 15.6308C11.8672 16.8011 10.6437 17.4254 10.165 18.2933C9.63025 19.2676 9.31668 20.3231 8.81273 21.3114C8.02602 22.854 7.13292 24.3603 6.349 25.9057C6.17542 26.2473 6.391 26.7232 6.22302 27.0704C5.66028 28.2323 4.76438 29.2626 4.87076 30.6484C4.90716 31.1327 3.99446 31.6227 3.78449 32.1798C3.56051 32.7762 3.93847 33.6217 3.55491 34.0612C2.757 34.9795 4.32483 35.9818 3.20215 36.7713C3.6669 37.3397 3.98046 38.1404 4.62719 38.4259C5.69947 38.8991 4.588 39.515 5.01635 39.9462C5.01635 39.9462 5.01635 39.9462 5.01915 39.9462C5.01915 39.9462 5.01075 39.9406 5.01355 39.9434H5.00795C5.11994 40.2374 5.25712 40.5117 5.4447 40.7497C5.75547 41.1445 6.19782 41.4272 6.88095 41.5196L6.84175 41.612C6.86135 41.5784 6.87255 41.556 6.88935 41.5252C7.07972 41.1865 7.19451 41.0073 7.37649 41.0045C7.42688 41.0045 7.48288 41.0157 7.54727 41.0381C7.72925 41.1053 7.98962 41.2788 8.38438 41.5448C8.40398 41.5588 8.42078 41.5672 8.44037 41.584L8.40958 41.5224C10.403 42.7851 12.3599 44.0981 14.4233 45.2768C14.9049 45.5512 14.8937 46.0355 15.0925 46.1195C16.4895 46.6963 16.6631 47.9897 17.5814 48.8324C18.5557 49.7255 19.4544 50.6718 20.3503 51.6209C20.6442 51.9317 20.9634 52.2956 21.0334 52.668C21.3162 54.135 22.5956 55.1317 23.4411 56.33C23.6791 56.666 24.0347 56.9627 24.1831 57.3183C25.3169 60.0788 27.4111 62.4165 29.2645 64.8159C31.1039 67.1984 32.7053 69.7237 34.7519 72.0027H49.0779C49.0023 71.8991 48.9296 71.7927 48.8456 71.6919C47.9133 70.586 46.9418 69.5026 45.9871 68.4107C46.393 66.6553 44.1925 65.9749 43.6885 64.5947C43.6549 64.5023 43.487 64.4127 43.501 64.3427C43.7837 63.0829 42.7086 62.3409 41.9527 61.4702C41.5552 61.0139 40.8188 60.3784 40.9672 60.0452C41.46 58.9253 40.3933 58.3934 39.9677 57.6319C39.825 57.3743 39.3238 57.0747 39.391 56.9459C39.9397 55.924 39.307 55.0841 38.5819 54.5046C37.6132 53.7319 38.7331 52.7324 37.8484 51.9933C36.9693 51.2625 37.0728 50.1931 36.7677 49.2608C36.4429 48.2641 35.421 47.511 35.8634 46.2371C36.0818 45.6072 35.1383 44.7533 35.1523 44.0085C35.1691 43.079 33.6796 42.6087 34.3516 41.5084C34.8611 40.6769 33.5592 40.1562 33.4137 39.3918C33.3437 39.0223 33.2877 38.6303 33.3577 38.2692C33.5228 37.4265 32.2546 36.6089 33.2989 35.7634C32.3162 34.9403 32.9909 33.8289 32.5849 32.8742C32.3386 32.2918 31.5183 31.8271 31.9914 30.9396C32.3218 30.3208 32.123 29.4473 31.9606 28.7194C31.6834 27.4764 31.843 26.2249 31.759 24.9846C31.6778 23.7556 31.8682 22.5097 31.8094 21.2554C31.7002 18.9149 32.1398 16.5799 32.011 14.2254C31.9494 13.0831 32.4981 11.924 32.5065 10.7734C32.5149 9.50791 33.464 8.30684 32.8369 7.01898C33.7608 5.87671 32.7781 4.24728 34.262 3.2114C34.4691 3.06581 34.1416 2.48627 34.2592 2.15311C34.3655 1.84795 34.4075 1.53439 34.4243 1.21242H18.9924C18.7125 2.06912 18.3149 2.85863 17.5814 3.55296C17.4358 3.69295 17.3406 3.92252 17.3462 4.11009L17.3518 4.1017Z" fill="white"/>
<path d="M66.5369 6.51221C67.388 5.83468 68.1131 5.31113 68.7598 4.7232C69.4065 4.13806 70.504 3.44934 70.4424 2.8782C70.378 2.27067 70.5208 1.73873 70.6328 1.20119L61.3154 1.20119C62.0294 3.72651 64.1011 5.10956 66.5369 6.51221Z" fill="white"/>
<path d="M5.40283 65.2047C5.42557 65.2104 5.44831 65.2189 5.46821 65.2246C5.44547 65.2189 5.42273 65.2104 5.40283 65.2019V65.2047Z" fill="white"/>
<path d="M41.4485 3.15247C41.4317 3.19727 41.4205 3.24206 41.4065 3.28685C42.2745 3.38764 42.728 3.83279 42.8596 4.54111C43.6211 4.89948 43.6155 4.95547 42.8568 5.73939C42.8568 5.94936 42.8596 6.16214 42.8624 6.37212C43.3075 6.74448 43.5399 6.94885 43.5371 7.10564C43.5371 7.25962 43.3103 7.38001 42.882 7.58159C42.84 7.60119 42.8092 7.61518 42.7644 7.63758L42.8904 7.58438C43.078 8.04913 43.5399 8.57548 43.4083 8.96464C42.8568 10.5969 43.4979 12.3243 42.7084 13.9313C42.3976 14.5668 42.2661 15.2751 42.1597 15.9611C42.0421 16.7226 41.8237 17.5457 42.0617 18.2484C42.3612 19.1331 40.8858 19.945 42.0449 20.7681C41.7285 21.5157 41.2834 22.2632 42.0029 23.0247C40.617 26.9975 41.6781 31.0094 41.8349 34.9962C41.8797 36.1161 41.7817 37.2947 42.1373 38.4454C42.4872 39.5821 42.2801 40.8644 42.7756 41.9366C43.2963 43.0705 42.896 44.266 43.5119 45.3607C43.7471 45.7778 43.4755 46.3825 43.6827 46.8221C44.1055 47.7236 44.6402 48.4907 44.5254 49.6022C44.4218 50.6101 45.2169 51.6768 45.5893 52.7211C45.9533 53.7457 46.166 54.818 46.656 55.7951C47.1935 56.8702 47.7003 57.9369 48.095 59.0624C48.4114 59.9639 49.702 60.7534 49.688 61.5821C49.6684 62.8112 50.6203 63.3543 51.2503 64.1578C51.6422 64.659 52.2694 65.1825 52.289 65.7088C52.3366 66.9491 53.3108 67.705 54.0248 68.6177C54.6127 69.368 55.1194 70.1604 55.6654 70.9331C55.9146 71.2886 56.1609 71.6442 56.4073 71.9998H82.0833C81.7081 71.619 80.969 71.9326 80.4427 71.8346C80.4343 71.3222 81.305 70.9023 80.5743 70.2975C79.9443 69.7796 79.4488 69.1525 78.8917 68.5729C79.4404 68.1698 80.1823 67.7414 79.6364 67.3411C78.8889 66.7951 78.9224 66.1596 78.7797 65.5101V65.5409C78.5697 65.5605 78.3625 65.5773 78.1553 65.5969C78.3597 65.5689 78.5641 65.5409 78.7685 65.5101C78.5473 64.5246 78.2029 63.5615 77.839 62.6096C77.7158 62.2904 77.5926 61.9712 77.4722 61.6521C77.1194 60.7282 76.4111 59.9415 76.9599 58.928C75.8904 58.0097 77.2118 56.803 76.4223 55.8511C77.0663 54.7984 75.9464 53.5666 76.9039 52.5447C75.798 51.5788 77.923 50.4701 76.7079 49.5098C77.7074 47.83 77.321 46.0214 77.5478 44.266C77.6906 43.1601 77.5114 42.3594 76.8451 41.5083C76.7303 41.3599 76.7079 41.1611 76.6715 41.0603C77.0159 40.394 77.3322 39.7809 77.657 39.1537C77.2678 39.053 77.0327 38.9942 76.8059 38.9214C76.9011 38.6442 76.9963 38.367 77.0914 38.0899C76.9935 38.0759 76.8955 38.0591 76.7975 38.0451V38.9158C76.3663 38.8514 75.938 38.787 75.476 38.7198C73.967 39.6801 72.3964 40.6824 70.8229 41.6819C70.5682 41.8442 70.1202 42.1662 70.067 42.127C68.9555 41.3123 68.4488 42.6394 67.5865 42.5946C67.0322 42.099 65.7611 41.7127 63.9245 41.4103C63.6221 41.3599 63.3673 41.1107 63.0874 40.9567C62.4966 40.632 61.9059 40.31 61.3152 39.9853C61.3152 39.9881 61.3152 39.9908 61.3152 39.9936C61.3124 39.9881 61.3096 39.9825 61.3068 39.9797C61.3068 39.9797 61.3152 39.9852 61.318 39.9824C61.3432 39.4113 61.1304 38.8262 61.5979 38.3138C61.6651 38.241 61.7435 38.1683 61.8415 38.0983C62.5582 37.5803 63.1126 36.914 63.7761 36.3401C64.5684 35.6569 65.5483 35.5421 66.6178 35.7969C66.629 35.7857 66.6374 35.7745 66.6486 35.7661C66.6654 35.7913 66.685 35.8193 66.7046 35.8445C66.9874 35.6037 67.2673 35.4917 67.5529 35.4749C67.8049 35.4581 68.0624 35.5197 68.3284 35.6233C68.4684 35.6765 68.6084 35.7381 68.754 35.8109C68.8603 35.8669 68.9695 35.9257 69.0815 35.9873C70.5262 34.859 72.0408 33.7391 73.4602 32.5465C74.1322 31.9809 75.0561 31.3034 75.1233 30.6231C75.2884 28.9517 77.5954 27.8514 76.7835 25.9952C78.0853 24.4497 78.1357 22.7083 77.9398 20.9277C79.18 20.141 77.6822 18.9735 78.5613 18.0636C79.4516 17.1481 79.2164 16.0283 78.8469 14.9644C79.2668 14.8552 79.4516 14.6508 79.4236 14.3764C79.4152 14.2841 79.3816 14.1861 79.3256 14.0797C79.1464 13.7409 78.9365 13.4161 78.7349 13.0858C78.2309 13.0774 77.7298 13.0718 77.2258 13.0634C77.4078 12.3971 77.755 11.7279 77.7438 11.0644C77.6906 7.75517 77.9958 4.47392 78.4605 1.19828H73.7094C73.0039 3.84679 72.4608 6.58769 70.515 8.91424C70.3862 9.06822 70.2518 9.2978 70.2938 9.46578C70.5822 10.6249 69.3223 11.1316 68.8128 11.9491C68.0792 13.1306 66.6486 12.4866 65.5847 12.8002C65.3971 12.8562 65.134 12.7414 64.7756 12.6854C63.8433 11.8819 62.7626 11.0616 61.8499 10.1293C60.9652 9.2222 60.0637 8.3739 59.7613 7.07204C59.5038 5.95216 57.9275 5.00587 57.7932 3.91119C57.656 2.80811 56.6817 2.05499 56.3625 1.20389H42.2437C42.2521 1.25988 42.2549 1.31307 42.2549 1.36906C42.2437 2.02699 41.6641 2.55614 41.4485 3.15527V3.15247Z" fill="white"/>
<path d="M1.43846 10.3618C2.22518 9.15515 2.65353 7.72731 4.45933 7.15337C4.54612 7.12537 4.58532 6.99099 4.61052 6.8286C4.62171 6.75021 4.63291 6.66622 4.64131 6.58503C4.64131 6.57663 4.64131 6.56823 4.64411 6.55983C4.65251 6.50103 4.66091 6.44784 4.66931 6.39465C4.34734 6.40584 4.02538 6.41705 3.70341 6.42545C3.8686 6.09508 3.99738 5.74512 4.21296 5.43716C4.30255 5.30837 4.49293 5.22998 4.66371 5.14039C4.82049 4.74563 4.94368 4.33687 5.06407 3.92812C5.11166 3.77133 5.15925 3.61175 5.20685 3.45497C5.29644 3.1666 5.40003 2.88383 5.51482 2.60666C5.72479 2.10551 5.98796 1.62677 6.38832 1.19841H1.43286L1.43286 10.359L1.43846 10.3618Z" fill="white"/>
<path d="M4.76451 6.39174C4.73371 6.39174 4.70292 6.39173 4.67212 6.39453C4.70292 6.39453 4.73371 6.39454 4.76451 6.39174Z" fill="white"/>
<path d="M89.0325 22.266C89.2145 23.6239 89.5057 24.9873 89.4749 26.3452C89.4441 27.7702 89.4861 29.1812 89.5925 30.6035C89.6933 31.9361 89.2985 33.2884 89.7521 34.6183C88.9457 35.531 89.7045 36.536 89.5757 37.5047C89.4441 38.5014 89.4609 39.5821 89.6289 40.6208C89.7828 41.5699 89.2985 42.5274 89.6597 43.4765C88.7218 44.3668 90.3064 45.5875 89.0969 46.4442C90.3064 47.2197 88.6434 48.1828 89.2537 48.8631C89.3069 48.9219 89.3489 48.9779 89.3853 49.0367C89.6009 49.3782 89.5421 49.703 89.4273 50.0194C89.3713 50.179 89.2985 50.3357 89.2425 50.4925C89.1277 50.8005 89.0689 51.1085 89.2733 51.4192C89.2397 51.436 89.2089 51.45 89.1753 51.4668C89.0773 51.3744 88.9765 51.282 88.8785 51.1924C88.8785 51.3324 88.8785 51.4696 88.8785 51.6096C88.9793 51.562 89.0773 51.5144 89.1781 51.4696C89.1949 51.4864 89.2117 51.5004 89.2285 51.5172C90.1972 51.9372 89.1221 52.2591 89.1641 52.6091C89.2285 53.1438 89.7968 53.8102 89.5673 54.1629C88.8001 55.3472 90.0488 55.4172 90.6899 55.8427L90.7543 55.8091C90.7907 56.4951 90.8271 57.1838 90.8607 57.8697C92.3334 57.8361 91.5774 58.9168 91.9834 59.3676C92.3866 59.8155 92.7841 60.2747 93.1929 60.7198C93.4924 61.0474 93.8032 61.3665 94.1224 61.6773C94.3491 61.8985 94.5871 62.1113 94.8335 62.3156C95.0351 62.4836 95.2422 62.646 95.4606 62.8028C96.1101 63.2675 96.8353 63.6679 97.6836 63.9619C97.6472 63.6511 97.6108 63.3375 97.5772 63.0267C98.6551 62.954 98.837 62.9736 99.117 63.6623C99.1562 63.7603 99.1982 63.8723 99.2458 64.001C99.8141 64.1074 100.38 64.2166 100.948 64.323C100.385 64.631 99.8253 64.9417 99.2626 65.2497C99.5958 66.1036 100.382 65.7593 101.049 65.7341C101.052 65.7901 101.054 65.8432 101.057 65.8992C101.088 65.8432 101.119 65.7873 101.147 65.7285H101.046C101.522 65.6641 102.001 65.6025 102.477 65.5409C102.689 65.5017 102.899 65.4513 103.115 65.4233C103.227 65.4093 103.345 65.4317 103.459 65.4373C103.339 65.5409 103.221 65.7285 103.104 65.7285C102.891 65.7285 102.678 65.6109 102.463 65.5437C102.807 66.5684 103.661 67.2431 104.756 67.3999C104.912 67.4223 105.072 67.4335 105.237 67.4335C105.976 67.4335 106.564 67.2543 107.057 67.831C107.119 67.9038 107.331 67.9822 107.365 67.9598C108.143 67.3691 108.857 67.6043 109.565 67.8534C109.672 67.8898 109.778 67.929 109.885 67.9654C110.204 68.0718 110.526 68.1586 110.853 68.1474C110.881 68.083 110.909 68.0046 110.937 67.9234C110.965 67.8422 110.993 67.7582 111.021 67.6826C111.077 67.5315 111.136 67.4111 111.201 67.4083C111.808 67.3831 111.752 67.7358 111.724 68.0606C111.718 68.1082 111.716 68.153 111.716 68.1978C112.052 68.3238 112.39 68.4498 112.726 68.5757H112.721H112.724C112.948 68.6065 113.174 68.6709 113.39 68.6513C113.51 68.6401 113.614 68.4918 113.723 68.405C113.605 68.405 113.482 68.391 113.367 68.4134C113.143 68.4554 112.925 68.517 112.707 68.5701C112.97 68.2426 113.233 67.9122 113.502 67.5791C113.894 67.6658 114.294 67.6882 114.7 67.6854C115.106 67.6854 115.512 67.6602 115.915 67.6574C116.041 67.6574 116.164 67.6574 116.288 67.663C116.464 67.6686 116.638 67.6798 116.808 67.7022C117.295 67.7666 117.769 67.915 118.205 68.2342L118.186 68.279C118.175 68.3014 118.166 68.3238 118.166 68.3238C118.183 68.293 118.2 68.2706 118.219 68.2426C118.301 68.1166 118.385 68.0242 118.469 67.9682C118.877 67.691 119.3 68.1278 119.717 68.2706C119.748 68.2818 119.782 68.2902 119.812 68.2986L119.759 68.2174C121.123 69.1553 122.931 68.1726 124.334 68.9397C124.561 68.7605 124.771 68.6485 124.964 68.5897C125.093 68.5505 125.216 68.5365 125.333 68.5393C125.417 68.5393 125.499 68.5561 125.58 68.5757C125.619 68.5841 125.658 68.5953 125.695 68.6065C126.17 68.7689 126.574 69.1861 127.024 69.4437C127.038 69.4129 127.055 69.3849 127.069 69.3541C127.162 69.1581 127.248 68.9593 127.4 68.8081C127.903 68.3042 128.209 68.363 128.491 68.9901C128.553 69.1273 128.547 69.2897 128.553 69.4437C128.813 69.3933 129.057 69.3849 129.292 69.4157C129.525 69.4465 129.746 69.5164 129.953 69.6256C130.084 69.6956 130.21 69.7852 130.336 69.8832C130.272 69.8832 130.068 69.872 130.068 69.872C130.068 69.872 130.037 70.0288 130.026 70.0932C131.901 71.2075 133.721 70.9835 135.505 69.886L135.465 69.8412C139.491 69.914 143.386 69.2757 147.221 68.335H147.196C147.202 68.3266 147.207 68.3182 147.213 68.3098C147.213 68.3154 147.219 68.3238 147.221 68.3294C148.812 67.957 150.167 67.3747 150.461 65.8544C150.337 65.8152 150.214 65.7761 150.077 65.7313C149.915 65.6781 149.736 65.6221 149.526 65.5549C149.92 65.4177 150.197 65.3197 150.469 65.2245C150.601 64.7402 150.729 64.2586 150.861 63.7743L150.822 63.7015L150.816 63.6931C151.393 64.1438 151.841 64.9809 152.829 64.5442C153.932 64.0542 153.901 64.7738 154.167 65.1993C155.2 64.827 156.049 66.2268 157.149 65.4205C157.255 65.3421 157.633 65.3981 157.787 65.4989C158.91 66.238 160.069 66.8791 161.606 66.7335C163.216 68.0074 165.436 68.3098 167.298 69.1777C169.381 70.1436 171.66 70.8267 173.594 72.0054H180.039C180.009 71.9802 179.981 71.955 179.95 71.9298C174.924 67.9598 170.078 63.8359 165.179 59.7567C162.603 57.6121 160.092 55.4172 157.516 53.2726C157.454 53.2222 157.395 53.169 157.334 53.1158C156.914 52.7351 156.48 52.3039 155.702 52.4355C155.243 51.45 155.156 51.3184 154.375 51.632C154.265 51.6768 154.142 51.73 154.002 51.7916C153.607 52.2003 153.213 52.6091 152.818 53.015C153.745 52.8471 154.671 52.6763 155.598 52.5083C154.96 53.2082 154.319 53.9081 153.68 54.6109C153.347 54.1265 153.017 53.6394 152.684 53.155C152.661 53.1214 152.639 53.0878 152.614 53.0542L152.681 53.1578C147.569 51.3856 142.235 50.2294 136.826 49.3139C132.82 48.6363 128.769 48.1436 124.754 47.4968C120.129 46.7493 115.644 45.6854 111.48 43.7397C109.731 42.9221 108.205 41.9507 107.284 40.562C105.85 38.3922 103.675 36.5836 102.958 34.0443C102.524 32.5073 101.53 31.0794 100.822 29.5928C100.069 28.011 99.0498 26.4571 98.7195 24.8109C98.4003 23.2291 96.7373 22.0952 96.9417 20.3958C96.9837 20.057 96.6141 19.4355 95.581 19.6903C95.7994 20.071 96.0457 20.3818 96.1605 20.7234C96.3005 21.1461 96.0654 21.4429 95.5726 21.5801C95.1303 20.771 94.2847 20.0906 94.2204 19.1583C94.212 19.0492 94.226 18.9316 94.2428 18.814C94.1924 18.7944 94.1448 18.772 94.0944 18.7496C94.142 18.7412 94.1924 18.7328 94.24 18.7244C94.1784 18.1169 93.82 17.6465 93.414 17.179C93.3552 17.1118 93.2964 17.0446 93.2377 16.9774C93.1677 16.8962 93.0949 16.8178 93.0249 16.7338C92.7029 16.3615 93.2545 16.0927 93.8228 16.3391C93.9964 16.689 94.2568 16.521 94.4555 16.2999C94.5031 16.2467 94.2959 16.0339 94.2064 15.8967C94.0776 16.0395 93.9488 16.1851 93.8228 16.3363C93.8228 16.3447 93.778 16.2523 93.778 16.2523C93.792 15.32 92.3754 14.5053 93.4364 13.461C93.4812 13.4162 93.0501 13.0578 92.8681 12.831C92.4314 12.2851 92.0142 11.7308 91.5915 11.182C91.8518 10.8629 92.1066 10.5521 92.3866 10.2049C91.835 9.78777 91.3283 9.40421 90.8215 9.02345C90.4296 8.87787 90.5864 8.71548 90.9083 8.6007C90.9783 8.5755 91.1547 8.75468 91.2807 8.83867C91.1183 8.89466 90.9559 8.95066 90.7935 9.00385C90.7935 9.00385 90.8887 9.04865 90.8943 9.05145C92.087 8.46352 92.2438 8.38512 91.9386 7.7216C91.8938 7.6264 91.8434 7.52001 91.7818 7.39963C91.5747 6.98247 91.3227 6.57652 91.0903 6.16776C91.1043 6.16216 91.1183 6.15936 91.1351 6.15376C91.1043 6.13137 91.0735 6.10896 91.0455 6.08656C91.0455 6.08656 91.0511 6.18176 91.0483 6.18176C90.9895 5.60783 90.9531 5.03388 90.8719 4.46275C90.7319 3.46326 90.4464 2.30418 90.7543 1.49228C90.7907 1.39429 90.8131 1.2991 90.8243 1.2095H86.552C86.7396 6.87608 87.9098 12.4615 88.4082 18.1001C88.5314 19.4943 88.8337 20.8802 89.0241 22.2716L89.0325 22.266Z" fill="white"/>
<path d="M150.531 65.874C150.531 65.874 150.519 65.8712 150.514 65.8683C150.519 65.8683 150.525 65.8712 150.531 65.874Z" fill="white"/>
<path d="M126.977 69.5417C126.996 69.5082 127.01 69.4746 127.03 69.441C127.013 69.4746 126.996 69.511 126.98 69.5417H126.977Z" fill="white"/>
<path d="M190.009 3.91691C192.179 4.63923 193.685 5.8459 194.853 7.40813C195.068 7.6965 195.267 8.01567 195.351 8.35163C195.373 8.43562 195.384 8.52241 195.39 8.6092C195.404 8.85277 195.342 9.10475 195.183 9.36232C194.861 9.36792 194.701 9.25033 194.584 9.08794C194.545 9.03195 194.511 8.97316 194.475 8.91157C194.427 8.82758 194.379 8.73799 194.321 8.654C193.721 7.80289 193.215 6.7558 192.299 6.23786C191.269 5.65553 190.216 5.11518 189.127 4.65604C186.731 3.65094 184.158 3.04901 181.274 3.31778C181.098 3.01821 180.916 2.84463 180.728 2.78024C180.431 2.67664 180.121 2.84743 179.796 3.20019C179.757 3.19459 179.717 3.189 179.678 3.1806V3.175C179.659 3.20299 179.639 3.23379 179.622 3.26739C178.9 3.27859 178.357 2.2651 177.307 3.0742C178.06 3.34578 178.681 3.57816 179.32 3.76573C179.325 3.76573 179.342 3.75173 179.362 3.72093C179.423 3.63135 179.538 3.42136 179.633 3.26459C179.67 3.26459 179.706 3.26459 179.743 3.25619C179.759 3.23659 179.779 3.21979 179.796 3.20019C180.261 3.27298 180.728 3.34298 181.193 3.41577C181.442 3.58655 181.669 3.82172 181.929 3.9701C182.016 4.0177 182.106 4.0597 182.201 4.0821C184.104 4.55524 186.103 4.83521 187.85 5.64153C190.015 6.64101 191.602 8.18084 192.977 9.86626C193.156 10.0874 193.276 10.3618 193.335 10.6278C194.111 14.0966 193.906 17.5934 193.05 20.9894C192.215 24.2987 190.835 27.5127 189.662 30.7604C188.808 33.1289 187.8 35.4695 187.114 37.8632C186.781 39.0251 186.215 40.1282 185.977 41.3096C185.723 42.5723 185.546 43.8378 185.191 45.0976C184.435 47.7797 184.351 50.5542 184.412 53.3175C184.438 54.485 184.368 55.6581 184.457 56.8199C184.544 57.9174 184.538 59.0877 185.023 60.076C185.577 61.2071 185.132 62.3465 185.58 63.5028C186.109 64.8691 185.868 66.4453 185.896 67.9319C185.907 68.5423 185.065 69.049 184.337 68.8082C184.25 68.7802 184.166 68.7494 184.082 68.7186C183.995 68.685 183.909 68.6542 183.822 68.6235C183.743 68.5955 183.665 68.5703 183.589 68.5451C183.183 68.4219 182.78 68.3827 182.324 68.6571C182.38 68.2623 182.439 67.8647 182.497 67.47C182.385 67.4644 182.273 67.4588 182.162 67.4532C182.215 67.8535 182.265 68.2539 182.318 68.6542L182.327 68.6626C182.327 68.6626 182.329 68.6626 182.332 68.6626C184.082 69.4354 185.132 70.7596 186.285 72.0027H193.187C193.217 71.9075 193.369 71.8179 193.461 71.7255C193.523 71.8151 193.629 71.9159 193.682 72.0027H199.489C199.268 64.7739 199.34 57.5479 200.833 50.403C202.305 43.3534 204.058 36.3458 207.488 29.7049C208.994 26.7876 210.139 23.7416 211.533 20.7823C212.275 19.206 212.967 17.5542 214.1 16.174C215.327 14.6817 215.173 12.694 216.897 11.4201C217.298 11.1233 217.586 10.5046 217.544 10.0594C217.454 9.14114 218.073 8.45242 218.639 7.90368C219.386 7.17856 218.58 6.24625 219.257 5.71991C220.551 4.71202 220.075 3.28419 220.73 2.12231C220.898 1.82555 221.044 1.51757 221.178 1.20681H207.177C207.241 1.56797 207.306 1.94593 207.364 2.35468C207.569 3.74333 207.294 5.15997 207.16 6.56262C207.143 6.75021 207.376 7.01337 207.286 7.12816C206.916 7.59291 206.933 8.30403 206.412 8.67919C206.239 8.80518 206.006 8.89197 205.682 8.92276C205.911 9.37912 206.435 9.89426 206.32 10.2834C205.763 12.1984 205.041 14.0798 204.36 15.9724C204.335 16.0424 204.159 16.076 204.055 16.1292C203.537 18.3549 202.678 20.4911 201.745 22.6077C201.185 23.8787 200.603 25.1414 200.052 26.4125C199.405 27.9019 198.738 29.3857 198.041 30.8584C197.999 30.948 197.946 31.032 197.887 31.1159C197.711 31.3651 197.473 31.5947 197.28 31.8355C197.406 32.1826 197.512 32.5242 197.333 32.7622C197.229 32.9022 197.025 33.0057 196.675 33.0589C196.728 32.6586 196.782 32.2582 196.835 31.8579C196.695 29.9905 197.966 28.459 198.643 26.7904C199.816 23.8983 201.339 21.1042 202.073 18.0918C202.261 17.319 202.669 16.6359 203.45 16.1768C203.562 16.1096 203.68 16.0508 203.809 15.9948C203.649 15.5244 203.173 14.8077 203.383 14.6229C204.413 13.7158 203.112 12.512 204.128 11.6133C204.92 10.9134 205.043 9.97545 204.777 9.01795C204.752 8.92836 205.088 8.77158 205.256 8.6456C205.301 7.89248 204.276 7.21775 205.013 6.41144C204.464 5.31396 205.421 3.81612 203.705 3.02661L203.677 3.0434C203.697 2.90622 203.778 2.72144 203.775 2.60106C203.775 2.56186 203.764 2.53107 203.742 2.51147C203.207 2.07471 202.664 1.64076 202.123 1.20681H172.027C173.233 1.31319 174.44 1.39719 175.652 1.46718C180.594 1.75275 185.392 2.37988 190.026 3.91971L190.009 3.91691Z" fill="white"/>
<path d="M114.036 21.3926C118.902 25.7517 124.846 28.5094 132.005 29.2933C137.75 29.9233 143.511 29.9289 149.307 29.7161C154.514 29.5257 159.755 29.187 164.954 30.1109C168.222 30.6932 171.214 31.5583 173.435 33.7728C174.204 34.5428 175.131 35.2091 176.038 35.8754C176.388 36.133 176.856 36.357 177.307 36.4242C177.676 36.4802 177.894 36.3402 178.023 36.1218C178.079 36.0266 178.116 35.9202 178.144 35.8054C178.155 35.7606 178.163 35.7186 178.169 35.6738V35.6794C178.169 35.6822 178.169 35.685 178.169 35.6878C178.169 35.7102 178.163 35.7494 178.16 35.7494C178.208 35.7494 178.258 35.755 178.306 35.7578C178.272 35.7382 178.242 35.7186 178.208 35.699C179.37 34.456 180.557 33.2269 181.68 31.9614C181.923 31.6871 181.929 31.2699 182.164 30.556C181.369 30.794 180.901 30.8248 180.63 31.0347C179.787 31.6843 178.771 32.051 177.704 31.9082C177.004 31.8131 176.388 31.2755 175.632 30.8808C175.728 30.7604 175.812 30.6484 175.893 30.5448C176.133 30.234 176.324 29.9905 176.511 29.7469C176.968 30.0521 177.424 30.36 177.841 30.64C180.325 29.2345 181.436 28.4226 182.055 27.2692C183.483 24.6066 184.642 21.8517 184.843 18.9233C185.053 15.8828 184.155 13.1167 181.103 11.1401C180.159 10.527 179.112 9.93625 177.995 9.61149C175.828 8.97876 173.608 8.40482 171.354 8.05486C166.007 7.22055 160.629 6.53742 155.413 5.19637C154.889 5.06198 154.251 5.23557 153.666 5.26916C153.366 5.05359 153.081 4.79041 152.778 4.58323C152.778 4.58323 152.778 4.58324 152.776 4.58044C152.675 4.51045 152.568 4.44605 152.462 4.39286C152.353 4.33966 152.241 4.29207 152.123 4.26407C149.469 3.62294 147.196 2.41068 144.922 1.20401H140.415C140.779 1.41679 141.146 1.62396 141.493 1.84234C145.981 4.67283 151.093 6.45343 156.426 7.90087C161.122 9.17473 166.071 9.66748 170.66 11.2829C171.553 11.5965 172.421 11.8596 173.152 12.3748C174.073 13.0215 174.963 13.7018 175.686 14.2338C175.604 14.9309 175.364 15.4097 175.548 15.7148C176.189 16.7871 174.955 17.6298 175.159 18.6209C174.389 18.9765 173.608 19.318 172.852 19.6904C171.842 20.1915 170.853 20.7151 169.854 21.2302C168.46 20.6703 167.648 21.7482 166.553 22.0281C166.365 22.0757 166.119 21.9329 165.895 21.9245C165.467 21.9105 164.842 21.7818 164.638 21.9609C163.89 22.6217 162.981 22.6917 161.998 22.7896C159.876 22.9996 157.748 23.2264 155.648 23.5568C149.777 24.4751 143.87 24.8978 137.912 24.4751C128.894 23.8367 121.061 21.0566 114.812 15.4992C114.084 14.8497 113.325 14.2254 112.58 13.587C112.334 14.049 112.513 14.4522 112.9 14.8441C117.547 19.5896 123.328 22.9072 130.487 24.5423C136.554 25.9281 142.722 25.9841 148.915 25.5697C156.158 25.0854 163.342 24.0915 170.624 23.8983C172.429 23.8507 174.232 23.484 176.019 23.1928C177.553 22.9436 178.723 22.1205 179.317 20.9922C180.633 18.4865 180.994 15.9556 178.866 13.5479C178.404 13.0243 177.55 12.6659 177.634 11.8708C178.289 12.0192 178.858 12.2516 179.348 12.5484C179.51 12.6464 179.664 12.7527 179.809 12.8647C180.207 13.1699 180.54 13.5227 180.82 13.8978C181.24 14.4606 181.534 15.0821 181.733 15.6924C182.604 18.3773 181.772 21.0762 180.003 23.4784C179.208 24.5591 177.998 25.1918 176.383 25.189C174.93 25.1862 173.477 25.2506 172.021 25.2562C167.762 25.2758 163.515 25.2674 159.263 25.6845C152.736 26.3257 146.174 26.6308 139.586 26.5412C129.591 26.4069 121.094 23.5792 114.277 17.3834C111.962 15.2781 110.005 13.0131 108.249 10.5802C106.133 7.6433 104.744 4.50205 103.82 1.20401H101.351C102.152 4.60004 103.465 7.88687 105.276 11.0337C107.491 14.8833 110.556 18.2737 114.039 21.3926H114.036Z" fill="white"/>
<path d="M119.196 9.5359C120.585 10.275 122.307 10.6474 123.939 10.9889C126.103 11.4425 128.396 9.5667 127.819 7.80009C127.352 6.36105 126.655 4.9528 125.879 3.60055C125.417 2.79424 124.933 1.99913 124.446 1.20401L120.403 1.20401C120.445 1.38039 120.481 1.55677 120.504 1.73315C120.521 1.85074 120.532 1.97112 120.537 2.08871C120.579 2.90342 120.389 3.70413 119.871 4.51325C120.425 4.55804 120.977 4.60284 121.531 4.64763C121.215 4.81562 120.887 4.9752 120.593 5.16558C119.793 5.68352 119.017 5.8319 118.256 5.19637C118.225 5.17118 118.194 5.15438 118.166 5.12638L118.205 5.21597C117.094 5.28876 116.45 4.59444 115.7 4.12129C114.342 3.26178 113.202 2.27629 112.203 1.20681H109.414C111.774 4.71763 115.151 7.39134 119.199 9.5387L119.196 9.5359Z" fill="white"/>
<path d="M142.249 7.67127C142.795 8.13042 143.682 8.44678 143.556 9.50227C143.002 9.15511 142.557 8.87514 142.117 8.59797C142.025 8.91713 141.798 9.32309 141.952 9.48267C142.33 9.88023 142.618 10.5718 143.537 10.3114C143.738 10.275 143.94 10.233 144.144 10.2078C144.253 10.1938 144.368 10.2078 144.477 10.2078C144.363 10.3058 144.248 10.4822 144.13 10.485C143.929 10.485 143.727 10.3786 143.523 10.317C143.878 11.1989 144.643 12.1284 145.524 12.3076C145.65 12.3328 145.779 12.344 145.908 12.3356C148.039 12.2068 149.086 13.4526 149.881 14.4185C150.729 15.446 151.874 15.9584 152.913 16.6639C153.218 16.8711 153.834 16.9943 154.178 16.8851C155.217 16.5491 156.454 17.5374 157.443 16.4315C157.683 16.1627 158.753 16.8795 159.652 16.2859C160.847 15.4992 162.356 15.0401 163.734 14.4409C162.53 12.5063 161.777 11.6552 159.96 11.2773C157.485 10.7649 155.34 9.64505 152.977 8.93393C150.617 8.22281 148.397 7.16453 146.138 6.22383C142.999 4.91637 140.351 3.18896 137.988 1.20398H134.393C134.524 1.31597 134.648 1.43355 134.785 1.54274C137.333 3.53052 139.788 5.60789 142.246 7.67407L142.249 7.67127Z" fill="white"/>
<path d="M109.005 22.3138C111.172 25.0099 113.967 27.2832 117.043 29.2934C117.704 29.7246 118.558 30.4329 119.174 30.3405C120.68 30.1137 121.288 31.06 122.276 31.5024C122.534 31.62 122.853 31.6423 123.824 31.8635C123.231 31.312 122.749 30.864 122.324 30.4693C121.937 30.1081 121.596 29.7918 121.26 29.481C120.792 29.4054 120.327 29.3298 119.779 29.2374C119.594 29.2066 119.401 29.1758 119.196 29.1422C119.669 28.7867 120.042 28.5067 120.411 28.2295C119.723 27.7564 119.028 27.2944 118.337 26.8241C117.645 26.3537 116.957 25.8806 116.29 25.3878C111.125 21.5802 107.454 16.8936 104.386 11.7981C102.334 8.38809 101.012 4.84928 100.195 1.20408H98.207C99.3913 5.91596 100.956 10.4963 103.703 14.749C105.363 17.3191 107.057 19.8892 109.005 22.3138Z" fill="white"/>
<path d="M250.189 38.5127C250.25 38.5239 250.312 38.535 250.374 38.5462C250.581 38.5854 250.799 38.6246 251.037 38.6694V37.3676C250.886 37.516 250.737 37.6699 250.609 37.8323C250.443 38.0423 250.301 38.2663 250.189 38.5127Z" fill="white"/>
<path d="M178.068 48.082C178.74 47.6453 178.984 47.3681 179.132 46.8838C179.132 46.8782 179.132 46.8754 179.135 46.8698C179.172 46.7522 179.202 46.6234 179.233 46.4778C179.236 46.4582 179.241 46.4386 179.244 46.419C179.272 46.2818 179.297 46.1334 179.328 45.9627C179.241 45.9571 179.152 45.9431 179.062 45.9291C178.973 45.9151 178.883 45.9067 178.799 45.9067C178.743 45.9067 178.69 45.9151 178.64 45.9291C176.89 46.4554 176.529 46.4638 175.848 45.6743C175.213 44.938 174.6 44.1681 174.135 43.3505C173.309 41.9003 172.519 40.4305 171.856 38.9242C169.888 34.4615 165.912 32.3589 160.366 31.8018C157.048 31.4686 153.742 31.3959 150.424 31.4434C145.172 31.519 139.923 31.6338 134.679 31.3035C130.303 31.0263 126.087 30.2228 122.142 28.5542C121.887 28.4478 121.599 28.3918 121.302 28.3498C121.128 28.3246 120.952 28.305 120.778 28.2826C120.672 28.2686 120.566 28.2546 120.462 28.2378C120.238 28.8285 121.005 29.0077 121.229 29.4109C121.803 29.6572 122.419 29.828 123.038 29.9904C123.102 30.0072 123.166 30.024 123.231 30.0408C123.432 30.094 123.634 30.1444 123.833 30.2004C123.844 30.2032 123.855 30.206 123.866 30.2116C124.734 30.4468 125.585 30.7211 126.319 31.2111C126.305 31.2447 126.299 31.2727 126.291 31.3035C126.341 31.2979 126.394 31.2923 126.445 31.2867C126.445 31.2867 126.442 31.2867 126.442 31.2839C126.442 31.2839 126.445 31.2839 126.448 31.2867L126.327 31.1887C127.523 31.3315 128.715 31.4966 129.916 31.6114C132.568 31.8634 135.216 32.2162 137.873 32.2946C142.126 32.4205 146.39 32.3198 150.645 32.3897C154.041 32.4457 157.451 32.3589 160.817 32.9581C165.072 33.7168 168.558 35.1782 170.089 38.913C170.588 40.1253 171.492 41.2144 171.861 42.5162C172.189 43.6697 172.878 44.7616 173.48 45.8535C174.194 47.1497 175.26 48.1968 176.697 48.9023C177.287 48.558 177.73 48.3004 178.066 48.082H178.068Z" fill="white"/>
<path d="M1.83347 71.3474C1.82227 71.4146 1.81387 71.4846 1.79707 71.5462C1.74948 71.7226 1.66829 71.871 1.5647 71.9998H3.3621C3.31731 71.7842 3.27531 71.5658 3.23051 71.3502C2.76297 71.3502 2.29822 71.3502 1.83067 71.3474H1.83347Z" fill="white"/>
<path d="M79.3563 7.17287C78.7431 8.31515 79.8126 9.39303 79.2275 10.4597C80.1766 9.75699 80.0198 8.83589 80.1178 7.97359C80.2186 7.07768 80.2578 6.17618 80.3473 5.27748C80.4341 4.40677 80.5461 3.53607 80.6469 2.66537C79.947 2.29021 80.3474 1.75827 80.4901 1.20393H79.7398C79.4235 2.15862 79.6194 3.08812 79.4766 3.95602C79.3003 5.01991 79.8406 6.26577 79.3535 7.17287H79.3563Z" fill="white"/>
<path d="M14.2891 64.0038C15.4958 64.1326 15.5405 64.1802 15.7197 65.2161C16.2097 65.2133 16.6996 65.2105 17.1896 65.2049C17.2764 64.8969 17.3295 64.5777 17.4499 64.2866C17.4891 64.1886 17.5367 64.0962 17.5955 64.0066C17.6403 63.9394 17.6739 63.8722 17.6963 63.8106C17.7215 63.749 17.7355 63.6902 17.7411 63.6342C17.7775 63.2983 17.5171 63.0575 17.2288 62.7999C17.2288 62.7971 17.24 62.7635 17.24 62.7635C17.2316 62.7775 17.2232 62.7887 17.2148 62.8027C17.1 62.9903 17.0104 63.1415 16.9292 63.2395C16.6716 63.5474 16.4644 63.4047 15.7001 62.8307C15.6777 62.8139 15.6581 62.7999 15.6357 62.7831L15.6861 62.8559C15.283 62.6711 14.8854 62.4752 14.4711 62.31C14.2023 62.2036 13.9055 62.1504 13.62 62.072C13.6032 62.3156 13.5836 62.5564 13.564 62.7999C14.2023 63.0351 14.4179 63.4467 14.2891 64.0038Z" fill="white"/>
<path d="M122.066 44.1988C123.606 45.691 125.52 44.9519 127.086 45.7778C126.593 44.9659 124.919 44.4396 122.066 44.1988Z" fill="white"/>
<path d="M150.533 65.2555C150.533 65.4459 150.533 65.6335 150.533 65.8239C150.71 65.9442 150.889 66.0674 151.068 66.1934C151.348 66.3866 151.639 66.5854 151.958 66.8065C152.14 66.9325 152.331 67.0641 152.535 67.2041C153.123 66.4734 153.61 65.8658 154.097 65.2639C153.89 65.2303 153.658 65.1687 153.565 65.2387C152.717 65.8798 151.936 65.8155 151.113 65.2107C151.015 65.1379 150.752 65.2219 150.536 65.2583L150.533 65.2555Z" fill="white"/>
<path d="M118.468 43.2247C119.517 43.9451 120.532 44.1196 121.514 43.7482C120.142 43.625 119.546 42.7375 118.468 43.2247Z" fill="white"/>
<path d="M109.336 34.9656C108.698 34.302 108.208 33.7953 107.656 33.2214C107.821 33.9978 108.381 34.5792 109.336 34.9656Z" fill="white"/>
<path d="M223.264 46.8279C223.589 46.2063 223.796 45.8032 224.238 44.9549C223.211 45.666 222.746 46.0076 223.264 46.8279Z" fill="white"/>
<path d="M244.883 13.3016C244.973 13.366 245.062 13.4276 245.155 13.4919C245.58 13.1308 246.006 12.7696 246.431 12.4085C246.275 12.2825 246.121 12.1565 245.964 12.0305C245.603 12.4561 245.241 12.8788 244.883 13.3044V13.3016Z" fill="white"/>
<path d="M152.14 51.2177C152.26 51.4165 152.364 51.7356 152.504 51.7468C152.635 51.758 152.767 51.7608 152.899 51.758C153.24 51.7524 153.587 51.7188 153.932 51.6936C153.375 50.8649 153.299 50.8481 152.14 51.2177Z" fill="white"/>
<path d="M153.935 51.6964C153.957 51.73 153.974 51.7524 153.996 51.7888C153.996 51.7888 153.999 51.7888 154.002 51.7888C154.035 51.7552 154.066 51.7216 154.1 51.688C154.044 51.6908 153.988 51.6964 153.932 51.6992L153.935 51.6964Z" fill="white"/>
<path d="M152.042 51.2485C152.079 51.2373 152.106 51.2289 152.14 51.2177C152.134 51.2093 152.129 51.1953 152.123 51.1869L152.039 51.2485H152.042Z" fill="white"/>
<path d="M5.40249 65.3059C5.08052 65.3563 4.80615 65.4151 4.57658 65.4935C4.45059 65.5354 4.33861 65.583 4.23502 65.6362C3.78427 65.8742 3.54629 66.241 3.38671 66.8345C3.36991 66.8933 3.35311 66.9493 3.33911 67.0137C3.56029 67.0137 3.78147 67.0165 4.00264 67.0193C4.47299 66.6301 4.94334 66.2438 5.41369 65.8546C5.41089 65.6726 5.40529 65.4879 5.40249 65.3059Z" fill="white"/>
<path d="M104.68 29.131C104.848 29.4334 105.007 29.7414 105.192 30.0381C105.229 30.0969 105.363 30.1109 105.453 30.1445C105.511 30.0661 105.646 29.9541 105.621 29.915C105.416 29.6126 105.184 29.3242 104.943 29.0415C104.932 29.0275 104.772 29.1002 104.68 29.131Z" fill="white"/>
<path d="M103.255 25.5922C103.112 25.3318 102.857 25.1134 102.65 24.8754C102.552 24.9678 102.457 25.0602 102.359 25.1526C102.546 25.3962 102.731 25.6453 102.927 25.8861C102.961 25.9253 103 25.9617 103.039 25.9981C103.081 26.0345 103.123 26.0681 103.162 26.1045C103.179 26.0177 103.221 25.9225 103.246 25.8357C103.274 25.7461 103.285 25.6621 103.249 25.5977L103.255 25.5922Z" fill="white"/>
<path d="M1.43872 12.9403V13.531C1.49191 13.3574 1.46672 13.125 1.50031 12.9347C1.48072 12.9347 1.45832 12.9375 1.43872 12.9403Z" fill="white"/>
<path d="M111.508 12.6994C111.522 12.8562 111.483 13.0354 111.561 13.1642C111.768 13.5113 112.085 13.6681 112.516 13.5169C112.379 13.2818 112.278 13.0214 112.088 12.817C111.992 12.7162 111.71 12.733 111.511 12.6966L111.508 12.6994Z" fill="white"/>
<path d="M112.514 13.5198C112.514 13.5198 112.528 13.5478 112.536 13.559L112.542 13.5534C112.553 13.5646 112.567 13.573 112.578 13.5842C112.598 13.545 112.618 13.5086 112.643 13.4694C112.598 13.4918 112.556 13.5058 112.514 13.5198Z" fill="white"/>
<path d="M79.3204 11.9745C79.13 12.0613 78.8109 12.1257 78.7801 12.2433C78.7129 12.4868 78.7605 12.75 78.7801 13.0076C79.0712 12.9068 79.424 12.8424 79.578 12.6632C79.6816 12.5428 79.4212 12.2125 79.3232 11.9745H79.3204Z" fill="white"/>
<path d="M78.7773 13.0074C78.7521 13.0158 78.7269 13.0242 78.7017 13.0326C78.7129 13.0522 78.7269 13.069 78.7381 13.0886C78.7521 13.0886 78.7689 13.0886 78.7829 13.0886C78.7829 13.0606 78.7801 13.0326 78.7773 13.0046V13.0074Z" fill="white"/>
<path d="M4.77609 5.14882C4.77329 5.53798 4.77049 5.92713 4.76489 6.31909C5.75039 6.18751 5.84278 5.56877 5.84557 4.88844C5.47881 4.97803 5.12605 5.06482 4.77329 5.15162L4.77609 5.14882Z" fill="white"/>
<path d="M42.7671 4.59159C42.3107 4.59159 41.8516 4.5944 41.3952 4.5972C41.3644 5.03115 41.3308 5.4679 41.3 5.90186C41.7956 5.84866 42.2883 5.79266 42.7839 5.73947C42.7783 5.35871 42.7727 4.97515 42.7671 4.59439V4.59159Z" fill="white"/>
<path d="M41.3538 6.38901C41.4573 6.72217 41.6701 6.96294 41.9417 7.14772C42.1797 7.3101 42.468 7.43329 42.7676 7.54248C42.7732 7.15892 42.776 6.77816 42.7816 6.3946C42.3057 6.3946 41.8297 6.39181 41.3538 6.38901Z" fill="white"/>
<path d="M175.882 2.78305C175.795 2.64306 175.523 2.50028 175.339 2.50868C175.182 2.51428 175.039 2.73266 174.891 2.85584C175.117 3.00983 175.341 3.16101 175.596 3.33179C175.739 3.07981 175.941 2.87544 175.882 2.78305Z" fill="white"/>
<path d="M240.91 18.3997C240.809 18.4445 240.672 18.4697 240.613 18.5369C240.44 18.7413 240.3 18.9625 239.916 19.5C240.552 19.1612 240.846 19.0577 241.033 18.8757C241.112 18.8001 240.958 18.5621 240.91 18.3969V18.3997Z" fill="white"/>
<path d="M247.179 44.8567C247.064 44.9155 246.963 44.9883 246.874 45.0695C246.809 45.1283 246.753 45.1899 246.706 45.2599C246.658 45.3299 246.616 45.4055 246.585 45.4895C246.555 45.5735 246.532 45.6659 246.521 45.7638C246.98 45.7694 247.437 45.775 247.893 45.7834C247.893 45.3943 247.893 45.0051 247.893 44.616C247.627 44.6748 247.383 44.7476 247.176 44.8539L247.179 44.8567Z" fill="white"/>
<path d="M248.256 41.8499C248.158 41.9339 248.108 42.0542 248.071 42.2306C248.046 42.3622 248.027 42.533 248.007 42.7402C248.461 42.7458 248.911 42.7514 249.365 42.7598C249.362 42.3762 249.359 41.9899 249.354 41.6063C248.746 41.6679 248.424 41.7043 248.253 41.8499H248.256Z" fill="white"/>
<path d="M152.039 51.2515L152.126 51.1871C152.07 51.1815 152.028 51.1759 151.975 51.1703C151.997 51.1955 152.017 51.2235 152.039 51.2487V51.2515Z" fill="white"/>
<path d="M150.883 49.8263C150.883 49.8263 150.883 49.8235 150.88 49.8207C150.88 49.8179 150.875 49.8095 150.872 49.8095C150.861 49.8151 150.849 49.8179 150.841 49.8235C150.863 49.8375 150.886 49.8543 150.911 49.8683C150.581 50.9686 150.592 51.0218 151.978 51.1702C151.608 50.7166 151.241 50.2631 150.875 49.8067L150.886 49.8235L150.883 49.8263Z" fill="white"/>
<path d="M135.404 46.9146C135.67 46.9874 136.02 46.8418 136.496 46.7578C136.174 46.4526 135.989 46.2118 135.729 46.0635C135.633 46.0103 135.194 46.1754 135.194 46.2426C135.194 46.4778 135.253 46.8726 135.404 46.9146Z" fill="white"/>
<path d="M2.06516 68.2988C2.45152 68.2848 2.84068 68.2708 3.22704 68.254C3.22424 67.8704 3.22144 67.484 3.21864 67.1005C3.09545 67.1341 2.97506 67.1705 2.86028 67.2069C2.31714 67.3889 1.91118 67.6576 2.05116 68.2988C2.02317 68.2988 1.99797 68.2988 1.96997 68.3016L2.07636 68.3604C2.07076 68.338 2.07076 68.3212 2.06796 68.2988H2.06516Z" fill="white"/>
<path d="M214.4 71.9103C214.4 71.9411 214.398 71.9719 214.395 72.0027H214.745C214.745 71.9775 214.748 71.9495 214.75 71.9243C214.633 71.9187 214.518 71.9159 214.4 71.9103Z" fill="white"/>
<path d="M128.685 70.6113C128.76 70.7793 128.922 70.9193 129.048 71.0732C129.18 70.9977 129.323 70.9277 129.46 70.8549C129.594 70.7821 129.723 70.7009 129.821 70.6029C129.93 70.4937 129.914 70.2977 129.928 70.1241C129.477 70.1241 129.029 70.1241 128.578 70.1241C128.603 70.2893 128.615 70.4601 128.685 70.6113Z" fill="white"/>
<path d="M10.6946 62.7607C11.1061 62.7607 11.5177 62.7607 11.9292 62.7607C11.7277 62.5172 11.5261 62.2708 11.3217 62.0272C11.1117 62.2708 10.9018 62.5144 10.6946 62.7607Z" fill="white"/>
<path d="M10.5206 63.987C10.5206 63.6034 10.5206 63.2199 10.5206 62.8391C10.2799 62.8391 10.0895 62.8867 9.94111 62.9651C9.80672 63.0379 9.69754 63.1275 9.61075 63.2395C9.42597 63.469 9.31118 63.7574 9.146 64.001C9.60515 63.9954 10.0643 63.9926 10.5234 63.987H10.5206Z" fill="white"/>
<path d="M3.04536 10.2693C3.10696 10.2273 3.09295 10.0117 3.07336 10.0089C2.81858 9.95569 2.52462 9.84931 2.30064 9.9081C2.03187 9.98089 1.7995 10.1461 1.56152 10.2889C1.87789 10.37 2.17745 10.4932 2.49102 10.5212C2.6646 10.538 2.88018 10.3785 3.04536 10.2665V10.2693Z" fill="white"/>
<path d="M1.49434 10.2947C1.49434 10.2947 1.49434 10.2919 1.49434 10.2891L1.43555 10.3619V10.4207C1.44675 10.3927 1.45794 10.3675 1.47194 10.3395C1.47474 10.3395 1.48034 10.3339 1.48314 10.3339C1.50834 10.3199 1.53353 10.3031 1.55873 10.2891C1.54193 10.2863 1.52514 10.2807 1.50834 10.2751C1.50554 10.2751 1.49714 10.2891 1.49154 10.2947H1.49434Z" fill="white"/>
<path d="M141.975 8.51951C141.994 8.53631 142.014 8.55311 142.033 8.56991C142.036 8.56991 142.047 8.56151 142.053 8.55871C142.075 8.57271 142.095 8.5867 142.117 8.5979C142.126 8.5643 142.137 8.53351 142.143 8.50271C142.078 8.50831 142.033 8.51391 141.975 8.51951Z" fill="white"/>
<path d="M23.7268 68.24C23.514 67.9404 23.3712 67.5849 23.0829 67.3469C23.0409 67.3105 22.9933 67.2797 22.9429 67.2489C22.7889 67.1621 22.5985 67.1061 22.3577 67.0949C22.3521 67.4757 22.3437 67.8564 22.3381 68.2372C22.8001 68.2372 23.2648 68.2372 23.7268 68.2372V68.24Z" fill="white"/>
<path d="M1.43872 70.4293V71.2581C1.53951 71.2581 1.6403 71.2581 1.74109 71.2581C1.74109 70.8969 1.74109 70.5329 1.74109 70.1718C1.6403 70.2558 1.53951 70.3426 1.43872 70.4265V70.4293Z" fill="white"/>
<path d="M250.066 38.5939C249.875 38.6723 249.738 38.7507 249.651 38.8319C249.206 39.249 249.937 39.711 250.088 40.1477C249.685 40.4109 249.433 40.7161 249.391 41.0856C249.383 41.1584 249.383 41.234 249.391 41.3124C249.399 41.3908 249.416 41.472 249.444 41.556C249.416 41.5448 249.391 41.5308 249.357 41.5196C249.388 41.5308 249.416 41.5448 249.444 41.556C249.542 41.598 249.629 41.64 249.696 41.6792C249.825 41.7604 249.898 41.8416 249.928 41.9227C249.94 41.9507 249.945 41.9759 249.945 42.0039C249.948 42.0571 249.937 42.1131 249.912 42.1663C249.825 42.3623 249.593 42.5583 249.425 42.7543C249.43 42.7543 249.436 42.7543 249.441 42.7543C249.425 42.7682 249.408 42.7823 249.391 42.7963C249.385 42.8047 249.377 42.813 249.369 42.8214V42.8131C248.898 43.2078 248.425 43.6026 247.955 43.9973C247.935 44.0141 247.916 44.0309 247.896 44.0477L247.983 44.0169C247.918 44.1457 247.901 44.2745 247.924 44.4033C247.924 44.4173 247.924 44.4341 247.93 44.4481C247.93 44.4509 247.932 44.4565 247.932 44.4593C247.944 44.5041 247.96 44.5489 247.983 44.5909L247.902 44.5377C247.918 44.5573 247.935 44.5769 247.955 44.5993C248.089 44.742 248.221 44.8876 248.299 45.0304C248.358 45.1396 248.389 45.2488 248.372 45.358C248.347 45.5092 248.218 45.6631 247.952 45.8143C247.725 46.4331 247.162 46.7746 246.504 47.0378C246.485 47.4241 246.465 47.8105 246.446 48.1941C246.149 48.2641 245.642 48.2837 245.597 48.4124C245.53 48.6056 245.561 48.7344 245.651 48.8184C245.74 48.9052 245.886 48.95 246.048 48.9808C246.157 49.0004 246.272 49.0144 246.384 49.0284C245.765 49.8543 245.149 50.683 244.531 51.5089C244.805 51.5117 245.082 51.5173 245.357 51.5201C245.093 51.5285 244.827 51.5341 244.564 51.5425C244.564 51.5425 244.536 51.5117 244.533 51.5089L244.564 51.5425C244.511 51.9736 244.455 52.402 244.402 52.8332C244.402 52.8332 244.402 52.8136 244.402 52.7912C244.402 52.7716 244.402 52.7492 244.405 52.7492C244.335 52.7492 244.262 52.7464 244.192 52.7436C244.06 52.6876 243.926 52.6316 243.786 52.598C243.705 52.5784 243.584 52.6792 243.481 52.724C243.719 52.7296 243.957 52.7352 244.195 52.7436C244.262 52.7716 244.332 52.8024 244.399 52.8304C244.282 53.841 244.788 54.9385 244.228 55.896C244.097 56.1228 243.904 56.344 243.629 56.5511C243.43 56.7023 243.318 57.1139 243.419 57.3183C243.478 57.4387 243.514 57.5478 243.534 57.6542C243.554 57.7606 243.551 57.8586 243.537 57.951C243.531 57.9846 243.514 58.0154 243.506 58.049C243.489 58.105 243.478 58.1638 243.453 58.217C243.248 58.6369 242.767 58.9617 242.481 59.3536H242.487C242.487 59.3536 242.484 59.3536 242.481 59.3536C242.479 59.9864 242.476 60.6163 242.473 61.249C242.77 61.263 243.066 61.2798 243.414 61.2966C243.078 60.5771 242.789 59.9556 242.501 59.334C242.999 59.6476 243.573 59.9416 244.08 59.46C244.704 58.8665 245.119 58.1106 245.782 57.5534C246.325 57.0943 246.269 56.7639 245.978 56.2628C245.869 56.078 246.048 55.7252 246.197 55.4957C247.036 54.205 248.999 53.3287 248.333 51.4837C248.898 50.851 249.464 50.2182 250.015 49.6051C249.861 49.1935 249.721 48.824 249.621 48.5496C250.108 47.8917 250.581 47.2534 251.048 46.6206V39.123C250.704 39.4758 250.407 39.7782 250.11 40.0805C250.099 39.5794 250.088 39.0783 250.077 38.5771L250.066 38.5939Z" fill="white"/>
<path d="M114.882 42.2222C114.876 42.2866 115.033 42.3566 115.114 42.4238C115.221 42.3062 115.439 42.1607 115.411 42.0739C115.322 41.8107 115.137 41.5671 114.986 41.318L115.011 41.3627C115 41.3459 114.986 41.3207 114.986 41.3207C114.974 41.3263 114.963 41.3319 114.952 41.3375C114.974 41.3515 114.997 41.3655 115.022 41.3795C114.972 41.6595 114.904 41.9395 114.882 42.2222Z" fill="white"/>
<path d="M179.275 43.6697C179.325 43.8712 179.375 44.0728 179.445 44.3416C179.513 44.6131 179.599 44.9519 179.72 45.4307C179.815 44.6859 179.907 44.504 179.84 44.378C179.7 44.1204 179.482 43.8964 179.291 43.6585C179.294 43.6585 179.3 43.6557 179.303 43.6529C179.297 43.6529 179.291 43.6529 179.286 43.6529L179.275 43.6669V43.6697Z" fill="white"/>
<path d="M180.535 43.0398C180.106 43.2526 179.706 43.4542 179.303 43.6558C179.804 43.6138 180.742 44.2577 180.535 43.0398Z" fill="white"/>
<path d="M247.473 43.6416C247.599 43.7592 247.747 43.8572 247.893 43.958C247.887 43.5828 247.879 43.2105 247.873 42.8353C247.266 42.8941 246.818 43.0285 247.473 43.6416Z" fill="white"/>
<path d="M229.124 33.6524C229.062 33.6524 229 33.798 228.936 33.8764V33.8876C229.051 34.1759 229.16 34.4643 229.269 34.7527C229.342 34.7247 229.415 34.6967 229.488 34.6659C229.306 34.4055 229.124 34.1452 228.942 33.8848C229.79 33.8036 229.854 33.308 229.835 32.7649C229.779 32.8405 229.695 32.9189 229.712 32.9805C229.838 33.448 229.656 33.6552 229.121 33.6468L229.124 33.6524Z" fill="white"/>
<path d="M181.913 29.576C181.89 29.6488 181.963 29.8112 182.002 29.8112C182.193 29.8224 182.509 29.842 182.554 29.7692C182.694 29.5284 182.758 29.254 182.842 28.9909C182.355 28.9685 182.041 29.1644 181.915 29.576H181.913Z" fill="white"/>
<path d="M242.111 62.5817C242.123 62.6069 242.369 62.6125 242.408 62.5677C242.54 62.4222 242.73 62.2402 242.711 62.0862C242.685 61.8762 242.585 61.6718 242.487 61.4675C242.473 61.4395 242.461 61.4087 242.447 61.3779C242.296 61.6298 242.111 61.8622 242.002 62.117C241.946 62.2486 242.047 62.4305 242.111 62.5817Z" fill="white"/>
<path d="M242.447 61.3779C242.458 61.3611 242.469 61.3443 242.481 61.3247C242.464 61.3107 242.405 61.2687 242.399 61.2631L242.464 61.3107C242.464 61.2967 242.464 61.2799 242.464 61.2659C242.441 61.2659 242.416 61.2659 242.394 61.2631C242.411 61.3023 242.427 61.3415 242.447 61.3779Z" fill="white"/>
<path d="M8.33114 64.001C7.91399 63.6258 7.67321 63.4326 7.49123 63.4326C7.39324 63.4326 7.30925 63.4886 7.22246 63.5978C7.14967 63.6874 7.07128 63.8246 6.98169 63.987C7.43244 63.9926 7.88319 63.9982 8.33394 64.001H8.33114Z" fill="white"/>
<path d="M13.4575 62.8478C13.0039 62.8478 12.5504 62.8478 12.0996 62.845C12.0996 63.2173 12.0996 63.5925 12.0996 63.9648C12.8443 63.8389 13.3091 63.4749 13.4575 62.8478Z" fill="white"/>
<path d="M97.7842 64.0627C97.7954 64.1943 97.8262 64.3091 97.8766 64.4071C97.9046 64.463 97.9354 64.5162 97.9746 64.5638C98.1005 64.7262 98.2769 64.8494 98.4841 64.9474C98.6997 65.0482 98.9432 65.1266 99.1868 65.2078C99.1812 64.827 99.1756 64.449 99.17 64.0683C98.7081 64.0683 98.2461 64.0627 97.7842 64.0599V64.0627Z" fill="white"/>
<path d="M22.1898 67.0108C21.7502 66.6412 21.3106 66.2717 20.8711 65.9021C20.8711 66.2773 20.8711 66.6524 20.8711 67.0276C21.3106 67.022 21.753 67.0164 22.1925 67.0108H22.1898Z" fill="white"/>
<path d="M133.704 46.3938C133.466 46.2315 133.27 46.0411 133.024 45.9599C132.92 45.9263 132.705 46.1223 132.542 46.2147C132.747 46.4078 132.943 46.6094 133.172 46.7774C133.192 46.7914 133.447 46.5842 133.704 46.3966V46.3938Z" fill="white"/>
<path d="M236.801 24.0047C236.711 23.9655 236.599 23.8759 236.538 23.8955C236.266 23.9795 236.006 24.0971 235.742 24.2007C236 24.2679 236.258 24.3575 236.521 24.3715C236.605 24.3771 236.706 24.1335 236.801 24.0047Z" fill="white"/>
<path d="M235.735 24.2034C235.735 24.2034 235.741 24.2034 235.743 24.2005C235.721 24.1948 235.701 24.1892 235.678 24.1835L235.735 24.2034Z" fill="white"/>
<path d="M138.181 46.3322C138.156 46.3098 137.912 46.3854 137.907 46.4302C137.884 46.5786 137.867 46.7662 137.954 46.8782C138.052 47.007 138.237 47.0882 138.399 47.1833C138.453 47.0294 138.528 46.8726 138.506 46.727C138.481 46.5842 138.315 46.447 138.184 46.3322H138.181Z" fill="white"/>
<path d="M147.068 49.2804C147.023 49.3168 146.989 49.3475 146.998 49.3615C147.068 49.4707 147.188 49.5575 147.292 49.6555C147.32 49.5715 147.35 49.4875 147.378 49.4035C147.32 49.3251 147.261 49.2468 147.202 49.1684C147.166 49.202 147.11 49.244 147.065 49.2804H147.068Z" fill="white"/>
<path d="M150.388 50.0361C150.539 49.9661 150.69 49.8961 150.841 49.8234C150.721 49.7422 150.598 49.661 150.477 49.5798C150.449 49.731 150.418 49.8821 150.39 50.0333L150.388 50.0361Z" fill="white"/>
<path d="M130.124 45.7302C130.085 45.803 130.04 45.8786 130.065 45.901C130.253 46.0662 130.465 46.2146 130.692 46.3434C130.723 46.3602 130.813 46.3098 130.897 46.265C130.925 46.251 130.953 46.237 130.975 46.2258C130.88 46.153 130.785 46.0774 130.689 46.0046C130.594 45.9318 130.496 45.859 130.395 45.7946C130.325 45.7498 130.219 45.747 130.121 45.733C130.138 45.7022 130.155 45.6714 130.169 45.6462L130.174 45.6407C130.132 45.6547 130.088 45.6742 130.043 45.6938C129.917 45.5651 129.805 45.4083 129.642 45.3355C129.472 45.2627 129.234 45.2795 129.026 45.2879C128.979 45.2879 128.892 45.4755 128.906 45.4811C129.124 45.6099 129.34 45.7806 129.586 45.8254C129.62 45.831 129.656 45.831 129.693 45.8254C129.805 45.8086 129.928 45.747 130.046 45.6938C130.057 45.705 130.065 45.7134 130.074 45.7246C130.088 45.7274 130.104 45.7274 130.121 45.7302H130.124Z" fill="white"/>
<path d="M246.406 46.9707C246.403 46.6123 246.4 46.2512 246.397 45.8928C245.543 46.3324 245.549 46.478 246.406 46.9707Z" fill="white"/>
<path d="M139.527 47.5165C139.553 47.5053 139.575 47.4969 139.597 47.4885C139.578 47.4605 139.558 47.4269 139.539 47.3933C139.519 47.3597 139.499 47.3233 139.48 47.2897C139.441 47.2253 139.399 47.1749 139.357 47.1721C139.082 47.1665 138.808 47.2029 138.533 47.2337C138.805 47.3429 139.063 47.4633 139.331 47.5641C139.379 47.5809 139.455 47.5445 139.527 47.5137V47.5165Z" fill="white"/>
<path d="M138.45 47.2141C138.433 47.2029 138.416 47.1945 138.397 47.1833C138.388 47.2057 138.38 47.2281 138.374 47.2505C138.427 47.2449 138.481 47.2393 138.534 47.2337C138.511 47.2253 138.489 47.2141 138.464 47.2057C138.464 47.2057 138.453 47.2113 138.447 47.2141H138.45Z" fill="white"/>
<path d="M142.285 47.6061C142.246 47.4409 142.154 47.2869 142.081 47.1274C142.031 47.1498 141.961 47.1778 141.902 47.2001C141.902 47.2001 141.899 47.2001 141.896 47.2001C141.865 47.2113 141.84 47.2253 141.821 47.2337C141.801 47.2449 141.79 47.2534 141.793 47.2589C141.84 47.4269 141.93 47.5837 142.005 47.7461C142.103 47.6957 142.294 47.6313 142.285 47.6005V47.6061Z" fill="white"/>
<path d="M220.226 52.5757C220.249 52.7381 220.33 52.8949 220.389 53.0544C220.487 53.0068 220.585 52.9593 220.683 52.9089C220.621 52.7465 220.557 52.5841 220.495 52.4217C220.4 52.4721 220.221 52.5337 220.226 52.5757Z" fill="white"/>
<path d="M218.972 54.7286C218.865 54.8573 218.759 54.9861 218.653 55.1149L218.658 55.1233C218.658 55.1233 218.658 55.1233 218.661 55.1233C218.664 55.1289 218.669 55.1317 218.675 55.1373C218.675 55.1345 218.672 55.1317 218.669 55.1261C218.821 55.1989 218.975 55.2717 219.126 55.3445C219.075 55.1401 219.025 54.9329 218.972 54.7286Z" fill="white"/>
<path d="M219.305 55.8401C219.095 55.6049 218.885 55.3726 218.672 55.1374C218.798 55.4174 218.913 55.6973 219.028 55.9773C219.12 55.9297 219.213 55.8849 219.302 55.8373L219.305 55.8401Z" fill="white"/>
<path d="M242.904 55.6834C242.797 55.6778 242.691 55.6778 242.59 55.6974C242.484 55.717 242.411 55.8597 242.321 55.9465C242.422 55.9129 242.523 55.8737 242.626 55.8485C242.811 55.8009 242.999 55.7618 243.184 55.7198L243.242 55.703C243.234 55.5742 243.228 55.4454 243.22 55.3138C243.189 55.3194 243.128 55.3278 243.128 55.3306C243.142 55.4538 243.161 55.5742 243.181 55.6974C243.088 55.6946 242.996 55.6862 242.904 55.6834Z" fill="white"/>
<path d="M227.536 37.9806C227.522 38.0282 227.662 38.1094 227.729 38.1738C227.816 38.0254 227.903 37.8771 227.99 37.7287C227.917 37.6643 227.844 37.6027 227.771 37.5383C227.687 37.6839 227.584 37.8239 227.536 37.9778V37.9806Z" fill="white"/>
<path d="M112.279 38.1962C112.371 38.2494 112.463 38.2998 112.553 38.353C112.648 38.311 112.741 38.269 112.836 38.227C112.746 38.1739 112.662 38.0843 112.57 38.0815C112.475 38.0759 112.377 38.1542 112.279 38.1962Z" fill="white"/>
<path d="M111.019 36.8861C111.078 36.9841 111.136 37.0821 111.195 37.1772C111.271 37.1381 111.344 37.0989 111.419 37.0597C111.383 36.9925 111.363 36.8889 111.302 36.8637C111.229 36.8357 111.117 36.8749 111.019 36.8833V36.8861Z" fill="white"/>
<path d="M114.501 41.5559C114.652 41.4831 114.801 41.4103 114.952 41.3375C114.826 41.2591 114.697 41.178 114.571 41.0996C114.549 41.2507 114.526 41.4047 114.504 41.5559H114.501Z" fill="white"/>
<path d="M119.14 41.2984C119.073 41.2536 119.012 41.1808 118.939 41.1696C118.863 41.1584 118.774 41.2116 118.692 41.234C118.757 41.2788 118.821 41.3236 118.888 41.3684C118.972 41.346 119.059 41.3208 119.143 41.2956L119.14 41.2984Z" fill="white"/>
<path d="M7.6484 41.8918C7.7128 41.8918 7.77719 41.8834 7.83879 41.8666C7.96757 41.8359 8.09356 41.7715 8.22234 41.6819C8.26154 41.6539 8.30073 41.6175 8.33993 41.5839C7.88918 41.5923 7.43843 41.6007 6.99048 41.6063C7.20885 41.7939 7.43003 41.8918 7.6484 41.889V41.8918Z" fill="white"/>
<path d="M216.004 64.3146C215.862 64.3062 215.626 64.2922 215.372 64.281C215.481 64.3034 215.59 64.3258 215.699 64.3342C215.85 64.3454 216.004 64.3146 216.004 64.3146Z" fill="white"/>
<path d="M215.144 64.2698C215.22 64.2726 215.296 64.2782 215.371 64.281C215.293 64.2642 215.214 64.2474 215.136 64.2306C215.136 64.2306 215.142 64.2754 215.144 64.2698Z" fill="white"/>
<path d="M241.54 64.368C241.714 64.4072 241.89 64.4436 242.064 64.48C242.066 64.4072 242.072 64.3316 242.075 64.256C242.022 64.2392 241.966 64.214 241.913 64.1944C241.859 64.1748 241.806 64.1608 241.761 64.172C241.672 64.1888 241.61 64.298 241.537 64.3652L241.54 64.368Z" fill="white"/>
<path d="M101.094 66.448C101.083 66.2632 101.072 66.0784 101.06 65.8965C101.002 66.0028 100.946 66.112 100.915 66.224C100.898 66.2856 101.03 66.3724 101.091 66.448H101.094Z" fill="white"/>
<path d="M215.876 66.3752C215.691 66.3752 215.5 66.3472 215.321 66.3752C215.223 66.392 215.151 66.504 215.064 66.574C215.075 66.588 215.083 66.602 215.095 66.616C215.095 66.6076 215.095 66.5992 215.095 66.588C215.509 66.9296 215.638 66.5096 215.876 66.3724V66.3752Z" fill="white"/>
<path d="M15.7277 62.7805C16.1364 62.7749 16.5424 62.7721 16.9511 62.7665C16.618 62.6433 16.2736 62.2934 15.9544 62.5034C15.876 62.5565 15.7976 62.6489 15.7249 62.7805H15.7277Z" fill="white"/>
<path d="M5.06079 63.8667C5.09999 63.9507 5.13918 64.0347 5.17558 64.1187C5.32396 64.0515 5.47235 63.9843 5.62073 63.9171C5.43315 63.9003 5.24837 63.8835 5.06079 63.8667Z" fill="white"/>
<path d="M128.463 69.5334C128.018 69.5334 127.57 69.539 127.125 69.539C127.279 69.7098 127.444 69.8638 127.635 69.9702C127.705 70.0066 127.775 70.0402 127.853 70.0626C128.026 70.113 128.228 70.113 128.463 70.0542C128.463 69.8806 128.463 69.7042 128.463 69.5306V69.5334Z" fill="white"/>
<path d="M26.0562 71.2244C26.2802 71.2048 26.5042 71.1824 26.7309 71.1628C26.6497 71.0368 26.5658 70.9136 26.4846 70.7876C26.3418 70.9332 26.2018 71.0788 26.059 71.2216C26.0114 71.2244 25.9638 71.23 25.9162 71.2356C25.9162 71.2356 25.947 71.2692 25.9638 71.2888L25.9778 71.3056C25.4543 71.1544 25.1715 70.8604 25.4235 70.4209C25.6391 70.0457 25.835 69.7573 25.3171 69.4326C24.7767 69.0938 24.2924 68.6907 23.7829 68.3127L23.8444 68.2399C23.8164 68.2623 23.7941 68.2763 23.7689 68.2959C23.6513 68.3799 23.5477 68.4555 23.4553 68.5199C23.3629 68.5843 23.2817 68.6375 23.2089 68.6823C23.0633 68.7691 22.9541 68.8138 22.859 68.8138C22.6714 68.8138 22.537 68.6347 22.2962 68.2903C22.103 68.1923 21.9099 68.0943 21.7279 67.9879C21.5795 67.9011 21.4367 67.8116 21.3079 67.708C21.2127 67.6296 21.1259 67.5484 21.0476 67.456C20.9524 67.344 20.8768 67.2124 20.8152 67.0724C19.8409 66.7309 19.8353 66.6133 20.7928 65.835C20.8208 65.8126 20.8404 65.793 20.8712 65.7706L20.7788 65.8238C20.4736 65.1126 19.9025 65.1742 19.2529 65.4654C19.3117 65.0203 19.6057 64.5191 18.7042 64.1972C18.3822 64.4323 18.0463 64.6759 17.7047 64.9251C17.5423 65.0427 17.3828 65.1602 17.2176 65.2778C17.2148 65.4598 17.2092 65.6418 17.2064 65.8238C17.7999 65.8182 18.3934 65.8154 18.9898 65.8098C18.6958 65.9218 18.4046 66.0953 18.1107 66.1681C18.0127 66.1933 17.9147 66.2073 17.8167 66.2045C17.7383 66.2045 17.6599 66.1905 17.5815 66.1653C17.4303 66.1149 17.2764 66.0114 17.1224 65.8378C16.6576 65.6418 16.1901 65.4458 15.7253 65.2498C15.7253 65.261 15.7281 65.2694 15.7309 65.2834C15.7057 65.2638 15.6805 65.2414 15.6553 65.2218C15.6553 65.2218 15.6497 65.2218 15.6469 65.219C15.6469 65.219 15.6469 65.219 15.6497 65.219C15.185 64.8355 14.7202 64.4519 14.2555 64.0684C13.8383 64.1972 13.424 64.3287 13.0068 64.4547C12.4973 64.6059 12.1809 64.4547 12.0129 64.0712C11.5314 64.0712 11.0498 64.0712 10.5683 64.0712C10.0951 64.6759 10.0308 64.6675 9.10965 64.0516C9.08446 64.0348 9.06486 64.0236 9.03966 64.004L9.09286 64.0768C8.98087 64.0264 8.86608 64.0012 8.75129 64.0012C8.6953 64.0012 8.63651 64.0068 8.58051 64.018C8.57491 64.018 8.56931 64.0236 8.56092 64.0236C8.51052 64.0348 8.46012 64.0516 8.40973 64.074C8.40973 64.074 8.41533 64.06 8.42093 64.0488L8.44333 64.0012C8.41813 64.018 8.40133 64.032 8.37893 64.0488C8.03177 64.3091 7.7994 64.4799 7.62862 64.5471C7.56702 64.5723 7.51383 64.5835 7.46344 64.5835C7.36265 64.5835 7.27865 64.5331 7.18066 64.4323C7.10227 64.3511 7.01548 64.2307 6.9119 64.088C6.34636 64.1272 5.78082 64.1664 5.21528 64.2028C5.20128 64.1748 5.18728 64.1468 5.17328 64.1188C5.17328 64.1188 5.17048 64.1188 5.16768 64.1188C5.13969 64.1328 5.11169 64.144 5.0837 64.158C5.20968 64.5135 5.33287 64.8719 5.45885 65.2274C5.72203 65.3114 5.9852 65.3954 6.25117 65.4822C5.9852 65.6054 5.71923 65.7314 5.45046 65.8546C5.31327 66.1457 5.17328 66.4369 4.95771 66.6637C4.74493 66.8877 4.45096 67.0416 4.01421 67.078C4.0758 67.6044 3.85743 68.0103 3.29189 68.2735C2.82154 68.8614 2.34839 69.4494 1.87524 70.0373C1.87524 70.0373 1.87805 70.0373 1.88084 70.0373C2.44358 70.0261 3.00632 70.0149 3.56906 70.0037C3.57746 70.0345 3.58306 70.0625 3.59146 70.0933C3.2443 70.4377 3.11551 70.8212 3.30309 71.2608C3.49347 71.2608 3.68105 71.2608 3.87143 71.2608C3.77904 70.8716 3.68385 70.4825 3.59146 70.0933C3.61946 70.0653 3.63905 70.0345 3.67265 70.0065C4.24379 70.0373 4.81212 70.0681 5.38326 70.1017C5.38326 70.4881 5.38326 70.8744 5.38326 71.2608C4.9829 71.286 4.58255 71.3084 4.17939 71.3336C4.1178 71.3364 4.05621 71.342 3.99461 71.3448C3.93862 71.5631 3.88263 71.7815 3.82663 71.9999H5.49525C5.48965 71.7787 5.48125 71.5603 5.47565 71.3392C5.9376 71.314 6.39955 71.2888 6.8615 71.2636C6.8615 70.88 6.8615 70.4965 6.8615 70.1101C6.39115 70.0849 5.9208 70.0597 5.45046 70.0373L5.36367 69.8945H5.17049C5.42806 69.6958 5.69963 69.553 5.99639 69.4886C6.04399 69.4774 6.09158 69.4746 6.13918 69.469C6.16997 69.4662 6.19797 69.4578 6.22877 69.455C6.30716 69.4494 6.38555 69.4494 6.46394 69.455C6.46394 69.455 6.46674 69.455 6.46954 69.455C6.55073 69.4606 6.63472 69.469 6.72151 69.4858C6.76911 69.4942 6.8195 69.511 6.8699 69.5222C6.8979 69.6958 6.92589 69.8693 6.95389 70.0429C7.44104 70.0457 7.92818 70.0513 8.41533 70.0541C8.42093 70.4601 8.42933 70.866 8.43493 71.272C8.63371 71.2916 8.83529 71.3112 9.03407 71.3336C9.03407 71.5547 9.03407 71.7787 9.03407 71.9999H10.6159C10.6159 71.7787 10.6159 71.5603 10.6159 71.3392C11.075 71.3392 11.5314 71.3392 11.9905 71.3392C11.9905 71.5603 11.9905 71.7787 11.9905 71.9999H13.634C13.662 71.7563 13.6928 71.51 13.7208 71.2636C13.158 71.2636 12.5953 71.2608 12.0353 71.258C11.705 70.9024 11.509 70.7148 11.3186 70.7148C11.215 70.7148 11.1086 70.768 10.9826 70.8716C10.9267 70.9164 10.8679 70.9724 10.8007 71.0368C10.7335 71.1012 10.6607 71.1768 10.5823 71.258C10.0923 71.258 9.5996 71.258 9.10965 71.258C8.91088 70.88 8.7121 70.4993 8.51332 70.1213C8.52732 70.1381 8.54692 70.1521 8.56092 70.1717C8.56092 70.1717 8.56931 70.0961 8.56931 70.0933C8.56931 70.0933 8.55531 70.0849 8.54972 70.0821C8.54972 70.0625 8.54412 70.0429 8.54132 70.0233C8.57211 70.0177 8.60291 70.0177 8.62811 70.0093C8.7233 69.9785 8.79049 69.9253 8.83249 69.8497C8.85208 69.8105 8.86608 69.7657 8.87448 69.7154C8.87448 69.7154 8.88008 69.8077 8.87728 69.8049C8.92207 69.7937 8.96687 69.7853 9.01167 69.7741C9.15725 69.8385 9.30004 69.9057 9.45402 69.9309C9.54641 69.9477 9.67519 69.8217 9.78438 69.7601C9.68919 69.7293 9.5884 69.6678 9.50161 69.6762C9.33643 69.6958 9.17125 69.7349 9.00886 69.7713C8.96967 69.7545 8.93047 69.7377 8.89128 69.7209C8.97527 69.2534 9.06206 68.7887 9.14885 68.3239C9.5996 68.2987 10.0532 68.2763 10.5039 68.2511C11.0806 68.8362 11.2598 68.9818 11.6406 68.6879C11.705 68.6375 11.7722 68.5759 11.8506 68.5031C11.9289 68.4303 12.0129 68.3435 12.1109 68.2455C12.1109 68.2455 12.1109 68.2455 12.1109 68.2427L12.0885 68.2147V68.2091C13.1524 68.3099 14.2219 68.4135 15.3334 68.5199C16.2181 69.1022 17.184 69.6762 18.0491 70.3369C18.1275 70.3957 18.1891 70.4685 18.2423 70.5469C18.3878 70.768 18.4662 71.048 18.5838 71.2972C18.1275 71.286 17.6711 71.2748 17.2176 71.2636L17.2484 71.342C17.226 71.3196 17.212 71.3056 17.1896 71.2832C16.7192 70.8044 16.5036 70.6197 16.2461 70.7484C16.2097 70.768 16.1705 70.7932 16.1285 70.824C16.0473 70.8884 15.9549 70.978 15.8513 71.0928C15.7981 71.1516 15.7421 71.2132 15.6805 71.2832C15.6609 71.3056 15.6469 71.3196 15.6273 71.3448L15.6553 71.2664C15.1066 71.2664 14.5551 71.2636 14.0063 71.2608C14.0567 71.51 14.1099 71.7563 14.1603 72.0055H21.1287C21.1063 71.6331 21.084 71.2608 21.0588 70.8856C21.0588 70.8856 21.0588 70.8856 21.056 70.8856C21.056 70.8856 21.056 70.8856 21.0588 70.8856L21.0811 70.8968C21.1539 71.2664 21.2267 71.6387 21.3023 72.0083H27.3665C26.9129 71.7675 26.4566 71.5296 26.003 71.2888C26.0226 71.2692 26.0422 71.2496 26.059 71.23L26.0562 71.2244Z" fill="white"/>
<path d="M154.422 66.658C154.464 66.6804 154.503 66.7028 154.545 66.7252C154.668 66.7952 154.789 66.8708 154.923 66.8904C155.002 66.9016 155.122 66.714 155.231 66.6104C155.018 66.5572 154.836 66.49 154.646 66.476C154.596 66.4732 154.537 66.5404 154.481 66.602C154.461 66.6216 154.442 66.6412 154.425 66.658H154.422Z" fill="white"/>
<path d="M215.344 67.4784C215.419 67.5064 215.509 67.5288 215.576 67.5596C215.576 67.5148 215.584 67.4644 215.59 67.4168C215.593 67.3692 215.59 67.3244 215.57 67.288C215.428 67.0584 215.26 66.8401 215.097 66.6217C215.131 66.882 215.128 67.1396 215.195 67.386C215.206 67.4252 215.268 67.456 215.344 67.4812V67.4784Z" fill="white"/>
<path d="M1.79671 68.433C1.8863 68.4078 1.97589 68.3826 2.06548 68.3574C2.07388 68.3602 1.96749 68.3014 1.96749 68.3014C1.91149 68.3434 1.8583 68.3854 1.80231 68.4274C1.68192 68.4638 1.55873 68.4974 1.43555 68.5338V68.6626C1.44955 68.6626 1.46354 68.6626 1.47194 68.6598C1.58673 68.5926 1.69032 68.5142 1.79391 68.4358L1.79671 68.433Z" fill="white"/>
<path d="M119.701 68.2929C119.247 68.2985 118.794 68.3069 118.34 68.3125C118.626 68.5113 118.908 68.6961 119.191 68.6597C119.32 68.6429 119.449 68.5813 119.575 68.4525C119.617 68.4105 119.659 68.3489 119.701 68.2901V68.2929Z" fill="white"/>
<path d="M140.021 7.31006C139.973 7.37726 140.161 7.55644 140.239 7.68522C140.345 7.56204 140.449 7.44165 140.555 7.31566C140.555 7.31286 140.597 7.37725 140.597 7.37725C140.589 8.61472 140.603 8.66231 141.978 8.51953C141.502 8.13037 141.04 7.73002 140.578 7.33246C140.446 6.9909 140.228 7.0161 140.021 7.31006Z" fill="white"/>
<path d="M40.8949 3.7797C40.8781 3.81609 40.8725 3.85529 40.8669 3.89168C40.8669 3.90568 40.8557 3.91969 40.8557 3.93368C40.8557 3.98408 40.8641 4.03727 40.8837 4.08766C40.9369 4.21925 41.0769 4.35084 41.2897 4.48242C41.2897 4.11846 41.2897 3.7545 41.2897 3.39334C41.0937 3.52212 40.9565 3.65091 40.8949 3.7797Z" fill="white"/>
<path d="M119.61 4.66159C119.252 4.80157 118.891 4.94156 118.532 5.08154C118.961 5.05635 119.395 5.04235 119.61 4.66159Z" fill="white"/>
<path d="M91.6161 5.997C91.4593 6.04739 91.3025 6.09779 91.1458 6.14538C91.3445 6.29377 91.5405 6.41695 91.6161 5.997Z" fill="white"/>
<path d="M109.54 9.9585C109.515 9.9585 109.493 9.95291 109.467 9.95291C109.481 9.38737 109.456 8.84703 108.448 8.86662C108.448 9.02621 108.459 9.17458 108.493 9.30617C108.588 9.68693 108.865 9.93331 109.47 9.95291C109.47 9.9725 109.47 9.9921 109.47 10.0117C109.504 10.0341 109.537 10.0565 109.571 10.0817C109.616 10.2861 109.663 10.4904 109.708 10.6948C109.84 10.6108 109.971 10.5296 110.1 10.4456C109.924 10.3253 109.747 10.2021 109.571 10.0817C109.563 10.0397 109.551 9.9977 109.543 9.9557L109.54 9.9585Z" fill="white"/>
<path d="M7.3455 1.87598C7.3231 1.6492 7.3035 1.42522 7.28111 1.20125H6.72397C6.60638 1.36643 6.486 1.52882 6.36841 1.694C6.68197 1.75279 6.99834 1.81158 7.3455 1.87598Z" fill="white"/>
<path d="M6.36649 1.69946C6.36649 1.69946 6.36649 1.69662 6.36933 1.69378C6.34659 1.69094 6.32385 1.68525 6.30396 1.68241L6.36649 1.69946Z" fill="white"/>
<path d="M163.543 1.80864C163.619 1.87863 163.72 2.01862 163.77 2.00742C163.955 1.96263 164.123 1.87304 164.296 1.79745C164.117 1.72745 163.946 1.64066 163.759 1.60146C163.711 1.59026 163.619 1.73585 163.546 1.80864H163.543Z" fill="white"/>
<path d="M6.28199 2.53394C6.30998 2.68233 6.61235 2.79431 6.79153 2.9231C6.80273 2.74392 6.87832 2.54234 6.80833 2.38835C6.70754 2.16998 6.53396 1.9768 6.37717 1.77802C6.33798 2.04119 6.23999 2.29876 6.28199 2.53674V2.53394Z" fill="white"/>
<path d="M6.38794 1.71355C6.36554 1.69955 6.30396 1.68276 6.30396 1.68276C6.32635 1.71356 6.35155 1.74435 6.37675 1.77515C6.37955 1.75555 6.38514 1.73315 6.38794 1.71355Z" fill="white"/>
<path d="M170.495 2.47505C170.409 2.46945 170.328 2.46386 170.246 2.45546C170.319 2.51425 170.384 2.61224 170.468 2.62343C170.546 2.63463 170.641 2.55624 170.781 2.49465C170.675 2.48625 170.582 2.48066 170.495 2.47226V2.47505Z" fill="white"/>
<path d="M172.836 3.20288C172.939 3.0629 173.104 2.92571 173.121 2.77733C173.13 2.70454 172.869 2.60934 172.721 2.51695C172.662 2.70173 172.584 2.86412 172.573 3.0293C172.57 3.0825 172.743 3.14409 172.836 3.20288Z" fill="white"/>
<path d="M183.313 28.305C183.268 28.2742 183.17 28.2126 183.111 28.1734C183.058 28.2714 182.999 28.3694 182.946 28.4674C182.893 28.5654 182.842 28.6634 182.803 28.7669C182.792 28.7977 182.828 28.8425 182.876 28.8901C183.027 28.6998 183.189 28.515 183.335 28.3246C183.335 28.3246 183.329 28.3162 183.313 28.305Z" fill="white"/>
<path d="M182.873 28.8902C182.873 28.8902 182.862 28.9042 182.856 28.9126L182.862 28.9182C182.853 28.9434 182.848 28.9658 182.839 28.991C182.884 28.991 182.92 28.9854 182.968 28.991C182.943 28.9602 182.906 28.9238 182.873 28.8902Z" fill="white"/>
<path d="M235.748 24.212C235.734 24.2008 235.678 24.1812 235.678 24.1812C235.698 24.212 235.717 24.2428 235.74 24.2708C235.742 24.2512 235.748 24.2316 235.748 24.212Z" fill="white"/>
<path d="M235.717 25.1917C235.717 25.1917 235.733 25.2113 235.742 25.2197C235.775 25.1945 235.817 25.1665 235.859 25.1357C235.988 25.0489 236.134 24.9594 236.117 24.9118C236.033 24.6878 235.879 24.4806 235.739 24.2706C235.703 24.5282 235.647 24.7774 235.616 25.0265C235.61 25.0769 235.672 25.1357 235.719 25.1889L235.717 25.1917Z" fill="white"/>
<path d="M6.97068 71.3418C6.95388 71.5602 6.93428 71.7814 6.91748 71.9998H8.41532C8.40132 71.7814 8.38452 71.563 8.37052 71.3418C7.90297 71.3418 7.43822 71.3418 6.97068 71.3418Z" fill="white"/>
</svg>
