<svg width="216" height="41" viewBox="0 0 216 41" fill="none" xmlns="http://www.w3.org/2000/svg">
<path fill-rule="evenodd" clip-rule="evenodd" d="M37.114 20.5006C37.114 29.8806 29.51 37.4846 20.13 37.4846C10.75 37.4846 3.146 29.8806 3.146 20.5006C3.146 11.1206 10.75 3.5166 20.13 3.5166C29.51 3.5166 37.114 11.1206 37.114 20.5006ZM26.1035 33.7802C24.2808 34.6014 22.2588 35.0583 20.13 35.0583C16.6156 35.0583 13.3921 33.813 10.8766 31.7395C13.4934 27.3484 17.7023 24.019 22.7055 22.5461C24.1425 26.1515 25.2851 29.9062 26.1035 33.7802ZM28.3171 32.5396C27.5109 28.9139 26.4299 25.3917 25.0971 21.9961C26.2066 21.8104 27.3461 21.7137 28.5082 21.7137C30.6074 21.7137 32.631 22.0287 34.5355 22.6133C33.9364 26.734 31.6112 30.2951 28.3171 32.5396ZM34.683 20.1285C32.7173 19.5803 30.6462 19.2874 28.5082 19.2874C27.0179 19.2874 25.5609 19.4296 24.1499 19.701C23.7818 18.8517 23.3978 18.0109 22.9982 17.179C26.1744 15.7692 29.1096 13.9154 31.7249 11.6967C33.5141 14.0496 34.6036 16.9636 34.683 20.1285ZM30.1003 9.89303C27.6451 11.9671 24.89 13.6967 21.9093 15.0076C20.3359 11.9987 18.555 9.11565 16.5856 6.37739C17.7202 6.09357 18.9075 5.94288 20.13 5.94288C23.9879 5.94288 27.4953 7.44357 30.1003 9.89303ZM14.1887 7.2065C9.91501 9.11937 6.73213 13.0325 5.8308 17.755C6.65899 17.8159 7.49567 17.8469 8.33978 17.8469C12.3042 17.8469 16.1085 17.1635 19.6416 15.9078C18.0369 12.8664 16.2122 9.95896 14.1887 7.2065ZM5.57598 20.1691C5.57352 20.2793 5.57228 20.3898 5.57228 20.5006C5.57228 24.1304 6.90071 27.4498 9.09792 29.9994C11.9923 25.413 16.4687 21.9224 21.762 20.2957C21.4352 19.5535 21.0957 18.818 20.7438 18.0897C16.8748 19.5023 12.697 20.2731 8.33978 20.2731C7.41011 20.2731 6.48841 20.238 5.57598 20.1691Z" fill="#C3F00F"/>
<g clip-path="url(#clip0_12818_216727)">
<path d="M87.5943 17.5902C88.9391 17.5902 90.0292 16.4996 90.0292 15.1546C90.0292 13.8093 88.9391 12.719 87.5943 12.719C86.2495 12.719 85.1594 13.8093 85.1594 15.1546C85.1594 16.4996 86.2495 17.5902 87.5943 17.5902ZM167.952 25.9117C167.582 25.6512 167.296 25.6081 167.059 26.1139C162.969 34.9712 156.078 30.5513 156.762 30.9403C158.291 30.241 162.311 27.0167 161.704 22.5646C161.335 19.8438 158.999 18.6369 156.521 19.069C152.194 19.8233 150.602 24.4902 151.412 28.622C151.554 29.3315 151.807 29.9167 152.061 30.49C147.171 34.4661 145.229 26.9306 145.009 26.0301C145 25.9819 148.784 22.8278 149.837 15.3118C150.94 7.43457 148.427 6.00027 145.858 6.04502C141.102 6.12786 139.818 16.0627 141.544 24.3427C141.399 24.3803 140.726 24.753 139.645 24.7948C138.867 22.3468 135.543 20.2011 134.673 21.0279C132.496 23.0963 135.201 27.1401 137.105 27.4573C135.961 34.5006 128.81 32.7562 130.141 23.9321C132.47 19.6074 134.241 13.1769 133.925 9.29482C133.813 7.9204 132.797 6.07898 130.499 6.17032C126.079 6.34519 125.598 16.2828 126.116 23.3359C126.09 23.1622 125.844 24.1928 124.033 24.7053C123.605 22.3271 119.775 19.9399 118.874 21.0876C117.186 23.2356 120.111 27.0656 121.496 27.3327C120.353 34.3757 113.201 32.6314 114.532 23.8073C116.861 19.4828 118.632 13.0522 118.316 9.1702C118.204 7.79556 117.188 5.95414 114.89 6.04525C110.47 6.22035 109.989 16.1579 110.507 23.2111C110.481 23.0346 110.23 24.0992 108.344 24.6031C108.281 21.5176 104.438 20.1028 103.515 21.0874C101.869 22.8423 103.892 26.443 105.763 27.3327C104.619 34.3757 97.4676 32.6314 98.7989 23.8073C101.128 19.4828 102.899 13.0522 102.583 9.1702C102.471 7.79556 101.455 5.95414 99.1564 6.04525C94.7365 6.22035 94.3807 16.6575 94.8989 23.7104C93.4431 29.9482 88.5607 37.738 89.195 22.1334C89.2576 21.0387 89.326 20.6231 88.7803 20.2132C88.3713 19.8947 87.4414 20.048 86.9331 20.0606C86.3153 20.0854 86.1604 20.4469 86.0239 20.9933C85.7058 22.4042 85.6487 23.7719 85.6032 25.6381C85.5734 26.5111 85.5034 26.9185 85.1672 28.1088C84.8315 29.2989 82.9159 31.4743 81.8671 31.1105C80.4122 30.6103 80.8895 26.5028 81.1622 23.6808C81.3893 21.4506 80.6619 20.4491 78.798 20.0849C77.7067 19.8575 77.0437 19.8924 75.9073 19.5342C74.8326 19.1954 74.5896 17.1626 72.2974 17.8401C71.0437 18.2109 71.8497 20.8673 71.5484 22.8361C70.067 32.5208 66.9848 32.7867 65.5548 28.0822C71.995 12.3092 67.4178 6.09091 64.7385 6.09091C61.9479 6.09091 58.758 8.01312 60.1088 20.3119C59.452 20.1203 59.25 20.017 58.5311 20.017C54.4647 20.017 51.6943 23.3042 51.6943 27.3593C51.6943 31.4144 54.465 34.7018 58.5313 34.7018C60.9317 34.7018 62.6171 33.6101 63.8935 31.9213C64.7264 33.114 65.7405 34.7202 67.595 34.6479C73.1227 34.4326 74.7303 23.0938 74.92 22.4613C75.511 22.5524 76.07 22.7248 76.6157 22.8159C77.525 22.9524 77.5911 23.3123 77.5704 24.2268C77.3294 31.9385 78.7525 34.6387 81.9805 34.6387C83.779 34.6387 85.382 32.8716 86.4863 31.6081C87.3111 33.3104 88.6254 34.5866 90.3885 34.6385C94.6609 34.7447 96.2967 27.9351 96.1476 28.8312C96.0305 29.5344 97.5337 34.6002 101.932 34.6185C107.38 34.6415 108.393 28.65 108.514 27.6464C108.529 27.4467 108.536 27.4674 108.514 27.6464L108.51 27.7072C110.239 27.3855 111.132 26.4581 111.132 26.4581C111.132 26.4581 112.521 34.7117 117.665 34.6187C123.008 34.5219 124.015 29.1059 124.148 28.0498C124.165 27.7992 124.175 27.8286 124.148 28.0498C124.147 28.0602 124.146 28.0705 124.146 28.0808C126.2 27.3334 126.741 26.5832 126.741 26.5832C126.741 26.5832 127.844 34.6727 133.274 34.7434C138.113 34.8067 139.906 29.8518 139.916 27.7779C140.733 27.7866 142.242 27.2937 142.207 27.2657C142.207 27.2657 143.979 34.3385 148.929 34.7018C151.252 34.8723 152.996 33.3942 153.989 32.7199C156.325 34.6112 164.101 37.0268 169.011 28.702C169.704 27.5073 168.214 26.096 167.952 25.9117ZM58.3351 31.9557C55.9626 31.9557 54.4413 29.7621 54.4413 27.3967C54.4413 25.0316 55.8378 22.8379 58.2102 22.8379C59.2778 22.8379 59.8717 22.9554 60.7032 23.6785C60.8539 24.2727 61.2813 25.6432 61.4892 26.2656C61.7678 27.0984 62.0992 27.8073 62.4333 28.5788C61.956 30.5577 60.3911 31.9557 58.3351 31.9557ZM64.1164 23.7481C64.0177 23.5909 64.0383 23.6875 63.928 23.539C63.4931 22.356 62.655 19.7155 62.5579 16.7163C62.4482 13.3235 63.0137 9.34668 64.6807 9.34668C65.8102 9.34668 67.0107 17.4063 64.1161 23.7481H64.1164ZM97.5211 20.213C97.2535 18.1997 97.2395 9.22436 99.3942 9.47152C100.584 9.95345 98.6398 18.4228 97.5211 20.213ZM113.255 20.213C112.987 18.1997 112.973 9.22436 115.128 9.47152C116.317 9.95345 114.373 18.4228 113.255 20.213ZM128.863 20.3381C128.596 18.3245 128.582 9.3492 130.736 9.59636C131.926 10.0783 129.982 18.5478 128.863 20.3381ZM146.095 8.94622C148.065 8.74198 147.984 17.3446 144.03 22.7757C143.52 20.8127 142.738 9.62023 146.095 8.94599V8.94622ZM154.375 27.4573C153.743 24.2612 155.377 22.1621 157.063 21.9319C157.652 21.8378 158.506 22.2194 158.676 22.9329C158.956 24.2775 158.635 26.272 154.863 28.8026C154.869 28.8241 154.516 28.1692 154.375 27.4573H154.375Z" fill="#C3F00F"/>
</g>
<path d="M188.023 24.9092L202.538 16.0915M202.538 16.0915L190.872 13.2425M202.538 16.0915L199.689 27.7582" stroke="#C3F00F" stroke-width="2.42628" stroke-linecap="round" stroke-linejoin="round"/>
<defs>
<clipPath id="clip0_12818_216727">
<rect width="117.543" height="28.9157" fill="white" transform="translate(51.6719 6.04199)"/>
</clipPath>
</defs>
</svg>
