<svg width="157" height="72" viewBox="0 0 157 72" fill="none" xmlns="http://www.w3.org/2000/svg">
<path d="M81.0234 31.0267L91.6631 15.8461C91.8602 15.5503 91.8602 15.3532 91.8602 15.2546C91.8602 14.9589 91.5647 14.7617 91.0721 14.7617H89.6928C89.2987 14.7617 89.0032 14.8603 88.8062 14.9589C88.6091 15.0574 88.3136 15.3532 88.018 15.7475L79.2501 28.4637L70.4821 15.7475C70.1865 15.2546 69.891 15.0574 69.6939 14.9589C69.4969 14.8603 69.2014 14.7617 68.8073 14.7617H67.3295C66.837 14.7617 66.5414 14.9589 66.5414 15.2546C66.5414 15.3532 66.6399 15.5503 66.7384 15.8461L77.3782 31.1253L66.2459 47.0945C66.0488 47.3902 66.0488 47.5874 66.0488 47.686C66.0488 47.9817 66.3444 48.1788 66.837 48.1788H68.2162C68.6103 48.1788 68.9058 48.0803 69.1028 47.9817C69.2999 47.8831 69.5954 47.5874 69.891 47.1931L79.1515 33.7868L88.4121 47.1931C88.7077 47.686 89.0032 47.8831 89.2002 47.9817C89.3973 48.0803 89.6928 48.1788 90.0869 48.1788H91.5647C92.0572 48.1788 92.3528 47.9817 92.3528 47.686C92.3528 47.5874 92.2542 47.3902 92.1557 47.0945L81.0234 31.0267Z" fill="white"/>
<path d="M127.428 43.0536H128.61C129.004 43.0536 129.201 42.955 129.299 42.8564C129.398 42.7578 129.497 42.4621 129.497 42.0678V32.6046V29.8445V23.6342C129.497 23.2399 129.398 23.0427 129.299 22.8456C129.201 22.747 128.905 22.6484 128.61 22.6484H127.428C127.034 22.6484 126.837 22.747 126.738 22.8456C126.64 22.9442 126.541 23.2399 126.541 23.6342V29.8445V32.6046V42.0678C126.541 42.4621 126.64 42.6593 126.738 42.8564C126.837 42.955 127.132 43.0536 127.428 43.0536Z" fill="white"/>
<path d="M139.447 43.0536H140.629C141.023 43.0536 141.221 42.955 141.319 42.8564C141.418 42.7578 141.516 42.4621 141.516 42.0678V32.6046V29.8445V23.6342C141.516 23.2399 141.418 23.0427 141.319 22.8456C141.221 22.747 140.925 22.6484 140.629 22.6484H139.447C139.053 22.6484 138.856 22.747 138.758 22.8456C138.659 22.9442 138.561 23.2399 138.561 23.6342V29.8445V32.6046V42.0678C138.561 42.4621 138.659 42.6593 138.758 42.8564C138.856 42.955 139.152 43.0536 139.447 43.0536Z" fill="white"/>
<path d="M126.738 19.099C126.837 19.1976 127.132 19.2962 127.428 19.2962H128.61C129.004 19.2962 129.201 19.1976 129.299 19.099C129.398 19.0005 129.497 18.8033 129.497 18.5076V18.409V17.8176V15.7475C129.497 15.3532 129.398 15.156 129.299 14.9589C129.201 14.8603 128.905 14.7617 128.61 14.7617H127.428C127.034 14.7617 126.837 14.8603 126.738 14.9589C126.64 15.0574 126.541 15.3532 126.541 15.7475V17.8176V18.409V18.6062C126.541 18.8033 126.541 19.0005 126.738 19.099Z" fill="white"/>
<path d="M138.757 19.099C138.856 19.1976 139.152 19.2962 139.447 19.2962H140.629C141.023 19.2962 141.22 19.1976 141.319 19.099C141.417 19.0005 141.516 18.8033 141.516 18.5076V18.409V17.8176V15.7475C141.516 15.3532 141.417 15.156 141.319 14.9589C141.22 14.8603 140.925 14.7617 140.629 14.7617H139.447C139.053 14.7617 138.856 14.8603 138.757 14.9589C138.659 15.0574 138.56 15.3532 138.56 15.7475V17.8176V18.409V18.6062C138.56 18.8033 138.659 19.0005 138.757 19.099Z" fill="white"/>
<path d="M141.318 45.813C134.717 50.0517 122.698 47.7845 117.871 41.4757L112.748 33.7868C114.916 33.1953 116.59 32.111 117.773 30.5338C118.955 29.0552 119.644 27.0837 119.644 24.7178C119.644 21.5634 118.561 19.099 116.393 17.3247C114.226 15.6489 110.975 14.7617 106.64 14.7617H98.3648C97.9708 14.7617 97.7737 14.8603 97.6752 14.9589C97.5767 15.0574 97.4782 15.3532 97.4782 15.7475V31.421H94.0301C93.636 31.421 93.439 31.5196 93.2419 31.6181C93.1434 31.7167 93.0449 32.0124 93.0449 32.3082V33.4911C93.0449 33.8854 93.1434 34.0825 93.2419 34.1811C93.3405 34.2797 93.636 34.3782 94.0301 34.3782H97.4782V46.9959C97.4782 47.3902 97.5767 47.5874 97.6752 47.7845C97.7737 47.8831 98.0693 47.9817 98.3648 47.9817H99.547C99.9411 47.9817 100.138 47.8831 100.237 47.7845C100.335 47.6859 100.434 47.3902 100.434 46.9959V18.3104C100.434 18.0147 100.631 17.8176 100.926 17.8176H106.345C109.497 17.8176 111.96 18.409 113.733 19.4933C115.507 20.5777 116.295 22.352 116.295 24.7178C116.295 26.9851 115.605 28.6609 114.226 29.7452C112.847 30.8295 110.975 31.5196 108.611 31.7167C108.414 31.7167 108.216 31.8153 108.118 31.8153C108.019 31.8153 108.019 31.9139 108.019 32.111C108.019 32.3082 108.118 32.5053 108.216 32.7025C108.216 32.7025 114.127 41.7714 114.127 41.9686C119.25 50.7418 134.323 53.9948 142.796 48.6717C144.766 47.4888 143.091 44.7287 141.318 45.813Z" fill="white"/>
<path d="M65.9801 65.3965V57.0359H67.2581L70.9129 63.1391H70.2441L73.8391 57.0359H75.1171L75.1291 65.3965H73.66L73.648 59.341H73.9586L70.901 64.441H70.2082L67.1028 59.341H67.4612V65.3965H65.9801ZM80.7316 60.5115H84.888V61.7895H80.7316V60.5115ZM80.851 64.0946H85.5688V65.3965H79.2984V57.0359H85.4016V58.3377H80.851V64.0946ZM89.2107 65.3965V57.0359H92.8655C93.7733 57.0359 94.5695 57.211 95.2543 57.5614C95.9391 57.9117 96.4725 58.3974 96.8547 59.0185C97.2369 59.6396 97.428 60.3721 97.428 61.2162C97.428 62.0522 97.2369 62.7848 96.8547 63.4138C96.4725 64.0349 95.9391 64.5206 95.2543 64.871C94.5695 65.2213 93.7733 65.3965 92.8655 65.3965H89.2107ZM90.7634 64.0827H92.7939C93.4229 64.0827 93.9644 63.9632 94.4182 63.7244C94.88 63.4855 95.2344 63.1511 95.4812 62.7211C95.736 62.2911 95.8634 61.7895 95.8634 61.2162C95.8634 60.6349 95.736 60.1333 95.4812 59.7113C95.2344 59.2813 94.88 58.9469 94.4182 58.708C93.9644 58.4691 93.4229 58.3497 92.7939 58.3497H90.7634V64.0827ZM100.989 65.3965V57.0359H102.542V65.3965H100.989ZM105.532 65.3965L109.294 57.0359H110.823L114.597 65.3965H112.973L109.736 57.86H110.357L107.132 65.3965H105.532ZM107.264 63.4616L107.682 62.2433H112.197L112.615 63.4616H107.264Z" fill="white"/>
<rect x="51.127" y="29.6084" width="2.90062" height="11.505" rx="1.45031" fill="white"/>
<rect width="2.90063" height="11.505" rx="1.45031" transform="matrix(-1 0 0 1 10.5176 29.6084)" fill="white"/>
<rect x="43.873" y="23.8545" width="2.90062" height="23.01" rx="1.45031" fill="white"/>
<rect width="2.90063" height="23.01" rx="1.45031" transform="matrix(-1 0 0 1 17.7676 23.8545)" fill="white"/>
<rect x="36.623" y="15.2256" width="2.90062" height="40.2675" rx="1.45031" fill="white"/>
<rect width="2.90062" height="40.2675" rx="1.45031" transform="matrix(-1 0 0 1 25.0173 15.2255)" fill="white"/>
<rect x="29.3691" y="9.47363" width="2.90062" height="51.7725" rx="1.45031" fill="white"/>
</svg>
