<svg width="183" height="304" viewBox="0 0 183 304" fill="none" xmlns="http://www.w3.org/2000/svg">
<path d="M117.729 209.462C118.115 209.446 118.501 209.43 118.864 209.399C119.167 209.379 119.467 209.339 119.79 209.315C119.73 209.327 119.671 209.339 119.589 209.335C119.002 209.371 118.375 209.414 117.709 209.466L117.729 209.462Z" fill="white"/>
<path d="M138.575 203.686C137.815 204.084 137.031 204.467 136.239 204.81C136.858 204.522 137.622 204.144 138.575 203.686Z" fill="white"/>
<path d="M119.356 207.661C118.568 207.614 117.772 207.528 116.972 207.422C117.138 207.839 117.28 208.241 117.422 208.643C119.021 208.753 120.601 208.764 122.201 208.669C124.97 208.482 127.716 207.973 130.355 207.136L131.182 206.868C132.852 206.308 133.597 206.036 134.818 205.484C135.231 205.299 135.68 205.086 136.244 204.829C134.058 205.78 131.765 206.506 129.425 206.995C126.144 207.694 122.748 207.924 119.34 207.685L119.356 207.661Z" fill="white"/>
<path d="M138.575 203.686C138.575 203.686 138.595 203.682 138.614 203.678L138.855 203.548C138.855 203.548 138.78 203.584 138.764 203.607C138.709 203.639 138.634 203.674 138.579 203.706L138.575 203.686Z" fill="white"/>
<path d="M115.095 202.758C115.399 203.455 115.707 204.172 115.994 204.893C126.396 207.11 139.369 205.699 150.95 194.281C150.95 194.281 150.95 194.281 150.97 194.277C151.828 193.347 152.281 192.846 152.872 192.113C153.458 191.36 154.199 190.351 155.624 188.365C156.018 187.774 156.427 187.057 156.84 186.36C156.825 186.383 156.793 186.431 156.778 186.454C148.766 199.328 132.609 207.238 115.064 202.805L115.095 202.758Z" fill="white"/>
<path d="M157.934 184.46C157.588 185.083 157.241 185.705 156.852 186.316C157.233 185.666 157.596 185.019 157.934 184.46Z" fill="white"/>
<path d="M162.093 170.556C161.613 172.352 160.967 174.141 160.172 175.899C159.377 177.656 158.428 179.362 157.33 181.037C154.468 185.36 150.801 188.943 146.627 191.726C142.452 194.509 137.784 196.469 132.9 197.55C128.015 198.632 122.917 198.855 117.894 198.12C115.975 197.849 114.045 197.417 112.173 196.87C112.181 196.909 112.208 196.945 112.236 196.98C112.331 197.145 112.406 197.315 112.5 197.48C112.891 198.201 113.253 198.886 113.616 199.572C115.027 199.965 116.441 200.276 117.863 200.523C122.887 201.36 127.984 201.24 132.865 200.241C137.746 199.242 142.406 197.346 146.573 194.626C150.74 191.905 154.39 188.346 157.272 184.02C158.028 182.885 158.717 181.722 159.319 180.536C159.922 179.35 160.461 178.156 160.933 176.934C161.405 175.713 161.795 174.488 162.117 173.235C162.334 172.372 162.53 171.513 162.684 170.642C162.75 170.26 162.813 169.858 162.88 169.476C162.892 169.33 162.919 169.161 162.931 169.015C163.084 167.735 163.206 166.194 163.308 164.965C163.304 164.945 163.3 164.926 163.315 164.902C163.308 164.863 163.3 164.823 163.311 164.78C163.327 164.039 163.342 163.196 163.338 162.357C163.319 163.283 163.256 164.197 163.154 165.119C162.966 166.939 162.635 168.767 162.136 170.568L162.093 170.556Z" fill="white"/>
<path d="M163.295 162.345C163.307 161.585 163.295 160.809 163.267 160.056C163.259 159.915 163.251 159.773 163.243 159.631C163.251 159.67 163.263 159.729 163.251 159.773C163.263 160.549 163.279 161.447 163.295 162.345Z" fill="white"/>
<path d="M107.501 189.304C108.222 190.348 108.968 191.51 109.634 192.585C136.237 200.508 168.553 179.279 161.299 147.994L161.161 147.51C160.731 146.08 160.115 144.339 159.551 142.751C159.366 142.235 159.185 141.739 159.031 141.278C159.161 141.621 159.267 141.948 159.378 142.294C169.231 171.727 138.001 198.577 107.505 189.324L107.501 189.304Z" fill="white"/>
<path d="M155.758 143.552C155.598 146.535 155 149.584 153.93 152.626C152.884 155.684 151.364 158.734 149.4 161.709C146.521 166.055 142.91 169.811 138.862 172.917C134.809 176.004 130.295 178.425 125.628 180.077C120.956 181.71 116.115 182.599 111.379 182.585C107.979 182.59 104.627 182.115 101.427 181.179C102.302 182.274 103.228 183.42 103.958 184.4C104.041 184.507 104.104 184.617 104.186 184.723C107.24 185.648 110.42 186.178 113.638 186.291C118.468 186.47 123.404 185.748 128.163 184.241C132.921 182.734 137.478 180.427 141.586 177.412C145.694 174.396 149.313 170.679 152.191 166.333C154.065 163.519 155.494 160.631 156.505 157.703C157.52 154.795 158.137 151.844 158.341 148.976C158.541 146.088 158.362 143.256 157.798 140.542C157.269 138.005 156.413 135.574 155.218 133.294C155.124 133.128 155.049 132.959 154.954 132.794C154.733 132.408 154.481 131.967 154.233 131.545C153.582 130.446 152.853 129.261 152.21 128.201C153.432 130.313 154.359 132.585 154.939 134.968C155.634 137.718 155.887 140.617 155.723 143.58L155.758 143.552Z" fill="white"/>
<path d="M146.574 122.365C147.363 124.973 147.671 127.84 147.515 130.842C147.358 133.845 146.702 137.008 145.565 140.227C144.428 143.447 142.79 146.725 140.633 149.964C137.754 154.311 134.207 158.177 130.296 161.46C126.366 164.748 122.069 167.432 117.629 169.408C113.21 171.38 108.652 172.662 104.252 173.093C100.655 173.445 97.1765 173.262 93.8984 172.444C94.2926 172.877 94.6828 173.29 95.0296 173.692C95.6879 174.421 96.4526 175.271 97.2172 176.122C100.487 177.003 103.95 177.313 107.476 177.118C112.034 176.86 116.71 175.759 121.26 173.925C125.809 172.091 130.189 169.513 134.178 166.316C138.168 163.12 141.724 159.293 144.622 154.942C146.716 151.798 148.287 148.594 149.396 145.442C150.502 142.27 151.103 139.138 151.26 136.136C151.412 133.114 151.1 130.226 150.334 127.532C149.687 125.224 148.682 123.069 147.365 121.1C147.156 120.773 146.931 120.47 146.707 120.166C145.702 118.831 144.322 117.161 143.222 115.763C143.333 115.905 143.419 116.031 143.53 116.173C144.882 118.012 145.891 120.084 146.566 122.325L146.574 122.365Z" fill="white"/>
<path d="M134.485 127.472C133.23 130.715 131.466 134.08 129.198 137.485C126.301 141.835 122.859 145.824 119.134 149.316C115.389 152.812 111.336 155.796 107.236 158.134C103.136 160.472 98.9684 162.167 94.9937 163.087C91.4484 163.9 88.0643 164.087 84.9912 163.576C86.3076 164.828 87.6317 166.12 88.8575 167.329C92.0409 167.981 95.5196 167.96 99.1044 167.344C103.264 166.633 107.609 165.107 111.843 162.926C116.097 160.742 120.256 157.88 124.08 154.471C127.904 151.061 131.377 147.128 134.275 142.778C136.495 139.444 138.204 136.11 139.396 132.859C140.612 129.624 141.312 126.472 141.543 123.537C141.77 120.583 141.505 117.829 140.783 115.351C140.061 112.874 138.847 110.699 137.192 108.88L133.376 104.871L133.195 104.682L132.813 104.308C132.813 104.308 132.939 104.426 132.994 104.497C134.504 106.1 135.596 108.073 136.231 110.322C136.906 112.666 137.096 115.353 136.813 118.237C136.531 121.121 135.764 124.245 134.485 127.472Z" fill="white"/>
<path d="M121.105 114.481C119.696 117.673 117.81 121.042 115.499 124.537C112.601 128.888 109.286 132.994 105.746 136.695C102.226 140.392 98.4803 143.683 94.7821 146.391C91.0642 149.103 87.3738 151.236 83.9075 152.648C80.6697 153.973 77.6444 154.62 75.0048 154.535C75.1782 154.684 75.3515 154.834 75.521 154.964C76.6757 155.921 78.0709 157.157 79.3439 158.295C82.1845 158.566 85.3714 158.112 88.7393 157.027C92.4105 155.82 96.3217 153.868 100.193 151.309C104.085 148.747 107.94 145.598 111.559 141.984C115.178 138.37 118.545 134.314 121.442 129.964C123.742 126.512 125.564 123.135 126.906 119.915C128.248 116.696 129.134 113.65 129.542 110.885C129.947 108.099 129.894 105.59 129.358 103.423C128.888 101.489 128.044 99.8346 126.842 98.5389C126.689 98.3854 126.555 98.2278 126.401 98.0742L124.891 96.6764L123.532 95.4123L121.561 93.656C122.881 94.8255 123.725 96.48 124.128 98.489C124.534 100.518 124.484 102.925 123.958 105.612C123.454 108.315 122.475 111.297 121.062 114.469L121.105 114.481Z" fill="white"/>
<path d="M109.475 93.1486C108.676 95.6034 107.46 98.4285 105.866 101.514C104.271 104.599 102.279 107.949 99.9171 111.496C97.0193 115.846 93.8299 120.071 90.5578 123.984C87.2856 127.897 83.9069 131.484 80.6344 134.578C77.3619 137.672 74.2113 140.25 71.3362 142.158C68.5517 144.006 66.0623 145.182 64.0296 145.569C64.1754 145.683 64.3212 145.797 64.4631 145.891C65.7478 146.884 67.3085 148.128 68.7272 149.278C71.0279 149.103 73.7655 148.145 76.7589 146.52C79.8823 144.829 83.2733 142.428 86.7429 139.5C90.2124 136.571 93.7369 133.099 97.1115 129.288C100.506 125.473 103.747 121.299 106.644 116.949C108.991 113.426 110.936 110.045 112.439 106.916C113.962 103.784 115.064 100.899 115.737 98.3266C116.414 95.7735 116.661 93.5316 116.459 91.7077C116.281 90.0019 115.705 88.6627 114.744 87.7492C114.692 87.698 114.618 87.6311 114.547 87.5838L113.613 86.8079L112.876 86.1976L109.285 83.3114C110.164 84.0162 110.618 85.257 110.642 86.9116C110.67 88.586 110.269 90.6742 109.475 93.1486Z" fill="white"/>
<path d="M54.5871 138.529C55.4699 139.151 56.3604 139.812 57.2235 140.438C58.866 139.74 60.9809 138.231 63.4226 136.102C65.9155 133.923 68.7468 131.081 71.7277 127.759C74.7126 124.456 77.8706 120.688 80.997 116.661C84.1234 112.633 87.218 108.346 90.1354 103.991C92.5135 100.421 94.5726 97.0989 96.2811 94.0726C97.9896 91.0462 99.3554 88.3549 100.347 86.0459C101.339 83.7368 101.957 81.8102 102.177 80.3524C102.397 78.8947 102.219 77.9057 101.64 77.4687L101.399 77.2915L97.3679 74.3504L96.0241 73.37C96.0241 73.37 96.0517 73.4053 96.0753 73.421C96.3828 73.7282 96.3162 74.5201 95.9306 75.7652C95.5175 77.0772 94.7067 78.8585 93.5731 81.073C92.4394 83.2876 90.9552 85.9002 89.1521 88.8635C87.349 91.8269 85.2467 95.1369 82.8686 98.7072C79.9709 103.058 76.9274 107.396 73.9193 111.503C70.9111 115.609 67.9423 119.503 65.1545 122.971C62.3864 126.435 59.7954 129.454 57.5705 131.846C55.3771 134.191 53.5736 135.925 52.2424 136.848C52.3842 136.942 52.5301 137.056 52.6719 137.151C52.8847 137.293 53.1014 137.454 53.3181 137.615C53.3181 137.615 53.2906 137.58 53.2669 137.564L54.6108 138.545L54.5871 138.529Z" fill="white"/>
<path d="M45.0346 131.859C52.0114 121.999 85.9418 71.4156 87.914 67.7628L87.7721 67.6682C86.188 66.613 84.4186 65.4517 83.0039 64.5265C82.7241 64.3572 82.4404 64.1682 82.1566 63.9792L81.9911 63.869C81.7626 63.751 81.1561 64.2002 80.2583 65.1382C79.3447 66.0999 78.1082 67.5976 76.5962 69.5601C75.0843 71.5227 73.3165 73.9463 71.3203 76.7639C69.3241 79.5816 67.1073 82.8326 64.7293 86.4029C61.8316 90.7534 58.9536 95.2026 56.2332 99.5176C56.2332 99.5176 50.9655 107.99 48.6979 111.804C46.4303 115.619 44.4777 119.063 42.9385 121.912C41.4348 124.733 40.3445 126.96 39.7975 128.422C39.9591 128.512 40.1245 128.622 40.2663 128.717C41.681 129.642 43.4504 130.803 45.0346 131.859Z" fill="white"/>
<path d="M52.7561 65.6111C50.5707 68.3027 48.2517 71.4515 45.8697 75.0021C42.972 79.3526 40.2555 83.8922 37.8385 88.3923C35.4214 92.8923 33.296 97.3133 31.5879 101.466C29.8759 105.6 28.5537 109.43 27.7396 112.727C26.9491 115.938 26.643 118.602 26.8881 120.54C27.0496 120.631 27.2348 120.737 27.3728 120.812C28.8505 121.642 30.6868 122.729 32.3024 123.737C32.3845 121.999 33.0097 119.497 34.0997 116.452C35.2173 113.339 36.7955 109.662 38.74 105.667C40.6845 101.671 42.9913 97.3369 45.5265 92.9156C48.0618 88.4943 50.8491 84.0019 53.7666 79.6474C56.1446 76.0771 58.4165 72.8969 60.5309 70.158C62.6453 67.4191 64.5984 65.1018 66.3232 63.281C68.048 61.4602 69.5445 60.1357 70.7772 59.3355C71.9903 58.5391 72.9278 58.3103 73.5307 58.6606L68.5419 55.7475L67.3598 55.0624C67.3598 55.0624 67.2218 54.9876 67.1548 54.9601C66.3234 54.5941 65.2046 54.7364 63.8772 55.3712C62.4356 56.0494 60.7539 57.2675 58.8676 58.9978C56.9812 60.7281 54.9099 62.9666 52.7245 65.6583L52.7561 65.6111Z" fill="white"/>
<path d="M30.7026 122.808C30.7026 122.808 30.7656 122.816 30.7892 122.831C30.7695 122.835 30.7262 122.823 30.7026 122.808Z" fill="white"/>
<path d="M15.7519 114.352C16.8986 114.962 18.1123 115.6 19.2393 116.214C18.5332 114.02 18.406 111.136 18.7749 107.764C19.1753 104.241 20.1072 100.203 21.4961 95.8885C22.885 91.574 24.7543 86.9993 26.9901 82.4126C29.2259 77.826 31.8477 73.2234 34.7454 68.8729C37.092 65.3499 39.4663 62.2721 41.7699 59.6591C44.0734 57.0462 46.3102 54.918 48.4054 53.3097C50.5006 51.7015 52.4542 50.6133 54.1914 50.0807C55.8537 49.5836 57.3113 49.5987 58.5092 50.1576C58.5565 50.1891 58.6235 50.2168 58.6668 50.2286L58.2531 50.0042L52.8192 47.2211L52.3621 46.985C52.3621 46.985 52.1611 46.9023 52.0705 46.859C50.6559 46.2411 49.0012 46.163 47.1774 46.5695C45.2353 46.9997 43.1005 48.0013 40.8674 49.5348C38.6343 51.0682 36.2832 53.1375 33.9047 55.6835C31.5263 58.2295 29.1481 61.2876 26.7936 64.7712C23.8959 69.1218 21.341 73.7518 19.2392 78.3936C17.1374 83.0353 15.4532 87.7163 14.2929 92.1488C13.1325 96.5814 12.4527 100.754 12.3715 104.437C12.2903 107.916 12.7289 110.922 13.7108 113.265C13.8488 113.34 14.0064 113.411 14.1246 113.49C14.558 113.71 15.019 113.966 15.4998 114.218L15.9135 114.442C15.9135 114.442 15.7992 114.383 15.7559 114.372L15.7519 114.352Z" fill="white"/>
<path d="M22.9507 42.0218C20.4654 43.4214 17.9409 45.3411 15.4915 47.7374C13.0421 50.1337 10.6519 53.0302 8.392 56.372C5.49033 60.7028 3.09701 65.4235 1.28679 70.1911C-0.519481 74.9785 -1.77804 79.8405 -2.42218 84.4974C-3.06632 89.1543 -3.09202 93.6258 -2.49546 97.6243C-1.94241 101.201 -0.893197 104.392 0.715259 106.999C1.68459 107.44 2.63032 107.865 3.44993 108.275C4.24195 108.648 5.1246 109.066 6.0112 109.503C4.62339 106.974 3.8105 103.838 3.5017 100.253C3.17703 96.3848 3.47069 92.0235 4.31579 87.4492C5.16088 82.875 6.59682 78.0799 8.51737 73.3516C10.4576 68.6193 12.9021 63.9499 15.7998 59.5993C18.0873 56.1906 20.4853 53.2309 22.919 50.7558C25.3565 48.3004 27.8062 46.3139 30.2008 44.871C32.5955 43.4281 34.951 42.5053 37.1491 42.1262C39.3512 41.7667 41.4157 41.947 43.2519 42.7262L38.3422 40.6167L36.8843 39.987C36.707 39.9201 36.51 39.8571 36.3327 39.7902C34.4296 39.1883 32.373 39.0473 30.2221 39.3555C27.8546 39.7071 25.3887 40.5907 22.8995 41.9706L22.9507 42.0218Z" fill="white"/>
<path d="M-10.3912 94.5147C-11.3621 90.3864 -11.6713 85.7773 -11.3148 81.0142C-10.9583 76.251 -9.94402 71.2946 -8.27172 66.4521C-6.61912 61.6136 -4.33216 56.8733 -1.41079 52.5385C0.762508 49.2756 3.15267 46.4813 5.61789 44.1638C8.10281 41.8423 10.6824 39.9935 13.278 38.6333C15.8776 37.2927 18.4932 36.4407 21.0302 36.1166C23.5475 35.7964 26.0019 35.9806 28.3187 36.7045C28.3187 36.7045 28.3581 36.6966 28.3817 36.7124L28.2517 36.6769L22.8459 34.8512L22.4714 34.7213C22.4714 34.7213 22.3651 34.7017 22.3217 34.6899C19.8946 34.0291 17.3418 33.8646 14.7457 34.2006C12.0866 34.5287 9.40799 35.373 6.74143 36.686C4.0985 38.0148 1.4873 39.8084 -1.00551 42.0905C-3.47863 44.3686 -5.83725 47.1154 -7.98694 50.2916C-10.8886 54.6225 -13.1322 59.3746 -14.6745 64.2525C-16.2167 69.1304 -17.1011 74.1223 -17.2566 78.968C-17.4358 83.7981 -16.9099 88.4664 -15.675 92.6852C-14.6611 96.2107 -13.1391 99.4089 -11.1169 102.138C-9.52112 102.74 -7.89373 103.398 -6.33338 104.027C-6.33338 104.027 -6.2901 104.039 -6.2704 104.035C-8.14285 101.337 -9.50732 98.1073 -10.348 94.5265L-10.3912 94.5147Z" fill="white"/>
<path d="M-19.9358 99.0295C-19.1281 99.2774 -18.34 99.5291 -17.5914 99.7888C-19.6884 97.095 -21.3521 94.0072 -22.5591 90.6432C-24.1013 86.3221 -24.9109 81.5674 -24.9917 76.6665C-25.0726 71.7657 -24.3853 66.7109 -22.973 61.7976C-21.5608 56.8843 -19.4 52.1283 -16.4983 47.7974C-14.4156 44.6961 -12.1002 42.0399 -9.63491 39.8248C-7.16964 37.6097 -4.53081 35.8515 -1.8209 34.5503C0.889004 33.2491 3.65022 32.4087 6.4275 32.0569C9.14569 31.717 11.8326 31.8341 14.4527 32.4358C14.496 32.4476 14.5591 32.4553 14.6024 32.4671L14.3897 32.4279L10.2015 31.4644L9.07074 31.2403C8.75161 31.1813 8.43246 31.1224 8.11727 31.0831C5.68637 30.7099 3.18463 30.6991 0.710691 31.0311C-2.09808 31.4302 -4.89878 32.2783 -7.59293 33.5559C-10.3028 34.8571 -12.9062 36.5877 -15.3596 38.7595C-17.8131 40.9313 -20.0812 43.5166 -22.1009 46.5234C-25.0026 50.8542 -27.1202 55.622 -28.4261 60.555C-29.7516 65.4918 -30.2932 70.5584 -30.0587 75.5104C-29.8281 80.4427 -28.8254 85.2408 -27.0704 89.6012C-25.769 92.8233 -24.0658 95.8008 -21.9452 98.4079C-21.4448 98.5535 -20.9405 98.7187 -20.4361 98.884C-20.3928 98.8958 -20.3297 98.9037 -20.2864 98.9155L-19.9121 99.0453L-19.9358 99.0295Z" fill="white"/>
<path d="M-31.3578 95.9104C-30.3925 96.1267 -29.3405 96.3666 -28.387 96.6262L-28.1742 96.6656C-28.1742 96.6656 -28.2806 96.6459 -28.3239 96.6341C-28.1072 96.6931 -27.9142 96.7363 -27.7211 96.7796C-46.9602 73.4691 -33.3677 28.2327 0.46634 29.9125C-1.12139 29.7595 -3.17397 29.6384 -4.87198 29.5485C-5.05714 29.5446 -5.2463 29.5211 -5.43146 29.5172C-5.57723 29.5054 -5.74268 29.4975 -5.9042 29.5094C-6.70394 29.5058 -7.64158 29.5299 -8.37039 29.5736C-36.2187 31.4881 -52.5833 70.3552 -31.3578 95.9104Z" fill="white"/>
<path d="M3.98335 253.016C3.71537 252.803 3.48292 252.563 3.26218 252.279C3.04145 251.996 2.81669 251.692 2.62745 251.362C2.43821 251.031 2.26086 250.657 2.09522 250.239C1.63812 250.003 1.20063 249.763 0.743537 249.526C0.743537 249.526 0.700318 249.515 0.696371 249.495C0.625438 249.448 0.55835 249.42 0.46772 249.377C0.101256 249.184 -0.245457 248.987 -0.607974 248.814C-0.722248 248.755 -0.816852 248.692 -0.931125 248.633C-1.09269 248.542 -1.25427 248.452 -1.41583 248.361C-1.59709 248.275 -1.76258 248.164 -1.94384 248.078C-2.17239 247.96 -2.38119 247.838 -2.60974 247.72C-2.76735 247.649 -2.90924 247.554 -3.04716 247.479C-3.11809 247.432 -3.20877 247.389 -3.27576 247.361C-3.20075 247.736 -3.07454 248.059 -2.95229 248.362C-2.83003 248.665 -2.67629 248.921 -2.52254 249.177C-2.37273 249.413 -2.18749 249.622 -2.00618 249.811C-1.82883 249.98 -1.63971 250.106 -1.45056 250.232C-1.45056 250.232 -1.4032 250.264 -1.38351 250.26L-0.697893 250.614L0.590688 251.319L4.79125 253.571C4.60999 253.484 4.44446 253.374 4.29864 253.26C4.18042 253.181 4.08188 253.098 3.98335 253.016Z" fill="white"/>
<path d="M19.4778 260.707C19.4778 260.707 19.6592 260.793 19.7498 260.836C19.8168 260.864 19.864 260.896 19.931 260.923L19.1627 260.565C19.1627 260.565 19.3675 260.667 19.4778 260.707Z" fill="white"/>
<path d="M17.1406 259.167C16.7189 258.801 16.3051 258.372 15.907 257.919C15.5089 257.466 15.1422 256.966 14.8072 256.418C14.6929 256.359 14.559 256.304 14.4486 256.265C14.224 256.166 13.9995 256.068 13.7749 255.97C13.6843 255.926 13.5975 255.903 13.5266 255.856C13.4123 255.797 13.302 255.757 13.1878 255.698C12.9632 255.6 12.7386 255.501 12.51 255.383C12.4194 255.34 12.3288 255.297 12.2184 255.257C12.1081 255.218 12.0135 255.155 11.9032 255.116C11.6786 255.017 11.4501 254.899 11.2255 254.801C11.1151 254.761 11.0205 254.698 10.9102 254.659C10.8195 254.616 10.7289 254.572 10.6186 254.533C10.3901 254.415 10.1655 254.317 9.93694 254.198C9.82266 254.139 9.70835 254.08 9.59802 254.041C9.85824 254.522 10.1303 254.959 10.4338 255.349C10.7176 255.742 11.0368 256.109 11.3719 256.451C11.7029 256.774 12.0497 257.074 12.4083 257.329C12.7669 257.585 13.1611 257.814 13.5433 257.983L19.1425 260.569C18.914 260.451 18.6814 260.313 18.4726 260.191C18.0036 259.896 17.5702 259.573 17.1288 259.211L17.1406 259.167Z" fill="white"/>
<path d="M32.3181 265.898C31.5931 265.551 30.8759 265.142 30.1863 264.665C29.4967 264.189 28.8385 263.665 28.1882 263.078C27.5577 262.488 26.9349 261.834 26.3397 261.113C26.2294 261.074 26.1191 261.035 26.0088 260.995C25.8078 260.913 25.6108 260.85 25.4098 260.767C25.3428 260.739 25.2759 260.712 25.2129 260.704C25.1026 260.665 24.9922 260.625 24.8819 260.586C24.6809 260.503 24.484 260.441 24.2633 260.362C24.1963 260.334 24.1096 260.311 24.0426 260.283C23.9323 260.244 23.8416 260.2 23.7313 260.161C23.5303 260.078 23.3294 259.996 23.1088 259.917C23.0221 259.893 22.9315 259.85 22.8645 259.823C22.7739 259.779 22.6833 259.736 22.5769 259.716C22.3759 259.634 22.1552 259.555 21.9543 259.472C21.8636 259.429 21.777 259.406 21.6666 259.366C22.1436 260.008 22.6521 260.603 23.1881 261.131C23.7241 261.658 24.2719 262.143 24.8512 262.58C25.4305 263.017 26.0176 263.391 26.6363 263.717C26.7742 263.792 26.9318 263.863 27.0698 263.938C27.5466 264.17 28.0391 264.379 28.5238 264.548L32.7555 266.137C32.7555 266.137 32.7123 266.126 32.7083 266.106C32.5744 266.051 32.4167 265.98 32.2788 265.905L32.3181 265.898Z" fill="white"/>
<path d="M41.9921 268.569C41.0188 268.006 40.073 267.376 39.1508 266.659C38.2287 265.943 37.3341 265.159 36.4827 264.285C36.3764 264.265 36.2661 264.226 36.1597 264.206C35.9863 264.159 35.8129 264.112 35.6395 264.065C35.5962 264.053 35.553 264.041 35.4899 264.033C35.3836 264.014 35.2929 263.97 35.1865 263.95C35.0131 263.903 34.8398 263.856 34.6664 263.809C34.6034 263.801 34.5561 263.769 34.493 263.762C34.4063 263.738 34.296 263.699 34.2093 263.675C34.036 263.628 33.8626 263.581 33.6656 263.518C33.5986 263.49 33.5355 263.482 33.4685 263.455C33.3818 263.431 33.2953 263.408 33.185 263.368C33.0116 263.321 32.8146 263.258 32.6412 263.211C32.5742 263.183 32.4875 263.16 32.4244 263.152C33.1615 263.967 33.9419 264.692 34.7341 265.373C35.542 266.031 36.3577 266.625 37.2207 267.149C38.064 267.676 38.9506 268.113 39.849 268.507C40.2273 268.656 40.6054 268.806 40.9837 268.955C41.5117 269.136 42.0398 269.317 42.5795 269.455L43.0365 269.589L46.2675 270.478C45.8301 270.34 45.3888 270.183 44.9672 270.021C43.9466 269.632 42.9497 269.156 41.9764 268.593L41.9921 268.569Z" fill="white"/>
<path d="M47.0237 270.674C47.3507 270.772 47.6738 270.851 47.9969 270.93C48.0166 270.926 48.0402 270.941 48.0835 270.953L46.2828 270.454C46.5232 270.528 46.7873 270.619 47.0473 270.69L47.0237 270.674Z" fill="white"/>
<path d="M61.7349 273.441C61.1439 273.355 60.4899 273.261 59.7965 273.174C60.4348 273.292 61.0848 273.367 61.7349 273.441Z" fill="white"/>
<path d="M53.0592 271.144C51.6446 270.526 50.2851 269.775 48.9413 268.897C47.5975 268.019 46.3128 267.026 45.0635 265.904C44.9808 265.9 44.8744 265.881 44.7916 265.877C44.6459 265.865 44.4961 265.834 44.3504 265.822C44.311 265.83 44.2913 265.834 44.244 265.802C44.1613 265.798 44.0549 265.778 43.9721 265.775C43.8264 265.763 43.6766 265.731 43.5308 265.72C43.4914 265.728 43.4481 265.716 43.4048 265.704C43.322 265.7 43.2353 265.676 43.1487 265.653C42.9989 265.621 42.8533 265.61 42.7035 265.578C42.6642 265.586 42.6168 265.555 42.5578 265.566C42.475 265.562 42.3883 265.539 42.3016 265.515C42.1519 265.484 42.0061 265.472 41.8367 265.445C41.7776 265.456 41.7304 265.425 41.6674 265.417C42.7039 266.398 43.7836 267.287 44.9028 268.067C46.022 268.847 47.1648 269.54 48.3312 270.146C49.4976 270.752 50.7033 271.248 51.9287 271.637C52.9807 271.98 54.0405 272.259 55.1279 272.471C55.2973 272.499 55.4708 272.546 55.6402 272.573C56.2115 272.664 56.8459 272.762 57.5038 272.876C58.2642 272.99 59.064 273.096 59.8243 273.21C58.997 273.068 58.1616 272.888 57.3618 272.679C55.9119 272.294 54.4777 271.782 53.0631 271.164L53.0592 271.144Z" fill="white"/>
<path d="M64.09 272.416C61.9584 271.798 59.8425 270.952 57.8052 269.886C55.768 268.819 53.7663 267.52 51.8864 266.012C51.8076 266.027 51.7485 266.039 51.6657 266.035C51.5475 266.059 51.4254 266.063 51.3033 266.067C51.3033 266.067 51.264 266.075 51.2443 266.079C51.1655 266.095 51.1064 266.106 51.0237 266.102C50.9055 266.126 50.7833 266.13 50.6611 266.134C50.6415 266.138 50.6218 266.142 50.5824 266.15C50.5036 266.166 50.4407 266.158 50.3579 266.154C50.2397 266.178 50.1137 266.162 49.9915 266.166C49.9522 266.174 49.9324 266.178 49.893 266.186C49.8339 266.198 49.7512 266.194 49.6881 266.186C49.566 266.19 49.4439 266.194 49.3218 266.198C49.2824 266.206 49.243 266.214 49.2194 266.198C50.7958 267.521 52.4154 268.651 54.1099 269.643C55.8004 270.615 57.5183 271.418 59.2875 272.068C61.0567 272.717 62.8297 273.181 64.6342 273.495C66.4387 273.81 68.2509 273.959 70.075 273.962C71.2805 273.946 72.7381 273.858 74.1366 273.783C72.9351 273.819 71.7374 273.772 70.5318 273.686C68.365 273.506 66.1941 273.101 64.0625 272.483L64.09 272.416Z" fill="white"/>
<path d="M74.1646 273.716C74.8185 273.708 75.4645 273.66 76.1303 273.609C76.4337 273.589 76.7331 273.549 77.0562 273.526C76.9971 273.537 76.9379 273.549 76.8552 273.545C76.0279 273.609 75.1179 273.668 74.1685 273.736L74.1646 273.716Z" fill="white"/>
<path d="M95.8183 267.88C95.0581 268.278 94.2743 268.661 93.4826 269.004C94.101 268.716 94.8651 268.337 95.8183 267.88Z" fill="white"/>
<path d="M76.599 271.856C73.1912 271.617 69.791 270.905 66.4576 269.709C63.1439 268.509 59.893 266.804 56.8507 264.607C56.7916 264.619 56.7561 264.647 56.7009 264.678C56.6261 264.714 56.5355 264.773 56.441 264.812C56.441 264.812 56.4213 264.816 56.4016 264.82C56.3426 264.832 56.2874 264.864 56.2519 264.891C56.1771 264.927 56.0826 264.966 56.0077 265.002C56.0077 265.002 55.988 265.006 55.9683 265.009C55.9092 265.021 55.8501 265.033 55.8186 265.08C55.7398 265.096 55.6493 265.155 55.5508 265.175C55.5508 265.175 55.5113 265.183 55.4917 265.187C55.4326 265.199 55.3734 265.211 55.338 265.238C55.2395 265.258 55.1648 265.293 55.0702 265.333C55.0505 265.337 55.0308 265.341 55.0111 265.345C57.4978 267.223 60.1182 268.746 62.8095 269.907C65.5007 271.068 68.2707 271.906 71.068 272.37C73.8653 272.834 76.6625 272.99 79.432 272.804C82.2014 272.618 84.9472 272.108 87.5863 271.272L88.4135 271.004C90.0837 270.444 90.8282 270.171 92.0492 269.619C92.4628 269.434 92.9118 269.221 93.475 268.965C91.2889 269.915 88.9964 270.641 86.6565 271.131C83.3751 271.829 79.9793 272.059 76.5714 271.82L76.599 271.856Z" fill="white"/>
<path d="M95.8181 267.88C95.8181 267.88 95.8379 267.876 95.8576 267.872L96.0979 267.742C96.0979 267.742 96.023 267.777 96.0073 267.801C95.9521 267.833 95.8772 267.868 95.8221 267.9L95.8181 267.88Z" fill="white"/>
<path d="M59.8071 261.679C59.8071 261.679 59.7795 261.745 59.748 261.793C59.752 261.812 59.7165 261.84 59.685 261.887C59.6732 261.931 59.6417 261.978 59.6102 262.025C59.6102 262.025 59.5983 262.069 59.5826 262.092C59.5826 262.092 59.5827 262.092 59.5669 262.116C59.5237 262.207 59.4566 262.281 59.4094 262.352C59.3621 262.423 59.3306 262.471 59.2834 262.542C59.2519 262.589 59.2164 262.616 59.1849 262.664C59.1849 262.664 59.1693 262.687 59.1535 262.711C59.1535 262.711 59.1535 262.711 59.1378 262.735C59.0866 262.786 59.0393 262.857 58.9881 262.908C58.9723 262.932 58.9369 262.959 58.9212 262.983C58.9212 262.983 58.8857 263.011 58.8896 263.03C58.8936 263.05 58.8543 263.058 58.8385 263.081C68.6785 269.755 90.1285 276.294 108.192 258.475C108.192 258.475 108.192 258.475 108.212 258.471C109.07 257.541 109.523 257.04 110.114 256.307C110.7 255.555 111.44 254.546 112.866 252.56C113.26 251.969 113.669 251.251 114.082 250.554C114.067 250.578 114.035 250.625 114.019 250.648C104.114 266.545 81.7917 274.871 59.7952 261.722L59.8071 261.679Z" fill="white"/>
<path d="M115.177 248.655C114.831 249.277 114.484 249.9 114.095 250.511C114.477 249.861 114.839 249.214 115.177 248.655Z" fill="white"/>
<path d="M119.335 234.75C118.855 236.547 118.21 238.336 117.415 240.093C116.62 241.85 115.671 243.557 114.573 245.231C111.711 249.554 108.044 253.137 103.869 255.92C99.6947 258.703 95.027 260.663 90.1423 261.745C85.2577 262.826 80.1599 263.049 75.1366 262.314C70.1133 261.58 65.1723 259.927 60.5776 257.242C60.5815 257.262 60.5855 257.282 60.5894 257.301C60.6171 257.439 60.6054 257.585 60.6134 257.727C60.6134 257.727 60.6173 257.747 60.6212 257.766C60.6331 257.928 60.6213 258.074 60.6332 258.235L60.6411 258.274C60.645 258.294 60.6529 258.334 60.6371 258.357C60.6372 258.46 60.6215 258.586 60.6216 258.688C60.6255 258.708 60.6334 258.747 60.6373 258.767L60.6452 258.806C60.6335 258.952 60.6218 259.098 60.6061 259.224C65.1811 262.015 70.13 263.81 75.1337 264.651C80.157 265.488 85.2548 265.367 90.1355 264.368C95.0163 263.37 99.6762 261.473 103.843 258.753C108.01 256.033 111.661 252.474 114.542 248.147C115.298 247.012 115.987 245.849 116.59 244.663C117.192 243.477 117.731 242.283 118.203 241.062C118.676 239.84 119.065 238.615 119.388 237.362C119.604 236.499 119.801 235.64 119.954 234.77C120.021 234.387 120.084 233.985 120.15 233.603C120.162 233.458 120.19 233.288 120.201 233.142C120.355 231.862 120.476 230.321 120.578 229.092C120.574 229.072 120.57 229.053 120.586 229.029C120.578 228.99 120.57 228.95 120.582 228.907C120.597 228.166 120.613 227.323 120.608 226.484C120.589 227.41 120.526 228.324 120.424 229.246C120.236 231.066 119.906 232.894 119.406 234.695L119.335 234.75Z" fill="white"/>
<path d="M120.538 226.539C120.549 225.779 120.537 225.003 120.509 224.25C120.501 224.108 120.493 223.967 120.485 223.825C120.493 223.864 120.505 223.923 120.493 223.966C120.505 224.743 120.521 225.641 120.538 226.539Z" fill="white"/>
<path d="M116.794 206.945C116.609 206.429 116.427 205.933 116.274 205.472C116.404 205.815 116.51 206.142 116.621 206.488C127.094 237.784 91.129 266.156 59.0031 251.329C59.0031 251.329 59.011 251.369 59.015 251.389C59.0978 251.597 59.1806 251.806 59.2634 252.015C59.2634 252.015 59.2634 252.015 59.2674 252.034C59.2713 252.054 59.2792 252.093 59.2831 252.113C59.358 252.282 59.4132 252.456 59.4685 252.629C59.4724 252.649 59.4803 252.688 59.4843 252.708C59.4922 252.747 59.4961 252.767 59.504 252.807C59.5553 252.96 59.6066 253.114 59.654 253.248C59.6619 253.287 59.6697 253.326 59.6776 253.366C59.6776 253.366 59.6816 253.386 59.6855 253.405C59.7447 253.598 59.804 253.791 59.8631 253.984C59.8631 253.984 59.8631 253.984 59.8671 254.004C87.348 268.451 126.376 246.266 118.463 212.204L118.325 211.719C117.895 210.289 117.28 208.548 116.716 206.961L116.794 206.945Z" fill="white"/>
<path d="M112.153 196.874C111.956 196.503 111.716 196.121 111.491 195.716C110.841 194.617 110.111 193.431 109.469 192.372C110.691 194.483 111.618 196.756 112.198 199.139C112.892 201.888 113.145 204.788 112.981 207.751C112.821 210.733 112.224 213.782 111.153 216.824C110.107 219.882 108.587 222.932 106.622 225.907C103.744 230.254 100.133 234.009 96.0848 237.116C92.0322 240.202 87.5185 242.623 82.8508 244.276C78.1791 245.909 73.3376 246.797 68.6022 246.783C63.8708 246.789 59.2492 245.912 55.0094 244.078C55.0094 244.078 55.0174 244.118 55.041 244.134C55.1908 244.37 55.3405 244.606 55.4903 244.843C55.4903 244.843 55.4983 244.882 55.5219 244.898C55.5298 244.937 55.5574 244.972 55.5811 244.988C55.7033 245.189 55.8255 245.39 55.9477 245.591C55.9556 245.63 55.9793 245.646 56.0069 245.681L56.0148 245.721C56.1646 245.957 56.2907 246.178 56.4169 246.398C56.4169 246.398 56.4247 246.438 56.4483 246.453C56.4562 246.493 56.4799 246.508 56.5075 246.544C56.6297 246.745 56.7283 246.93 56.8505 247.131C56.8584 247.17 56.882 247.186 56.9096 247.221C61.2716 249.256 66.0114 250.314 70.8415 250.493C75.6715 250.673 80.6076 249.949 85.366 248.442C90.1244 246.936 94.6815 244.629 98.7893 241.614C102.897 238.598 106.516 234.882 109.394 230.535C111.268 227.721 112.697 224.833 113.708 221.905C114.723 218.997 115.341 216.046 115.544 213.178C115.744 210.29 115.566 207.458 115.001 204.744C114.472 202.207 113.616 199.776 112.422 197.496C112.327 197.331 112.252 197.161 112.157 196.996C112.149 196.956 112.122 196.921 112.094 196.886L112.153 196.874Z" fill="white"/>
<path d="M101.427 181.179C101.1 180.773 100.773 180.368 100.473 179.997C100.584 180.139 100.67 180.265 100.781 180.407C102.133 182.246 103.142 184.318 103.817 186.56C104.606 189.167 104.914 192.035 104.758 195.037C104.602 198.039 103.945 201.203 102.808 204.422C101.671 207.641 100.033 210.92 97.8755 214.159C94.9974 218.505 91.4495 222.372 87.5389 225.655C83.6085 228.942 79.3115 231.627 74.8724 233.603C70.453 235.574 65.8955 236.857 61.4951 237.288C57.0987 237.739 52.8397 237.343 48.9704 236.028C48.998 236.064 49.0257 236.099 49.0533 236.135C49.2425 236.363 49.4278 236.572 49.5973 236.804C49.6249 236.84 49.6524 236.875 49.68 236.911C49.68 236.911 49.6879 236.95 49.7076 236.946C49.9204 237.19 50.1175 237.458 50.3303 237.702C50.3343 237.722 50.3579 237.738 50.3855 237.773C50.4131 237.809 50.4408 237.844 50.4684 237.88C50.6339 238.092 50.8231 238.321 50.9887 238.533C50.9966 238.573 51.0399 238.585 51.0675 238.62C51.0675 238.62 51.0714 238.64 51.095 238.655C51.2882 238.903 51.4814 239.152 51.6745 239.4C51.6785 239.419 51.7021 239.435 51.7297 239.471C55.7684 241.017 60.189 241.606 64.747 241.348C69.305 241.09 73.9808 239.989 78.5303 238.155C83.0798 236.322 87.4596 233.743 91.449 230.547C95.4385 227.35 98.9944 223.523 101.892 219.172C103.987 216.028 105.557 212.824 106.667 209.672C107.773 206.5 108.374 203.368 108.53 200.366C108.683 197.344 108.37 194.456 107.605 191.762C106.958 189.454 105.952 187.299 104.636 185.33C104.494 185.133 104.348 184.916 104.206 184.719C104.123 184.613 104.06 184.503 103.977 184.397C103.252 183.436 102.322 182.27 101.447 181.175L101.427 181.179Z" fill="white"/>
<path d="M41.8956 228.329C41.8956 228.329 41.9744 228.416 42.0216 228.447C42.3094 228.758 42.6128 229.046 42.9005 229.357C42.9045 229.377 42.9281 229.392 42.9518 229.408C43.007 229.479 43.0819 229.546 43.1331 229.597C43.342 229.822 43.5469 230.026 43.7558 230.251C43.8346 230.338 43.9096 230.405 43.9884 230.491C44.0909 230.594 44.1973 230.716 44.2997 230.818C44.4022 230.92 44.5087 231.042 44.6111 231.145C48.1927 232.148 52.1875 232.249 56.3434 231.518C60.5034 230.807 64.848 229.281 69.0822 227.1C73.3361 224.916 77.4952 222.054 81.3191 218.645C85.1431 215.235 88.6162 211.302 91.5139 206.952C93.7344 203.618 95.4427 200.284 96.6351 197.033C97.851 193.799 98.551 190.647 98.7822 187.711C99.0095 184.757 98.7444 182.003 98.0224 179.525C97.3004 177.048 96.0861 174.874 94.4307 173.054L90.6154 169.045L90.4342 168.856L90.0518 168.482C90.0518 168.482 90.178 168.6 90.2331 168.671C91.7427 170.274 92.8348 172.247 93.47 174.496C94.1447 176.84 94.3348 179.527 94.0524 182.411C93.7699 185.295 93.0031 188.419 91.7241 191.646C90.4687 194.889 88.7052 198.254 86.4571 201.655C83.5594 206.006 80.1178 209.994 76.3924 213.486C72.6473 216.982 68.6144 219.962 64.4946 222.304C60.3944 224.642 56.227 226.338 52.2523 227.257C48.2776 228.177 44.4917 228.301 41.1388 227.518C41.2964 227.691 41.4698 227.841 41.6275 228.014C41.7299 228.116 41.8089 228.203 41.9113 228.305L41.8956 228.329Z" fill="white"/>
<path d="M32.8272 219.678C32.8272 219.678 32.9731 219.792 33.0283 219.863C33.2805 220.099 33.5524 220.331 33.8047 220.568C33.8835 220.654 33.978 220.717 34.0568 220.804C34.1829 220.922 34.3091 221.04 34.4352 221.158C34.5614 221.276 34.6874 221.394 34.8135 221.513C34.9869 221.662 35.1407 221.816 35.3141 221.965C35.4362 222.064 35.5427 222.186 35.6648 222.284C35.7161 222.336 35.7673 222.387 35.8146 222.418C38.8365 222.878 42.2914 222.431 45.9823 221.22C49.6732 220.009 53.5646 218.062 57.4362 215.503C61.3275 212.941 65.183 209.791 68.802 206.177C72.421 202.563 75.7877 198.508 78.6854 194.157C80.9847 190.705 82.8073 187.328 84.1493 184.109C85.4914 180.89 86.3766 177.844 86.7851 175.078C87.1897 172.293 87.1375 169.783 86.6008 167.617C86.1312 165.683 85.2874 164.028 84.0853 162.733C83.9316 162.579 83.7974 162.421 83.6437 162.268L82.1343 160.87L80.7746 159.606L78.804 157.85C80.1243 159.019 80.9681 160.673 81.3708 162.682C81.7775 164.711 81.7272 167.118 81.2004 169.806C80.6973 172.508 79.7373 175.487 78.3046 178.663C76.8956 181.854 75.0099 185.224 72.6988 188.719C69.8011 193.07 66.4857 197.176 62.9455 200.877C59.425 204.574 55.6798 207.865 51.9817 210.573C48.2638 213.285 44.5733 215.418 41.1071 216.83C37.6605 218.238 34.4342 218.905 31.6882 218.697C32.039 219.016 32.3859 219.315 32.7366 219.634C32.7366 219.634 32.7642 219.67 32.7878 219.686L32.8272 219.678Z" fill="white"/>
<path d="M66.7176 157.343C65.9189 159.797 64.7027 162.622 63.1084 165.708C61.5142 168.793 59.5222 172.143 57.1599 175.689C54.2622 180.04 51.0729 184.264 47.8007 188.178C44.5285 192.091 41.1499 195.678 37.8773 198.772C34.6048 201.866 31.4541 204.443 28.579 206.351C25.7236 208.256 23.1398 209.47 21.0795 209.822C21.0795 209.822 21.1031 209.837 21.1268 209.853C21.1977 209.9 21.249 209.952 21.3239 210.018C21.6392 210.263 21.9347 210.511 22.25 210.755C22.3446 210.818 22.4234 210.904 22.518 210.967C22.6638 211.082 22.8095 211.196 22.9357 211.314C23.0815 211.428 23.2312 211.562 23.377 211.676C23.5701 211.822 23.7436 211.971 23.9407 212.137C24.0628 212.235 24.2086 212.35 24.3308 212.448C24.4017 212.495 24.453 212.546 24.5239 212.594C24.8944 212.909 25.2845 213.22 25.651 213.515C28.0265 213.408 30.8587 212.41 33.9821 210.718C37.1055 209.027 40.4965 206.626 43.9661 203.698C47.4357 200.769 50.9601 197.297 54.3348 193.486C57.7291 189.671 60.9696 185.497 63.8673 181.147C66.2139 177.624 68.1587 174.243 69.682 171.11C71.2053 167.978 72.3072 165.093 72.9798 162.521C73.6563 159.967 73.8839 157.73 73.7019 155.902C73.5239 154.196 72.9481 152.857 71.9865 151.943C71.9352 151.892 71.8603 151.825 71.7893 151.778L70.8553 151.002L70.1184 150.392L66.5282 147.505C67.4071 148.21 67.8607 149.451 67.885 151.106C67.9133 152.78 67.5123 154.868 66.7176 157.343Z" fill="white"/>
<path d="M10.6512 201.954C10.8443 202.1 11.0375 202.246 11.2266 202.372C11.3725 202.486 11.5143 202.581 11.6799 202.691C11.7508 202.738 11.8256 202.805 11.8965 202.852C12.3064 203.159 12.7162 203.466 13.1418 203.75C13.1891 203.781 13.2128 203.797 13.2601 203.829C13.6226 204.104 14.0049 204.376 14.3675 204.652C16.0139 203.973 18.1643 202.436 20.6572 200.256C23.15 198.077 25.9814 195.235 28.9623 191.913C31.9471 188.61 35.1051 184.842 38.2314 180.815C41.3578 176.787 44.4526 172.5 47.37 168.145C49.748 164.575 51.807 161.253 53.5155 158.227C55.224 155.2 56.59 152.509 57.5818 150.2C58.5736 147.891 59.1914 145.964 59.4114 144.506C59.6314 143.049 59.4536 142.06 58.8742 141.623L58.6339 141.446L54.6025 138.504L53.2587 137.524C53.2587 137.524 53.2861 137.559 53.3098 137.575C53.6172 137.882 53.5506 138.674 53.165 139.919C52.7519 141.231 51.9411 143.012 50.8075 145.227C49.6738 147.441 48.1897 150.054 46.3866 153.018C45.9693 153.695 45.5559 154.393 45.1031 155.098C43.6189 157.506 41.9457 160.095 40.1031 162.861C39.0952 164.374 38.0676 165.892 37.0163 167.393C35.0792 170.199 33.0988 172.993 31.134 175.661C30.4725 176.552 29.8308 177.438 29.1851 178.305C29.0906 178.447 28.9764 178.593 28.8819 178.735C28.0078 179.893 27.1494 181.028 26.2871 182.144C24.9562 183.886 23.653 185.56 22.3693 187.129C21.9441 187.665 21.5306 188.157 21.1211 188.67C20.4635 189.478 19.8178 190.242 19.1878 190.983C17.6167 192.855 16.1321 194.546 14.7814 195.984C13.8402 197.013 12.9699 197.884 12.1626 198.66C11.0797 199.697 10.1385 200.521 9.38232 201.041C9.4769 201.104 9.57146 201.167 9.66999 201.25C9.8355 201.36 9.98132 201.474 10.1468 201.584C10.3163 201.714 10.4817 201.825 10.6512 201.954Z" fill="white"/>
<path d="M-1.92699 193.372C-1.92699 193.372 -1.76152 193.482 -1.67089 193.526C-1.2256 193.805 -0.799985 194.089 -0.350744 194.388L-0.331028 194.384C-0.0669932 194.577 0.193094 194.75 0.433485 194.927C0.598995 195.038 0.764553 195.148 0.949758 195.254C1.04434 195.317 1.11523 195.364 1.20981 195.427C1.37532 195.538 1.51724 195.632 1.68275 195.742L2.25019 196.12C9.14435 186.359 43.1849 135.61 45.1768 131.954L45.0585 131.875C43.4704 130.8 41.701 129.639 40.2863 128.713C40.1444 128.619 39.9791 128.509 39.8175 128.418C39.6993 128.339 39.5613 128.265 39.4391 128.166L39.2736 128.056C39.045 127.938 38.4386 128.387 37.5407 129.325C36.6272 130.287 35.3907 131.784 33.8787 133.747C32.3667 135.71 30.5989 138.133 28.6027 140.951C26.6065 143.769 24.3898 147.02 22.0118 150.59C19.1141 154.94 16.2361 159.39 13.5157 163.705C10.7952 168.02 8.24796 172.177 5.98035 175.991C3.71273 179.806 1.76016 183.25 0.220964 186.099C-1.31823 188.948 -2.40066 191.213 -2.94765 192.675C-2.7388 192.797 -2.54568 192.943 -2.33683 193.065C-2.17527 193.156 -2.02941 193.27 -1.86784 193.36L-1.92699 193.372Z" fill="white"/>
<path d="M-3.99764 169.857C-2.05315 165.861 0.253658 161.527 2.78891 157.106C3.36761 156.109 3.96199 155.088 4.56039 154.087C6.13906 151.435 7.81623 148.763 9.52097 146.127C10.021 145.351 10.5249 144.594 11.0288 143.837C13.4068 140.267 15.6788 137.087 17.7932 134.348C18.6555 133.233 19.4902 132.184 20.3013 131.223C21.4747 129.82 22.5734 128.555 23.5854 127.471C24.1407 126.868 24.6723 126.352 25.1882 125.859C26.2357 124.85 27.2045 124.062 28.0198 123.529C28.9059 122.942 29.6504 122.67 30.2295 122.697C30.2295 122.697 30.2492 122.693 30.2689 122.69C30.4344 122.697 30.5684 122.752 30.7024 122.807C30.722 122.804 30.7654 122.815 30.789 122.831L26.8878 120.54L25.82 119.914L24.6378 119.229C24.6378 119.229 24.4998 119.154 24.4328 119.126C23.6014 118.76 22.4826 118.903 21.1552 119.538C19.7136 120.216 18.032 121.434 16.1456 123.164C14.2593 124.894 12.1881 127.133 10.0027 129.825C7.81735 132.516 5.49815 135.665 3.11618 139.216C0.218451 143.566 -2.49793 148.106 -4.91496 152.606C-7.33199 157.106 -9.45755 161.527 -11.1656 165.68C-12.8776 169.813 -14.1997 173.643 -15.0138 176.941C-15.8318 180.219 -16.1419 182.965 -15.8535 184.915C-15.4358 185.159 -14.9984 185.399 -14.5807 185.644C-14.561 185.64 -14.5335 185.675 -14.5098 185.691C-14.5098 185.691 -14.4862 185.706 -14.4625 185.722C-14.0212 185.982 -13.5838 186.222 -13.1622 186.486C-13.0715 186.529 -13.0006 186.577 -12.906 186.64C-12.7444 186.73 -12.5789 186.84 -12.4173 186.931C-12.2085 187.053 -11.9996 187.175 -11.8105 187.301C-11.6253 187.407 -11.4361 187.533 -11.2509 187.639C-11.0894 187.73 -10.9238 187.84 -10.7622 187.931C-10.6677 187.994 -10.577 188.037 -10.4825 188.1C-10.467 187.462 -10.3373 186.678 -10.1604 185.823C-9.85761 184.369 -9.38167 182.655 -8.66943 180.689C-8.57498 180.445 -8.46883 180.157 -8.37438 179.913C-7.63064 177.899 -6.71747 175.708 -5.63902 173.321C-5.1234 172.213 -4.59599 171.063 -4.02917 169.904L-3.99764 169.857Z" fill="white"/>
<path d="M-8.00795 133.087C-5.66142 129.564 -3.28712 126.486 -0.983541 123.873C1.32003 121.26 3.55683 119.132 5.65202 117.524C7.74722 115.915 9.70083 114.827 11.438 114.295C13.1003 113.798 14.5579 113.813 15.7558 114.372C15.8031 114.403 15.8701 114.431 15.9134 114.442L15.4997 114.218L10.0658 111.435L9.60867 111.199C9.60867 111.199 9.40779 111.116 9.31716 111.073C7.90258 110.455 6.24782 110.377 4.42395 110.783C2.48191 111.214 0.347099 112.215 -1.88602 113.749C-4.11913 115.282 -6.47023 117.351 -8.84869 119.897C-11.2271 122.443 -13.6054 125.501 -15.9598 128.985C-18.8575 133.336 -21.4124 137.966 -23.5142 142.608C-25.616 147.249 -27.3002 151.93 -28.4605 156.363C-29.6209 160.795 -30.3005 164.968 -30.3817 168.651C-30.4669 172.315 -29.9929 175.498 -28.8612 177.873C-28.4081 178.09 -27.9509 178.326 -27.4938 178.562C-27.4031 178.605 -27.3322 178.653 -27.2456 178.676C-27.084 178.767 -26.9263 178.838 -26.7648 178.928C-26.5599 179.031 -26.3314 179.149 -26.1265 179.251C-25.9452 179.338 -25.7601 179.444 -25.5788 179.53C-25.4172 179.621 -25.2359 179.708 -25.0743 179.798C-24.9798 179.861 -24.8694 179.9 -24.7749 179.963C-24.4084 180.156 -24.0183 180.365 -23.6518 180.558C-23.5848 180.585 -23.514 180.633 -23.447 180.66C-23.447 180.66 -23.4273 180.656 -23.4036 180.672C-24.1767 178.45 -24.3237 175.468 -23.943 171.95C-23.5426 168.428 -22.6107 164.389 -21.2218 160.075C-19.8329 155.76 -17.9636 151.186 -15.7278 146.599C-13.492 142.012 -10.8702 137.41 -7.97247 133.059L-8.00795 133.087Z" fill="white"/>
<path d="M-26.9178 123.785C-24.6303 120.377 -22.2322 117.417 -19.7986 114.942C-17.361 112.487 -14.9114 110.5 -12.5167 109.057C-10.1221 107.614 -7.76658 106.691 -5.56843 106.312C-3.36634 105.953 -1.30186 106.133 0.534324 106.912L-4.37528 104.803L-5.83328 104.173C-5.99089 104.102 -6.16422 104.055 -6.33758 104.008C-6.33758 104.008 -6.38098 103.996 -6.40068 104C-8.30376 103.398 -10.3603 103.257 -12.5112 103.565C-14.8787 103.917 -17.3445 104.8 -19.8338 106.18C-22.3191 107.58 -24.8435 109.5 -27.293 111.896C-29.7424 114.292 -32.1325 117.189 -34.3925 120.531C-37.2941 124.861 -39.6875 129.582 -41.4977 134.35C-43.304 139.137 -44.5626 143.999 -45.2068 148.656C-45.8509 153.313 -45.8766 157.784 -45.2801 161.783C-44.6638 165.777 -43.4292 169.279 -41.5015 172.048C-41.3676 172.103 -41.2533 172.162 -41.1233 172.197C-40.8987 172.296 -40.6741 172.394 -40.4535 172.473C-40.3865 172.501 -40.3195 172.528 -40.2525 172.556C-40.1382 172.615 -40.0082 172.65 -39.894 172.709C-39.6694 172.807 -39.4447 172.906 -39.2201 173.004C-39.1334 173.028 -39.0625 173.075 -38.9955 173.103C-38.8852 173.142 -38.7709 173.201 -38.6605 173.24C-38.4359 173.339 -38.2114 173.437 -37.9868 173.535C-37.8962 173.579 -37.8055 173.622 -37.7188 173.646C-37.6085 173.685 -37.5179 173.728 -37.4036 173.787C-37.179 173.886 -36.9544 173.984 -36.7259 174.102C-36.6155 174.142 -36.5249 174.185 -36.4303 174.248C-38.0427 171.621 -38.966 168.241 -39.2907 164.372C-39.6154 160.504 -39.3218 156.143 -38.4767 151.569C-37.6316 146.994 -36.1957 142.199 -34.2751 137.471C-32.3349 132.738 -29.8903 128.069 -26.9926 123.718L-26.9178 123.785Z" fill="white"/>
</svg>
