<svg width="168" height="298" viewBox="0 0 168 298" fill="none" xmlns="http://www.w3.org/2000/svg">
<g opacity="0.9">
<path d="M221.671 19.8102L217.922 17.7825C217.804 17.7353 217.71 17.6645 217.592 17.6174C217.191 17.4052 216.814 17.2166 216.413 17.0279C216.673 17.1458 216.932 17.2637 217.191 17.4052C216.602 17.0987 216.013 16.7922 215.4 16.4621L212.759 15.2596C212.995 15.3775 213.23 15.4954 213.443 15.5897C210.236 14.1043 206.935 12.7604 203.563 11.558C189.158 8.16279 174.28 6.74813 148.698 6.32373C196.113 8.65792 212.405 15.4247 217.875 17.7589C219.148 18.419 220.398 19.0792 221.648 19.7866L221.671 19.8102Z" fill="#C3F00F"/>
<path d="M183.924 4.81477C182.085 4.36679 180.199 3.91882 178.619 3.56515L177.629 3.35296C172.158 2.50417 161.313 4.20173 148.746 6.3473C149.83 6.20584 150.915 6.06441 151.976 5.94652C172.795 3.56518 178.807 3.96595 183.924 4.79117V4.81477Z" fill="#C3F00F"/>
<path d="M168.575 1.86753C166.924 1.65533 164.896 1.41958 163.317 1.23096C163.293 1.23096 163.27 1.23096 163.246 1.23096C162.94 1.30169 162.892 1.32525 148.769 6.37087C165.203 2.009 166.83 1.96181 169.023 1.91466C168.881 1.91466 168.74 1.86753 168.598 1.86753H168.575Z" fill="#C3F00F"/>
<path d="M98.4307 288.619C98.7844 288.737 99.1616 288.879 99.5389 288.997C102.18 289.893 105.433 290.907 107.956 291.685C110.55 292.439 114.063 293.264 116.68 293.877C82.4451 285.507 53.2559 266.763 29.8904 238.14L36.4686 246.25C37.2938 247.17 38.0247 247.995 38.6849 248.75C41.1134 251.272 43.9899 254.22 46.9371 257.025C48.7526 258.676 51.0161 260.68 54.1283 263.439C55.7316 264.735 57.6178 266.174 59.5511 267.588C76.1498 279.825 87.4907 284.328 98.4307 288.619Z" fill="#C3F00F"/>
<path d="M156.173 0.90078C155.961 0.830047 155.678 0.712193 155.442 0.64146C155.442 0.64146 155.418 0.64146 155.395 0.64146C153.862 0.570727 152.919 0.547129 152.825 0.547129C151.952 0.547129 150.868 0.5 149.948 0.5C151.693 0.570733 151.74 0.617865 152.518 1.65528C152.188 2.84989 150.931 4.42173 148.746 6.37082C155.725 2.50408 155.937 1.74958 156.196 0.90078H156.173Z" fill="#C3F00F"/>
<path d="M10.3452 203.244C37.5539 267.47 105.67 292.062 129.743 296.117C129.86 296.117 129.978 296.141 130.096 296.164C131.369 296.329 132.973 296.494 134.175 296.612L136.698 296.824C136.698 296.824 136.792 296.824 136.839 296.824C122.646 295.504 24.987 266.716 3.03613 178.063C3.27191 179.384 3.50766 180.657 3.74343 181.859C5.37029 188.037 7.86959 196.124 9.99158 202.278C10.1095 202.608 10.2273 202.891 10.3452 203.221V203.244Z" fill="#C3F00F"/>
<path d="M144.596 1.63199C147.968 2.90518 148.133 3.63609 148.746 6.34752C151.221 0.830346 146.105 0.712475 141.578 0.618164C139.998 0.712475 137.9 0.853975 136.32 0.948286L134.811 1.08975C137.122 0.924703 141.932 0.618196 144.596 1.60846V1.63199Z" fill="#C3F00F"/>
<path d="M145.398 297.296C145.964 297.296 146.529 297.319 147.095 297.319H147.331C147.331 297.319 147.52 297.319 147.614 297.319C148.251 297.319 148.887 297.319 149.524 297.319C150.066 297.319 150.608 297.319 151.08 297.319C151.104 297.319 151.127 297.319 151.174 297.319C139.928 297.131 -21.3201 236.017 4.73327 111.881C4.73327 111.881 4.73327 111.881 4.73327 111.904C3.83732 115.394 2.96492 120.109 2.21044 123.646C1.47953 128.149 0.890113 134.233 0.394982 138.783C-2.2693 250.14 130.638 295.881 145.398 297.319V297.296Z" fill="#C3F00F"/>
<path d="M121.089 3.09377C120.783 3.1645 120.476 3.2117 120.17 3.28243C138.301 0.170179 145.893 4.64993 148.746 6.3711C143.606 0.71246 134.67 0.830314 121.089 3.09377Z" fill="#C3F00F"/>
<path d="M19.2095 75.972C-46.2893 202.231 137.169 291.401 159.12 296.942C159.261 296.942 159.426 296.942 159.567 296.919L160.534 296.848C160.676 296.848 160.841 296.824 161.006 296.801C162.137 296.706 163.458 296.565 164.59 296.447C164.731 296.447 164.872 296.423 165.014 296.4C139.031 276.642 107.414 265.89 82.3505 244.647C70.0901 234.249 41.3725 209.893 24.5852 177.333C-8.98941 112.187 20.9071 70.6435 35.5489 52.748C35.0302 53.3375 34.535 53.9269 34.0399 54.5164L31.5643 57.4636C27.6739 62.8157 22.7933 70.1012 19.3038 75.7598C19.2567 75.8306 19.2331 75.9013 19.186 75.972H19.2095Z" fill="#C3F00F"/>
<path d="M114.393 4.50826C114.393 4.50826 114.581 4.46111 114.652 4.43753C114.416 4.48469 114.157 4.53186 113.945 4.60259C112.318 4.95626 110.172 5.54569 108.545 5.99367C105.221 6.9132 100.812 8.28073 97.6052 9.48319C95.6246 10.2377 93.0075 11.2279 91.0506 12.0532C88.7164 13.0434 85.6513 14.4816 83.3643 15.5426C81.0065 16.6508 77.9414 18.2541 75.7251 19.5744C73.0844 21.107 69.8542 23.111 66.9542 24.9737C37.2935 45.3684 13.8809 78.0942 17.1346 115.017C24.7738 202.066 123.376 261.788 160.487 284.281C169.053 289.468 173.588 293.076 174.091 295.103C174.091 295.103 174.256 295.08 174.327 295.056C176.355 294.679 178.925 294.137 180.952 293.712C181.023 293.712 181.094 293.689 181.165 293.665C181.895 293.429 182.414 292.368 182.909 291.802C181.235 288.549 177.911 286.214 160.063 274.52C114.133 244.435 67.9209 209.846 40.9716 160.805C-19.906 50.1311 98.171 -7.11552 148.745 6.37092C138.937 2.57491 127.007 2.15049 114.393 4.50826Z" fill="#C3F00F"/>
<path d="M165.722 262.118C193.662 281.852 200.334 286.568 191.493 290.93C191.587 290.906 191.681 290.883 191.775 290.835C193.119 290.411 194.676 289.892 196.208 289.397C197.246 289.044 198.259 288.69 199.297 288.313C211.817 282.489 200.9 274.473 174.847 255.28C146.035 234.06 110.15 207.653 79.7108 169.033C-10.1438 55.0114 85.7467 -1.41002 148.746 6.34704C77.1644 -9.16708 -76.845 90.708 165.722 262.118Z" fill="#C3F00F"/>
<path d="M182.155 239.931C214.739 264.924 226.953 274.284 210.778 283.597C210.896 283.527 211.038 283.479 211.156 283.432C213.867 282.135 217.239 280.367 219.832 279.023C232.446 271.643 227.401 263.085 220.092 254.95C189.441 220.857 148.722 198.293 117.34 165.049C16.3097 58.0767 84.0955 4.88546 148.745 6.37086C82.8459 0.358546 -34.8539 73.5437 182.155 239.931Z" fill="#C3F00F"/>
<path d="M207.336 219.254C238.388 244.128 249.446 257.497 232.871 270.936C235.7 268.932 239.308 266.126 242.114 263.957C243.552 262.778 245.014 261.505 246.452 260.279C259.349 248.49 252.11 242.1 165.439 165.779C39.817 55.1294 96.427 16.0612 137.358 7.90332C100.223 14.8352 -3.30668 50.4846 207.313 219.254H207.336Z" fill="#C3F00F"/>
<path d="M147.095 6.48877C144.03 6.7717 140.752 7.24327 137.381 7.90345C141.743 7.1018 145.185 6.67739 147.095 6.48877Z" fill="#C3F00F"/>
<path d="M148.746 6.37061C148.746 6.37061 148.062 6.41776 147.096 6.51207C147.662 6.46491 148.204 6.41776 148.746 6.37061Z" fill="#C3F00F"/>
<path d="M201.536 170.542C253.03 211.992 272.364 230.948 255.6 251.531C255.718 251.414 255.812 251.296 255.93 251.178C258.571 248.348 261.73 244.6 264.206 241.747C264.253 241.676 264.3 241.629 264.371 241.558C279.036 222.342 265.031 202.113 204.554 155.146C46.8195 32.589 130.379 9.71864 148.722 6.37061C135.354 8.0682 23.1947 27.0482 201.513 170.566L201.536 170.542Z" fill="#C3F00F"/>
<path d="M212.193 137.392C270.477 180.916 286.51 203.174 275.593 225.431C276.041 224.7 276.465 223.969 276.89 223.238L277.291 222.531C277.597 222.012 277.857 221.541 278.139 221.046L281.464 214.633C281.865 213.807 282.266 212.982 282.643 212.204C295.658 182.378 246.357 146.493 213.631 122.68C107.036 45.1325 119.485 16.6036 148.722 6.32373C123.776 12.8312 80.0162 38.6251 212.169 137.345L212.193 137.392Z" fill="#C3F00F"/>
<path d="M215.046 103.605C265.927 139.443 296.412 163.422 290.07 193.342C290.377 192.328 290.683 191.314 290.966 190.324C291.98 186.599 292.994 182.402 293.819 179.054C298.181 149.252 267.412 126.523 216.861 91.9344C183.452 69.0876 121.277 26.5299 148.745 6.39453C105.669 26.577 188.002 84.5781 215.046 103.629V103.605Z" fill="#C3F00F"/>
<path d="M218.772 77.2455C276.112 114.427 295.588 131.309 296.625 156.938C296.649 156.443 296.696 155.924 296.719 155.429L296.908 149.181L296.767 143.122C296.743 142.414 296.696 141.754 296.672 141.047C294.48 114.168 258.641 92.0051 213.349 64.0184C181.495 44.331 145.374 22.003 148.769 6.39453C133.845 22.168 184.961 55.3182 218.795 77.2691L218.772 77.2455Z" fill="#C3F00F"/>
<path d="M215.07 53.5027C267.884 83.4935 287.76 98.041 294.079 120.015C293.277 116.219 292.004 111.41 290.919 107.331C290.684 106.482 290.424 105.657 290.188 104.808C281.606 82.4797 252.818 66.4469 202.88 40.1813C167.561 21.6021 155.937 14.3402 148.746 6.39453C152.848 18.207 178.949 33.0137 215.07 53.5263V53.5027Z" fill="#C3F00F"/>
<path d="M282.62 85.4502C282.408 85.0022 282.195 84.5542 281.983 84.1062L278.989 78.1647L276.961 74.628C276.584 73.9914 276.207 73.3312 275.829 72.6946C269.016 62.1318 256.708 54.2568 239.095 45.0144C210.001 29.7832 178.76 19.527 148.769 6.37061C158.13 12.3122 175.318 20.2343 197.08 30.2312C254.822 56.7561 272.646 68.2385 282.643 85.4502H282.62Z" fill="#C3F00F"/>
<path d="M264.63 56.5677C264.347 56.2376 264.112 55.9075 263.805 55.5538C263.616 55.3416 263.451 55.1294 263.263 54.8936C263.05 54.6343 262.815 54.3513 262.579 54.092C260.386 51.5456 257.934 48.8106 255.977 46.5943C243.057 33.3672 206.983 19.8336 148.746 6.34717C237.091 32.8249 254.185 45.2504 264.63 56.5441V56.5677Z" fill="#C3F00F"/>
<path d="M240.392 32.4711C238.223 30.8207 235.865 29.0759 233.861 27.5669C233.437 27.284 233.036 27.0011 232.612 26.7182C218.606 17.8765 190.407 11.0154 148.769 6.37061C174.681 10.2138 221.011 18.8903 242.255 33.9801C241.618 33.4613 241.029 32.9663 240.416 32.4711H240.392Z" fill="#C3F00F"/>
<path d="M181.613 6.32349C185.079 6.79504 188.474 7.40801 191.822 8.18607C197.764 9.17633 198.495 9.41215 203.022 10.874C202.904 10.8268 202.739 10.7561 202.621 10.7089C200.357 9.81295 197.292 8.77557 194.982 7.95035H194.934C189.511 6.2056 183.122 5.94625 175.719 5.66331C176.049 5.68689 176.402 5.734 176.732 5.75757C172.96 5.40391 169.117 5.21533 165.227 5.21533C159.238 5.49826 158.436 5.56895 148.769 6.34701C164.142 5.71042 171.121 5.82835 181.637 6.32349H181.613ZM178.76 5.96976C179.444 6.0405 180.128 6.13482 180.811 6.20555C180.128 6.11124 179.444 6.0405 178.76 5.96976Z" fill="#C3F00F"/>
</g>
</svg>
