<svg width="62" height="215" viewBox="0 0 62 215" fill="none" xmlns="http://www.w3.org/2000/svg">
<g opacity="0.9">
<path d="M71.6801 207.834C71.9351 207.919 72.2071 208.021 72.479 208.106C74.3829 208.752 76.7288 209.483 78.5477 210.044C80.4176 210.588 82.9504 211.183 84.8373 211.625C60.1548 205.59 39.1101 192.076 22.2642 171.439L27.0069 177.287C27.6018 177.95 28.1288 178.545 28.6048 179.089C30.3557 180.907 32.4295 183.032 34.5544 185.055C35.8633 186.245 37.4953 187.69 39.7391 189.679C40.895 190.614 42.2549 191.651 43.6489 192.671C55.6161 201.493 63.7926 204.74 71.6801 207.834Z" fill="#C3F00F"/>
<path d="M8.17276 146.281C27.7895 192.586 76.8994 210.316 94.2554 213.24C94.3404 213.24 94.4253 213.257 94.5103 213.274C95.4283 213.393 96.5842 213.512 97.4512 213.597L99.2701 213.75C99.2701 213.75 99.3381 213.75 99.3721 213.75C89.1387 212.798 18.7291 192.042 2.90308 128.126C3.07307 129.078 3.24303 129.996 3.41302 130.863C4.58595 135.316 6.38788 141.147 7.91778 145.584C8.00278 145.822 8.08776 146.026 8.17276 146.264V146.281Z" fill="#C3F00F"/>
<path d="M105.542 214.089C105.95 214.089 106.358 214.106 106.766 214.106H106.936C106.936 214.106 107.072 214.106 107.14 214.106C107.599 214.106 108.058 214.106 108.517 214.106C108.908 214.106 109.299 214.106 109.639 214.106C109.656 214.106 109.673 214.106 109.707 214.106C101.599 213.97 -14.6572 169.909 4.12662 80.4097C4.12662 80.4097 4.12662 80.4097 4.12662 80.4267C3.48066 82.9425 2.85169 86.3423 2.30772 88.8921C1.78076 92.1389 1.3558 96.5247 0.998825 99.8055C-0.922055 180.091 94.901 213.069 105.542 214.106V214.089Z" fill="#C3F00F"/>
<path d="M14.5636 54.5203C-32.6594 145.55 99.6094 209.84 115.435 213.834C115.537 213.834 115.656 213.834 115.758 213.817L116.455 213.766C116.557 213.766 116.676 213.749 116.795 213.732C117.611 213.664 118.563 213.562 119.379 213.477C119.481 213.477 119.583 213.46 119.685 213.443C100.952 199.198 78.1567 191.447 60.0868 176.131C51.2473 168.634 30.5426 151.074 18.4394 127.599C-5.7671 80.6307 15.7876 50.6786 26.3439 37.7764C25.97 38.2013 25.613 38.6263 25.256 39.0513L23.4711 41.1762C20.6663 45.0349 17.1475 50.2876 14.6316 54.3673C14.5976 54.4183 14.5807 54.4693 14.5467 54.5203H14.5636Z" fill="#C3F00F"/>
<path d="M83.1879 2.99652C83.1879 2.99652 83.3239 2.96252 83.3749 2.94552C83.2049 2.97952 83.0179 3.01353 82.8649 3.06453C81.692 3.31951 80.1451 3.74448 78.9721 4.06746C76.5753 4.73042 73.3965 5.71637 71.0846 6.58332C69.6567 7.12729 67.7698 7.84123 66.3589 8.4362C64.676 9.15015 62.4662 10.1871 60.8173 10.952C59.1174 11.751 56.9075 12.9069 55.3096 13.8589C53.4057 14.9638 51.0769 16.4087 48.986 17.7516C27.6013 32.4557 10.7214 56.0502 13.0673 82.6705C18.5749 145.431 89.6645 188.489 116.421 204.706C122.597 208.446 125.867 211.047 126.229 212.508C126.229 212.508 126.348 212.491 126.399 212.474C127.861 212.202 129.714 211.812 131.176 211.506C131.227 211.506 131.278 211.489 131.329 211.472C131.856 211.302 132.23 210.537 132.587 210.129C131.38 207.783 128.983 206.1 116.115 197.668C83.0009 175.978 49.683 151.04 30.2532 115.683C-13.6381 35.8895 71.4926 -5.38395 107.955 4.33945C100.884 1.60262 92.2823 1.29662 83.1879 2.99652Z" fill="#C3F00F"/>
<path d="M120.195 188.727C140.339 202.955 145.15 206.355 138.775 209.499C138.843 209.482 138.911 209.465 138.979 209.431C139.948 209.125 141.07 208.752 142.175 208.395C142.923 208.14 143.654 207.885 144.402 207.613C153.428 203.414 145.558 197.634 126.774 183.797C106.001 168.498 80.1288 149.459 58.1832 121.615C-6.59979 39.4081 62.5349 -1.27039 107.956 4.32227C56.3473 -6.86304 -54.6898 65.1445 120.195 188.727Z" fill="#C3F00F"/>
<path d="M132.043 172.731C155.536 190.75 164.341 197.498 152.68 204.213C152.765 204.162 152.867 204.128 152.952 204.094C154.907 203.159 157.338 201.884 159.207 200.915C168.302 195.594 164.664 189.424 159.394 183.559C137.296 158.979 107.939 142.711 85.3131 118.742C12.4726 41.6179 61.3446 3.26834 107.956 4.33927C60.4436 0.0045433 -24.4151 52.7693 132.043 172.731Z" fill="#C3F00F"/>
<path d="M150.199 157.823C172.587 175.757 180.559 185.395 168.609 195.085C170.649 193.64 173.25 191.617 175.272 190.053C176.309 189.203 177.363 188.285 178.4 187.401C187.699 178.902 182.48 174.295 119.992 119.269C29.4216 39.4932 70.236 11.326 99.7462 5.44434C72.9728 10.442 -1.66955 36.1444 150.182 157.823H150.199Z" fill="#C3F00F"/>
<path d="M146.017 122.703C183.143 152.587 197.082 166.254 184.996 181.094C185.081 181.009 185.149 180.924 185.234 180.839C187.138 178.799 189.416 176.097 191.2 174.04C191.234 173.989 191.268 173.955 191.319 173.904C201.893 160.05 191.795 145.465 148.193 111.603C34.4702 23.2422 94.7145 6.75321 107.94 4.33936C98.3013 5.56328 17.4373 19.2474 146 122.72L146.017 122.703Z" fill="#C3F00F"/>
<path d="M153.7 98.8025C195.721 130.183 207.281 146.23 199.41 162.277C199.733 161.75 200.039 161.223 200.345 160.696L200.634 160.186C200.855 159.812 201.042 159.472 201.246 159.115L203.643 154.491C203.932 153.896 204.221 153.301 204.493 152.74C213.876 131.236 178.331 105.364 154.737 88.1951C77.8847 32.2856 86.8601 11.717 107.939 4.30542C89.9539 8.99713 58.4039 27.5939 153.683 98.7685L153.7 98.8025Z" fill="#C3F00F"/>
</g>
</svg>
