<svg width="65" height="65" viewBox="0 0 65 65" fill="none" xmlns="http://www.w3.org/2000/svg">
<circle cx="32.5" cy="32.5" r="32" fill="#223540"/>
<path d="M38.7553 34.3123V40.4373C38.7553 45.5415 36.7136 47.5832 31.6095 47.5832H25.4845C20.3803 47.5832 18.3386 45.5415 18.3386 40.4373V34.3123C18.3386 29.2082 20.3803 27.1665 25.4845 27.1665H31.6095C36.7136 27.1665 38.7553 29.2082 38.7553 34.3123Z" stroke="white" stroke-width="2" stroke-linecap="round" stroke-linejoin="round"/>
<path d="M47.5053 25.5623V31.6873C47.5053 36.7915 45.4636 38.8332 40.3595 38.8332H38.7553V34.3123C38.7553 29.2082 36.7136 27.1665 31.6095 27.1665H27.0886V25.5623C27.0886 20.4582 29.1303 18.4165 34.2345 18.4165H40.3595C45.4636 18.4165 47.5053 20.4582 47.5053 25.5623Z" stroke="white" stroke-width="2" stroke-linecap="round" stroke-linejoin="round"/>
</svg>
