<svg width="65" height="65" viewBox="0 0 65 65" fill="none" xmlns="http://www.w3.org/2000/svg">
<circle cx="32.5" cy="32.5" r="32" fill="#223540"/>
<path d="M33.2742 45.279H24.0576C19.4492 45.279 17.918 42.2165 17.918 39.1395V26.8603C17.918 22.252 19.4492 20.7207 24.0576 20.7207H33.2742C37.8826 20.7207 39.4138 22.252 39.4138 26.8603V39.1395C39.4138 43.7478 37.868 45.279 33.2742 45.279Z" stroke="white" stroke-width="2" stroke-linecap="round" stroke-linejoin="round"/>
<path d="M43.4682 40.4372L39.4141 37.5935V28.3914L43.4682 25.5476C45.4516 24.1622 47.0849 25.008 47.0849 27.4435V38.556C47.0849 40.9914 45.4516 41.8372 43.4682 40.4372Z" stroke="white" stroke-width="2" stroke-linecap="round" stroke-linejoin="round"/>
<path d="M31.7695 31.542C32.9777 31.542 33.957 30.5626 33.957 29.3545C33.957 28.1464 32.9777 27.167 31.7695 27.167C30.5614 27.167 29.582 28.1464 29.582 29.3545C29.582 30.5626 30.5614 31.542 31.7695 31.542Z" stroke="white" stroke-width="2" stroke-linecap="round" stroke-linejoin="round"/>
</svg>
