<svg width="65" height="65" viewBox="0 0 65 65" fill="none" xmlns="http://www.w3.org/2000/svg">
<circle cx="32.5" cy="32.5" r="32" fill="#223540"/>
<path d="M25.5875 17.9165H39.3979C40.3458 17.9165 41.1917 17.9457 41.95 18.0478C45.9896 18.4999 47.0833 20.3957 47.0833 25.5874V34.804C47.0833 39.9957 45.9896 41.8915 41.95 42.3436C41.1917 42.4457 40.3604 42.4749 39.3979 42.4749H25.5875C24.6396 42.4749 23.7937 42.4457 23.0354 42.3436C18.9958 41.8915 17.9021 39.9957 17.9021 34.804V25.5874C17.9021 20.3957 18.9958 18.4999 23.0354 18.0478C23.7937 17.9457 24.6396 17.9165 25.5875 17.9165Z" stroke="white" stroke-width="2" stroke-linecap="round" stroke-linejoin="round"/>
<path d="M34.8042 27.1333H40.1709" stroke="white" stroke-width="2" stroke-linecap="round" stroke-linejoin="round"/>
<path d="M24.8291 35.5767H24.8583H40.1853" stroke="white" stroke-width="2" stroke-linecap="round" stroke-linejoin="round"/>
<path d="M25.2083 47.0835H39.7916" stroke="white" stroke-width="2" stroke-linecap="round" stroke-linejoin="round"/>
<path d="M25.4922 27.1042H25.5053" stroke="white" stroke-width="2" stroke-linecap="round" stroke-linejoin="round"/>
<path d="M30.3044 27.1042H30.3175" stroke="white" stroke-width="2" stroke-linecap="round" stroke-linejoin="round"/>
</svg>
