<svg width="65" height="65" viewBox="0 0 65 65" fill="none" xmlns="http://www.w3.org/2000/svg">
<circle cx="32.5" cy="32.5" r="32" fill="#223540"/>
<path d="M34.5855 36.8751H21.4168C18.7626 36.8751 17.0709 34.0314 18.3542 31.698L21.7522 25.5147L24.9313 19.7251C26.2584 17.3188 29.7292 17.3188 31.0563 19.7251L34.2501 25.5147L35.7813 28.3001L37.648 31.698C38.9313 34.0314 37.2397 36.8751 34.5855 36.8751Z" stroke="white" stroke-width="2" stroke-linecap="round" stroke-linejoin="round"/>
<path d="M47.0833 37.6042C47.0833 42.8396 42.8396 47.0833 37.6042 47.0833C32.3687 47.0833 28.125 42.8396 28.125 37.6042C28.125 37.3562 28.1396 37.1229 28.1542 36.875H34.5854C37.2396 36.875 38.9312 34.0313 37.6479 31.6979L35.7812 28.3C36.3646 28.1833 36.9771 28.125 37.6042 28.125C42.8396 28.125 47.0833 32.3687 47.0833 37.6042Z" stroke="white" stroke-width="2" stroke-linecap="round" stroke-linejoin="round"/>
</svg>
