<svg width="65" height="65" viewBox="0 0 65 65" fill="none" xmlns="http://www.w3.org/2000/svg">
<circle cx="32.4999" cy="32.5" r="32" fill="#223540"/>
<path d="M46.4218 24.25V41.75C46.4218 48.75 44.6718 50.5 37.6718 50.5H27.1718C20.1718 50.5 18.4218 48.75 18.4218 41.75V24.25C18.4218 17.25 20.1718 15.5 27.1718 15.5H37.6718C44.6718 15.5 46.4218 17.25 46.4218 24.25Z" stroke="white" stroke-width="2" stroke-linecap="round" stroke-linejoin="round"/>
<path d="M35.9218 21.625H28.9218" stroke="white" stroke-width="2" stroke-linecap="round" stroke-linejoin="round"/>
<path d="M32.4217 45.425C33.9198 45.425 35.1342 44.2106 35.1342 42.7125C35.1342 41.2144 33.9198 40 32.4217 40C30.9237 40 29.7092 41.2144 29.7092 42.7125C29.7092 44.2106 30.9237 45.425 32.4217 45.425Z" stroke="white" stroke-width="2" stroke-linecap="round" stroke-linejoin="round"/>
</svg>
