<svg width="65" height="65" viewBox="0 0 65 65" fill="none" xmlns="http://www.w3.org/2000/svg">
<circle cx="32.4999" cy="32.5" r="32" fill="#223540"/>
<path d="M28.3476 30.0833C29.9584 30.0833 31.2642 28.7775 31.2642 27.1667C31.2642 25.5558 29.9584 24.25 28.3476 24.25C26.7367 24.25 25.4309 25.5558 25.4309 27.1667C25.4309 28.7775 26.7367 30.0833 28.3476 30.0833Z" stroke="white" stroke-width="2" stroke-linecap="round" stroke-linejoin="round"/>
<path d="M32.7225 18.4165H28.3475C21.0558 18.4165 18.1392 21.3332 18.1392 28.6248V37.3748C18.1392 44.6665 21.0558 47.5832 28.3475 47.5832H37.0975C44.3892 47.5832 47.3058 44.6665 47.3058 37.3748V31.5415" stroke="white" stroke-width="2" stroke-linecap="round" stroke-linejoin="round"/>
<path d="M38.7309 22.952C38.2497 21.4353 38.8184 19.554 40.3934 19.0436C41.2247 18.7811 42.2601 18.9999 42.8434 19.802C43.3976 18.9707 44.4622 18.7665 45.2934 19.0436C46.883 19.554 47.4517 21.4353 46.9705 22.952C46.2122 25.3436 43.5872 26.5978 42.858 26.5978C42.1142 26.5978 39.5038 25.3728 38.7309 22.952Z" stroke="white" stroke-width="2" stroke-linecap="round" stroke-linejoin="round"/>
<path d="M19.1163 43.1356L26.3059 38.3086C27.458 37.5356 29.1205 37.6231 30.1559 38.5127L30.6372 38.9356C31.7747 39.9127 33.6122 39.9127 34.7497 38.9356L40.8163 33.7294C41.9538 32.7523 43.7913 32.7523 44.9288 33.7294L47.3059 35.7711" stroke="white" stroke-width="2" stroke-linecap="round" stroke-linejoin="round"/>
</svg>
