<svg width="48" height="48" viewBox="0 0 48 48" fill="none" xmlns="http://www.w3.org/2000/svg">
<path d="M23.9923 47.1065C36.9128 47.1065 47.4238 36.5955 47.4238 23.675C47.4238 10.7545 36.9128 0.24353 23.9923 0.24353C11.0719 0.24353 0.560791 10.7545 0.560791 23.675C0.560791 36.5955 11.0719 47.1065 23.9923 47.1065ZM18.7578 34.2755C17.8267 34.265 17.0954 31.8977 17.1217 28.9779C17.148 26.0634 17.9266 23.7066 18.8578 23.7119C19.789 23.7224 20.5202 26.0897 20.4939 29.0094C20.4676 31.9239 19.689 34.2808 18.7578 34.2755ZM29.1216 34.1913C28.1904 34.1808 27.4591 31.8135 27.4854 28.8937C27.5117 25.9793 28.2904 23.6224 29.2215 23.6277C30.1527 23.6382 30.8839 26.0055 30.8576 28.9253C30.8313 31.8397 30.0528 34.1966 29.1216 34.1913ZM6.8106 21.8916C7.06312 21.7601 7.35242 21.739 7.62598 21.8285C7.88376 21.9126 8.17313 21.9653 8.50456 21.9916C9.2095 14.0005 15.9012 7.819 23.9765 7.819C32.0518 7.819 38.6594 13.9321 39.438 21.8443C39.9746 21.739 40.3428 21.6233 40.3481 21.6233C40.8847 21.4444 41.5159 21.7548 41.7001 22.302C41.8842 22.8596 41.5791 23.4699 41.0215 23.654C40.7269 23.754 38.0755 24.5851 35.8344 23.8697C35.2715 23.6908 34.961 23.0858 35.1399 22.5229C35.2293 22.2494 35.4135 22.0231 35.6712 21.8916C35.929 21.7601 36.2184 21.739 36.4867 21.8285C36.6761 21.8863 36.8865 21.9337 37.1127 21.9653C36.4077 15.2841 30.7577 10.1443 23.9765 10.1443C17.1954 10.1443 11.6558 15.1999 10.8614 21.7811C11.1928 21.7075 11.4243 21.6338 11.4874 21.618C11.9977 21.4444 12.6553 21.7496 12.8342 22.2967C13.0183 22.8543 12.7132 23.4646 12.1556 23.6487C11.8557 23.7487 9.20422 24.5799 6.96839 23.8644C6.69483 23.7802 6.4739 23.5908 6.34238 23.3383C6.21087 23.0858 6.18456 22.7965 6.27399 22.5229C6.36343 22.2494 6.55282 22.0231 6.80534 21.8916H6.8106Z" fill="#C3F00F"/>
</svg>
