<svg width="71" height="71" viewBox="0 0 71 71" fill="none" xmlns="http://www.w3.org/2000/svg">
<path d="M27.7665 35.5656C29.1397 35.5811 30.288 32.1053 30.3268 27.7993C30.3656 23.5011 29.2872 20.0019 27.9139 19.9864C26.5406 19.9709 25.3923 23.4467 25.3536 27.7527C25.3148 32.0509 26.3932 35.5501 27.7665 35.5656Z" fill="white"/>
<path d="M43.051 35.4416C44.4242 35.4571 45.5724 31.9813 45.6112 27.6753C45.65 23.377 44.5716 19.8779 43.1983 19.8624C41.8251 19.8468 40.6768 23.3227 40.638 27.6287C40.5992 31.9269 41.6777 35.4261 43.051 35.4416Z" fill="white"/>
<path d="M35.4863 70.0526C16.4313 70.0526 0.929688 54.551 0.929688 35.496C0.929688 16.441 16.4313 0.939453 35.4863 0.939453C54.5413 0.939453 70.0428 16.441 70.0428 35.496C70.0428 54.551 54.5413 70.0526 35.4863 70.0526ZM35.4863 2.5997C17.3468 2.5997 2.59003 17.3565 2.59003 35.496C2.59003 53.6355 17.3468 68.3923 35.4863 68.3923C53.6258 68.3923 68.3825 53.6355 68.3825 35.496C68.3825 17.3565 53.6258 2.5997 35.4863 2.5997Z" fill="white"/>
<path d="M10.8684 37.7772C10.5581 37.7772 10.2633 37.5755 10.1625 37.2651C10.0306 36.8772 10.2478 36.4505 10.6357 36.3186C10.7986 36.2643 14.6468 35.0074 17.7658 36.0082C18.1615 36.1324 18.3787 36.5513 18.2468 36.947C18.1227 37.3427 17.7037 37.5599 17.308 37.428C14.6469 36.5823 11.1322 37.7229 11.1012 37.7384C11.0236 37.7617 10.946 37.7772 10.8684 37.7772Z" fill="white"/>
<path d="M53.4319 37.7773C53.1215 37.7773 52.8268 37.5755 52.7259 37.2652C52.594 36.8772 52.8113 36.4506 53.1992 36.3264C53.3621 36.2721 57.2103 35.0152 60.3292 36.0161C60.7249 36.1402 60.9422 36.5591 60.8103 36.9548C60.6861 37.3505 60.2672 37.5677 59.8715 37.4358C57.2259 36.5902 53.6957 37.7307 53.6647 37.7462C53.5871 37.7695 53.5095 37.785 53.4319 37.785V37.7773Z" fill="white"/>
<path d="M35.5023 58.0582C23.3136 58.0582 13.3982 48.1428 13.3982 35.9541H15.1672C15.1672 47.1652 24.2912 56.2892 35.5023 56.2892C46.7134 56.2892 55.8375 47.1652 55.8375 35.9541H57.6064C57.6064 48.1428 47.691 58.0582 35.5023 58.0582Z" fill="white"/>
</svg>
