<svg width="70" height="68" viewBox="0 0 70 68" fill="none" xmlns="http://www.w3.org/2000/svg">
<path d="M69.1503 38.4535C69.1969 38.1277 69.2434 37.794 69.2822 37.4682C69.4839 35.8311 69.577 34.1553 69.5692 32.4795C69.5537 31.9985 69.5227 31.5097 69.4917 31.0286C68.84 22.4322 64.9297 14.5107 58.4901 8.7228C52.0272 2.91941 43.7022 -0.121967 35.0437 0.165099C27.4558 0.421131 20.38 3.14442 14.5766 8.05558C8.95168 12.8193 5.00261 19.383 3.45866 26.5286C3.38107 26.9011 3.30346 27.2812 3.23363 27.6769C3.02415 29.3295 3.48969 30.9122 3.94745 32.4407C4.33538 33.7596 4.70782 35.0088 4.66127 36.2734C4.51386 37.5769 3.66035 38.6087 2.7526 39.7026C1.75951 40.9052 0.727658 42.1388 0.463867 43.8845V43.9389C0.471626 44.3889 0.704356 45.0251 0.921595 45.4673C1.03797 45.6923 1.17765 45.925 1.33282 46.15C1.71299 46.7087 2.21732 47.2673 2.90783 47.9113L2.93113 47.9267C3.44319 48.3301 3.963 48.7181 4.46731 49.0905C5.92591 50.1767 7.30687 51.2086 8.47065 52.4733C8.67237 52.6905 8.8431 52.8922 8.99827 53.0861C11.3258 59.5413 17.2922 63.7076 27.2231 65.8024C27.5722 65.9033 27.9369 65.9964 28.2938 66.0817C31.2188 66.7878 34.2369 67.0981 37.2627 66.9973C41.8868 66.8421 46.3324 65.7636 50.4832 63.7852C50.8091 63.6301 51.1194 63.4749 51.3832 63.3353C52.8574 62.6603 54.0367 61.5508 54.6186 60.2939C55.7746 58.2223 57.4116 56.7637 58.8625 55.6077C59.0409 55.4603 59.2271 55.3207 59.3978 55.1888C60.7555 54.2112 62.09 53.1405 62.253 51.6353C62.3073 51.0922 62.3383 50.5104 62.3616 49.9518C62.4857 47.3449 62.6254 44.6448 65.2866 43.388L65.4806 43.2484C65.6202 43.1397 65.7598 43.0311 65.8917 42.9302C67.4046 41.7509 68.7934 40.5173 69.1348 38.4458L69.1503 38.4535ZM63.8358 42.3017L63.2306 42.7207C62.509 42.9612 61.9271 43.2406 61.4461 43.5897C61.2133 43.7604 61.0039 43.9466 60.8099 44.156C59.4444 45.8396 59.6693 47.8181 59.8788 49.7345C59.9409 50.3086 60.0108 50.906 60.0263 51.4724C60.0651 52.5276 59.4133 53.2569 58.5599 54.0948C58.459 54.1569 58.3504 54.2111 58.234 54.2577L58.1875 54.2732L57.3341 54.987C56.0539 56.0577 54.8978 57.2525 53.7728 58.4007C52.8806 59.324 51.9496 60.2783 50.9798 61.1473C46.5031 65.1662 38.0463 65.6007 31.6145 64.6697C31.2576 64.6154 30.8929 64.5611 30.536 64.4913C23.1188 63.149 16.1362 61.4498 12.2336 55.4913C11.869 54.9327 11.5353 54.343 11.2094 53.7767C10.4181 52.3956 9.60345 50.968 8.33105 49.8663C7.58623 49.2224 6.77156 48.6793 5.98019 48.144C4.89399 47.4146 3.76899 46.6544 2.869 45.6846C2.7371 45.5294 2.613 45.3664 2.51214 45.1958C2.40352 45.0251 2.31819 44.8543 2.24061 44.6759L2.19401 44.4975C2.03884 43.9233 1.91471 43.4733 2.20177 43.0078C2.69056 42.1 3.4044 41.332 4.09491 40.5949C5.22766 39.3768 6.39915 38.12 6.46898 36.2734C6.61639 34.8148 6.18966 33.4726 5.77846 32.1769C5.30518 30.6795 4.85516 29.2675 5.26636 27.739V27.7157C5.34395 27.3433 5.42157 26.9709 5.49916 26.6062C8.66465 12.6951 20.8378 2.6478 35.098 2.16677C51.9263 1.60816 66.1477 14.3089 67.4589 31.0907C67.4977 31.5717 67.521 32.0527 67.5365 32.5338C67.6218 34.2018 67.5598 35.9087 67.3503 37.5923C67.3037 37.9648 67.2573 38.2751 67.2107 38.5699C66.6443 40.2458 65.3487 41.2467 63.828 42.2863L63.8358 42.3017Z" fill="white"/>
<path d="M28.0217 33.853C29.395 33.8065 30.3958 30.2841 30.2484 25.9859C30.101 21.6876 28.8751 18.2428 27.5018 18.2816C26.1286 18.3204 25.1277 21.8505 25.2751 26.1488C25.4226 30.447 26.6484 33.8918 28.0217 33.853Z" fill="white"/>
<path d="M43.2833 33.0772C44.6566 33.0306 45.6575 29.5082 45.5101 25.21C45.3627 20.9117 44.1368 17.4669 42.7636 17.5057C41.3903 17.5522 40.3895 21.0746 40.5369 25.3729C40.6843 29.6711 41.9101 33.116 43.2833 33.0772Z" fill="white"/>
<path d="M60.4995 32.4484C60.4529 32.3553 60.3521 32.3087 60.2512 32.27C59.7081 32.0527 59.134 31.8277 58.5598 31.7734C58.2262 31.7424 57.8926 31.7656 57.5667 31.8743C56.8452 32.1225 56.1702 32.8053 55.4564 32.557C55.1926 32.4639 54.9832 32.2467 54.7194 32.1458C54.1297 31.9053 53.4779 32.27 52.9814 32.6734C52.8805 32.7588 52.7642 32.8595 52.772 32.9914C52.772 33.0923 52.834 33.17 52.8961 33.2475C53.2297 33.6277 53.7341 33.8217 54.2306 33.8372C54.7039 33.8527 55.3245 33.5734 55.3556 34.2949C55.3943 35.3035 55.4642 36.382 55.3789 37.3906C55.2237 39.3147 52.7254 40.6647 51.197 41.4871C49.6608 42.3173 48.5125 42.8759 48.0936 44.6914C47.7134 46.375 47.0228 47.7327 46.2935 49.3077C45.3703 51.9689 41.5298 52.1008 38.8531 52.9232C38.6281 52.9542 38.4031 52.9853 38.1781 53.0085C37.7204 53.0551 37.2626 53.0861 36.7971 53.1016C36.4557 53.1094 36.1066 53.1172 35.773 53.1016C35.4316 53.1016 35.0902 53.0784 34.7566 53.0551C33.7557 52.9232 32.7627 52.7525 31.7928 52.5275C31.6299 52.4887 31.467 52.4499 31.3118 52.4111C27.7506 51.5344 24.6627 50.0138 22.0636 47.5155C21.9395 47.4224 21.8153 47.3293 21.699 47.2362C20.5972 46.4061 19.5576 45.5293 18.6111 44.5595C18.5025 44.4431 18.4016 44.319 18.3085 44.1948C18.0137 43.8302 17.7421 43.4423 17.5171 43.0466C17.4395 42.9147 17.3697 42.775 17.3076 42.6431C16.043 40.1759 17.9671 37.2742 16.6792 34.8846C17.1059 35.4742 17.7033 35.257 18.0292 35.2647C18.13 35.257 18.2387 35.2492 18.3473 35.2492C18.7197 35.1871 19.0533 35.0786 19.3714 34.9079C19.6895 34.7372 19.9843 34.5122 20.2636 34.2018V34.0001C19.9611 33.713 19.6508 33.5036 19.3249 33.3562C18.999 33.2088 18.6498 33.1234 18.2774 33.0846C17.0283 33.0536 15.8568 34.3027 14.4137 33.5424C14.3128 33.4415 13.9016 33.4104 13.5292 33.5191C13.405 33.5579 13.2809 33.6121 13.1723 33.6897C13.0094 33.9923 12.8155 34.2018 12.8232 34.4036C13.056 35.2027 14.274 35.3656 15.0654 34.9388C15.5386 36.9483 15.3991 38.9811 14.662 41.0294C14.4835 41.844 14.724 42.8526 15.2128 43.6052C15.2982 43.7448 15.3835 43.8845 15.4766 44.0164C15.6395 44.2492 15.818 44.4742 16.0042 44.6914C16.0973 44.8 16.1982 44.9086 16.299 45.0172C18.0913 46.2508 19.9145 47.4767 21.6136 48.8655C21.7378 48.9664 21.8541 49.0672 21.9783 49.1681C23.4912 50.65 24.9575 52.225 26.9204 52.9465C27.0679 53.0163 27.2153 53.0939 27.3627 53.1637C30.3032 54.5525 33.5618 55.2353 36.8979 54.9017C37.2316 54.8939 37.5652 54.8706 37.8911 54.8473C38.3876 54.8085 38.8764 54.7542 39.3574 54.6767C39.5979 54.6379 39.8385 54.599 40.079 54.5525C43.2367 53.8387 48.0703 52.8689 48.5513 49.2068C48.8772 46.7629 48.7918 44.3423 51.0495 42.7518C51.2435 42.6044 51.4375 42.4724 51.6392 42.3328C53.3616 41.1923 55.8521 40.3156 56.8684 38.3837C57.5977 36.9949 57.2952 35.3113 57.5823 33.7673C58.1564 33.8604 58.746 33.9303 59.3124 33.7906C59.8788 33.6509 60.4064 33.2476 60.5383 32.6812C60.5538 32.6036 60.5693 32.5104 60.5383 32.4406L60.4995 32.4484Z" fill="white"/>
</svg>
