<svg width="131" height="65" viewBox="0 0 131 65" fill="none" xmlns="http://www.w3.org/2000/svg">
<path fill-rule="evenodd" clip-rule="evenodd" d="M-10.9103 33.8914H-4.46209C-0.91227 33.8914 1.9978 33.903 2.0017 33.9225C2.0095 33.9381 1.31904 36.5495 0.464746 39.7292C-0.389551 42.9089 -1.09951 45.567 -1.13072 45.7616H7.37323L7.45125 45.4619C7.49416 45.2946 8.20802 42.6364 10.5408 33.9497L16.985 33.9225C20.5271 33.9069 23.4371 33.9069 23.4527 33.9225C23.4644 33.9381 21.6583 40.7216 15.3896 64.0535H8.92189C5.36817 64.0535 2.4581 64.0457 2.4581 64.034C2.4581 64.0223 3.16807 61.3758 4.03797 58.1456C4.90787 54.9192 5.61783 52.2766 5.61783 52.2688C5.61783 52.2649 3.70249 52.2649 -2.89783 52.2805L-6.06535 64.0535H-18.9968L-18.9734 63.9445C-18.9617 63.8861 -17.1712 57.2037 -14.9945 49.0892C-12.8139 40.9746 -11.0039 34.2377 -10.9727 34.1132L-10.9103 33.8914ZM53.7939 33.8914L53.7744 34.0003C53.7627 34.0587 53.3765 35.5221 52.9162 37.2501C52.4559 38.9781 52.0775 40.4025 52.0775 40.4103C52.0775 40.4219 48.7266 40.4297 44.6268 40.4297C37.5662 40.4297 37.1761 40.4336 37.1605 40.4998C37.1488 40.5387 36.8328 41.714 36.4544 43.1151C36.0721 44.5201 35.7562 45.6877 35.7484 45.7149C35.7367 45.7538 37.0278 45.7616 42.1107 45.7616C47.1897 45.7616 48.4887 45.7733 48.4887 45.8122C48.4887 45.8394 48.1103 47.2717 47.65 48.9919C47.1897 50.716 46.8035 52.156 46.7918 52.1949C46.7762 52.2611 46.4368 52.2611 33.9969 52.2611L33.3025 54.8803C32.9163 56.3203 32.5964 57.519 32.5886 57.5462C32.5769 57.5851 34.0788 57.5929 40.0042 57.5929C45.9258 57.5929 47.4354 57.6046 47.4354 57.6435C47.4354 57.6708 47.0688 59.0563 46.6162 60.7259C46.1637 62.3994 45.7737 63.8277 45.6995 64.0574H31.8046C22.5672 64.0574 17.9057 64.0418 17.9057 64.0145C17.9057 63.9951 19.7157 57.2388 21.9275 49.0035C24.1393 40.7683 25.9571 34.0003 25.9649 33.9614C25.9844 33.8952 26.6827 33.8914 53.7939 33.8914ZM64.9154 33.8914H74.063C81.342 33.8914 83.2106 33.903 83.2262 33.942C83.2379 33.9692 83.6358 40.7566 84.9816 64.0535H71.543V63.8511C71.543 63.7382 71.5703 62.594 71.6015 61.3097C71.6327 60.0254 71.6639 58.7877 71.6795 58.1378L63.4291 58.1573L60.3981 64.034L53.6847 64.0457C48.3248 64.0535 46.9712 64.0457 46.9829 64.0068C46.9907 63.9795 50.6693 57.7914 55.1592 50.2567C59.6491 42.7259 63.6827 35.9579 64.1196 35.2263L64.9154 33.8914ZM67.0725 50.86L66.5537 51.8524C70.5443 51.868 71.7107 51.868 71.7224 51.8641C71.7341 51.8563 71.8199 49.4784 71.9136 46.5789C72.0072 43.6794 72.0774 41.3015 72.0735 41.2937C72.0696 41.2859 71.0593 43.2124 69.8305 45.5748C68.5978 47.9372 67.3573 50.3151 67.0725 50.86ZM105.539 33.8914C122.102 33.8914 122.957 33.8952 122.957 33.9575C122.957 33.9964 122.571 35.4559 121.252 40.3713L110.279 40.3908L110.236 40.5543C110.213 40.6477 108.785 45.9679 107.057 52.3778C105.333 58.7877 103.917 64.0379 103.909 64.0457C103.897 64.0496 100.987 64.0496 90.985 64.034L94.1565 52.2611C95.9002 45.785 97.3279 40.4764 97.3279 40.457C97.3279 40.4414 94.8703 40.4297 91.8666 40.4297C87.0412 40.4297 86.4054 40.4219 86.4054 40.3713C86.4054 40.3402 86.7838 38.8885 87.248 37.1489C87.7083 35.4131 88.0945 33.9653 88.1062 33.9381C88.1179 33.903 91.6404 33.8914 105.539 33.8914Z" fill="#CDCDCD"/>
<path d="M112.055 0.693733C112.293 0.650922 112.722 0.580868 113.01 0.541949C113.393 0.491355 113.806 0.468004 114.52 0.464112C115.179 0.46022 115.679 0.479679 116.022 0.518598C116.307 0.553625 116.802 0.623679 117.126 0.674274C117.446 0.72876 117.922 0.822165 118.179 0.884435C118.437 0.946705 118.858 1.06346 119.115 1.1413C119.373 1.21914 119.837 1.3787 120.149 1.49935C120.461 1.61611 120.96 1.83016 121.261 1.97416C121.561 2.11816 121.998 2.34389 122.236 2.48011C122.474 2.61632 122.911 2.88876 123.211 3.08724C123.512 3.28962 123.949 3.60097 124.187 3.78778C124.424 3.9707 124.842 4.32875 125.123 4.57783C125.404 4.83081 125.837 5.2667 126.086 5.54302C126.34 5.81934 126.695 6.23578 126.878 6.47318C127.065 6.71059 127.377 7.14648 127.58 7.44615C127.779 7.74583 128.052 8.18172 128.189 8.41912C128.325 8.65653 128.552 9.09242 128.696 9.39209C128.84 9.69177 129.055 10.1899 129.172 10.5013C129.293 10.8126 129.453 11.2758 129.531 11.5326C129.609 11.7895 129.726 12.2098 129.788 12.4667C129.851 12.7235 129.944 13.1867 129.995 13.498C130.05 13.8094 130.116 14.2531 130.143 14.4905C130.174 14.7629 130.194 15.37 130.194 16.164C130.19 17.2304 130.178 17.5028 130.104 18.0515C130.057 18.4057 129.964 18.9583 129.897 19.2775C129.831 19.6005 129.698 20.1298 129.605 20.4567C129.511 20.7798 129.344 21.2896 129.234 21.5854C129.125 21.8773 128.918 22.3715 128.774 22.6829C128.63 22.9942 128.384 23.4768 128.228 23.7531C128.072 24.0295 127.779 24.5043 127.58 24.804C127.377 25.1036 127.03 25.5784 126.808 25.8548C126.586 26.1311 126.227 26.5475 126.016 26.7733C125.801 27.0029 125.439 27.3687 125.201 27.5867C124.963 27.8046 124.569 28.1471 124.323 28.3417C124.077 28.5402 123.726 28.8048 123.543 28.9332C123.36 29.0617 123.028 29.2835 122.802 29.4236C122.575 29.5637 122.189 29.7856 121.944 29.9218C121.698 30.0541 121.312 30.2487 121.085 30.3499C120.859 30.4511 120.5 30.6068 120.286 30.6924C120.071 30.778 119.65 30.9259 119.349 31.0232C119.049 31.1205 118.593 31.2528 118.335 31.319C118.078 31.3812 117.629 31.4785 117.34 31.533C117.052 31.5875 116.56 31.6615 116.248 31.7004C115.819 31.751 115.398 31.7665 114.493 31.7665C113.603 31.7665 113.155 31.751 112.718 31.6965C112.394 31.6615 111.895 31.5875 111.606 31.533C111.317 31.4824 110.842 31.3773 110.553 31.3034C110.264 31.2334 109.843 31.1127 109.617 31.0388C109.39 30.9648 108.969 30.813 108.68 30.6963C108.392 30.5834 107.9 30.3655 107.588 30.2098C107.272 30.0502 101.959 26.8978 95.593 23.0915C89.3047 19.332 84.1516 16.2457 84.136 16.2301C84.1204 16.2146 88.7781 13.3852 94.489 9.93696C100.196 6.48875 105.107 3.53481 105.4 3.36357C105.692 3.19621 106.297 2.8693 106.75 2.63578C107.202 2.40616 107.83 2.0987 108.154 1.9586C108.474 1.81849 109.012 1.60054 109.344 1.476C109.675 1.35146 110.124 1.19579 110.338 1.12962C110.553 1.06346 110.931 0.958381 111.177 0.892219C111.423 0.829949 111.817 0.740436 112.055 0.693733Z" fill="#BABABA"/>
<path d="M112.854 1.65142C113.1 1.6164 113.373 1.58526 113.459 1.57359C113.544 1.5658 114.126 1.5658 114.746 1.5697C115.483 1.57748 116.033 1.60472 116.326 1.64364C116.571 1.67867 116.965 1.74094 117.203 1.77986C117.441 1.82267 117.87 1.91996 118.159 1.99391C118.448 2.06786 118.943 2.21964 119.259 2.32472C119.579 2.43369 120.094 2.63607 120.41 2.77618C120.73 2.91629 121.214 3.15369 121.494 3.30548C121.775 3.45726 122.275 3.76472 122.606 3.98266C122.938 4.2045 123.379 4.51974 123.581 4.6832C123.784 4.84666 124.155 5.1619 124.401 5.38374C124.646 5.60558 125.036 5.99477 125.267 6.24774C125.497 6.50071 125.817 6.87433 125.98 7.07671C126.144 7.27909 126.46 7.71887 126.683 8.04968C126.901 8.38049 127.209 8.88254 127.361 9.15887C127.513 9.43908 127.751 9.92168 127.892 10.2408C128.032 10.5561 128.235 11.0698 128.34 11.3889C128.45 11.7042 128.59 12.1517 128.653 12.3891C128.715 12.6265 128.809 13.0469 128.863 13.3232C128.918 13.5995 128.992 14.0588 129.031 14.3351C129.082 14.7282 129.097 15.1251 129.101 16.1059C129.101 17.1178 129.086 17.4758 129.031 17.8961C128.992 18.1841 128.926 18.6045 128.883 18.8302C128.84 19.0559 128.75 19.449 128.688 19.7059C128.621 19.9627 128.508 20.3675 128.43 20.601C128.356 20.8345 128.204 21.2471 128.099 21.5156C127.993 21.7841 127.783 22.2473 127.638 22.5469C127.49 22.8466 127.225 23.3292 127.053 23.6172C126.878 23.9052 126.593 24.3411 126.417 24.5863C126.242 24.8315 125.918 25.2401 125.703 25.5009C125.485 25.7616 125.036 26.2365 124.709 26.5556C124.377 26.8786 123.917 27.295 123.679 27.4819C123.441 27.6726 123.024 27.98 122.743 28.1668C122.462 28.3536 122.06 28.6105 121.845 28.735C121.631 28.8635 121.155 29.1087 120.792 29.2838C120.429 29.4589 119.911 29.6847 119.641 29.782C119.372 29.8832 118.916 30.0349 118.627 30.1206C118.339 30.2062 117.847 30.3268 117.535 30.393C117.223 30.4553 116.704 30.5448 116.384 30.5876C116.029 30.6343 115.44 30.6732 114.882 30.6888C114.317 30.7004 113.735 30.6927 113.361 30.6654C113.029 30.6421 112.511 30.5837 112.21 30.5409C111.91 30.4981 111.426 30.4124 111.137 30.3502C110.849 30.284 110.373 30.1634 110.084 30.0739C109.796 29.9882 109.312 29.8209 109.012 29.7002C108.711 29.5835 108.224 29.3655 107.927 29.2176C107.634 29.0697 106.538 28.4354 105.493 27.8088C104.444 27.1822 99.7001 24.3333 94.9488 21.4767C90.1975 18.6239 86.2849 16.2693 86.2576 16.246C86.2225 16.2149 88.0442 15.1018 93.8058 11.6302L94.1172 11.4428C98.2113 8.97909 102.651 6.30748 104.096 5.44212C105.575 4.55088 107.034 3.69466 107.334 3.5351C107.634 3.37553 108.196 3.1031 108.582 2.92796C108.969 2.75283 109.526 2.51931 109.823 2.41034C110.115 2.30137 110.607 2.1418 110.911 2.05618C111.219 1.96667 111.68 1.8538 111.937 1.80321C112.195 1.75261 112.608 1.68256 112.854 1.65142Z" fill="#121C22"/>
<path fill-rule="evenodd" clip-rule="evenodd" d="M2.4977 3.09537C2.57182 3.10705 2.69275 3.14597 2.76686 3.18099C2.84098 3.21602 2.9463 3.29775 3.00092 3.36391C3.05553 3.43397 3.12575 3.55462 3.14915 3.63634C3.18816 3.7531 3.19986 4.64434 3.19986 7.38812C3.19986 10.451 3.19206 11.0154 3.14525 11.1632C3.11014 11.2683 3.02432 11.3968 2.9268 11.4824C2.84098 11.5641 2.70445 11.6458 2.62253 11.6692C2.54451 11.6887 2.44309 11.7081 2.40018 11.7081C2.35727 11.7081 2.25585 11.6887 2.17393 11.6692C2.09591 11.6458 1.96718 11.5719 1.88526 11.5018C1.80724 11.4357 1.71362 11.3072 1.67461 11.2216C1.6044 11.0737 1.60049 10.8597 1.60049 7.42704C1.60049 4.81948 1.6122 3.74532 1.64731 3.63245C1.67071 3.54683 1.75263 3.41062 1.83065 3.32889C1.92817 3.2238 2.02959 3.16153 2.16612 3.12651C2.27535 3.09537 2.42358 3.0837 2.4977 3.09537ZM16.2874 3.09148C16.3732 3.10705 16.5136 3.15375 16.5994 3.20045C16.6814 3.24326 16.7945 3.34445 16.8452 3.4184C16.892 3.49234 16.9505 3.61689 16.97 3.69083C16.9934 3.76478 17.009 4.34856 17.009 6.14272L17.1963 5.98315C17.2977 5.89753 17.4771 5.79245 17.5942 5.74964C17.7112 5.70683 17.8984 5.65234 18.0038 5.63288C18.113 5.61342 18.3392 5.59785 18.5109 5.59785C18.6825 5.59785 18.9361 5.6251 19.0765 5.66012C19.2169 5.69126 19.4432 5.77299 19.5836 5.83915C19.7475 5.91699 19.923 6.04542 20.0712 6.1972C20.2 6.32953 20.3521 6.52023 20.4106 6.6292C20.4691 6.73428 20.551 6.96391 20.5979 7.13515C20.672 7.42704 20.6759 7.55547 20.6759 9.18617C20.6759 10.2253 20.6603 10.9959 20.6369 11.0932C20.6135 11.1866 20.5354 11.3345 20.4613 11.424C20.3521 11.5563 20.278 11.603 20.1024 11.6536C19.962 11.6925 19.8255 11.7042 19.7397 11.6887C19.6655 11.6731 19.5368 11.6264 19.451 11.5797C19.3652 11.5291 19.2598 11.4201 19.096 11.1438L19.057 7.71893L18.9595 7.50877C18.9049 7.39201 18.8034 7.24801 18.7371 7.18574C18.6669 7.12736 18.5421 7.04953 18.4641 7.0145C18.3783 6.97947 18.1988 6.95223 18.0428 6.95223C17.8711 6.94834 17.7112 6.97169 17.6137 7.0145C17.5279 7.04953 17.3991 7.13515 17.325 7.2052C17.2548 7.27526 17.1573 7.40758 17.1105 7.50488C17.0324 7.67223 17.0285 7.75007 17.009 9.39244C16.9895 11.0737 16.9895 11.1088 16.9037 11.2683C16.853 11.3617 16.7555 11.4785 16.6892 11.5291C16.6189 11.5836 16.4746 11.6458 16.3654 11.6731C16.2211 11.7042 16.1274 11.7042 16.0065 11.6731C15.9129 11.6497 15.7764 11.5719 15.6944 11.5018C15.6164 11.4357 15.5228 11.3072 15.4838 11.2216C15.4136 11.0737 15.4097 10.8597 15.4097 7.38812C15.4097 3.88932 15.4136 3.70251 15.4838 3.55462C15.5228 3.46899 15.6047 3.35224 15.6671 3.28997C15.7295 3.23159 15.8583 3.15764 15.9558 3.12651C16.0572 3.09537 16.1976 3.07981 16.2874 3.09148ZM28.4972 3.07202C28.5167 3.07202 28.6142 3.08759 28.7117 3.11094C28.8092 3.13429 28.9458 3.19267 29.016 3.24716C29.0823 3.29775 29.1798 3.41451 29.3164 3.67137L29.3281 7.27136C29.3359 9.6999 29.3281 10.9375 29.3008 11.0737C29.2657 11.2333 29.2188 11.3189 29.094 11.4512C28.9614 11.5875 28.8834 11.6303 28.7117 11.6692C28.5518 11.7042 28.4543 11.7042 28.3333 11.6731C28.2397 11.6497 28.1032 11.5719 28.0213 11.5018C27.9432 11.4357 27.8496 11.3072 27.8106 11.2216C27.7404 11.0737 27.7365 10.8597 27.7365 7.38812C27.7365 3.88932 27.7404 3.70251 27.8106 3.55462C27.8496 3.46899 27.9315 3.35224 27.994 3.28997C28.0564 3.23159 28.1851 3.16153 28.2826 3.1304C28.3801 3.09926 28.4777 3.07202 28.4972 3.07202V3.07202ZM-2.22238 5.60175C-2.03904 5.59785 -1.79328 5.6251 -1.67626 5.65623C-1.55923 5.68737 -1.37199 5.75742 -1.26666 5.81191C-1.15744 5.86639 -0.993601 5.98704 -0.896079 6.08434C-0.798556 6.18164 -0.708836 6.25947 -0.689332 6.25947C-0.673728 6.25947 -0.654223 6.21666 -0.64252 6.16218C-0.630818 6.10769 -0.556701 5.99483 -0.474782 5.90531C-0.37726 5.79634 -0.271935 5.73018 -0.135404 5.69126C-0.0144763 5.65623 0.118154 5.64456 0.215676 5.66012C0.301496 5.67569 0.414622 5.70683 0.469234 5.73407C0.523847 5.76131 0.613568 5.83526 0.675982 5.90531C0.738397 5.97926 0.79691 6.1038 0.820315 6.22834C0.847621 6.36066 0.855423 7.29472 0.83982 11.1477L0.742298 11.3345C0.679883 11.459 0.597964 11.5485 0.508244 11.5952C0.434127 11.6342 0.293694 11.677 0.196172 11.6925C0.0986495 11.7042 -0.0534854 11.6964 -0.143206 11.6731C-0.240728 11.6497 -0.369458 11.5719 -0.447475 11.4941C-0.521593 11.4201 -0.607412 11.2878 -0.68153 11.0504L-0.845367 11.2022C-0.938989 11.2878 -1.09502 11.4123 -1.19645 11.4746C-1.30177 11.5408 -1.50462 11.6303 -1.65675 11.677C-1.88691 11.7431 -1.99613 11.7548 -2.33941 11.7392C-2.62418 11.7237 -2.83092 11.6887 -3.02207 11.6264C-3.1742 11.5758 -3.42776 11.4474 -3.5877 11.3384C-3.74763 11.2294 -3.96998 11.0309 -4.09481 10.8869C-4.21184 10.7468 -4.37568 10.5094 -4.4537 10.3615C-4.53171 10.2136 -4.64484 9.93341 -4.70335 9.74271C-4.80478 9.41968 -4.81258 9.34185 -4.81258 8.71136C-4.81648 8.10812 -4.80478 7.99525 -4.72676 7.71893C-4.67605 7.54769 -4.57462 7.28304 -4.50051 7.13515C-4.42639 6.98337 -4.28206 6.74985 -4.17673 6.60974C-4.07531 6.46964 -3.87636 6.26726 -3.73983 6.15439C-3.6033 6.04542 -3.37705 5.90142 -3.23662 5.83526C-3.09618 5.7691 -2.88554 5.69126 -2.76851 5.66012C-2.65148 5.62899 -2.40573 5.60175 -2.22238 5.60175ZM-2.83092 7.45428C-2.89724 7.53601 -2.99086 7.67612 -3.03767 7.76563C-3.08058 7.85904 -3.1469 8.04196 -3.1781 8.17428C-3.20931 8.3105 -3.23662 8.54012 -3.23662 8.6919C-3.23662 8.83979 -3.20931 9.06552 -3.1781 9.18617C-3.1469 9.31071 -3.07668 9.49752 -3.02207 9.60649C-2.96745 9.71158 -2.86603 9.86336 -2.79581 9.9412C-2.7295 10.019 -2.58127 10.1241 -2.47594 10.1747C-2.32381 10.2487 -2.21848 10.2681 -1.99613 10.2681C-1.844 10.2681 -1.66846 10.2487 -1.60604 10.2253C-1.54753 10.2058 -1.4344 10.1397 -1.35248 10.0813C-1.27056 10.0229 -1.14183 9.88671 -1.07162 9.78163C-0.997502 9.67266 -0.89998 9.47417 -0.853169 9.33406C-0.794655 9.15504 -0.767349 8.97601 -0.767349 8.73082C-0.763448 8.53623 -0.786854 8.28325 -0.81416 8.1665C-0.845367 8.04974 -0.907781 7.87071 -0.958493 7.76563C-1.0092 7.66444 -1.11843 7.50877 -1.19645 7.41926C-1.27837 7.33363 -1.4305 7.21688 -1.53973 7.17018C-1.68016 7.10401 -1.80499 7.07677 -1.98833 7.07677C-2.19118 7.07677 -2.2926 7.10012 -2.47594 7.18964C-2.61247 7.2558 -2.76071 7.36477 -2.83092 7.45428ZM6.69116 5.60175C6.88621 5.59785 7.15537 5.61731 7.2958 5.64067C7.43624 5.66402 7.68199 5.72239 7.84193 5.77688C8.00187 5.83137 8.22031 5.93645 8.32564 6.01818C8.43096 6.09602 8.55189 6.22445 8.5909 6.29839C8.64551 6.39958 8.66112 6.49299 8.65331 6.67201C8.64551 6.85104 8.61431 6.94834 8.53629 7.06899C8.47387 7.1585 8.38025 7.26358 8.32174 7.29861C8.25542 7.34142 8.1462 7.36866 8.03697 7.36477C7.93945 7.36088 7.67809 7.29472 7.45184 7.21688C7.13197 7.10791 6.98373 7.07677 6.76918 7.07677C6.55073 7.07677 6.44931 7.10012 6.26207 7.18574C6.13334 7.24801 5.9617 7.37255 5.88368 7.45817C5.80176 7.54769 5.70034 7.69169 5.65743 7.77731C5.61452 7.86293 5.5521 8.04196 5.5209 8.17428C5.48969 8.3105 5.46238 8.54012 5.46238 8.6919C5.46238 8.83979 5.48579 9.04996 5.51699 9.15893C5.5443 9.26401 5.61452 9.44693 5.66913 9.5559C5.72764 9.66877 5.83297 9.82444 5.90318 9.90228C5.9695 9.98012 6.13334 10.093 6.26207 10.1553C6.45321 10.2487 6.54293 10.2681 6.76918 10.2681C6.98373 10.2681 7.13977 10.2331 7.51035 10.1047C7.87704 9.98012 8.00967 9.94898 8.12669 9.96844C8.20861 9.98401 8.33344 10.0502 8.41536 10.1202C8.49338 10.1903 8.5792 10.307 8.6104 10.3732C8.63771 10.4433 8.66112 10.5834 8.66112 10.6845C8.66112 10.8285 8.63381 10.9142 8.54799 11.0465C8.48168 11.1438 8.34514 11.2761 8.24372 11.3462C8.1423 11.4162 7.88874 11.5252 7.68589 11.5952C7.37772 11.6964 7.23729 11.7237 6.8472 11.7392C6.49612 11.7548 6.30498 11.7431 6.08653 11.6925C5.92659 11.6575 5.68083 11.5758 5.5404 11.5096C5.39997 11.4435 5.17372 11.3072 5.03328 11.21C4.89675 11.1088 4.69 10.9142 4.57688 10.7741C4.45985 10.634 4.29601 10.381 4.20629 10.2097C4.12047 10.0385 4.00345 9.73104 3.95273 9.52866C3.87862 9.24066 3.85911 9.05774 3.85911 8.6919C3.85911 8.3572 3.88252 8.14315 3.93323 7.93298C3.97614 7.77342 4.06196 7.51655 4.12437 7.36866C4.18679 7.21688 4.31162 6.98726 4.40134 6.85104C4.49106 6.71872 4.6588 6.51634 4.77192 6.40347C4.88115 6.2945 5.06449 6.13883 5.16981 6.06488C5.27904 5.99483 5.45458 5.89364 5.55991 5.84304C5.66913 5.79634 5.88758 5.72239 6.04752 5.67958C6.23086 5.63288 6.47271 5.60175 6.69116 5.60175ZM11.9574 5.61342C12.3046 5.6251 12.4918 5.65234 12.679 5.71461C12.8195 5.76131 13.0301 5.85083 13.1471 5.9131C13.2642 5.97537 13.4748 6.11937 13.6153 6.23223C13.7557 6.3451 13.9546 6.55137 14.06 6.69147C14.1614 6.82769 14.2979 7.04174 14.3603 7.16239C14.4227 7.28693 14.5164 7.51655 14.5671 7.66834C14.6178 7.82401 14.6802 8.11979 14.7075 8.32217C14.7426 8.60628 14.7426 8.77752 14.7075 9.06163C14.6841 9.26401 14.61 9.58704 14.5476 9.78163C14.4813 9.97233 14.3564 10.2525 14.2706 10.4043C14.1809 10.5561 13.9741 10.8091 13.8142 10.9687C13.6075 11.1749 13.4241 11.3111 13.2057 11.424C13.034 11.5135 12.7532 11.6225 12.5815 11.6692C12.3631 11.7237 12.1446 11.747 11.8599 11.747C11.5751 11.747 11.3566 11.7237 11.1382 11.6692C10.9665 11.6225 10.6857 11.5135 10.514 11.424C10.2956 11.3111 10.1123 11.1749 9.9055 10.9687C9.74557 10.8091 9.53882 10.5561 9.4491 10.4043C9.36328 10.2525 9.23845 9.97233 9.17213 9.78163C9.10972 9.58704 9.0356 9.26401 9.0122 9.06163C8.97709 8.77752 8.97709 8.60628 9.0122 8.32217C9.0395 8.11979 9.10192 7.82012 9.15653 7.66055C9.20724 7.50099 9.31257 7.2558 9.38278 7.11569C9.4569 6.97558 9.60903 6.74985 9.72606 6.60974C9.83919 6.46964 10.0459 6.27115 10.1864 6.16607C10.3229 6.06099 10.5687 5.9131 10.7286 5.83915C10.8885 5.76521 11.1265 5.67958 11.2552 5.65234C11.4073 5.61731 11.6531 5.60564 11.9574 5.61342ZM11.1382 7.32585C11.0485 7.3998 10.9236 7.56715 10.8417 7.72282C10.7637 7.87071 10.6779 8.08477 10.6545 8.19374C10.6311 8.30661 10.6116 8.53623 10.6116 8.69969C10.6116 8.86704 10.6389 9.10444 10.6701 9.22509C10.7013 9.34963 10.7637 9.52087 10.8066 9.60649C10.8495 9.69212 10.9509 9.83222 11.0329 9.92174C11.1109 10.0074 11.2669 10.1202 11.3722 10.1747C11.5244 10.2487 11.6297 10.2681 11.8599 10.2681C12.1017 10.2681 12.1875 10.2487 12.3631 10.163C12.4801 10.1008 12.6361 9.98401 12.7063 9.89839C12.7805 9.81276 12.8819 9.6532 12.9326 9.54812C12.9833 9.43914 13.0457 9.24066 13.073 9.10055C13.1003 8.95266 13.112 8.71136 13.1003 8.51677C13.0886 8.32607 13.0418 8.09644 12.995 7.9719C12.9521 7.85515 12.8585 7.67223 12.7883 7.56715C12.718 7.46207 12.5893 7.32974 12.5035 7.27136C12.4177 7.21299 12.285 7.14682 12.2109 7.11958C12.1368 7.09623 11.9691 7.07677 11.8403 7.08066C11.7116 7.08066 11.5361 7.10791 11.4503 7.13904C11.3644 7.17018 11.224 7.2558 11.1382 7.32585ZM24.1867 5.59785C24.4363 5.59785 24.6587 5.62121 24.8693 5.67569C25.041 5.7185 25.3101 5.81969 25.4701 5.89753C25.6534 5.99093 25.8719 6.14661 26.0513 6.31785C26.2112 6.46574 26.3985 6.66812 26.4687 6.76542C26.5389 6.86272 26.6638 7.07288 26.7418 7.23245C26.8237 7.39201 26.9329 7.69169 26.9836 7.89407C27.0694 8.22098 27.0772 8.32217 27.0616 8.80866C27.046 9.2679 27.0265 9.40801 26.9368 9.68433C26.8783 9.86725 26.7808 10.1124 26.7223 10.2292C26.6638 10.346 26.5311 10.5483 26.4336 10.6768C26.3361 10.8052 26.1449 11.0037 26.0123 11.1165C25.8758 11.2294 25.6417 11.3851 25.4935 11.459C25.3452 11.533 25.08 11.6264 24.9083 11.6692C24.6977 11.7237 24.4675 11.747 24.2062 11.747C23.9448 11.747 23.7147 11.7237 23.504 11.6692C23.3324 11.6264 23.0671 11.533 22.9189 11.459C22.7368 11.3708 22.5366 11.2255 22.3182 11.0231C22.1426 10.8519 21.9242 10.6067 21.8422 10.4705C21.7603 10.3382 21.6472 10.128 21.6004 10.0035C21.5497 9.88282 21.4756 9.65709 21.4326 9.5092C21.378 9.30293 21.3585 9.10833 21.3585 8.6919C21.3624 8.24823 21.378 8.09255 21.4483 7.84347C21.4951 7.68001 21.5887 7.42704 21.655 7.27915C21.7213 7.13515 21.85 6.91331 21.9398 6.78488C22.0334 6.65645 22.205 6.46185 22.3182 6.35288C22.4352 6.24391 22.6263 6.09212 22.7434 6.01818C22.8604 5.94034 23.0281 5.85083 23.1139 5.81191C23.1998 5.77688 23.3948 5.71461 23.543 5.67569C23.7108 5.62899 23.9565 5.60175 24.1867 5.59785ZM23.3987 7.41147C23.3207 7.49709 23.2037 7.67612 23.1373 7.81623C23.071 7.95634 23.0008 8.18985 22.9774 8.34163C22.9501 8.49342 22.9462 8.72304 22.9579 8.86704C22.9735 9.00714 23.0164 9.22509 23.0593 9.35352C23.0983 9.48195 23.1881 9.66877 23.2583 9.76995C23.3285 9.87114 23.4494 9.99568 23.5235 10.0541C23.5976 10.1085 23.7303 10.1825 23.8161 10.2136C23.9253 10.2564 24.0619 10.272 24.2647 10.2603C24.448 10.2525 24.6158 10.2175 24.7133 10.1708C24.7991 10.128 24.9357 10.0268 25.0176 9.94898C25.0956 9.86725 25.2087 9.70768 25.2633 9.59482C25.3218 9.48585 25.3921 9.27958 25.4194 9.13947C25.4506 8.99936 25.474 8.7892 25.474 8.67244C25.474 8.55569 25.4389 8.31828 25.396 8.14704C25.3491 7.9758 25.2789 7.77342 25.2321 7.69947C25.1853 7.62553 25.0878 7.49709 25.0098 7.41147C24.9318 7.32974 24.7835 7.22077 24.6743 7.17018C24.5261 7.10012 24.4129 7.07677 24.2062 7.07677C23.9994 7.07677 23.8863 7.10012 23.7381 7.17018C23.6328 7.22077 23.4767 7.32974 23.3987 7.41147Z" fill="#BABABA"/>
<path fill-rule="evenodd" clip-rule="evenodd" d="M73.726 3.49585C73.8236 3.49585 73.9718 3.5192 74.0537 3.54644C74.1356 3.5698 74.2683 3.64763 74.3463 3.7138C74.4243 3.77996 74.5257 3.90839 74.5725 4.00569C74.631 4.11855 74.6622 4.24698 74.6622 4.39098C74.6622 4.53109 74.631 4.6712 74.5725 4.79963C74.5218 4.9086 74.4204 5.04482 74.3424 5.11098C74.2644 5.17714 74.1356 5.25109 74.0537 5.27444C73.9679 5.30168 73.8236 5.32503 73.726 5.32503C73.6285 5.32503 73.4803 5.29001 73.3945 5.25109C73.3086 5.21606 73.1682 5.1032 73.0824 5.0059C72.9966 4.9125 72.9029 4.7646 72.8795 4.67898C72.8522 4.59725 72.8288 4.46493 72.8327 4.39098C72.8327 4.31704 72.8522 4.1925 72.8795 4.11855C72.9068 4.04071 72.9732 3.92006 73.0278 3.84612C73.0824 3.77217 73.2228 3.6632 73.3398 3.60093C73.4803 3.53088 73.609 3.49585 73.726 3.49585V3.49585ZM56.5816 5.83487C56.7766 5.83487 57.0224 5.85433 57.1277 5.88157C57.2369 5.90882 57.4086 5.97498 57.5178 6.02947C57.6231 6.08006 57.8026 6.2046 57.9157 6.30579C58.1185 6.48871 58.1224 6.4926 58.1419 6.3953C58.1537 6.34082 58.2278 6.22795 58.3097 6.13844C58.4072 6.02947 58.5125 5.9633 58.6491 5.92439C58.7817 5.88547 58.9065 5.87379 59.0392 5.89325C59.1484 5.91271 59.2849 5.95941 59.3473 6.00222C59.4097 6.04893 59.4917 6.12676 59.5346 6.18125C59.5736 6.23574 59.6243 6.37584 59.6438 6.4926C59.6711 6.62882 59.6789 7.56676 59.6633 11.4158L59.5658 11.5871C59.5112 11.6805 59.4175 11.7972 59.359 11.84C59.2849 11.8945 59.1718 11.9257 59.0275 11.9373C58.9026 11.9451 58.7388 11.9412 58.6608 11.9257C58.5749 11.914 58.454 11.8478 58.3721 11.7739C58.298 11.7077 58.2044 11.5754 58.1029 11.3224L57.8884 11.5209C57.7714 11.6299 57.5919 11.7583 57.4905 11.8089C57.3852 11.8595 57.194 11.9296 57.0614 11.9646C56.882 12.0113 56.7181 12.023 56.4646 12.0074C56.2344 11.9957 56.0082 11.9529 55.8014 11.8829C55.6298 11.8245 55.4113 11.7311 55.3138 11.6766C55.2163 11.6182 55.0173 11.4586 54.873 11.3185C54.7248 11.1784 54.5336 10.9527 54.4478 10.8126C54.3581 10.6725 54.2411 10.439 54.1786 10.2872C54.1201 10.1393 54.0421 9.86686 54.0109 9.68394C53.9758 9.50103 53.9485 9.16243 53.9485 8.92503C53.9485 8.66816 53.9797 8.35681 54.0226 8.14665C54.0655 7.9326 54.1591 7.65627 54.2684 7.42665C54.3659 7.22427 54.5297 6.94406 54.635 6.80784C54.7404 6.67163 54.9237 6.48092 55.0407 6.38752C55.1578 6.29411 55.3801 6.1579 55.5283 6.08006C55.6766 6.00611 55.8989 5.92049 56.016 5.88936C56.133 5.86211 56.3865 5.83487 56.5816 5.83487ZM56.3007 7.46168C56.2188 7.5006 56.0901 7.60179 56.016 7.68352C55.9379 7.76914 55.8287 7.9326 55.7741 8.04935C55.7195 8.16611 55.6532 8.35681 55.6298 8.46968C55.6064 8.57865 55.5869 8.80049 55.5869 8.95616C55.5869 9.10795 55.6103 9.32589 55.6376 9.43097C55.6649 9.53995 55.7273 9.7034 55.7741 9.8007C55.8209 9.898 55.9145 10.0459 55.9848 10.1276C56.055 10.2093 56.1915 10.3222 56.289 10.3767C56.4217 10.4545 56.5348 10.4818 56.7571 10.4935C56.9795 10.5051 57.0926 10.4896 57.2252 10.439C57.3228 10.4001 57.4788 10.2872 57.5685 10.1899C57.6621 10.0926 57.7831 9.92913 57.8338 9.82016C57.8845 9.71508 57.9547 9.48546 57.9937 9.31422C58.0444 9.05735 58.0483 8.94838 58.0132 8.69151C57.9898 8.52027 57.9313 8.27508 57.8845 8.14665C57.8338 8.01822 57.7285 7.83141 57.6465 7.73022C57.5529 7.60957 57.4242 7.50838 57.2955 7.45C57.1823 7.39552 57.0107 7.34492 56.9132 7.33325C56.8156 7.32157 56.6713 7.32936 56.5933 7.35271C56.5114 7.37217 56.3787 7.41887 56.3007 7.46168ZM62.8035 5.83487C62.9908 5.83098 63.2365 5.85822 63.3692 5.89325C63.4979 5.92439 63.689 5.99833 63.7943 6.05671C63.8997 6.11509 64.0635 6.23574 64.3249 6.4926L64.3639 6.36417C64.3834 6.29801 64.4575 6.18514 64.5277 6.11898C64.5979 6.04893 64.6994 5.97498 64.754 5.94774C64.8086 5.92049 64.9646 5.89714 65.105 5.89714C65.2611 5.89325 65.4054 5.9166 65.4756 5.95552C65.5419 5.98666 65.6512 6.08006 65.7214 6.1579C65.7877 6.23574 65.8657 6.36417 65.8891 6.44201C65.9164 6.54319 65.9242 7.48503 65.9164 9.35313C65.9008 11.8595 65.893 12.1397 65.8306 12.3499C65.7955 12.4783 65.698 12.7118 65.62 12.8714C65.542 13.031 65.3781 13.2684 65.2572 13.3968C65.1402 13.5291 64.9373 13.7043 64.8086 13.7899C64.6838 13.8716 64.4497 13.9923 64.2976 14.0506C64.1415 14.109 63.8958 14.183 63.7514 14.2141C63.6032 14.2452 63.3379 14.2803 63.1546 14.2958C62.9596 14.3114 62.6631 14.3036 62.4329 14.2764C62.2184 14.2491 61.8751 14.1869 61.6723 14.1363C61.4694 14.0857 61.1729 13.9806 61.0208 13.9066C60.8648 13.8327 60.658 13.6965 60.5605 13.607C60.463 13.5136 60.3616 13.3773 60.3382 13.3034C60.3147 13.2295 60.3069 13.0893 60.3186 12.992C60.3343 12.8792 60.385 12.7663 60.4552 12.6807C60.5176 12.6067 60.6268 12.5056 60.7009 12.455C60.7868 12.3966 60.8921 12.3693 61.0013 12.3693C61.0988 12.3693 61.3758 12.4472 61.7035 12.5678C61.996 12.6768 62.3705 12.7936 62.5305 12.8247C62.7216 12.8597 62.9166 12.8714 63.0961 12.8558C63.2677 12.8403 63.455 12.7936 63.5993 12.7274C63.7514 12.6573 63.8919 12.5562 64.0011 12.4277C64.1103 12.3071 64.1961 12.1592 64.2312 12.0385C64.2625 11.9335 64.2859 11.735 64.2859 11.3575L64.083 11.5404C63.9699 11.6377 63.7709 11.7661 63.6422 11.8284C63.5135 11.8868 63.3028 11.9529 63.1741 11.9763C63.0454 11.9996 62.8152 12.0191 62.667 12.0191C62.5188 12.0191 62.2535 11.984 62.0819 11.9412C61.9102 11.8945 61.6645 11.805 61.5357 11.735C61.407 11.6649 61.1885 11.4976 61.0481 11.3575C60.8765 11.1862 60.7399 11.0033 60.6346 10.7931C60.5449 10.6219 60.4357 10.3689 60.3928 10.2288C60.346 10.0887 60.2874 9.86297 60.264 9.72286C60.2367 9.58276 60.2133 9.2247 60.2172 8.92503C60.2172 8.47746 60.2367 8.314 60.3147 8.01043C60.3694 7.80806 60.4981 7.47335 60.5995 7.27098C60.7516 6.97519 60.8531 6.83509 61.1222 6.56655C61.3719 6.31747 61.5318 6.19292 61.7425 6.08784C61.8946 6.01001 62.1248 5.92439 62.2496 5.89325C62.3705 5.86211 62.6202 5.83487 62.8035 5.83487ZM62.5812 7.44222C62.5188 7.47335 62.3978 7.57454 62.3081 7.66795C62.2184 7.76135 62.1014 7.92481 62.0506 8.02989C61.996 8.13887 61.9297 8.30233 61.9024 8.39962C61.8751 8.49692 61.8517 8.73433 61.8517 8.92503C61.8517 9.178 61.8751 9.35313 61.9375 9.54773C61.9804 9.69562 62.0702 9.898 62.1326 9.9953C62.1911 10.0926 62.3003 10.2171 62.3744 10.2755C62.4485 10.3339 62.5773 10.4078 62.6592 10.439C62.7411 10.474 62.9166 10.5012 63.0688 10.5012C63.2482 10.5012 63.3848 10.474 63.5057 10.4195C63.6032 10.3767 63.7475 10.2755 63.8295 10.1977C63.9114 10.1198 64.0245 9.96805 64.0791 9.85908C64.1337 9.754 64.2039 9.57886 64.2312 9.46989C64.2625 9.36481 64.2859 9.13519 64.2859 8.96395C64.2859 8.7927 64.2586 8.54751 64.2273 8.41908C64.1922 8.29065 64.1259 8.10773 64.0791 8.01043C64.0323 7.91314 63.9348 7.76914 63.8568 7.68352C63.7826 7.60179 63.6422 7.49281 63.5447 7.44611C63.4472 7.39941 63.2833 7.34881 63.1741 7.33714C63.0688 7.32546 62.9127 7.33325 62.8347 7.35271C62.7528 7.37217 62.6397 7.41108 62.5812 7.44222ZM69.1035 5.83487C69.2946 5.83487 69.5443 5.85433 69.6496 5.88157C69.7588 5.90882 69.9305 5.97498 70.0397 6.02947C70.145 6.08006 70.3244 6.2046 70.4376 6.30968C70.6404 6.48871 70.6443 6.4926 70.6638 6.3953C70.6755 6.34082 70.7496 6.22795 70.8316 6.13844C70.933 6.02947 71.0344 5.9633 71.1709 5.92439C71.2997 5.88936 71.4323 5.87768 71.561 5.89714C71.6703 5.91271 71.8068 5.95941 71.8692 6.00611C71.9316 6.04893 72.0135 6.12676 72.0564 6.18125C72.0955 6.23574 72.1462 6.37584 72.1657 6.4926C72.193 6.62882 72.2008 7.56676 72.1852 11.3769L72.0877 11.5676C72.033 11.6766 71.9394 11.7972 71.8809 11.84C71.8068 11.8945 71.6898 11.9257 71.5493 11.9373C71.4245 11.9451 71.2607 11.9412 71.1826 11.9257C71.1007 11.914 70.9759 11.8517 70.9096 11.7933C70.8394 11.7311 70.7457 11.6026 70.6248 11.3263L70.4103 11.5209C70.2932 11.6299 70.1138 11.7583 70.0124 11.8089C69.9071 11.8595 69.7237 11.9296 69.6028 11.9607C69.478 11.9918 69.2595 12.0191 69.1152 12.0191C68.9669 12.0191 68.7212 11.9918 68.569 11.9568C68.413 11.9218 68.1516 11.8323 67.9956 11.7544C67.8045 11.661 67.6016 11.517 67.4144 11.338C67.2544 11.1862 67.0555 10.9527 66.9658 10.8126C66.88 10.6725 66.7629 10.439 66.7005 10.2872C66.642 10.1393 66.564 9.86686 66.5328 9.68394C66.4977 9.50103 66.4704 9.17022 66.4704 8.94449C66.4704 8.71876 66.4977 8.38795 66.5328 8.20503C66.564 8.02211 66.6459 7.74189 66.7122 7.58233C66.7746 7.42276 66.9073 7.1659 67.0048 7.018C67.1023 6.87011 67.2896 6.64049 67.4222 6.51206C67.5665 6.37584 67.7928 6.21238 67.9761 6.11509C68.1438 6.02557 68.3896 5.92439 68.5183 5.89325C68.6471 5.86211 68.9123 5.83487 69.1035 5.83487ZM68.8226 7.46168C68.7407 7.5006 68.6042 7.60957 68.5222 7.70298C68.4364 7.79638 68.3272 7.96373 68.2765 8.06881C68.2297 8.17779 68.1673 8.3607 68.1438 8.47746C68.1204 8.59811 68.1087 8.85108 68.1204 9.06124C68.1321 9.31811 68.1673 9.50103 68.2297 9.66449C68.2765 9.79292 68.3896 9.98362 68.4754 10.0887C68.5729 10.2055 68.7212 10.3261 68.8499 10.3923C69.0254 10.4857 69.1113 10.5051 69.3375 10.5012C69.5248 10.5012 69.6613 10.4779 69.7666 10.4273C69.8524 10.3845 69.9968 10.2755 70.0904 10.1821C70.184 10.0887 70.3049 9.92913 70.3557 9.82016C70.4064 9.71508 70.4766 9.48546 70.5156 9.31422C70.5663 9.05735 70.5702 8.94838 70.5351 8.69151C70.5117 8.52027 70.4571 8.28287 70.4142 8.16611C70.3674 8.04935 70.2659 7.86644 70.184 7.75746C70.0852 7.62773 69.9656 7.52784 69.8251 7.45779C69.7081 7.39941 69.5326 7.34492 69.435 7.33325C69.3375 7.32157 69.1932 7.32936 69.1152 7.35271C69.0333 7.37217 68.9006 7.41887 68.8226 7.46168ZM78.3681 5.83487C78.6061 5.83098 78.883 5.85822 79.0312 5.89325C79.1717 5.92439 79.3979 6.00611 79.5345 6.07617C79.6749 6.14622 79.8855 6.29801 80.0026 6.41476C80.1235 6.53152 80.2756 6.7339 80.3458 6.86233C80.4122 6.99076 80.4941 7.20092 80.5292 7.32936C80.5799 7.52395 80.5916 7.86254 80.5916 9.45043C80.5916 11.2057 80.5838 11.3497 80.5175 11.4937C80.4785 11.5793 80.3966 11.696 80.3341 11.7544C80.2717 11.8128 80.1742 11.879 80.1157 11.8984C80.0533 11.9218 79.9089 11.9412 79.7919 11.9412C79.6749 11.9412 79.5189 11.9179 79.4525 11.8868C79.3823 11.8595 79.277 11.7856 79.2185 11.7233C79.16 11.661 79.082 11.5404 79.0429 11.4548C78.9805 11.3146 78.9688 11.1278 78.9532 9.58665C78.9337 8.01433 78.9259 7.86254 78.8596 7.738C78.8206 7.66406 78.7426 7.55119 78.6841 7.49281C78.6295 7.43054 78.5124 7.34492 78.4266 7.29822C78.3057 7.23206 78.2043 7.2126 77.9585 7.2126C77.7127 7.2126 77.6113 7.23206 77.4904 7.29822C77.4046 7.34492 77.2875 7.43054 77.2329 7.49281C77.1744 7.55119 77.0964 7.66406 77.0574 7.738C76.9911 7.86254 76.9833 8.01433 76.9638 9.58665C76.9443 11.2173 76.9404 11.3069 76.8624 11.4742C76.8194 11.5715 76.718 11.7077 76.64 11.7778C76.5581 11.8478 76.4333 11.914 76.3513 11.9257C76.2694 11.9412 76.1134 11.9451 76.0042 11.9373C75.852 11.9257 75.7662 11.8906 75.6531 11.8011C75.5673 11.7389 75.458 11.5988 75.3059 11.2991V6.55098L75.4112 6.33692C75.4697 6.21628 75.5751 6.08395 75.6453 6.03336C75.7155 5.98665 75.8481 5.92828 75.9378 5.90493C76.0471 5.87768 76.1641 5.87768 76.3084 5.90493C76.4215 5.92828 76.562 5.98276 76.6244 6.02557C76.6829 6.06838 76.7648 6.17347 76.8858 6.41476L76.956 6.32914C76.9989 6.27855 77.1237 6.17736 77.2407 6.10341C77.3539 6.02947 77.5645 5.93606 77.7049 5.90103C77.861 5.86211 78.1145 5.83487 78.3681 5.83487ZM73.8431 5.89325C73.9406 5.90882 74.0849 5.95163 74.1668 5.99055C74.2448 6.02947 74.3541 6.13066 74.4087 6.21238C74.4594 6.29022 74.5218 6.43422 74.5413 6.53152C74.5686 6.64049 74.5842 7.55119 74.5842 8.92503C74.5842 10.3066 74.5686 11.2096 74.5413 11.3185C74.5218 11.4158 74.4672 11.5482 74.4243 11.6104C74.3814 11.6727 74.28 11.77 74.2019 11.8245C74.0966 11.8984 73.9991 11.9257 73.8079 11.9373C73.6051 11.949 73.5154 11.9335 73.3945 11.8712C73.3086 11.8284 73.1994 11.7505 73.1526 11.6999C73.1058 11.6532 73.0395 11.5443 73.0083 11.4664C72.9537 11.338 72.9459 11.0033 72.9459 8.91724C72.9459 6.67941 72.9537 6.50038 73.02 6.35638C73.059 6.27076 73.1526 6.14233 73.2306 6.07228C73.3125 6.00611 73.4218 5.93606 73.4842 5.92439C73.5427 5.91271 73.6051 5.89714 73.6285 5.88936C73.6519 5.87768 73.7455 5.88157 73.8431 5.89325Z" fill="#CDCDCD"/>
<path d="M34.9417 3.35629C35.0041 3.34461 35.0704 3.32904 35.0899 3.32126C35.1094 3.30958 35.207 3.31347 35.3045 3.32515C35.402 3.33683 35.558 3.39131 35.6517 3.44969C35.7726 3.52364 35.8584 3.61315 36.0262 3.94007L36.0457 6.29855L36.1939 6.19347C36.2719 6.13509 36.4279 6.04947 36.5333 6.00277C36.6425 5.95606 36.8219 5.90158 36.9351 5.87433C37.0443 5.85098 37.3017 5.83152 37.4968 5.83152C37.6957 5.83152 37.9727 5.85877 38.1131 5.89379C38.2536 5.92493 38.4798 6.00666 38.6163 6.07671C38.7568 6.14677 38.9674 6.29855 39.0845 6.41531C39.2054 6.53206 39.3575 6.73444 39.4277 6.86287C39.494 6.99131 39.5799 7.20925 39.6111 7.34936C39.6618 7.55952 39.6735 7.92147 39.6735 9.47044C39.6735 11.1906 39.6657 11.3502 39.5994 11.4942C39.5604 11.5798 39.4667 11.7083 39.3887 11.7783C39.3068 11.8484 39.182 11.9145 39.0962 11.9262C39.0181 11.9418 38.8621 11.9457 38.7529 11.9379C38.6007 11.9262 38.5149 11.8951 38.4018 11.8017C38.316 11.7355 38.2146 11.6226 38.1716 11.5487C38.0975 11.4242 38.0936 11.323 38.0702 9.70395C38.0507 8.37682 38.0351 7.95649 37.9922 7.83974C37.961 7.75801 37.8752 7.6179 37.8011 7.53228C37.7269 7.44666 37.5943 7.34158 37.5085 7.29487C37.3876 7.2326 37.2822 7.21314 37.0404 7.21314C36.7946 7.21314 36.6932 7.2326 36.5723 7.29876C36.4865 7.34547 36.3694 7.43109 36.3109 7.49336C36.2524 7.55174 36.1744 7.67239 36.1354 7.75801C36.073 7.89811 36.0613 8.08492 36.0457 9.62611C36.0262 11.2879 36.0223 11.3424 35.9403 11.4942C35.8974 11.5798 35.8077 11.6966 35.7453 11.755C35.6868 11.8133 35.5893 11.8795 35.5307 11.899C35.4683 11.9223 35.324 11.9418 35.207 11.9418C35.0743 11.9418 34.9378 11.9145 34.8481 11.8678C34.7662 11.8289 34.6608 11.7511 34.614 11.7005C34.5672 11.6538 34.5009 11.5448 34.4697 11.467C34.4151 11.3346 34.4073 10.8832 34.4073 7.63347C34.4073 4.15412 34.4112 3.93618 34.4814 3.78828C34.5204 3.70266 34.614 3.57423 34.692 3.50807C34.774 3.43802 34.8832 3.36796 34.9417 3.35629Z" fill="#CDCDCD"/>
<path d="M49.0044 3.48083C49.0747 3.42634 49.2034 3.36796 49.2892 3.34461C49.375 3.32515 49.5077 3.31737 49.5818 3.32515C49.6559 3.33683 49.7768 3.36018 49.847 3.38353C49.9133 3.40299 50.0304 3.48472 50.1006 3.57034C50.1669 3.65207 50.2488 3.78828 50.2722 3.87001C50.3073 3.98288 50.3229 4.52774 50.3229 5.9405C50.3229 6.99131 50.3307 7.8553 50.3424 7.8553C50.3541 7.8553 50.7598 7.47001 51.2514 6.9952C51.739 6.52428 52.2149 6.09228 52.3124 6.0339C52.4099 5.97942 52.5543 5.91715 52.6362 5.90158C52.7181 5.88212 52.8468 5.88601 52.9365 5.90936C53.0224 5.93271 53.1472 5.99498 53.2174 6.05725C53.2837 6.11563 53.3734 6.23239 53.4085 6.31801C53.4476 6.40363 53.4827 6.54374 53.4827 6.62936C53.4827 6.72666 53.4437 6.85898 53.3773 6.98741C53.2915 7.14698 53.1004 7.33768 51.7663 8.51692L52.0705 8.87887C52.2383 9.07346 52.6284 9.5366 52.9404 9.89854C53.2525 10.2644 53.5607 10.6302 53.627 10.7158C53.6972 10.8015 53.7752 10.961 53.7986 11.0661C53.8376 11.2218 53.8376 11.2957 53.7986 11.4358C53.7713 11.5331 53.7011 11.6732 53.6465 11.7433C53.588 11.8172 53.4632 11.9145 53.3656 11.9535C53.2447 12.0079 53.1277 12.0235 52.9912 12.0157C52.8429 12.0041 52.7415 11.9651 52.6206 11.8795C52.5152 11.8095 52.0432 11.2607 50.3424 9.16687L50.3229 10.2722C50.3034 11.3074 50.2995 11.3891 50.2215 11.5331C50.1747 11.6188 50.1045 11.7199 50.0655 11.755C50.0226 11.79 49.925 11.8484 49.8431 11.8795C49.7651 11.9145 49.6052 11.9418 49.4959 11.9418C49.3555 11.9418 49.2346 11.9145 49.1137 11.8523C48.9966 11.79 48.8991 11.6966 48.7041 11.3852V3.90504L48.7938 3.74158C48.8406 3.64818 48.9381 3.53142 49.0044 3.48083Z" fill="#CDCDCD"/>
<path d="M31.189 4.46158C31.2593 4.36428 31.3802 4.2592 31.4816 4.20472C31.5947 4.15023 31.7274 4.11909 31.8522 4.11909C31.9614 4.11909 32.1175 4.15412 32.2033 4.19304C32.2891 4.23196 32.3983 4.30591 32.4451 4.3565C32.4919 4.40709 32.5622 4.51996 32.5973 4.60558C32.6519 4.72623 32.6714 4.89358 32.6909 5.94828H32.9757C33.1278 5.94828 33.3228 5.96774 33.4048 5.9872C33.4828 6.01055 33.6115 6.0845 33.6895 6.15455C33.7636 6.22071 33.8456 6.34136 33.8651 6.41531C33.8846 6.48925 33.9002 6.61768 33.9002 6.69941C33.9002 6.77725 33.8768 6.90179 33.8495 6.97185C33.8182 7.03801 33.7402 7.14309 33.6739 7.20536C33.6037 7.26374 33.4828 7.32601 33.4048 7.34936C33.3228 7.36882 33.1278 7.38828 32.6909 7.38828L32.6831 9.36536C32.6714 11.2918 32.6675 11.3424 32.5895 11.4942C32.5427 11.5798 32.4412 11.7083 32.3632 11.7783C32.2813 11.8484 32.1604 11.9145 32.0784 11.9262C31.9965 11.9418 31.8405 11.9457 31.7313 11.9379C31.5791 11.9262 31.4933 11.8912 31.3802 11.8017C31.2944 11.7394 31.189 11.6071 31.1383 11.5098C31.0525 11.3385 31.0525 11.3385 31.0525 7.40774L30.7248 7.38828C30.4752 7.37271 30.3699 7.34936 30.284 7.28709C30.2255 7.24428 30.1358 7.14698 30.0851 7.07304C30.0149 6.96795 29.9993 6.89012 29.9993 6.68774C29.9993 6.50871 30.0266 6.39585 30.0812 6.29855C30.1241 6.2246 30.2216 6.11952 30.2996 6.06504C30.4128 5.9872 30.5064 5.96385 31.0486 5.92882L31.072 4.63282L31.189 4.46158Z" fill="#CDCDCD"/>
<path d="M40.676 6.00666C40.7345 5.96385 40.836 5.90936 40.9023 5.88212C40.9686 5.85877 41.0817 5.83542 41.1558 5.83542C41.2299 5.83152 41.3587 5.85098 41.4406 5.87044C41.5186 5.89379 41.6395 5.95606 41.7059 6.01833C41.7761 6.07671 41.8658 6.19347 41.9126 6.27909C41.9945 6.43087 41.9945 6.4659 41.9945 8.86719C41.9945 11.2685 41.9945 11.3035 41.9126 11.4553C41.8658 11.5409 41.78 11.6538 41.7176 11.7083C41.6551 11.7628 41.5342 11.8328 41.4484 11.8601C41.3626 11.8912 41.2026 11.9068 41.0934 11.899C40.9647 11.8873 40.8438 11.8484 40.7345 11.7783C40.6214 11.7044 40.5395 11.6071 40.3757 11.2607V6.47368L40.4693 6.27909C40.52 6.17401 40.6136 6.04947 40.676 6.00666Z" fill="#CDCDCD"/>
<path d="M44.7564 6.02223C44.8344 5.98331 45.0021 5.92104 45.1269 5.8899C45.2791 5.85098 45.5053 5.83542 45.8564 5.8432C46.2738 5.85488 46.4103 5.87433 46.6366 5.95217C46.7848 6.00666 47.0228 6.12731 47.1632 6.2246C47.3036 6.3219 47.4831 6.48925 47.5611 6.59433C47.6391 6.69941 47.7483 6.88233 47.7991 6.99909C47.8498 7.11585 47.9122 7.30655 47.9395 7.41941C47.9668 7.55174 47.9824 8.24449 47.9824 9.48211C47.9824 11.3346 47.9824 11.3385 47.8966 11.5098C47.8459 11.6071 47.7405 11.7394 47.6547 11.8017C47.5416 11.8912 47.4558 11.9262 47.3036 11.9379C47.1944 11.9457 47.0384 11.9418 46.9604 11.9262C46.8745 11.9145 46.7536 11.8484 46.6717 11.7783C46.5937 11.7083 46.5001 11.5954 46.465 11.5331C46.4103 11.4319 46.3986 11.1868 46.383 9.70395C46.3635 8.02265 46.3596 7.98763 46.2738 7.79693C46.2231 7.69184 46.1373 7.55174 46.0788 7.49336C46.0203 7.43109 45.9032 7.34547 45.8174 7.29876C45.6965 7.2326 45.5951 7.21314 45.3493 7.21314C45.1035 7.21314 45.0021 7.2326 44.8812 7.29876C44.7954 7.34547 44.6783 7.43109 44.6198 7.49336C44.5613 7.55174 44.4755 7.69184 44.4248 7.79693C44.3354 7.98684 44.3351 8.0185 44.3158 9.68325L44.3156 9.70395C44.3 11.2023 44.2883 11.4319 44.2297 11.5331C44.1946 11.5954 44.1166 11.6966 44.0542 11.755C43.9957 11.8133 43.8982 11.8795 43.8396 11.899C43.7772 11.9223 43.6329 11.9418 43.5159 11.9418C43.3988 11.9418 43.2428 11.9184 43.1765 11.8912C43.1063 11.8601 42.9932 11.7783 42.9268 11.7044C42.8644 11.6304 42.7825 11.502 42.7513 11.4164C42.7045 11.2879 42.6967 10.8598 42.6967 6.5126L42.8137 6.30244C42.8917 6.16493 42.9828 6.06633 43.0868 6.00666C43.1726 5.95606 43.3052 5.90547 43.3793 5.89379C43.4535 5.87823 43.6056 5.88601 43.7109 5.90936C43.8201 5.93271 43.9645 5.99498 44.0347 6.04947C44.101 6.10006 44.1829 6.20125 44.257 6.40752L44.4326 6.25185C44.5301 6.16623 44.6744 6.06115 44.7564 6.02223Z" fill="#CDCDCD"/>
<path d="M40.7462 12.5723C40.8126 12.5411 40.914 12.4983 40.9803 12.4828C41.0466 12.4672 41.1285 12.4555 41.1675 12.4516C41.2026 12.4477 41.3158 12.4711 41.4172 12.4983C41.5264 12.5256 41.6707 12.6073 41.7761 12.7007C41.8697 12.7863 41.9828 12.9264 42.0179 13.0121C42.0608 13.1016 42.092 13.2572 42.092 13.3818C42.092 13.5102 42.0608 13.6581 42.0179 13.7515C41.9789 13.8371 41.8853 13.9617 41.8151 14.0317C41.741 14.1018 41.6161 14.1835 41.5381 14.2146C41.4562 14.2497 41.2924 14.2769 41.1753 14.2769C41.0583 14.2769 40.9023 14.2536 40.836 14.2263C40.7657 14.1952 40.6487 14.1212 40.5746 14.059C40.5044 13.9967 40.4069 13.876 40.3639 13.7904C40.3054 13.6815 40.282 13.5608 40.282 13.3818C40.282 13.2105 40.3054 13.0821 40.3522 12.9926C40.3913 12.9186 40.4693 12.8058 40.5278 12.7474C40.5824 12.6851 40.6799 12.6073 40.7462 12.5723Z" fill="#CDCDCD"/>
<path fill-rule="evenodd" clip-rule="evenodd" d="M0.286542 15.8054C6.48116 15.8171 6.53968 15.8171 6.88686 15.8988C7.0819 15.9416 7.35106 16.0233 7.4915 16.0739C7.63193 16.1245 7.84648 16.2257 7.97521 16.2996C8.10004 16.3736 8.29898 16.5409 8.41991 16.6694C8.54474 16.8056 8.68907 17.0196 8.76319 17.1753C8.8334 17.3271 8.92313 17.5956 8.95823 17.7786C9.00895 18.0315 9.01675 18.2183 9.00114 18.5764C8.98944 18.8333 8.94263 19.2108 8.89972 19.4132C8.85681 19.6155 8.68907 20.246 8.52913 20.8142C8.3692 21.3824 8.18586 21.9779 8.12344 22.1375C8.06103 22.297 7.9362 22.5773 7.84258 22.7602C7.75286 22.9431 7.57732 23.2389 7.45639 23.4218C7.33546 23.6047 7.0702 23.92 6.86735 24.1262C6.65671 24.3364 6.34464 24.5971 6.14569 24.7256C5.95064 24.854 5.63857 25.0253 5.44353 25.1109C5.24848 25.1926 4.8974 25.3094 4.66335 25.3677C4.42929 25.43 4.07821 25.4962 3.88317 25.5195C3.65692 25.5468 2.49445 25.5623 0.633721 25.5623C-2.0891 25.5623 -2.26074 25.5662 -2.28025 25.6285C-2.28805 25.6674 -2.60402 26.8038 -2.98241 28.1504C-3.3608 29.497 -3.68457 30.6607 -3.74308 30.8553H-6.96132C-10.0079 30.8553 -10.1796 30.8514 -10.164 30.7852C-10.1523 30.7502 -9.21214 27.3837 -8.07308 23.305C-6.93402 19.2263 -5.9939 15.8676 -5.9861 15.8404C-5.97049 15.8015 -4.77292 15.7937 0.286542 15.8054ZM-0.907131 20.7364L-1.34793 22.3126C-0.259583 22.3321 0.0485868 22.3165 0.282641 22.2737C0.473785 22.2426 0.735145 22.1725 0.867775 22.118C1.00431 22.0635 1.21886 21.939 1.34759 21.8456C1.47632 21.7483 1.64015 21.5965 1.71427 21.5031C1.78449 21.4136 1.89371 21.2346 1.95613 21.1061C2.01854 20.9777 2.09266 20.7675 2.12777 20.6391C2.15897 20.5107 2.18628 20.2888 2.18628 20.1409C2.18628 19.9969 2.16287 19.8218 2.13557 19.7517C2.10436 19.6856 2.03024 19.5688 1.96783 19.4949C1.90541 19.4209 1.77278 19.3236 1.66746 19.273C1.56604 19.2225 1.37489 19.1524 1.23836 19.1213C1.07062 19.0823 0.778055 19.0629 0.282641 19.0629C-0.251781 19.0629 -0.435123 19.0746 -0.446826 19.1096C-0.458529 19.1368 -0.665277 19.8685 -0.907131 20.7364ZM18.1214 15.7937C21.9287 15.7937 25.0455 15.7976 25.0455 15.8015C25.0455 15.8093 24.8427 16.5371 24.5969 17.4166C24.3512 18.3001 24.1483 19.0317 24.1483 19.0434C24.1483 19.0551 22.4748 19.0629 16.7171 19.0629L16.3543 20.3589C16.1554 21.0672 15.9955 21.6627 15.9955 21.6782C15.9955 21.6977 17.4232 21.7133 22.3422 21.7288L22.0418 22.7991C21.878 23.3868 21.6752 24.1107 21.4372 24.9435L15.0787 24.9396L14.7121 26.2317C14.5131 26.9439 14.3415 27.5511 14.3337 27.5744C14.322 27.6134 15.0787 27.625 18.0239 27.625C20.0602 27.625 21.7298 27.6367 21.7298 27.6523C21.7298 27.6717 21.5308 28.3917 20.8443 30.8358L6.98438 30.8553L7.00779 30.7463C7.01949 30.6879 7.9596 27.3137 9.09867 23.2467C10.2377 19.1796 11.1739 15.8404 11.1856 15.8209C11.1934 15.8054 14.3181 15.7937 18.1214 15.7937ZM26.3016 15.7937H32.2778C36.1514 15.7937 38.3944 15.8093 38.6597 15.8326C38.8859 15.856 39.2331 15.9182 39.432 15.9688C39.6271 16.0233 39.9001 16.1206 40.0367 16.1868C40.1693 16.2529 40.3682 16.3736 40.4736 16.4553C40.5828 16.5371 40.731 16.6888 40.809 16.7939C40.8871 16.8951 40.9885 17.0508 41.0314 17.1364C41.0743 17.222 41.1367 17.3894 41.1718 17.5061C41.2069 17.6229 41.2499 17.8681 41.2694 18.051C41.2889 18.2339 41.2889 18.5492 41.2733 18.7515C41.2538 18.9539 41.2108 19.2614 41.1757 19.4326C41.1367 19.6039 41.0041 20.1215 40.8754 20.5807C40.7466 21.04 40.5828 21.6004 40.5087 21.8261C40.4346 22.0519 40.2785 22.4294 40.1693 22.6629C40.0562 22.8964 39.8494 23.2583 39.7129 23.4607C39.5725 23.6631 39.3111 23.9783 39.1278 24.1613C38.9444 24.3442 38.648 24.5933 38.4646 24.7139C38.2813 24.8345 38.0004 24.9941 37.8405 25.0681C37.6805 25.142 37.3997 25.2471 37.2163 25.3016C37.033 25.3561 36.7365 25.43 36.5532 25.465C36.3698 25.5001 36.0148 25.539 35.7613 25.5545C35.5116 25.5701 35.3049 25.5857 35.3049 25.5896C35.3049 25.5974 36.1358 26.7532 37.1539 28.1582C38.172 29.5671 39.0146 30.7502 39.0263 30.7852C39.0497 30.8514 38.8703 30.8553 32.0866 30.8358L30.8189 29.0923C30.1206 28.131 29.5394 27.3604 29.5238 27.3798C29.5121 27.3954 29.2858 28.1738 29.0244 29.1039C28.767 30.0341 28.5368 30.8086 28.5173 30.828C28.4978 30.8436 27.0467 30.8514 22.0926 30.8358L23.9767 24.1029C25.0143 20.3978 25.9622 17.0158 26.0832 16.5799L26.3016 15.7937ZM31.3884 20.6624C31.1621 21.4642 30.9632 22.1725 30.9476 22.2348L30.9125 22.3476C32.4182 22.3087 32.6016 22.2893 32.8434 22.2192C33.0073 22.1725 33.2413 22.0791 33.37 22.009C33.4988 21.9429 33.7055 21.7911 33.8225 21.6743C33.9435 21.5537 34.0917 21.3708 34.1541 21.2657C34.2165 21.1567 34.3024 20.9543 34.3492 20.8181C34.396 20.678 34.4467 20.4679 34.4623 20.3511C34.4779 20.2266 34.474 20.0436 34.4506 19.923C34.4194 19.7595 34.3648 19.6583 34.2399 19.5143C34.1385 19.3976 33.9981 19.2886 33.8772 19.238C33.7718 19.1913 33.5768 19.1329 33.4481 19.1096C33.3193 19.0823 32.9058 19.0629 32.5275 19.0629C31.9033 19.0629 31.8331 19.0707 31.8136 19.1329C31.8058 19.1719 31.6107 19.8568 31.3884 20.6624ZM52.6054 15.7976C57.3762 15.7976 61.281 15.8054 61.281 15.8171C61.281 15.8248 61.1132 16.4359 60.9104 17.1675C60.7036 17.8992 60.5047 18.6192 60.3838 19.0279H54.9225L54.8874 19.1524C54.8679 19.2225 54.1384 21.8261 53.2685 24.9435C52.3947 28.057 51.6652 30.6607 51.6067 30.8592H48.3885C46.6214 30.8592 45.1703 30.8475 45.1703 30.8397C45.1703 30.828 45.9036 28.2127 46.793 25.0291C47.6863 21.8456 48.4275 19.1913 48.4665 19.024H45.7476C44.2496 19.024 43.0248 19.0123 43.0248 18.9967C43.0248 18.9812 43.2198 18.2689 43.4578 17.4127C43.6996 16.5565 43.9025 15.8404 43.9103 15.8248C43.9181 15.8093 47.8307 15.7976 52.6054 15.7976ZM62.5409 15.7976H65.7514C67.8696 15.7976 68.9657 15.8093 68.9657 15.8365C68.9657 15.856 68.6341 17.0702 68.2245 18.5297C67.815 19.9892 67.4444 21.3046 67.3273 21.7133L71.591 21.6938L72.4063 18.7749C72.8549 17.1675 73.2372 15.8404 73.2528 15.8248C73.2684 15.8093 74.7195 15.8015 79.6854 15.8171L77.6101 23.2311C76.4671 27.3059 75.5231 30.6918 75.4802 30.8592H72.262C70.4949 30.8592 69.0437 30.8436 69.0437 30.828C69.0437 30.8125 69.4026 29.5204 69.8395 27.9597C70.2764 26.3952 70.6431 25.0758 70.6821 24.9435L66.4223 24.963L65.607 27.8819C65.1545 29.4853 64.7723 30.8125 64.7528 30.828C64.7371 30.8436 63.2821 30.8514 58.328 30.8397L60.1731 24.243C61.1912 20.6119 62.1392 17.2298 62.2796 16.72L62.5409 15.7976Z" fill="#CDCDCD"/>
<path fill-rule="evenodd" clip-rule="evenodd" d="M114.436 2.53063C114.798 2.52674 115.309 2.54231 115.567 2.56176C115.824 2.58512 116.226 2.62793 116.464 2.66295C116.702 2.69409 117.131 2.77582 117.42 2.83809C117.708 2.90036 118.184 3.02101 118.473 3.11052C118.762 3.19614 119.245 3.36349 119.546 3.48414C119.846 3.6009 120.345 3.82663 120.657 3.9823C120.97 4.14187 121.442 4.40652 121.711 4.57387C121.98 4.74122 122.374 5.00976 122.588 5.16543C122.803 5.325 123.138 5.58576 123.33 5.74922C123.521 5.90878 123.891 6.25516 124.149 6.51203C124.406 6.76889 124.753 7.13862 124.913 7.32932C125.077 7.52002 125.339 7.85473 125.498 8.06878C125.654 8.28283 125.924 8.67591 126.091 8.94445C126.259 9.21299 126.524 9.68391 126.684 9.99526C126.84 10.3066 127.067 10.8048 127.184 11.1045C127.305 11.4041 127.472 11.8867 127.558 12.1747C127.648 12.4627 127.769 12.9375 127.835 13.2255C127.898 13.5135 127.987 14.0389 128.038 14.3931C128.108 14.9185 128.124 15.2298 128.124 16.0861C128.128 16.7282 128.108 17.2964 128.077 17.5455C128.05 17.7712 127.991 18.1643 127.948 18.4212C127.905 18.6781 127.812 19.1256 127.738 19.4136C127.667 19.7016 127.546 20.1219 127.472 20.3477C127.398 20.5734 127.273 20.9237 127.191 21.1261C127.113 21.3284 126.903 21.7916 126.719 22.1574C126.54 22.5232 126.275 23.0058 126.13 23.2355C125.982 23.469 125.756 23.8076 125.623 23.9944C125.491 24.1851 125.268 24.477 125.132 24.6482C124.991 24.8194 124.714 25.1347 124.515 25.3526C124.313 25.5667 123.981 25.9014 123.778 26.0882C123.575 26.2789 123.224 26.5825 122.998 26.7615C122.772 26.9405 122.343 27.2519 122.042 27.4504C121.742 27.6488 121.285 27.9252 121.028 28.0653C120.771 28.2093 120.322 28.4272 120.033 28.5518C119.745 28.6802 119.241 28.8748 118.922 28.9838C118.598 29.0966 118.091 29.2445 117.79 29.3185C117.49 29.3924 116.963 29.4975 116.62 29.552C116.277 29.6065 115.66 29.6687 115.255 29.696C114.685 29.731 114.334 29.731 113.733 29.696C113.304 29.6687 112.762 29.622 112.524 29.5909C112.286 29.5559 111.869 29.4858 111.588 29.4313C111.307 29.373 110.843 29.264 110.554 29.1784C110.265 29.0966 109.844 28.9604 109.618 28.8748C109.392 28.7931 109.025 28.6413 108.799 28.5401C108.572 28.4428 108.221 28.2677 108.019 28.1548C107.816 28.0419 107.156 27.6527 105.463 26.6331L107.589 26.6136L107.929 26.8199C108.12 26.9366 108.44 27.1196 108.643 27.2285C108.846 27.3375 109.24 27.5243 109.52 27.645C109.801 27.7656 110.254 27.9407 110.535 28.0341C110.815 28.1276 111.233 28.2482 111.471 28.3066C111.709 28.365 112.146 28.4506 112.446 28.5012C112.746 28.5518 113.265 28.614 113.597 28.6413C113.964 28.6685 114.478 28.6763 114.904 28.6646C115.29 28.6491 115.816 28.614 116.074 28.579C116.331 28.5479 116.768 28.4739 117.049 28.4194C117.33 28.3611 117.794 28.2482 118.083 28.1626C118.372 28.0808 118.836 27.9213 119.117 27.8123C119.397 27.7033 119.885 27.4776 120.209 27.3141C120.529 27.1507 120.973 26.9055 121.196 26.7693C121.418 26.6292 121.812 26.3567 122.073 26.1583C122.335 25.9637 122.741 25.6329 122.975 25.4188C123.213 25.2086 123.587 24.835 123.809 24.5898C124.036 24.3446 124.379 23.9282 124.574 23.6674C124.769 23.4067 125.042 23.0136 125.179 22.7918C125.319 22.5738 125.549 22.1613 125.693 21.885C125.838 21.6086 126.021 21.2311 126.099 21.0482C126.177 20.8653 126.322 20.4878 126.415 20.2115C126.513 19.9351 126.634 19.5304 126.688 19.3163C126.743 19.1023 126.821 18.7676 126.86 18.5769C126.899 18.3862 126.965 18.0087 127 17.7401C127.055 17.3665 127.071 16.9929 127.071 16.125C127.071 15.2688 127.055 14.8835 127.008 14.5293C126.969 14.2724 126.895 13.8327 126.836 13.5563C126.782 13.28 126.669 12.8208 126.587 12.5444C126.501 12.2681 126.341 11.8011 126.224 11.5131C126.107 11.2251 125.904 10.7697 125.768 10.5012C125.635 10.2327 125.417 9.83959 125.288 9.62553C125.159 9.41148 124.929 9.06121 124.777 8.84716C124.625 8.6331 124.371 8.2984 124.211 8.1077C124.051 7.917 123.731 7.56673 123.505 7.33711C123.279 7.10359 122.904 6.75332 122.674 6.55873C122.44 6.36024 122.081 6.08003 121.875 5.93214C121.668 5.78424 121.317 5.55073 121.098 5.41452C120.876 5.2783 120.439 5.04089 120.119 4.88133C119.803 4.72565 119.292 4.49992 118.98 4.37927C118.668 4.26252 118.188 4.10295 117.907 4.02511C117.626 3.95117 117.225 3.85387 117.01 3.81106C116.796 3.76825 116.402 3.70209 116.132 3.66317C115.766 3.61257 115.372 3.59701 114.553 3.59311C113.87 3.59311 113.308 3.61257 113.051 3.64371C112.824 3.67095 112.458 3.72933 112.232 3.77214C112.005 3.81495 111.619 3.90057 111.373 3.96284C111.128 4.02511 110.722 4.14576 110.476 4.22749C110.23 4.31311 109.875 4.44544 109.684 4.52327C109.497 4.60111 109.138 4.76457 108.888 4.893C108.635 5.01754 108.26 5.21992 108.058 5.34446C107.855 5.46511 107.523 5.67916 106.965 6.06446H106.002C105.229 6.06446 105.05 6.05668 105.089 6.01776C105.116 5.99051 105.424 5.79203 105.776 5.57797C106.123 5.36392 106.661 5.01754 106.969 4.81127C107.277 4.605 107.757 4.30922 108.038 4.16133C108.319 4.00955 108.728 3.80328 108.955 3.70598C109.181 3.60868 109.567 3.45301 109.813 3.3596C110.059 3.2662 110.515 3.1222 110.827 3.03268C111.139 2.94706 111.611 2.8342 111.88 2.77971C112.15 2.72912 112.606 2.65906 112.895 2.62403C113.183 2.58901 113.499 2.55787 113.597 2.55009C113.694 2.54231 114.073 2.53452 114.436 2.53063ZM103.24 7.11527H104.43C105.085 7.11527 105.631 7.12694 105.647 7.14251C105.662 7.15808 105.518 7.341 105.327 7.54338C105.136 7.74575 104.847 8.08046 104.683 8.28283C104.519 8.48521 104.25 8.85494 104.083 9.10013C103.919 9.34532 103.731 9.6411 103.552 9.95634H101.059C99.4444 9.95634 98.5745 9.94467 98.6018 9.91743C98.6213 9.89797 99.6745 9.2597 100.938 8.49689L103.24 7.11527ZM120.65 7.74575C120.845 7.73797 120.884 7.75743 122.237 8.60197L123.193 8.55527L123.174 8.6837C123.162 8.75375 123.119 9.08845 123.076 9.43094C123.029 9.77343 122.99 10.0731 122.982 10.0926C122.975 10.1159 122.78 10.1548 122.545 10.186C122.311 10.2132 122.097 10.2443 122.07 10.2521C122.046 10.2638 122.023 10.2405 122.023 10.2015C122.023 10.1626 122.066 9.80067 122.12 9.39202C122.175 8.98727 122.214 8.65256 122.21 8.64867C122.202 8.64478 121.917 8.67591 121.574 8.71872C121.231 8.76154 120.946 8.79656 120.946 8.80045C120.942 8.80435 120.997 9.17018 121.071 9.60607C121.141 10.0459 121.196 10.4078 121.192 10.4156C121.188 10.4195 120.966 10.4856 120.696 10.5596C120.427 10.6374 120.209 10.6958 120.205 10.688C120.205 10.6841 120.146 10.3377 120.076 9.91743C120.01 9.50099 119.955 9.14294 119.955 9.11959C119.951 9.10013 120.166 9.02229 120.423 8.94445C120.681 8.87051 120.888 8.79656 120.884 8.7771C120.876 8.76154 120.591 8.57862 120.252 8.36846C119.912 8.16219 119.624 7.97538 119.616 7.95202C119.608 7.93256 119.756 7.88586 119.944 7.84694C120.135 7.81192 120.322 7.773 120.365 7.76521C120.408 7.75743 120.537 7.74575 120.646 7.74575H120.65ZM117.989 8.51635C118.032 8.51635 118.461 8.64089 118.945 8.79656C119.429 8.94835 119.846 9.08456 119.873 9.09624C119.901 9.1118 119.655 9.24024 118.73 9.64499L117.88 9.38424C117.412 9.24024 117.026 9.10402 117.026 9.08067C117.022 9.06121 117.221 8.92499 117.467 8.781C117.712 8.637 117.946 8.52024 117.989 8.51635ZM118.68 9.6878C118.699 9.6878 118.762 9.81234 118.824 9.96802C118.89 10.1237 119.019 10.4389 119.296 11.085L119.031 11.229C118.886 11.3068 118.695 11.4197 118.438 11.5909L118.403 11.5053C118.383 11.4586 118.254 11.1473 118.11 10.8126C117.97 10.4817 117.864 10.2015 117.876 10.1899C117.888 10.1821 118.067 10.0614 118.274 9.9291C118.485 9.79678 118.664 9.6878 118.68 9.6878ZM115.992 9.89797C116.015 9.90575 116.417 9.97969 116.877 10.0575C117.338 10.1393 117.732 10.2132 117.747 10.2249C117.767 10.2405 117.568 10.4234 116.842 11.0266L116.023 10.8904C115.575 10.8165 115.196 10.7464 115.184 10.7347C115.169 10.7269 115.337 10.5285 115.551 10.2988C115.766 10.0731 115.965 9.89018 115.992 9.89797ZM96.6903 11.05H99.8423C102.343 11.0461 102.986 11.0577 102.975 11.0967C102.967 11.1239 102.881 11.3457 102.784 11.5909C102.686 11.84 102.546 12.2409 102.471 12.4861C102.397 12.7351 102.296 13.1204 102.249 13.3423C102.202 13.568 102.155 13.7743 102.148 13.8015C102.136 13.8404 101.094 13.8482 97.1116 13.8482C94.065 13.8482 92.1068 13.8366 92.1302 13.8132C92.1497 13.7937 93.1834 13.1633 94.4278 12.416L96.6903 11.05ZM116.792 11.1239C116.803 11.1239 116.991 11.3652 117.205 11.6571C117.42 11.9529 117.595 12.2097 117.595 12.2331C117.599 12.2526 117.467 12.4316 117.307 12.6301C117.147 12.8247 117.006 12.9881 116.994 12.992C116.983 12.992 116.796 12.7585 116.577 12.4666C116.355 12.1786 116.168 11.914 116.156 11.8828C116.144 11.8478 116.261 11.6882 116.452 11.4742C116.628 11.2796 116.78 11.1239 116.792 11.1239ZM114.478 11.7077C114.498 11.7077 114.833 11.7544 115.22 11.8089C115.606 11.8673 115.937 11.9256 115.961 11.9451C115.984 11.9646 115.914 12.1124 115.77 12.3382C115.641 12.5367 115.536 12.7196 115.536 12.7429C115.532 12.7663 115.746 13.027 116.487 13.8482L116.355 14.1674C116.285 14.3464 116.203 14.5604 116.128 14.8017L116.039 14.7044C115.992 14.65 115.746 14.3814 115.044 13.6147L115.259 13.1944C115.376 12.9648 115.469 12.7741 115.461 12.7702C115.458 12.7663 115.13 12.7157 114.732 12.6573C114.334 12.5989 114.006 12.5483 114.003 12.5406C113.995 12.5328 114.057 12.3966 114.143 12.2409C114.225 12.0852 114.326 11.9023 114.365 11.8322C114.404 11.7622 114.455 11.7077 114.478 11.7077ZM115.021 13.677C115.025 13.6809 114.954 13.8794 114.705 14.5682L114.104 14.6538C113.772 14.7006 113.425 14.7511 113.152 14.7901L113.183 14.6616C113.199 14.5877 113.257 14.3892 113.402 13.9066L114.209 13.7898C114.654 13.7237 115.017 13.6731 115.021 13.677ZM114.732 14.5955C114.751 14.5994 115.017 14.8212 115.883 15.5568L115.813 15.8993C115.774 16.0861 115.731 16.2884 115.715 16.3468C115.688 16.448 115.68 16.4441 115.103 15.9498C114.783 15.6774 114.506 15.4634 114.494 15.475C114.478 15.4906 114.436 15.6657 114.397 15.8681C114.354 16.0705 114.307 16.2378 114.283 16.2456C114.26 16.2534 113.936 16.2845 113.562 16.3196C113.187 16.3546 112.875 16.378 112.871 16.3702C112.867 16.3624 112.891 16.1756 112.922 15.9498C112.957 15.7241 112.984 15.5373 112.988 15.5334C112.992 15.5295 113.32 15.4945 113.718 15.4595C114.116 15.4244 114.451 15.3816 114.471 15.37C114.486 15.3583 114.525 15.2415 114.56 15.1131C114.592 14.9847 114.638 14.8134 114.662 14.7317C114.685 14.65 114.716 14.5877 114.732 14.5955ZM90.2148 14.9457L101.957 14.938L101.96 16.0744C101.96 16.701 101.98 17.3315 102.035 17.7401H90.6634L89.3879 16.9734C88.4672 16.4247 88.124 16.2028 88.1669 16.1795C88.1981 16.16 88.674 15.8759 89.2201 15.5451L90.2148 14.9457ZM114.385 16.2612C114.404 16.2612 114.685 16.4791 115.598 17.2147L115.571 17.5261C115.555 17.6973 115.532 17.9075 115.493 18.141L114.252 17.1369L114.276 16.9617C114.291 16.8683 114.311 16.6698 114.326 16.5258C114.342 16.3818 114.365 16.2612 114.385 16.2612ZM114.198 17.1991C114.279 17.1991 114.299 17.2108 114.287 17.2653C114.276 17.3042 114.256 17.4871 114.237 17.6778C114.221 17.8685 114.198 18.0281 114.186 18.0359C114.174 18.0437 113.843 18.1098 113.445 18.1877C113.047 18.2655 112.723 18.3239 112.719 18.3161C112.715 18.3122 112.727 18.1293 112.739 17.9114C112.75 17.6934 112.778 17.4988 112.797 17.4832C112.813 17.4638 113.113 17.3937 113.46 17.3276C113.804 17.2614 114.135 17.203 114.198 17.1991ZM114.252 18.1059C114.279 18.1215 114.556 18.32 114.869 18.5496C115.255 18.8337 115.43 18.9855 115.419 19.0244C115.411 19.0595 115.387 19.2151 115.372 19.3747C115.356 19.5382 115.333 19.7055 115.321 19.7522C115.302 19.8301 115.247 19.7989 114.135 18.9661L114.162 18.8298C114.174 18.7559 114.19 18.5574 114.19 18.3901C114.198 18.1488 114.209 18.0904 114.252 18.1059ZM102.23 18.8298L102.319 19.2112C102.37 19.4214 102.487 19.8184 102.581 20.0947C102.674 20.3749 102.846 20.8264 102.967 21.0988C103.088 21.3712 103.185 21.6125 103.185 21.632C103.185 21.6592 102.163 21.6709 97.1974 21.6709L94.8959 20.2854C93.632 19.5265 92.5788 18.8882 92.5554 18.8649C92.532 18.8454 94.3732 18.8298 102.23 18.8298ZM114.12 19.0322C114.17 19.0283 114.182 19.0478 114.17 19.1139C114.159 19.1606 114.143 19.3514 114.108 19.8612L114.654 20.301C115.153 20.7018 115.2 20.7485 115.181 20.8458C115.173 20.9042 115.142 21.0755 115.118 21.2233C115.095 21.3751 115.064 21.5191 115.048 21.5464C115.032 21.5775 114.865 21.4685 114.537 21.2117C114.237 20.9743 114.042 20.8419 114.026 20.8692C114.014 20.8925 113.979 21.0793 113.905 21.6515L114.849 22.5855L114.732 22.9942C114.67 23.2199 114.611 23.4106 114.607 23.4145C114.599 23.4223 114.416 23.2316 114.194 22.998C113.975 22.7606 113.784 22.566 113.765 22.566C113.749 22.566 113.698 22.7295 113.648 22.928C113.601 23.1265 113.562 23.3094 113.562 23.3366C113.562 23.3639 113.729 23.5935 114.303 24.3174L114.135 24.6949C114.045 24.9012 113.96 25.0763 113.94 25.0841C113.924 25.0919 113.772 24.9167 113.597 24.6988C113.425 24.4809 113.273 24.294 113.257 24.2902C113.242 24.2863 113.14 24.4692 112.832 25.1152L113.156 25.5044C113.472 25.8897 113.476 25.8975 113.417 25.9909C113.382 26.0454 113.265 26.2011 113.156 26.3334C113.047 26.4696 112.945 26.5786 112.926 26.5786C112.91 26.5786 112.766 26.419 112.313 25.8741L111.923 26.205C111.709 26.3879 111.522 26.5358 111.502 26.5358C111.486 26.5358 111.077 26.4968 110.593 26.4501C110.106 26.3996 109.696 26.3528 109.684 26.3412C109.673 26.3334 109.805 26.2361 109.981 26.131C110.16 26.022 110.382 25.8741 110.656 25.6679L111.397 25.7535C111.802 25.8002 112.181 25.8391 112.235 25.8352C112.313 25.8352 112.372 25.773 112.782 25.1347L112.029 25.1386C111.619 25.1386 111.268 25.1308 111.252 25.1191C111.233 25.1074 111.284 25.0063 111.362 24.8934C111.44 24.7805 111.553 24.5898 111.728 24.2396L113.23 24.2434L113.523 23.3639L112.04 23.4223L112.068 23.3366C112.079 23.2899 112.13 23.0992 112.267 22.5855L112.629 22.5622C112.832 22.5505 113.164 22.5349 113.737 22.531L113.815 22.1029C113.858 21.8694 113.885 21.6709 113.874 21.6631C113.862 21.6515 113.531 21.6982 113.133 21.7565C112.735 21.8188 112.407 21.8616 112.403 21.8577C112.399 21.8538 112.423 21.6631 112.454 21.4374C112.485 21.2156 112.524 21.021 112.536 21.0093C112.547 21.0015 112.883 20.9431 113.285 20.8848C113.683 20.8225 114.014 20.7719 114.018 20.768C114.018 20.7602 114.042 20.5656 114.065 20.3282C114.088 20.0947 114.104 19.9001 114.096 19.8962C114.092 19.8923 113.753 19.9663 113.347 20.0597C112.941 20.1531 112.602 20.227 112.598 20.2231C112.594 20.2153 112.598 20.0363 112.61 19.8223C112.622 19.6082 112.645 19.4175 112.657 19.3942C112.672 19.3669 112.992 19.2774 113.367 19.1918C113.741 19.1062 114.081 19.0322 114.12 19.0322ZM103.809 22.7217L104.051 23.0837C104.18 23.2822 104.406 23.5935 104.547 23.7803C104.687 23.9632 104.988 24.3213 105.214 24.5743C105.44 24.8233 105.74 25.1347 105.889 25.2592C106.033 25.3838 106.142 25.5044 106.131 25.5239C106.119 25.5511 105.666 25.5628 103.673 25.5628L101.344 24.1617C100.061 23.3911 99.0114 22.7529 99.0114 22.7412C99.0114 22.7334 100.092 22.7217 103.809 22.7217Z" fill="#CDCDCD"/>
</svg>
