<svg width="188" height="47" viewBox="0 0 188 47" fill="none" xmlns="http://www.w3.org/2000/svg">
<path fill-rule="evenodd" clip-rule="evenodd" d="M7.6811 0.569976C7.84729 0.560264 8.32631 0.657389 9.46031 0.997326V1.35669C9.46031 1.56065 9.44076 1.79375 9.41144 1.87145C9.37233 1.988 9.28435 1.97829 8.90309 1.76461C8.50228 1.55094 8.33609 1.5218 7.78864 1.55094C7.25097 1.57036 7.08478 1.62864 6.77195 1.87145C6.56665 2.02685 6.31248 2.33765 6.21472 2.55133C6.11696 2.765 6.03876 3.14379 6.03876 3.40602C6.03876 3.65855 6.09741 4.0082 6.17562 4.17331C6.24405 4.34814 6.4689 4.64922 6.66441 4.83376C6.99679 5.14456 7.08478 5.1737 7.72998 5.20284C8.33609 5.23197 8.50228 5.20284 9.36256 4.73664L9.31368 5.84386L8.72712 6.0284C8.29698 6.16437 7.97438 6.19351 7.50514 6.15466C7.09455 6.11581 6.68396 6.00897 6.34181 5.83415C6.02898 5.67875 5.66727 5.38737 5.48153 5.14456C5.30557 4.92117 5.11005 4.5521 5.05139 4.319C4.98296 4.09561 4.93408 3.64884 4.93408 3.32833C4.93408 2.95925 5.01229 2.57075 5.14915 2.25995C5.25669 1.988 5.49131 1.62864 5.66727 1.46353C5.84324 1.2887 6.30271 1.01675 6.67419 0.861351C7.05545 0.705951 7.50514 0.569976 7.6811 0.569976ZM24.7889 0.569976C24.9551 0.560264 25.3852 0.647676 26.3726 0.948763V2.11426L26.0109 1.84231C25.7763 1.6772 25.4928 1.57036 25.2093 1.54123C24.9649 1.5218 24.5934 1.53151 24.3979 1.57036C24.1828 1.5995 23.8797 1.76461 23.6744 1.93944C23.4789 2.11426 23.2541 2.38621 23.1661 2.55133C23.0879 2.71644 23.0195 3.09523 23.0195 3.42545C23.0195 3.75567 23.0879 4.13446 23.1759 4.29957C23.2541 4.45497 23.43 4.68807 23.5571 4.79491C23.6744 4.91146 23.8797 5.05715 24.0068 5.11542C24.1241 5.1737 24.4663 5.22226 24.7596 5.22226C25.0528 5.22226 25.4634 5.15427 25.6687 5.06686C25.8642 4.98916 26.1086 4.84347 26.2064 4.75606C26.3726 4.60066 26.3824 4.62009 26.3726 5.80501L25.9131 5.97012C25.6101 6.08667 25.1702 6.14495 24.7107 6.14495C24.1437 6.13524 23.8602 6.08667 23.4496 5.90214C23.1563 5.76616 22.7555 5.47479 22.5502 5.24169C22.296 4.97945 22.1103 4.63951 22.0125 4.27044C21.9148 3.94021 21.8659 3.50315 21.8952 3.18264C21.9148 2.88155 22.0419 2.41535 22.1885 2.11426C22.3351 1.80346 22.5991 1.45381 22.8239 1.2887C23.0292 1.12359 23.4789 0.900201 23.8309 0.783651C24.1828 0.667101 24.6129 0.569976 24.7889 0.569976ZM45.0445 0.569976C45.2303 0.560264 45.4356 0.589401 45.4844 0.637964C45.5431 0.686526 45.7582 0.773939 45.9732 0.832214C46.1883 0.890489 46.55 1.07503 46.7846 1.23043C47.0095 1.39554 47.3027 1.71605 47.4396 1.93944C47.5667 2.17254 47.7329 2.61931 47.7915 2.93983C47.8893 3.43516 47.8795 3.60999 47.7329 4.10532C47.6449 4.42584 47.4396 4.87261 47.2832 5.096C47.0779 5.4068 46.8237 5.60105 46.3447 5.82444C45.7875 6.09639 45.5724 6.14495 44.9956 6.14495C44.458 6.14495 44.194 6.08667 43.7737 5.89242C43.4706 5.74674 43.0698 5.44565 42.8645 5.21255C42.669 4.97945 42.4344 4.59095 42.3562 4.34814C42.2682 4.10532 42.2095 3.67797 42.2095 3.39631C42.2095 3.12436 42.2975 2.65816 42.405 2.3765C42.5126 2.10455 42.757 1.70634 42.9623 1.51209C43.1676 1.30813 43.6368 1.01675 44.0181 0.861351C44.3993 0.705951 44.8588 0.569976 45.0445 0.569976ZM43.5977 2.59989C43.4804 2.8427 43.3826 3.21178 43.3826 3.42545C43.3826 3.63912 43.4804 4.0082 43.5977 4.2413C43.7248 4.48411 43.9496 4.76577 44.0963 4.87261C44.3113 5.02801 44.5264 5.07657 44.9956 5.07657C45.4649 5.07657 45.68 5.02801 45.8852 4.88232C46.0221 4.77549 46.2372 4.56181 46.3545 4.41612C46.5011 4.22187 46.5696 3.95964 46.5891 3.542C46.6184 3.05638 46.5793 2.85241 46.3936 2.51248C46.2567 2.25995 46.0319 2.01714 45.8266 1.9103C45.6213 1.79375 45.2889 1.72576 44.9859 1.72576C44.6437 1.72576 44.3993 1.79375 44.1549 1.94915C43.9692 2.0657 43.7248 2.35708 43.5977 2.59989ZM180.636 9.62202C181.32 9.65116 181.574 9.70943 182.053 9.94253C182.396 10.1076 182.894 10.4767 183.862 11.4383L184.321 11.176C184.585 11.04 185.113 10.6807 185.504 10.3796C185.905 10.0785 186.306 9.77742 186.414 9.71915C186.511 9.65116 186.638 9.61231 186.697 9.64145C186.765 9.67058 186.795 11.9822 186.795 16.2751C186.795 19.8881 186.775 22.9476 186.746 23.0738C186.717 23.2098 186.629 23.2875 186.502 23.2875C186.394 23.2875 186.286 23.2098 186.257 23.1224C186.238 23.0253 186.081 22.0055 185.915 20.8594C185.749 19.7133 185.455 18.0525 185.27 17.1686C185.084 16.2848 184.801 15.129 184.634 14.5948C184.468 14.0606 184.224 13.3613 184.077 13.0408C183.94 12.7203 183.647 12.1764 183.422 11.8268C183.178 11.448 182.796 11.04 182.484 10.8069C182.024 10.467 181.887 10.4184 181.32 10.3796C180.783 10.3407 180.626 10.3699 180.304 10.5738C180.089 10.7001 179.766 10.9818 179.59 11.1954C179.404 11.4091 179.189 11.8268 179.091 12.1181C178.984 12.4775 178.935 12.9728 178.945 13.6236C178.955 14.3617 179.033 14.8668 179.248 15.7118C179.414 16.3236 179.717 17.2852 179.932 17.8485C180.147 18.4118 180.47 19.1985 180.636 19.5968C180.802 19.995 181.946 22.3551 183.178 24.8415C184.409 27.3279 185.661 29.9503 185.964 30.669C186.267 31.3877 186.687 32.4949 186.902 33.1263C187.108 33.7479 187.391 34.8454 187.528 35.5544C187.665 36.2537 187.831 37.0598 187.89 37.3221C187.948 37.6134 187.968 38.2933 187.939 39.0217C187.909 39.6919 187.811 40.566 187.724 40.9642C187.636 41.3625 187.44 41.9938 187.274 42.3726C187.117 42.7513 186.756 43.3535 186.472 43.7226C186.198 44.1014 185.7 44.6161 185.377 44.8784C185.055 45.1406 184.585 45.4611 184.321 45.5874C184.067 45.7137 183.569 45.8885 183.197 45.9759C182.826 46.0633 182.308 46.1119 182.005 46.0827C181.711 46.0633 181.271 45.9856 181.027 45.9273C180.783 45.8593 180.343 45.6942 180.049 45.5485C179.756 45.4126 179.267 45.0532 178.974 44.7618C178.681 44.4607 178.339 44.082 178.231 43.9266C178.036 43.6449 178.016 43.6449 177.791 43.7906C177.664 43.878 177.097 44.3733 176.53 44.8881C175.963 45.4126 175.435 45.8205 175.357 45.8011C175.23 45.7719 175.21 44.8298 175.191 38.1476C175.171 33.1942 175.201 30.4942 175.259 30.4262C175.324 30.3614 175.416 30.3873 175.533 30.5039C175.67 30.6496 175.709 30.9604 175.768 32.6406C175.816 34.0587 175.904 35.0008 176.08 36.0594C176.227 36.8656 176.442 37.9728 176.579 38.5361C176.716 39.0994 176.96 39.9736 177.126 40.4786C177.293 40.9837 177.645 41.8578 177.928 42.4211C178.329 43.2273 178.573 43.5866 179.121 44.1402C179.658 44.6841 179.903 44.859 180.245 44.9464C180.489 45.0144 180.88 45.0338 181.125 45.0046C181.369 44.9755 181.76 44.8201 182.005 44.6744C182.249 44.5287 182.611 44.1888 182.816 43.9266C183.012 43.6546 183.275 43.1593 183.383 42.8096C183.491 42.4503 183.608 41.7607 183.637 41.2071C183.667 40.6534 183.637 39.857 183.579 39.3617C183.51 38.8858 183.344 38.0505 183.217 37.5163C183.08 36.9821 182.767 36.0206 182.523 35.3796C182.278 34.7385 181.76 33.5148 181.369 32.6601C180.978 31.8054 179.844 29.4938 178.857 27.5124C177.869 25.5311 176.843 23.4429 176.589 22.8504C176.325 22.258 175.983 21.413 175.826 20.9565C175.68 20.5 175.465 19.7036 175.357 19.1791C175.22 18.5284 175.161 17.8388 175.161 16.955C175.161 16.178 175.22 15.333 175.318 14.8376C175.406 14.3811 175.601 13.6818 175.748 13.2836C175.904 12.8854 176.247 12.2444 176.511 11.8753C176.775 11.5062 177.175 11.0303 177.42 10.8264C177.654 10.6224 178.045 10.331 178.29 10.1951C178.534 10.0591 178.974 9.86483 179.267 9.76771C179.658 9.64145 180.03 9.6026 180.636 9.62202ZM84.7053 9.98138C88.2539 9.98138 89.0849 10.0105 89.5737 10.1368C89.8963 10.2145 90.4926 10.4476 90.8836 10.6418C91.3626 10.8749 91.871 11.244 92.3402 11.6811C92.741 12.0501 93.2592 12.6426 93.484 12.9923C93.7186 13.3419 94.0119 13.8858 94.1488 14.2063C94.2856 14.5268 94.4616 15.0319 94.5496 15.3233C94.6376 15.6146 94.7744 16.2751 94.8526 16.7801C94.9308 17.2852 94.9993 18.1302 94.9993 18.6546C94.9993 19.218 94.9602 19.5968 94.9015 19.5968C94.8429 19.5968 94.6962 19.5385 94.5594 19.4802C94.4225 19.4122 94.315 19.2762 94.315 19.1888C94.315 19.0917 94.2856 18.9946 94.2368 18.9654C94.1976 18.946 94.0706 18.9849 93.9435 19.0626C93.7382 19.1985 93.7284 19.2568 93.748 20.3543C93.7773 21.4713 93.7675 21.5004 93.4547 22.1026C93.2885 22.4328 93.0734 22.7339 92.9854 22.7825C92.8975 22.8213 92.7606 22.967 92.6922 23.1224C92.614 23.2681 92.5553 23.4915 92.5553 23.6274C92.5553 23.7634 92.5064 23.8703 92.4575 23.8703C92.3989 23.8703 92.3793 24.1325 92.3989 24.5307C92.4184 24.8901 92.4771 25.2883 92.5162 25.4243C92.5651 25.5797 92.5651 25.6379 92.5064 25.5991C92.4478 25.5602 92.3011 25.6379 92.1643 25.7739C92.0274 25.9099 91.6559 26.1818 91.3333 26.3761C91.0107 26.5703 90.4046 26.8617 89.2315 27.3182L89.7887 27.493C90.1016 27.5998 90.7468 27.8621 91.2356 28.0855C91.8417 28.3671 92.3109 28.6779 92.741 29.0762C93.0832 29.387 93.5231 29.8434 94.0706 30.5233L93.9826 32.0287C93.9239 33.0874 93.9337 33.641 94.0119 33.9033C94.0706 34.0975 94.2954 34.4374 94.9015 35.0396V39.2451C94.8917 42.7999 94.9211 43.4992 95.0481 43.81C95.1264 44.0043 95.2925 44.2179 95.4099 44.2762C95.576 44.3539 95.7031 44.3442 95.9182 44.2471C96.0746 44.1791 96.2897 44.014 96.3874 43.878C96.495 43.742 96.6807 43.305 96.8078 42.9067C96.9349 42.5085 97.0913 41.6733 97.1597 41.0614C97.238 40.3135 97.3259 39.8862 97.4335 39.7696C97.5214 39.6725 97.6485 39.5948 97.7072 39.6045C97.7756 39.6045 97.8734 39.6919 97.932 39.7987C97.9809 39.9056 98.0298 40.3135 98.0298 40.702C98.0298 41.3333 98.0102 41.4207 97.7854 41.5956C97.6485 41.7024 97.5312 41.8675 97.541 41.9646C97.541 42.052 97.5801 42.1492 97.6388 42.1783C97.6974 42.2074 97.7072 42.4017 97.6779 42.6445C97.6388 42.8679 97.4921 43.3147 97.3455 43.6352C97.1988 43.9557 96.8567 44.4413 96.6025 44.7133C96.3386 44.9755 95.928 45.3154 95.6836 45.4514C95.4392 45.5971 94.8917 45.8011 94.4616 45.9176C93.9826 46.0439 93.5036 46.1119 93.2396 46.0827C92.9952 46.0633 92.5749 45.9856 92.3109 45.9079C92.0372 45.8302 91.6168 45.6457 91.3529 45.5C91.0987 45.3543 90.7859 45.0726 90.649 44.8784C90.5219 44.6744 90.3362 44.3151 90.2384 44.0722C90.082 43.674 90.0624 43.0233 89.9647 28.9693L89.7398 28.5614C89.6225 28.3283 89.3879 28.0563 89.2315 27.9495C89.0458 27.8232 88.6156 27.7164 88.0779 27.6484C87.6087 27.5804 87.1492 27.561 87.0515 27.5999C86.8951 27.6581 86.8853 28.1535 86.9342 45.0921L87.6869 45.1212C88.4299 45.1406 88.4494 45.1503 88.4494 45.6262L84.3631 45.6068C80.355 45.5777 80.2866 45.5777 80.2866 45.3834C80.2866 45.2086 80.3648 45.1892 81.9485 45.0921V10.5156L81.2153 10.4864C80.8145 10.467 80.4332 10.4184 80.3843 10.3699C80.3257 10.3213 80.3159 10.2145 80.355 10.1271C80.4234 10.0008 80.9513 9.98138 84.7053 9.98138ZM86.983 26.8811C88.557 26.8811 88.7525 26.8423 89.0849 26.648C89.3684 26.4829 89.5346 26.2887 89.691 25.9196L89.9158 25.4243C89.9158 12.1084 89.906 11.5548 89.7398 11.244C89.6519 11.0595 89.4368 10.8361 89.2804 10.7584C89.1044 10.6807 88.5863 10.603 87.9997 10.5836L87.0026 10.5447L86.983 26.8811ZM116.545 9.98138C120.358 9.98138 120.729 9.9911 121.492 10.1756C121.951 10.2922 122.587 10.5059 122.909 10.6515C123.232 10.8069 123.77 11.1469 124.102 11.3994C124.434 11.6616 124.933 12.157 125.217 12.5066C125.49 12.8466 125.842 13.371 125.989 13.6721C126.145 13.9635 126.37 14.556 126.507 14.9833C126.644 15.4107 126.81 16.1294 126.878 16.5859C126.957 17.1104 126.976 17.9845 126.947 19.014C126.908 20.3155 126.849 20.7914 126.634 21.5878C126.497 22.122 126.204 22.9087 125.999 23.3361C125.784 23.7634 125.402 24.3753 125.138 24.6958C124.884 25.0163 124.356 25.502 123.985 25.7836C123.613 26.0653 122.909 26.4732 122.421 26.6772C121.942 26.8908 121.531 27.1142 121.521 27.1628C121.502 27.2211 121.639 27.3182 121.815 27.3862C121.99 27.4445 122.509 27.6776 122.958 27.9009C123.418 28.1243 124.024 28.4934 124.307 28.7071C124.591 28.9305 125.021 29.3675 125.265 29.6686C125.51 29.9794 125.871 30.5136 126.067 30.8633C126.263 31.2032 126.546 31.8636 126.693 32.3201C126.83 32.7669 127.006 33.4856 127.064 33.8936C127.113 34.3112 127.162 35.2242 127.162 35.9332C127.162 36.6422 127.093 37.662 127.015 38.1962C126.937 38.7304 126.761 39.5559 126.624 40.0416C126.487 40.5175 126.175 41.3236 125.93 41.8384C125.549 42.6154 125.353 42.8873 124.64 43.5866C123.965 44.2471 123.623 44.5093 122.958 44.8298C122.509 45.0532 121.775 45.3252 121.345 45.432C120.632 45.6068 120.25 45.6262 116.487 45.6262C113.309 45.6262 112.391 45.5971 112.361 45.5C112.342 45.432 112.351 45.3252 112.391 45.2669C112.43 45.1892 112.772 45.1406 114.111 45.0921L114.14 36.6616C114.15 32.0288 114.189 28.1923 114.209 28.1438C114.238 28.0855 114.238 27.9495 114.209 27.8232C114.16 27.6387 114.199 27.5901 114.522 27.5124C114.727 27.4639 114.991 27.4347 115.118 27.4445C115.294 27.4542 115.333 27.4153 115.333 27.2211C115.333 27.0851 115.382 26.9977 115.431 27.0268C115.49 27.0462 115.578 26.9977 115.626 26.9006C115.695 26.7743 115.812 26.7354 116.506 26.784L116.448 26.2207C116.418 25.9002 116.301 25.5214 116.184 25.3368C116.066 25.1523 115.881 24.9678 115.773 24.9289C115.607 24.8706 115.577 24.7638 115.558 24.0742C115.538 23.6177 115.578 23.2681 115.626 23.2389C115.685 23.2098 115.646 23.0544 115.538 22.8699C115.431 22.695 115.343 22.4037 115.343 22.2191C115.343 21.9666 115.255 21.7821 115.02 21.5101C114.835 21.3062 114.61 21.1508 114.483 21.1508C114.297 21.1508 114.248 21.0828 114.209 20.7331C114.18 20.5097 114.14 18.1107 114.111 10.5156L113.28 10.4864C112.772 10.467 112.43 10.4087 112.391 10.3407C112.351 10.2728 112.342 10.1659 112.371 10.0979C112.41 10.0105 113.339 9.98138 116.545 9.98138ZM119.146 26.9297C120.475 26.8326 121.023 26.7354 121.228 26.648C121.443 26.5509 121.658 26.3664 121.766 26.1721C121.922 25.8807 121.932 25.3368 121.932 18.7226C121.932 11.7102 121.932 11.5742 121.736 11.244C121.59 10.9915 121.414 10.8555 121.052 10.739C120.778 10.6418 120.26 10.5641 119.859 10.5641H119.146V26.9297ZM119.146 45.0921C120.27 44.9949 120.739 44.8784 120.984 44.7618C121.208 44.6453 121.482 44.4316 121.58 44.2859C121.678 44.1402 121.815 43.8683 121.873 43.6837C121.961 43.4312 121.99 41.343 121.99 35.9817C121.981 29.2024 121.971 28.5905 121.815 28.2215C121.697 27.9301 121.551 27.7747 121.326 27.6873C121.14 27.6096 120.622 27.561 120.074 27.561H119.146V45.0921ZM147.857 9.98138C151.279 9.98138 151.807 10.0008 151.856 10.1271C151.875 10.2048 151.846 10.3407 151.778 10.4184C151.69 10.5253 151.475 10.5738 150.341 10.5641V27.2696C150.341 43.7809 150.341 43.9751 150.536 44.3636C150.644 44.5773 150.868 44.859 151.044 44.9852C151.22 45.1212 151.582 45.2669 151.856 45.3252C152.169 45.3834 152.54 45.3931 152.931 45.3252C153.254 45.2766 153.713 45.1406 153.958 45.0144C154.192 44.8978 154.613 44.5773 154.886 44.3151C155.16 44.0431 155.492 43.5866 155.639 43.2952C155.786 42.9942 155.981 42.4697 156.079 42.1297C156.245 41.5373 156.255 40.5757 156.255 26.7354C156.255 15.6049 156.226 11.885 156.138 11.6325C156.069 11.4383 155.893 11.176 155.747 11.04C155.59 10.9041 155.228 10.7195 154.935 10.6321C154.632 10.5544 154.329 10.4087 154.251 10.3213C154.153 10.2177 154.137 10.1335 154.202 10.0688C154.261 10.0202 155.14 9.9911 156.353 10.0008C158.298 10.0299 158.406 10.0397 158.406 10.2145C158.406 10.331 158.298 10.4379 158.112 10.5059C157.946 10.5641 157.731 10.6613 157.624 10.7195C157.516 10.7778 157.33 11.0303 157.203 11.2731C157.066 11.5645 156.949 12.0599 156.89 12.6232C156.832 13.1671 156.793 19.0431 156.793 27.561C156.793 41.411 156.793 41.6053 156.587 42.3726C156.48 42.7999 156.245 43.4021 156.079 43.7226C155.903 44.0334 155.551 44.4802 155.297 44.7133C155.043 44.9464 154.564 45.2669 154.222 45.432C153.889 45.5874 153.303 45.7914 152.931 45.8788C152.55 45.9565 151.983 46.0536 151.66 46.0827C151.318 46.1119 150.653 46.0633 150.096 45.9662C149.558 45.8788 148.894 45.7428 148.63 45.6554C148.356 45.568 147.926 45.3931 147.672 45.2669C147.418 45.1406 147.027 44.8784 146.802 44.6744C146.587 44.4802 146.303 44.1402 146.176 43.9266C146.049 43.7129 145.853 43.2078 145.501 42.0812L145.453 10.5641H144.719C144.191 10.5641 143.937 10.5156 143.84 10.4184C143.722 10.3019 143.712 10.2339 143.8 10.1271C143.888 10.0008 144.455 9.98138 147.857 9.98138Z" fill="#CDCDCD"/>
<path fill-rule="evenodd" clip-rule="evenodd" d="M98.939 5.61035C98.9781 5.61035 99.0563 5.71719 99.1052 5.85316C99.1639 5.98914 99.2714 6.09598 99.3496 6.09598C99.4376 6.09598 99.4767 6.15425 99.4474 6.24166C99.418 6.32908 99.4767 6.40678 99.594 6.43591C99.7113 6.46505 99.7798 6.55246 99.77 6.64959C99.7504 6.74671 99.6527 6.86326 99.5354 6.92154C99.4278 6.9701 99.3301 7.0478 99.3203 7.09636C99.3105 7.13521 99.2714 7.23234 99.2323 7.31975C99.1834 7.41688 99.2128 7.50429 99.3007 7.55285C99.3887 7.60141 99.4963 7.60141 99.5745 7.54314C99.6331 7.49458 99.7407 7.47515 99.7895 7.50429C99.8482 7.53343 99.8873 7.60141 99.8873 7.64998C99.8873 7.69854 99.7895 7.75681 99.6722 7.77624C99.5549 7.78595 99.4474 7.85394 99.4278 7.92193C99.4083 7.9802 99.4767 8.0579 99.5745 8.08704C99.6624 8.11618 99.7993 8.23273 99.8677 8.32985C99.9655 8.49496 99.9557 8.55324 99.77 8.71835C99.6429 8.81548 99.5158 8.90289 99.4767 8.9126C99.4278 8.9126 99.3985 8.97088 99.3985 9.03886C99.3887 9.09714 99.2128 9.33995 99.0075 9.57305C98.7924 9.79644 98.6164 10.0684 98.6164 10.1752C98.6164 10.2821 98.5773 10.3889 98.5187 10.418C98.4698 10.4472 98.4209 10.7094 98.4209 11.0008C98.4209 11.2922 98.3818 11.535 98.3232 11.535C98.2743 11.535 98.2254 11.7098 98.2254 11.9235C98.2254 12.1371 98.1863 12.3314 98.1276 12.3605C98.0788 12.3897 98.0299 12.5839 98.0299 12.7976C98.0299 13.0113 97.981 13.2832 97.9321 13.4095C97.8735 13.526 97.7953 13.9728 97.7464 14.4002C97.6779 15.0995 97.6877 15.1966 97.8441 15.352C98.0005 15.488 98.0299 15.6628 98.0299 16.2941C98.0299 16.9934 98.0494 17.0808 98.2547 17.2071C98.4502 17.3333 98.4893 17.3236 98.7435 17.0614C98.8902 16.906 99.0075 16.7117 99.0075 16.634C99.0075 16.5563 99.0661 16.3815 99.1345 16.2455C99.2225 16.061 99.3301 16.0027 99.5451 16.0027C99.7113 16.0027 99.9166 16.0804 100.014 16.1775C100.132 16.2941 100.181 16.4883 100.181 16.8283C100.181 17.1585 100.102 17.4402 99.6918 18.1395L100.229 18.4308C100.523 18.596 100.875 18.7222 101.012 18.7222C101.148 18.7222 101.256 18.7611 101.256 18.8193C101.256 18.8776 101.451 18.9165 101.696 18.9165C101.94 18.9165 102.136 18.9553 102.136 19.0136C102.136 19.0719 102.321 19.1301 102.556 19.169C102.83 19.2014 103.302 19.1366 103.974 18.9747C104.521 18.8291 105.078 18.7222 105.215 18.7222C105.352 18.7222 105.46 18.6834 105.46 18.6251C105.46 18.5668 105.939 18.5377 108.05 18.5765L109.028 19.0427C109.565 19.305 110.025 19.5381 110.054 19.5769C110.084 19.6158 110.308 19.7032 110.572 19.7712C110.827 19.8294 111.257 19.8877 111.521 19.8877C111.794 19.8877 112.009 19.9266 112.009 19.9848C112.009 20.0431 112.078 20.082 112.156 20.082C112.234 20.082 112.303 20.1208 112.303 20.1791C112.303 20.2374 112.371 20.2762 112.449 20.2762C112.528 20.2762 112.703 20.15 112.84 19.9848C112.977 19.8197 113.134 19.6935 113.182 19.6935C113.241 19.6935 113.368 19.7809 113.476 19.8877C113.583 19.9946 113.759 20.082 113.867 20.082C113.974 20.082 114.082 20.1597 114.101 20.2568C114.131 20.3442 114.17 20.587 114.199 20.791C114.248 21.0824 114.297 21.1503 114.483 21.1503C114.61 21.1503 114.835 21.3057 115.02 21.5194C115.255 21.7817 115.343 21.9759 115.343 22.2187C115.343 22.4033 115.421 22.7043 115.529 22.8792C115.646 23.0637 115.685 23.2094 115.626 23.2385C115.568 23.2677 115.538 23.6173 115.558 24.0738C115.578 24.7634 115.607 24.8702 115.773 24.9382C115.881 24.9771 116.066 25.1519 116.184 25.3364C116.301 25.521 116.418 25.9095 116.506 26.7836L116.105 26.7642C115.812 26.7447 115.685 26.7739 115.617 26.9099C115.568 26.9973 115.49 27.0555 115.431 27.0264C115.382 26.9973 115.333 27.0847 115.333 27.2207C115.333 27.4149 115.284 27.4635 115.118 27.444C114.991 27.4343 114.727 27.4635 114.522 27.512C114.189 27.5994 114.16 27.6383 114.209 27.852C114.248 28.0138 114.219 28.1369 114.121 28.221C113.994 28.3182 113.877 28.2987 113.505 28.1142C113.212 27.9685 112.899 27.7063 112.303 26.9293L111.794 26.9681C111.511 26.9876 111.071 27.0847 110.817 27.1818C110.553 27.2886 110.23 27.3663 110.084 27.3663C109.839 27.3761 109.82 27.3566 109.956 27.2207C110.035 27.1332 110.172 27.0653 110.26 27.075C110.338 27.075 110.445 27.0361 110.504 26.9778C110.553 26.9293 110.572 26.7642 110.543 26.6282C110.514 26.4728 110.347 26.2688 110.132 26.1134C109.927 25.9775 109.761 25.8318 109.761 25.7929C109.761 25.7444 109.81 25.7152 109.859 25.7152C109.917 25.7152 109.956 25.6084 109.956 25.4724C109.956 25.3364 109.917 25.2296 109.859 25.2296C109.81 25.2296 109.722 25.0256 109.683 24.7634C109.605 24.3166 109.605 24.3069 109.272 24.336C109.086 24.3555 108.891 24.404 108.842 24.4526C108.783 24.5109 108.646 24.5497 108.519 24.5497C108.392 24.5497 108.285 24.5886 108.275 24.6371C108.255 24.6857 107.884 24.8994 107.444 25.1228C106.994 25.3364 106.545 25.521 106.437 25.521C106.33 25.521 106.242 25.5598 106.242 25.6181C106.242 25.6764 106.085 25.7152 105.899 25.7152C105.714 25.7152 105.401 25.8026 105.215 25.9095C104.961 26.0552 104.697 26.1037 103.514 26.1037L103.016 26.5893C102.752 26.8613 102.488 27.1818 102.429 27.3178C102.38 27.4538 102.331 27.784 102.331 28.0462C102.331 28.4639 102.302 28.5318 102.136 28.5318C102.028 28.5318 101.921 28.6095 101.891 28.7067C101.872 28.7941 101.745 28.9592 101.627 29.0757C101.5 29.1826 101.217 29.3283 100.992 29.3865C100.679 29.474 100.572 29.5517 100.572 29.6973C100.572 29.8042 100.532 29.9693 100.484 30.0664C100.435 30.1538 100.337 30.9503 100.278 31.8341C100.21 32.7179 100.102 33.5144 100.044 33.6115C99.9655 33.728 99.9655 33.8251 100.044 33.9514C100.102 34.0388 100.278 34.1554 100.435 34.2039C100.591 34.2428 100.767 34.3108 100.836 34.3496C100.894 34.3788 101.471 34.8061 102.106 35.2917C102.742 35.7774 103.475 36.4281 103.749 36.7486C104.013 37.0594 104.56 37.6713 104.961 38.0986C105.352 38.526 105.811 39.0893 105.987 39.3516C106.193 39.6721 106.437 39.8955 106.76 40.0509C107.131 40.2451 107.268 40.3811 107.503 40.8473C107.659 41.1484 107.855 41.4689 107.943 41.5466C108.031 41.6243 108.109 41.7214 108.099 41.77C108.099 41.8088 108.255 42.0322 108.441 42.275C108.627 42.5178 108.783 42.8092 108.783 42.9355C108.783 43.0714 108.656 43.2366 108.441 43.392C108.246 43.5279 108.089 43.6639 108.099 43.7125C108.099 43.7513 108.275 43.7999 108.49 43.829C108.705 43.8582 108.881 43.9067 108.881 43.9553C108.881 43.9941 108.842 44.0718 108.803 44.1301C108.764 44.1884 108.558 44.3535 108.343 44.4895C108.128 44.6352 107.855 44.7517 107.737 44.7517C107.61 44.7517 107.512 44.7906 107.512 44.8488C107.512 44.9071 107.219 44.946 106.828 44.946C106.457 44.946 106.124 44.9848 106.095 45.0431C106.066 45.1014 105.626 45.1402 104.042 45.1208L103.876 44.7614C103.759 44.5283 103.732 44.3794 103.798 44.3146C103.856 44.2564 103.895 44.1495 103.895 44.0718C103.895 43.9941 104.042 43.7805 104.531 43.2754L104.189 42.9937C104.003 42.8481 103.719 42.6927 103.553 42.6635C103.387 42.6344 102.038 42.615 97.8344 42.615V42.3721C97.8344 42.2362 97.7659 42.0516 97.6779 41.9545C97.5411 41.7991 97.5411 41.77 97.7757 41.5951C97.9126 41.4883 98.0201 41.3426 98.0299 41.2746C98.0299 41.1969 98.1863 41.1581 98.4991 41.1581C98.7533 41.1581 99.1248 41.0998 99.3301 41.0124C99.5549 40.925 99.6918 40.7987 99.6918 40.6919C99.6918 40.6045 99.506 40.3325 99.2714 40.0897C99.0466 39.8469 98.4698 39.2447 98.0005 38.7494C97.5313 38.2638 96.8959 37.5353 96.5928 37.1371C96.28 36.7389 95.8303 36.1464 95.5859 35.8162C95.3415 35.4763 94.9994 35.0781 94.8332 34.9324C94.6572 34.777 94.5106 34.5827 94.5106 34.505C94.5106 34.4273 94.4226 34.2622 94.315 34.1457C94.2173 34.0194 94.1097 33.7669 94.0902 33.5823C94.0609 33.3978 94.0609 32.5237 94.0706 31.6398C94.0902 30.756 94.1195 29.9693 94.1391 29.8916C94.1684 29.8139 94.2857 29.4157 94.403 29.0175C94.5203 28.6193 94.6572 28.2016 94.6963 28.0948C94.7452 27.9879 94.882 27.6577 94.9994 27.3663C95.1167 27.075 95.2633 26.7253 95.322 26.5893C95.3806 26.4534 95.5077 26.23 95.6055 26.0843C95.7032 25.9289 95.7814 25.7929 95.7814 25.7638C95.7814 25.7346 95.5761 25.7444 95.322 25.7735C95.058 25.8026 94.6572 25.8998 94.4128 25.9872C94.1097 26.0843 93.8262 26.1134 93.5134 26.0746C93.2495 26.0357 92.9464 25.9386 92.8291 25.8609C92.702 25.7735 92.5456 25.521 92.4869 25.2976C92.4185 25.0742 92.3599 24.6566 92.3599 24.3846C92.3599 24.1029 92.4087 23.8698 92.4576 23.8698C92.5163 23.8698 92.5554 23.763 92.5554 23.627C92.5554 23.4911 92.614 23.2677 92.6922 23.122C92.7607 22.9666 92.8975 22.8209 92.9855 22.782C93.0735 22.7335 93.2886 22.4324 93.4645 22.1022C93.7676 21.5 93.7774 21.4709 93.7578 20.3539C93.7285 19.2564 93.7383 19.1981 93.9533 19.0622C94.0706 18.9845 94.1977 18.9456 94.2466 18.965C94.2857 18.9942 94.315 19.0913 94.315 19.1884C94.3053 19.2758 94.4324 19.4118 94.579 19.4798C94.7256 19.5381 94.9407 19.5769 95.0482 19.5575C95.1558 19.5381 95.3317 19.4701 95.4393 19.4118C95.5468 19.3438 95.6934 19.1204 95.7619 18.9068C95.8205 18.7028 95.8792 18.4114 95.8792 18.2657C95.8792 18.1103 95.8303 17.8384 95.7716 17.6538C95.713 17.4693 95.5761 17.1294 95.4784 16.906C95.3708 16.6729 95.2926 16.3718 95.2926 16.2261C95.2926 16.0319 95.3806 15.8959 95.5859 15.7599C95.7423 15.6531 95.8792 15.5365 95.8792 15.4977C95.8792 15.4491 95.9769 15.42 96.104 15.42C96.2213 15.4297 96.368 15.3714 96.4364 15.3034C96.4951 15.2354 96.5733 15.0023 96.6124 14.7887C96.6515 14.575 96.7492 14.2836 96.8177 14.1379C96.8959 13.9825 96.935 13.8271 96.9056 13.7688C96.8763 13.7106 96.8959 13.6134 96.9448 13.5552C96.9839 13.4872 97.0621 13.1472 97.0914 12.7976C97.1305 12.4479 97.2185 12.0789 97.2869 11.972C97.3553 11.8652 97.4433 11.467 97.4726 11.0979C97.502 10.7288 97.5802 10.3695 97.6388 10.3209C97.6975 10.2723 97.7366 10.1169 97.7366 9.98097C97.7366 9.845 97.8148 9.64104 97.9028 9.51477C98.0494 9.33024 98.0494 9.26225 97.9517 9.17484C97.8832 9.10685 97.8344 8.85433 97.8344 8.6018C97.8344 8.33956 97.8832 8.1356 97.9321 8.1356C97.9908 8.1356 98.0299 8.02876 98.0299 7.89279C98.0299 7.75681 98.0788 7.63055 98.1276 7.60141C98.1863 7.57228 98.2254 7.29061 98.2254 6.9701C98.2254 6.61074 98.284 6.28051 98.3818 6.09598C98.4796 5.94058 98.6164 5.76575 98.7044 5.71719C98.7924 5.65891 98.8902 5.61035 98.939 5.61035V5.61035ZM99.1345 20.6162C99.2519 20.8007 99.418 20.9561 99.4963 20.9561C99.5745 20.9464 99.7504 20.859 99.8873 20.7521L100.132 20.5482C99.682 20.1791 99.418 20.014 99.2519 19.9363C99.0954 19.8489 98.9488 19.7906 98.939 19.7906C98.9195 19.7906 98.9097 19.8974 98.9097 20.0334C98.9097 20.1694 99.0075 20.4316 99.1345 20.6162Z" fill="#BABABA"/>
<path d="M86.543 9.95272C85.4676 9.97215 83.6591 9.97215 82.5348 9.95272C81.4106 9.94301 82.2904 9.9333 84.49 9.9333C86.6896 9.9333 87.6183 9.94301 86.543 9.95272Z" fill="black" fill-opacity="0.7"/>
<path d="M118.168 9.95272C117.122 9.97215 115.431 9.97215 114.404 9.95272C113.378 9.94301 114.238 9.9333 116.311 9.9333C118.383 9.9333 119.214 9.94301 118.168 9.95272Z" fill="black" fill-opacity="0.7"/>
<path d="M149.744 9.95272C148.639 9.97215 146.88 9.97215 145.834 9.95272C144.788 9.94301 145.687 9.9333 147.838 9.9333C149.988 9.9333 150.849 9.94301 149.744 9.95272Z" fill="black" fill-opacity="0.7"/>
<path d="M157.271 9.95272C156.704 9.97215 155.805 9.97215 155.267 9.95272C154.73 9.94301 155.189 9.92358 156.294 9.92358C157.399 9.92358 157.838 9.94301 157.271 9.95272Z" fill="black" fill-opacity="0.7"/>
<path d="M145.413 33.1462C145.404 37.2643 145.394 33.8455 145.394 25.5704C145.394 17.2857 145.404 13.9251 145.413 18.0918C145.433 22.2585 145.433 29.0281 145.413 33.1462Z" fill="black" fill-opacity="0.7"/>
<path d="M156.851 34.1174C156.841 37.9636 156.832 34.8361 156.832 27.173C156.832 19.5098 156.841 16.363 156.851 20.18C156.871 23.997 156.871 30.2713 156.851 34.1174Z" fill="black" fill-opacity="0.7"/>
<path d="M86.9535 40.6733C86.9438 43.1015 86.934 41.159 86.934 36.3513C86.934 31.5436 86.9438 29.5525 86.9535 31.9321C86.9731 34.3117 86.9731 38.2452 86.9535 40.6733Z" fill="black" fill-opacity="0.7"/>
<path d="M86.2986 45.6947C85.1939 45.7141 83.4147 45.7141 82.3393 45.6947C81.264 45.685 82.1634 45.6753 84.3434 45.6753C86.5234 45.6753 87.4032 45.685 86.2986 45.6947Z" fill="black" fill-opacity="0.7"/>
<path d="M118.119 45.6947C117.044 45.7141 115.333 45.7141 114.306 45.6947C113.28 45.685 114.16 45.6753 116.262 45.6753C118.363 45.6753 119.194 45.685 118.119 45.6947Z" fill="black" fill-opacity="0.7"/>
<path d="M94.9702 41.4501C94.9605 42.6545 94.9507 41.7124 94.9507 39.362C94.9507 37.0115 94.9605 36.0306 94.9702 37.1766C94.9898 38.3227 94.9898 40.2458 94.9702 41.4501Z" fill="black" fill-opacity="0.5"/>
<path d="M81.9678 36.3995C81.958 41.178 81.9482 37.3124 81.9482 27.8039C81.9482 18.2954 81.958 14.3812 81.9678 19.1112C81.9873 23.8412 81.9873 31.6209 81.9678 36.3995Z" fill="black" fill-opacity="0.3"/>
<path d="M114.13 17.7029C114.121 19.0432 114.111 17.9651 114.111 15.3233C114.111 12.6815 114.121 11.584 114.13 12.8952C114.15 14.2064 114.15 16.3626 114.13 17.7029Z" fill="black" fill-opacity="0.3"/>
<path d="M156.264 33.2429C156.255 36.9239 156.245 33.9616 156.245 26.6384C156.245 19.3249 156.255 16.3043 156.264 19.9368C156.284 23.5693 156.284 29.5619 156.264 33.2429Z" fill="black" fill-opacity="0.3"/>
<path d="M114.13 40.8672C114.121 43.1885 114.111 41.314 114.111 36.6908C114.111 32.0677 114.121 30.1738 114.13 32.4659C114.15 34.7581 114.15 38.5459 114.13 40.8672Z" fill="black" fill-opacity="0.3"/>
<path d="M89.984 39.6532C89.9742 41.4694 89.9645 39.964 89.9645 36.3023C89.9645 32.6407 89.9742 31.1547 89.984 33.0001C90.0036 34.8455 90.0036 37.8369 89.984 39.6532Z" fill="black" fill-opacity="0.3"/>
<path d="M175.132 41.8385C175.122 43.9461 175.112 42.2658 175.112 38.0992C175.112 33.9325 175.122 32.2037 175.132 34.2627C175.151 36.3218 175.151 39.7309 175.132 41.8385Z" fill="black" fill-opacity="0.3"/>
<path d="M94.0507 33.9707C93.9237 33.689 93.9139 33.3685 93.9725 32.1545V32.1448C94.0116 31.3386 94.0605 30.6685 94.0898 30.6685C94.1192 30.6685 94.1192 31.2512 94.0801 31.9505C94.0507 32.6595 94.0507 33.3977 94.0801 33.5822C94.0996 33.7667 94.2169 34.0193 94.3147 34.1358C94.4222 34.2621 94.5102 34.4369 94.5102 34.5243C94.5004 34.6797 94.4907 34.6797 94.3538 34.5049C94.2658 34.3981 94.1289 34.1552 94.0507 33.9707Z" fill="#D7884F"/>
<path d="M97.6385 42.1875C97.5896 42.1583 97.5505 42.0709 97.5505 41.9835C97.5701 41.8475 97.5896 41.8475 97.7167 41.9835C97.7949 42.0612 97.8536 42.236 97.834 42.6245L103.553 42.6731L97.6385 42.7217L97.6874 42.4789C97.7167 42.3429 97.6874 42.2166 97.6385 42.1875Z" fill="#D7884F"/>
<path d="M102.233 42.781C101.402 42.8006 100.063 42.8006 99.2516 42.781C98.4402 42.7713 99.1246 42.7517 100.767 42.7517C102.409 42.7517 103.064 42.7713 102.233 42.781Z" fill="#DDDDDD" fill-opacity="0.2"/>
<path fill-rule="evenodd" clip-rule="evenodd" d="M0.857329 0.754883H3.98561V1.72613H1.93268V2.79451H3.98561V3.76576H1.93268L1.98156 5.07694L3.98561 5.12551V5.99963H0.857329V0.754883ZM10.5355 0.754883H11.6108L11.6597 2.84307H13.9081L13.9277 0.754883H15.0324V5.99963H13.957V3.86288H11.6108V5.99963H10.5355V0.754883ZM16.2934 0.754883H17.3786V2.50313C17.3786 3.84346 17.4177 4.32908 17.5252 4.59132C17.6034 4.78557 17.7989 4.99924 17.9651 5.07694C18.1313 5.15464 18.4344 5.22263 18.6494 5.22263C18.9427 5.22263 19.1187 5.15464 19.3435 4.95068C19.5195 4.79528 19.6759 4.53304 19.7248 4.29994C19.7737 4.08627 19.8225 3.20243 19.8225 0.754883H20.849V2.77508C20.849 4.73701 20.8392 4.79528 20.6046 5.22263C20.4286 5.54314 20.2331 5.72768 19.8714 5.90251C19.4608 6.10647 19.2458 6.14532 18.5517 6.14532C17.8967 6.14532 17.623 6.09676 17.2808 5.93164C16.9778 5.78596 16.7627 5.59171 16.5965 5.30033C16.3619 4.89241 16.3521 4.81471 16.3228 2.81393L16.2934 0.754883ZM28.8652 0.764595L30.1361 0.754883L31.0844 3.21214C31.6122 4.56218 32.0619 5.73739 32.0913 5.83452C32.1401 5.98021 32.0717 5.99963 30.9182 5.99963L30.5271 4.98953H28.3764L27.9854 6.00934H26.8612L27.086 5.44602C27.2033 5.13522 27.653 3.95029 28.0832 2.82364L28.8652 0.764595ZM28.8261 3.96972C29.8037 3.96972 30.097 3.93087 30.097 3.89202C30.097 3.85317 29.9406 3.42582 29.7646 2.94019L29.4322 2.06607L28.8261 3.96972ZM37.2823 0.754883L37.8493 2.53227C38.1719 3.54237 38.4456 4.26109 38.4945 4.21253C38.5336 4.15426 38.8171 3.35783 39.6773 0.764595L40.8016 0.754883L41.1731 3.16358C41.3784 4.48448 41.5641 5.66941 41.5836 5.78596C41.6227 5.98992 41.5934 6.00934 40.6061 6.00934L40.3812 4.28052C40.2639 3.32869 40.1368 2.53227 40.1075 2.51284C40.0879 2.48371 40.0195 2.50313 39.9804 2.56141C39.9315 2.60997 39.648 3.40639 38.7975 6.00934H38.1621L37.5853 4.23196C37.2725 3.26071 36.9988 2.39629 36.9792 2.31859C36.9499 2.22147 36.901 2.20204 36.8521 2.27003C36.8032 2.31859 36.6957 3.06646 36.5979 3.92116C36.5002 4.77586 36.4024 5.59171 36.3633 5.73739C36.3047 5.98992 36.2656 6.00934 35.8354 6.00934C35.4933 6.00934 35.376 5.97049 35.376 5.86366C35.376 5.77624 35.5226 4.69816 35.7181 3.45496C35.9039 2.21176 36.0798 1.09482 36.1092 0.97827C36.1483 0.78402 36.2167 0.764595 37.2823 0.754883V0.754883ZM51.4084 0.764595L51.9363 2.14377C52.2296 2.90134 52.689 4.08627 53.4613 6.00934L52.1611 5.96078L52.0145 5.57228C51.9461 5.35861 51.8288 5.12551 51.7701 5.05752C51.6821 4.97011 51.3498 4.93126 50.7241 4.93126C50.0789 4.93126 49.7563 4.97011 49.6781 5.05752C49.6194 5.12551 49.5119 5.36832 49.3066 6.00934H48.7396C48.4268 6.00934 48.1726 5.98021 48.1628 5.94136C48.1628 5.91222 48.5538 4.84384 49.0426 3.59093C49.5314 2.32831 49.9713 1.17252 50.03 1.02683C50.1278 0.774308 50.1571 0.764595 51.4084 0.764595ZM50.3819 3.09559C50.2353 3.54237 50.1375 3.93087 50.1473 3.94058C50.1669 3.96001 50.4504 3.96001 50.7828 3.94058L51.3791 3.92116C50.9001 2.50313 50.7339 2.13406 50.7045 2.18262C50.6752 2.23118 50.5286 2.63911 50.3819 3.09559ZM55.5632 0.754883L56.1204 2.45457C56.4332 3.40639 56.7265 4.13483 56.7851 4.11541C56.834 4.08627 57.1175 3.31898 57.9582 0.764595H59.1313L59.1705 1.0754C59.1998 1.25022 59.3562 2.30888 59.5224 3.43553C59.6886 4.55247 59.8645 5.59171 60.0112 6.00934L58.887 5.96078L58.6914 4.29023C58.5839 3.37726 58.4568 2.59054 58.4177 2.54198C58.3786 2.49342 58.3004 2.50313 58.2515 2.56141C58.2124 2.60997 57.9289 3.39668 57.0882 5.96078H56.4528L55.8369 4.11541C55.4947 3.09559 55.1917 2.24089 55.1721 2.22147C55.1428 2.19233 55.1037 2.31859 55.0744 2.51284C55.045 2.69738 54.9571 3.46467 54.8691 4.21253C54.7909 4.96039 54.6931 5.66941 54.6735 5.78596C54.6344 5.98021 54.5758 6.00934 54.0968 6.00934C53.7937 6.00934 53.5787 5.97049 53.5982 5.93164C53.6178 5.89279 53.7937 4.83413 53.9892 3.58122C54.1848 2.31859 54.3607 1.17252 54.39 1.02683C54.4487 0.774308 54.478 0.764595 55.5632 0.754883V0.754883ZM62.1032 0.764595H63.3839L64.3321 3.21214C64.8502 4.56218 65.2999 5.73739 65.3293 5.83452C65.3781 5.98021 65.3097 6.00934 64.1659 5.99963L63.7749 4.98953H61.6242L61.2332 6.00934H60.1089L60.324 5.44602C60.4413 5.13522 60.9008 3.95029 61.3211 2.82364L62.1032 0.764595ZM62.0641 3.96972C63.0417 3.96972 63.335 3.93087 63.335 3.89202C63.335 3.85317 63.1883 3.42582 63.0026 2.94019L62.6702 2.05636L62.0641 3.96972ZM32.6387 3.87259H34.5939V4.74672H32.6387V3.87259ZM45.2203 9.89434C46.3641 9.89434 47.371 9.92348 47.4492 9.9429C47.5274 9.97204 47.5958 10.0692 47.5958 10.1663C47.5958 10.2731 47.4198 10.4188 47.107 10.5742C46.8235 10.7102 46.4814 10.953 46.3249 11.1084C46.1685 11.2735 45.9828 11.5358 45.9144 11.6912C45.8166 11.934 45.7873 15.1877 45.7384 45.6363H42.0724L39.1788 29.8827C37.5853 21.2191 36.246 14.0124 36.2167 13.8765C36.1776 13.7502 36.1287 13.6142 36.0994 13.5851C36.0798 13.5657 36.07 20.3838 36.0798 28.7366C36.1092 43.8784 36.1092 43.9464 36.3144 44.2766C36.422 44.4708 36.6371 44.7136 36.8032 44.8205C36.9597 44.9273 37.3409 45.0439 37.6733 45.0827C37.9959 45.1216 38.3087 45.1993 38.3576 45.2478C38.4163 45.2964 38.426 45.4129 38.3869 45.4906C38.3185 45.6169 37.9763 45.6363 35.9625 45.6363C33.6847 45.6363 33.6163 45.6363 33.6163 45.4421C33.6163 45.3061 33.7141 45.2187 33.9389 45.1604C34.1051 45.1021 34.4375 44.9273 34.6721 44.7719C34.9654 44.5582 35.1316 44.3446 35.2587 44.0143C35.4151 43.5773 35.4248 42.5283 35.4248 10.5257L34.6721 10.5062C34.0953 10.4868 33.8998 10.448 33.8607 10.3314C33.8314 10.2537 33.8314 10.1469 33.8607 10.0886C33.89 10.0303 35.0631 9.99147 37.0867 9.99147C40.0293 9.99147 40.2639 10.0109 40.3128 10.1663C40.3323 10.2634 41.3686 15.8384 42.6101 22.5691C43.8614 29.2999 44.9368 34.9817 45.0052 35.1954C45.1225 35.5353 45.1421 33.9231 45.1225 23.6375C45.103 11.7786 45.103 11.6912 44.8977 11.3512C44.7901 11.1667 44.5751 10.9239 44.4089 10.817C44.2427 10.7005 43.881 10.5936 43.5193 10.5451C43.0598 10.4965 42.8838 10.4382 42.8447 10.312C42.7959 10.2051 42.8447 10.0983 42.962 10.0206C43.0891 9.93319 43.7246 9.89434 45.2203 9.89434ZM4.23978 9.99147C7.58314 9.99147 8.11103 10.0109 8.15014 10.1372C8.17946 10.2246 8.13058 10.3508 8.0426 10.4285C7.94484 10.5354 7.69067 10.5742 7.26053 10.5742C6.73263 10.5742 6.63487 10.6034 6.63487 10.749C6.63487 10.8462 7.12367 16.0521 7.71022 22.3263C8.29677 28.6103 8.80512 33.7677 8.83445 33.7871C8.86378 33.8162 8.90288 33.8162 8.93221 33.7871C8.96153 33.7677 9.47966 28.9988 10.0858 23.2005C11.1611 12.9635 11.1904 12.6333 10.9851 10.5742H10.3986C10.076 10.5839 9.73383 10.5257 9.63607 10.4577C9.52854 10.3897 9.47966 10.2634 9.51876 10.1663C9.56764 10.0109 9.84136 9.99147 13.478 9.99147C16.8702 9.99147 17.3981 10.0109 17.4372 10.1372C17.4666 10.2246 17.4274 10.3508 17.3688 10.4382C17.271 10.5451 17.0657 10.5839 16.5867 10.5839C16.1175 10.5839 15.922 10.6131 15.922 10.7005C15.922 10.7685 16.4108 16.0424 17.0071 22.4235C17.6132 28.8143 18.1215 34.059 18.1411 34.0785C18.1606 34.1076 18.19 34.1076 18.2193 34.0785C18.2486 34.059 18.7961 29.2708 19.4511 23.4433C20.2722 16.0132 20.6046 12.6818 20.5655 12.2545C20.5362 11.9243 20.4286 11.4678 20.3211 11.2541C20.2136 11.0404 20.0278 10.8073 19.9105 10.7296C19.7834 10.6616 19.4999 10.5742 19.2751 10.5354C19.0405 10.5062 18.8352 10.4382 18.8058 10.38C18.7765 10.3314 18.7765 10.2246 18.8058 10.1372C18.8449 10.0206 19.1676 10.0012 21.025 10.0206C23.0095 10.04 23.205 10.0595 23.2245 10.2149C23.2441 10.3314 23.1072 10.448 22.7455 10.6131C22.374 10.7879 22.1199 10.9919 21.8364 11.3706C21.6311 11.6523 21.3769 12.1282 21.2889 12.4196C21.1814 12.7692 20.5166 18.519 19.4413 28.4938C18.5223 37.0408 17.7012 44.364 17.623 44.7622C17.5448 45.1701 17.4568 45.5295 17.4372 45.5683C17.4079 45.6072 16.8507 45.646 16.1957 45.646C15.3256 45.646 14.9639 45.6169 14.8857 45.5198C14.8271 45.4518 14.7489 45.0924 14.7098 44.7136C14.6706 44.3446 13.9668 37.8566 13.1358 30.2906C12.2951 22.7343 11.5815 16.4211 11.5326 16.256C11.4837 16.0618 11.4348 16.0132 11.3957 16.1103C11.3664 16.1978 10.7212 22.2681 9.95867 29.6107C9.20593 36.9631 8.51184 43.519 8.43364 44.1795C8.34565 44.8496 8.22834 45.4518 8.16969 45.5198C8.08171 45.6169 7.72 45.646 6.85972 45.646C5.75505 45.6363 5.64751 45.6266 5.55953 45.4421C5.51065 45.3352 5.26625 43.4899 5.03163 41.3434C4.78723 39.1969 3.94651 31.4852 3.16444 24.2203C2.38237 16.9553 1.71761 10.9142 1.69806 10.7976C1.65895 10.6034 1.59052 10.5742 1.09195 10.5839C0.69114 10.5839 0.485846 10.5451 0.407639 10.4382C0.339208 10.3508 0.300104 10.2246 0.329432 10.1372C0.368536 10.0109 0.886657 9.99147 4.23978 9.99147ZM24.3292 9.99147H32.541V10.2343C32.541 10.4771 32.5312 10.4771 30.8791 10.4771V45.1507L31.6905 45.1798C32.4236 45.1993 32.4921 45.2187 32.4921 45.3935C32.4921 45.5878 32.4236 45.5878 28.3373 45.5878C24.251 45.5878 24.1826 45.5878 24.1826 45.3935C24.1826 45.2187 24.2608 45.1993 25.9422 45.1021V10.5257L25.1406 10.5062C24.3488 10.4771 24.3292 10.4771 24.3292 10.2343V9.99147ZM48.8667 9.99147H64.3126L64.2832 17.6449C64.2637 25.2012 64.2637 25.2886 64.0682 25.3178C63.9606 25.3372 63.8433 25.2984 63.8042 25.2304C63.7651 25.1527 63.726 24.6865 63.726 24.1717C63.726 23.6667 63.6185 22.5109 63.4816 21.5979C63.3545 20.6946 63.0808 19.1601 62.8951 18.1985C62.6995 17.237 62.4063 15.9549 62.2499 15.3333C62.0934 14.7215 61.8002 13.7599 61.6144 13.1966C61.4287 12.643 61.1452 11.9048 60.979 11.5746C60.7835 11.157 60.5782 10.8947 60.3338 10.7199C60.0503 10.5354 59.8645 10.4771 59.0825 10.5257V45.1021L60.0601 45.1313C60.6955 45.1507 61.0572 45.209 61.1061 45.277C61.1354 45.345 61.1452 45.4518 61.1256 45.5198C61.0963 45.6169 60.0698 45.6363 51.7994 45.6363V45.1507L54.0968 45.1021V27.8236C54.0968 10.6131 54.0968 10.5354 53.9013 10.4965C53.7937 10.4771 53.5591 10.4868 53.3929 10.5159C53.2169 10.5548 52.9041 10.7296 52.7086 10.9044C52.5033 11.089 52.2198 11.4678 52.0732 11.7591C51.9363 12.0408 51.6724 12.6915 51.5062 13.1966C51.34 13.7114 51.0565 14.7312 50.8707 15.479C50.685 16.2269 50.421 17.4507 50.2842 18.1985C50.1473 18.9464 49.9029 20.4615 49.7465 21.5493C49.5901 22.6468 49.4532 23.9095 49.4532 24.3465C49.4532 24.9293 49.4141 25.1818 49.3066 25.2886C49.2284 25.3761 49.0915 25.4149 49.0133 25.3858C48.8862 25.3469 48.8667 24.4048 48.8667 17.6643V9.99147ZM79.1719 9.99147V16.6445C79.1719 22.54 79.1524 23.3073 79.0253 23.3753C78.9373 23.4141 78.8298 23.4044 78.7809 23.3461C78.7418 23.2976 78.6538 22.608 78.5951 21.8213C78.5365 21.0346 78.4192 19.9371 78.341 19.3932C78.253 18.8493 78.077 17.8974 77.9401 17.2758C77.8033 16.664 77.4904 15.5762 77.2461 14.8477C77.0114 14.129 76.6106 13.1286 76.3662 12.6138C76.0925 12.0505 75.7406 11.5163 75.4669 11.225C75.2225 10.9724 74.8607 10.7102 74.675 10.6519C74.4893 10.5936 73.8245 10.5354 72.0844 10.5257L72.0257 27.3283L72.3483 27.2506C72.5243 27.2117 72.8274 27.1049 73.0131 27.0175C73.1988 26.9301 73.5606 26.6581 73.8049 26.4153C74.0689 26.1531 74.3915 25.6771 74.5968 25.2401C74.7923 24.8419 75.0172 24.23 75.1051 23.8803C75.1833 23.5404 75.3007 22.7925 75.3593 22.2292C75.4082 21.6756 75.4571 20.5878 75.4571 19.8302C75.4571 18.451 75.4571 18.4413 75.897 18.4899V27.5225C75.897 36.4969 75.897 36.5551 75.7015 36.5551C75.5157 36.5551 75.506 36.4774 75.4473 34.6612C75.3984 33.2917 75.3202 32.4856 75.1638 31.7475C75.0465 31.1938 74.8412 30.4654 74.7141 30.1449C74.5772 29.8244 74.3426 29.3679 74.196 29.1251C74.0396 28.892 73.7072 28.5035 73.4628 28.2801C73.1011 27.9499 72.9349 27.8625 72.6514 27.8625C72.4461 27.8625 72.231 27.911 72.1626 27.979C72.0648 28.0761 72.0453 30.0186 72.0844 45.1021L72.8176 45.0827C73.3748 45.073 73.6681 45.0147 74.0396 44.8205C74.3133 44.6942 74.7337 44.3834 74.9976 44.1406C75.2518 43.8978 75.6624 43.383 75.9165 42.9945C76.1707 42.606 76.5422 41.9164 76.7377 41.46C76.9332 41.0132 77.2363 40.1973 77.4025 39.6631C77.5687 39.129 77.8326 38.0606 77.989 37.2836C78.1454 36.5163 78.3507 35.3411 78.4289 34.6903C78.5169 34.0396 78.5854 32.9421 78.5854 32.2622C78.5756 31.2618 78.6049 30.9996 78.732 30.9025C78.8102 30.8345 78.9471 30.8053 79.0253 30.8248C79.1524 30.8733 79.1719 31.7863 79.1719 45.6363H65.2902V45.3935C65.2902 45.1604 65.2999 45.1507 67.0987 45.1021V10.5257L66.3166 10.4965C65.8865 10.4868 65.4954 10.4285 65.4368 10.38C65.3879 10.3314 65.3684 10.2246 65.4075 10.1469C65.4759 10.0109 66.2677 9.99147 79.1719 9.99147ZM132.695 9.99147C135.931 9.99147 136.859 10.0206 136.889 10.1177C136.908 10.1857 136.908 10.2926 136.889 10.3605C136.859 10.448 136.595 10.4771 135.09 10.4771V45.1993L135.94 45.141C136.459 45.1021 136.996 44.9953 137.29 44.8787C137.583 44.7525 137.984 44.4708 138.277 44.16C138.599 43.8298 138.932 43.3248 139.225 42.7226C139.479 42.2175 139.88 41.2171 140.115 40.4887C140.349 39.77 140.662 38.653 140.809 38.012C140.955 37.371 141.2 36.0015 141.347 34.9526C141.503 33.9133 141.659 32.7381 141.689 32.3302C141.718 31.932 141.767 31.5046 141.796 31.3881C141.816 31.2521 141.904 31.1647 142.031 31.1647C142.138 31.1647 142.236 31.223 142.256 31.291C142.275 31.359 142.256 33.3792 142.217 35.7781C142.177 38.1868 142.148 41.392 142.129 45.6363H128.442V45.3935C128.442 45.1604 128.462 45.1507 130.153 45.1021V10.5257L129.371 10.4965C128.941 10.4868 128.55 10.4285 128.491 10.38C128.442 10.3314 128.423 10.2246 128.462 10.1469C128.53 10.0109 129.048 9.99147 132.695 9.99147ZM173.411 9.99147V16.6445C173.411 22.4817 173.392 23.3073 173.265 23.3753C173.187 23.4141 173.089 23.4141 173.04 23.3656C173.001 23.317 172.923 22.5789 172.854 21.7144C172.786 20.85 172.668 19.6845 172.58 19.1212C172.492 18.5676 172.248 17.4507 172.043 16.6445C171.837 15.8481 171.515 14.7797 171.329 14.265C171.143 13.7599 170.84 13.0218 170.645 12.6138C170.459 12.2156 170.136 11.6814 169.951 11.4289C169.755 11.1764 169.413 10.8753 169.188 10.7588C168.826 10.5742 168.602 10.5451 166.324 10.5257L166.304 18.859C166.275 26.7164 166.285 27.1923 166.451 27.2506C166.539 27.2797 166.793 27.2409 167.008 27.1534C167.223 27.066 167.595 26.8329 167.839 26.629C168.084 26.4153 168.416 26.0365 168.592 25.7743C168.758 25.512 168.983 25.075 169.09 24.803C169.198 24.5408 169.364 23.9677 169.452 23.5404C169.569 23.0159 169.648 22.0932 169.687 20.6266C169.745 18.5093 169.745 18.4899 170.185 18.4413V27.474C170.185 35.6325 170.176 36.5163 170.029 36.5843C169.931 36.6328 169.843 36.6037 169.785 36.5066C169.736 36.4289 169.697 35.6907 169.697 34.8555C169.697 34.0299 169.648 33.0295 169.599 32.6216C169.54 32.2234 169.413 31.5435 169.296 31.1161C169.188 30.6888 168.944 30.0381 168.748 29.6593C168.563 29.2902 168.269 28.8143 168.093 28.6103C167.927 28.4064 167.663 28.1538 167.497 28.0567C167.341 27.9499 167.077 27.8722 166.91 27.8625C166.754 27.8625 166.539 27.9402 166.451 28.0373C166.295 28.1927 166.285 28.7657 166.324 45.1021L167.008 45.0924C167.517 45.0924 167.829 45.0244 168.23 44.8399C168.523 44.7039 168.963 44.4223 169.198 44.2183C169.433 44.0143 169.794 43.6064 169.99 43.3053C170.195 43.014 170.547 42.4021 170.772 41.9456C170.997 41.4988 171.358 40.6247 171.564 40.0031C171.769 39.3912 172.062 38.2548 172.229 37.4778C172.385 36.7105 172.59 35.5839 172.668 34.9817C172.756 34.3795 172.825 33.2723 172.825 32.5245C172.825 31.7766 172.874 31.0773 172.923 30.9705C172.981 30.8636 173.108 30.7762 173.216 30.7762C173.411 30.7762 173.411 30.8442 173.411 45.6363L166.5 45.6169C159.657 45.5878 159.579 45.5878 159.579 45.3935C159.579 45.2187 159.657 45.1993 161.387 45.1507V10.4771H160.556C159.979 10.4771 159.715 10.448 159.696 10.3605C159.676 10.2926 159.676 10.1857 159.696 10.1177C159.735 10.0206 161.201 9.99147 173.411 9.99147Z" fill="#CDCDCD"/>
<path d="M15.1012 4.68829C15.0915 5.43615 15.0719 4.84369 15.0719 3.3771C15.0719 1.91052 15.0915 1.29863 15.1012 2.01735C15.1208 2.73608 15.1208 3.94043 15.1012 4.68829Z" fill="black" fill-opacity="0.7"/>
<path d="M6.08787 9.95246C5.01253 9.97189 3.30175 9.97189 2.27528 9.95246C1.25859 9.94275 2.12864 9.93304 4.23046 9.93304C6.33227 9.93304 7.16322 9.94275 6.08787 9.95246Z" fill="black" fill-opacity="0.7"/>
<path d="M15.375 9.95246C14.2996 9.97189 12.5595 9.97189 11.5135 9.95246C10.4675 9.94275 11.3473 9.93304 13.4687 9.93304C15.59 9.93304 16.4503 9.94275 15.375 9.95246Z" fill="black" fill-opacity="0.7"/>
<path d="M22.1203 9.95246C21.5826 9.97189 20.6637 9.97189 20.0674 9.95246C19.4711 9.94275 19.911 9.92333 21.045 9.92333C22.179 9.92333 22.658 9.94275 22.1203 9.95246Z" fill="black" fill-opacity="0.7"/>
<path d="M30.4298 9.95246C29.3545 9.97189 27.5557 9.97189 26.4217 9.95246C25.2877 9.94275 26.1675 9.93304 28.3769 9.93304C30.5862 9.93304 31.5052 9.94275 30.4298 9.95246Z" fill="black" fill-opacity="0.7"/>
<path d="M38.6904 9.95246C37.8008 9.97189 36.3736 9.97189 35.5133 9.95246C34.653 9.94275 35.3764 9.92333 37.1263 9.92333C38.8762 9.92333 39.58 9.94275 38.6904 9.95246Z" fill="black" fill-opacity="0.7"/>
<path d="M48.7791 17.6545C48.7694 13.5169 48.7791 10.069 48.8085 10.001V10.0107C48.811 10.0025 48.8251 9.99477 48.8573 9.98762L48.8573 9.9816L48.8904 9.9815C49.3448 9.91005 51.9965 9.89846 64.3521 9.93304L48.8904 9.9815C48.8777 9.98349 48.8668 9.98553 48.8573 9.98762L48.8085 25.1817L48.7791 17.6545Z" fill="black" fill-opacity="0.7"/>
<path d="M75.8388 9.94275C73.9814 9.96218 70.902 9.96218 68.9957 9.94275C67.0894 9.93304 68.6046 9.92333 72.3683 9.92333C76.1321 9.92333 77.6962 9.93304 75.8388 9.94275Z" fill="black" fill-opacity="0.7"/>
<path d="M134.787 9.94275C133.683 9.96218 131.835 9.96218 130.681 9.94275C129.528 9.93304 130.427 9.92333 132.686 9.92333C134.944 9.92333 135.892 9.93304 134.787 9.94275Z" fill="black" fill-opacity="0.7"/>
<path d="M173.402 9.97189L166.637 9.94275L159.862 9.92333H173.451V23.1809L173.402 9.97189Z" fill="black" fill-opacity="0.7"/>
<path d="M86.9637 22.8312C86.954 25.0748 86.9344 23.2197 86.9344 18.7034C86.9344 14.1968 86.954 12.3612 86.9637 14.6242C86.9735 16.8969 86.9735 20.5876 86.9637 22.8312Z" fill="black" fill-opacity="0.7"/>
<path d="M170.254 32.0095C170.244 34.4474 170.225 32.4078 170.225 27.4932C170.225 22.5787 170.244 20.5974 170.254 23.074C170.264 25.5604 170.264 29.5814 170.254 32.0095Z" fill="black" fill-opacity="0.7"/>
<path d="M173.402 45.607L173.431 38.2547L173.451 30.8926L173.48 38.177C173.49 42.1882 173.48 45.5196 173.461 45.5876C173.422 45.6847 171.955 45.7042 159.667 45.6653L173.402 45.607Z" fill="black" fill-opacity="0.7"/>
<path d="M30.3907 45.6847C29.286 45.7042 27.4579 45.7042 26.3337 45.6847C25.1997 45.675 26.1089 45.6556 28.3378 45.6556C30.5667 45.6556 31.4954 45.675 30.3907 45.6847Z" fill="black" fill-opacity="0.7"/>
<path d="M37.2338 45.6847C36.618 45.7042 35.5622 45.7042 34.8876 45.6847C34.2131 45.675 34.7214 45.6556 36.0118 45.6556C37.3023 45.6556 37.8497 45.675 37.2338 45.6847Z" fill="black" fill-opacity="0.7"/>
<path d="M44.8101 45.6847C44.2725 45.7042 43.4122 45.7042 42.9038 45.6847C42.3955 45.675 42.8354 45.6556 43.8814 45.6556C44.9274 45.6556 45.3478 45.675 44.8101 45.6847Z" fill="black" fill-opacity="0.7"/>
<path d="M58.7896 45.6847C57.5481 45.7042 55.4854 45.7042 54.195 45.6847C52.9046 45.675 53.9115 45.6653 56.4434 45.6653C58.9656 45.6653 60.0214 45.675 58.7896 45.6847Z" fill="black" fill-opacity="0.7"/>
<path d="M75.7997 45.6847C73.9129 45.7042 70.814 45.7042 68.9077 45.6847C67.0014 45.675 68.5362 45.6653 72.3292 45.6653C76.1223 45.6653 77.6767 45.675 75.7997 45.6847Z" fill="black" fill-opacity="0.7"/>
<path d="M138.805 45.6847C136.948 45.7042 133.868 45.7042 131.962 45.6847C130.056 45.675 131.571 45.6653 135.335 45.6653C139.099 45.6653 140.663 45.675 138.805 45.6847Z" fill="black" fill-opacity="0.7"/>
<path d="M10.5061 4.68791C10.4964 5.43577 10.4768 4.84331 10.4768 3.37672C10.4768 1.91013 10.4964 1.29824 10.5061 2.01697C10.5257 2.73569 10.5257 3.94004 10.5061 4.68791Z" fill="black" fill-opacity="0.5"/>
<path d="M16.2739 3.42528C16.2641 3.95947 16.2446 3.56126 16.2446 2.55116C16.2446 1.54106 16.2641 1.09428 16.2739 1.57991C16.2935 2.06553 16.2935 2.89109 16.2739 3.42528Z" fill="black" fill-opacity="0.5"/>
<path d="M17.447 3.27959C17.4372 3.78464 17.4177 3.41557 17.4177 2.45403C17.4177 1.49249 17.4372 1.07486 17.447 1.53134C17.4666 1.98783 17.4666 2.77454 17.447 3.27959Z" fill="black" fill-opacity="0.5"/>
<path d="M64.3712 21.3448C64.3615 23.4525 64.3517 21.7528 64.3517 17.557C64.3517 13.3612 64.3615 11.6323 64.3712 13.7205C64.3908 15.799 64.3908 19.2372 64.3712 21.3448Z" fill="black" fill-opacity="0.5"/>
<path d="M79.2306 19.9365C79.2208 21.7528 79.211 20.2473 79.211 16.5857C79.211 12.9241 79.2208 11.4381 79.2306 13.2835C79.2501 15.1288 79.2501 18.1203 79.2306 19.9365Z" fill="black" fill-opacity="0.5"/>
<path d="M25.952 36.3992C25.9422 41.1778 25.9325 37.3122 25.9325 27.8036C25.9325 18.2951 25.9422 14.381 25.952 19.111C25.9716 23.841 25.9716 31.6207 25.952 36.3992Z" fill="black" fill-opacity="0.5"/>
<path d="M35.4346 34.7481C35.4249 39.2061 35.4151 35.5834 35.4151 26.6867C35.4151 17.7901 35.4249 14.1382 35.4346 18.5768C35.4542 23.0154 35.4542 30.29 35.4346 34.7481Z" fill="black" fill-opacity="0.5"/>
<path d="M54.1066 36.3992C54.0968 41.1778 54.087 37.3122 54.087 27.8036C54.087 18.2951 54.0968 14.381 54.1066 19.111C54.1261 23.841 54.1261 31.6207 54.1066 36.3992Z" fill="black" fill-opacity="0.5"/>
<path d="M119.116 22.8503C119.106 25.0939 119.097 23.2388 119.097 18.7225C119.097 14.2062 119.106 12.3705 119.116 14.6432C119.136 16.9159 119.136 20.6067 119.116 22.8503Z" fill="black" fill-opacity="0.5"/>
<path d="M130.163 36.3992C130.153 41.1778 130.143 37.3122 130.143 27.8036C130.143 18.2951 130.153 14.381 130.163 19.111C130.182 23.841 130.182 31.6207 130.163 36.3992Z" fill="black" fill-opacity="0.5"/>
<path d="M166.334 22.996C166.324 25.3172 166.314 23.4622 166.314 18.8682C166.314 14.2741 166.324 12.3705 166.334 14.6432C166.353 16.9159 166.353 20.6747 166.334 22.996Z" fill="black" fill-opacity="0.5"/>
<path d="M122.049 22.0733C122.039 23.8895 122.029 22.4229 122.029 18.8196C122.029 15.2163 122.039 13.7302 122.049 15.5173C122.068 17.3044 122.068 20.257 122.049 22.0733Z" fill="black" fill-opacity="0.5"/>
<path d="M36.0896 43.198C36.0701 43.2271 36.0407 36.5546 36.0407 28.3864C36.0407 20.2085 36.0701 13.5457 36.0994 13.5748C36.1189 13.604 36.1483 20.2668 36.1385 28.3864C36.1385 36.506 36.1189 43.1688 36.0896 43.198Z" fill="black" fill-opacity="0.5"/>
<path d="M119.116 40.7213C119.106 43.13 119.097 41.1389 119.097 36.3021C119.097 31.4653 119.106 29.5033 119.116 31.9315C119.136 34.3596 119.136 38.3126 119.116 40.7213Z" fill="black" fill-opacity="0.5"/>
<path d="M166.334 40.867C166.324 43.1882 166.314 41.3137 166.314 36.6906C166.314 32.0674 166.324 30.1735 166.334 32.4656C166.353 34.7578 166.353 38.5457 166.334 40.867Z" fill="black" fill-opacity="0.5"/>
<path d="M122.049 39.6043C122.039 41.6051 122.029 40.0123 122.029 36.0593C122.029 32.1063 122.039 30.4649 122.049 32.4171C122.068 34.3693 122.068 37.6036 122.049 39.6043Z" fill="black" fill-opacity="0.5"/>
<path d="M79.2306 41.9353C79.2208 43.9944 79.211 42.353 79.211 38.2931C79.211 34.2333 79.2208 32.5531 79.2306 34.5538C79.2501 36.5546 79.2501 39.8763 79.2306 41.9353Z" fill="black" fill-opacity="0.5"/>
<path d="M0.828156 4.68829C0.81838 5.43615 0.798828 4.84369 0.798828 3.3771C0.798828 1.91052 0.81838 1.29863 0.828156 2.01735C0.847708 2.73608 0.847708 3.94043 0.828156 4.68829Z" fill="black" fill-opacity="0.3"/>
<path d="M59.0924 36.3996C59.0826 41.1781 59.0728 37.3126 59.0728 27.804C59.0728 18.2955 59.0826 14.3814 59.0924 19.1113C59.1119 23.8413 59.1119 31.621 59.0924 36.3996Z" fill="black" fill-opacity="0.3"/>
<path d="M67.1086 36.3996C67.0988 41.1781 67.0891 37.3126 67.0891 27.804C67.0891 18.2955 67.0988 14.3814 67.1086 19.1113C67.1282 23.8413 67.1282 31.621 67.1086 36.3996Z" fill="black" fill-opacity="0.3"/>
<path d="M72.0943 22.9963C72.0845 25.3176 72.0748 23.4625 72.0748 18.8685C72.0748 14.2745 72.0845 12.3709 72.0943 14.6436C72.1139 16.9163 72.1139 20.6751 72.0943 22.9963Z" fill="black" fill-opacity="0.3"/>
<path d="M89.9842 21.8308C89.9744 23.6762 89.9646 22.2096 89.9646 18.5772C89.9646 14.9447 89.9744 13.4392 89.9842 15.2263C90.0037 17.0134 90.0037 19.9855 89.9842 21.8308Z" fill="black" fill-opacity="0.3"/>
<path d="M45.064 35.3506C45.0249 35.2244 45.0054 30.0185 45.0249 23.7636C45.0347 17.5185 45.064 12.4097 45.0933 12.4097C45.1227 12.4097 45.1422 17.6253 45.1324 23.9967C45.1227 30.3584 45.0933 35.4769 45.064 35.3506Z" fill="black" fill-opacity="0.3"/>
<path d="M45.7972 37.468C45.7874 41.9843 45.7777 38.3324 45.7777 29.358C45.7777 20.3837 45.7874 16.6929 45.7972 21.151C45.8168 25.609 45.8168 32.9517 45.7972 37.468Z" fill="black" fill-opacity="0.3"/>
<path d="M76.0047 31.9318C75.9949 34.4182 75.9851 32.4078 75.9851 27.4641C75.9851 22.5204 75.9949 20.4905 76.0047 22.9478C76.0242 25.405 76.0242 29.4454 76.0047 31.9318Z" fill="black" fill-opacity="0.3"/>
<path d="M72.0943 40.8673C72.0845 43.1886 72.0748 41.3141 72.0748 36.691C72.0748 32.0678 72.0845 30.1739 72.0943 32.466C72.1139 34.7582 72.1139 38.546 72.0943 40.8673Z" fill="black" fill-opacity="0.3"/>
</svg>
