<svg width="201" height="65" viewBox="0 0 201 65" fill="none" xmlns="http://www.w3.org/2000/svg">
<path d="M169.746 6.25369V3.3705V0.487305H176.462L176.407 6.30861L174.525 7.62664C173.482 8.34058 172.026 9.34283 171.298 9.85082C170.557 10.3588 169.925 10.7158 169.884 10.6471C169.843 10.5922 169.829 9.97439 169.884 8.03853L170.9 7.25595C171.463 6.8166 171.902 6.41845 171.861 6.36353C171.834 6.29488 171.339 6.25369 169.746 6.25369Z" fill="#CDCDCD"/>
<path d="M96.552 2.68402C97.0464 2.51927 97.8704 2.2996 98.4059 2.18976C99.0514 2.0662 100.136 2.02501 101.702 2.05247C103.583 2.09366 104.256 2.1623 105.204 2.40943C105.849 2.57419 106.865 2.94488 107.469 3.21947C108.074 3.49406 108.994 4.01579 109.529 4.37275C110.065 4.71599 110.916 5.40246 112.413 6.76168L110.559 8.71127C109.543 9.78217 108.664 10.6471 108.595 10.6471C108.541 10.6471 108.019 10.3039 107.428 9.87828C106.851 9.43894 105.876 8.8623 105.272 8.57398C104.668 8.29939 103.775 7.95615 103.281 7.81886C102.787 7.69529 101.976 7.58545 101.482 7.57172C100.905 7.55799 100.452 7.62664 100.219 7.76394C100.013 7.87377 99.7929 8.10717 99.7105 8.28566C99.6144 8.50533 99.6281 8.71127 99.8066 9.0957C99.944 9.37029 100.301 9.75471 100.603 9.96066C100.905 10.1666 101.413 10.4686 101.729 10.6334C102.059 10.7844 102.979 11.1139 103.789 11.3473C104.613 11.5807 105.89 12.0064 106.645 12.3084C107.401 12.5967 108.499 13.1184 109.076 13.4617C109.667 13.8049 110.587 14.4914 111.122 14.9994C111.768 15.6172 112.235 16.2076 112.495 16.7568C112.77 17.3197 112.921 17.8826 112.99 18.5416C113.031 19.0633 112.99 19.8459 112.907 20.2578C112.825 20.6697 112.564 21.4111 112.331 21.9053C112.015 22.5231 111.562 23.1272 110.806 23.8549C109.928 24.7336 109.488 25.0494 108.321 25.6123C107.552 25.9967 106.302 26.4635 105.547 26.6557C104.489 26.9303 103.707 27.0401 102.182 27.0813C101.056 27.1225 99.6007 27.0951 98.8179 26.999C98.0626 26.9166 96.9503 26.7106 96.346 26.5596C95.7418 26.3949 94.6981 26.0104 94.0115 25.6809C93.3249 25.3514 92.3773 24.8022 91.883 24.4315C91.3886 24.0746 90.6333 23.4705 90.1939 23.0861C89.7682 22.7016 89.4111 22.2897 89.4111 22.1799C89.4111 22.0701 90.4136 20.9717 93.8742 17.5393L94.9041 18.3906C95.4672 18.8574 96.3048 19.4615 96.758 19.7361C97.2112 20.0106 98.1313 20.4225 98.8179 20.6559C99.5732 20.9168 100.48 21.109 101.152 21.1639C102.059 21.2188 102.333 21.1914 102.732 20.9854C102.993 20.8481 103.267 20.5736 103.35 20.3676C103.459 20.0793 103.432 19.8871 103.267 19.5438C103.144 19.2967 102.8 18.926 102.512 18.7201C102.224 18.5141 100.988 18.0199 99.7792 17.608C98.5707 17.1961 97.0876 16.6332 96.4834 16.3586C95.8791 16.084 94.9591 15.576 94.4235 15.2602C93.8879 14.9307 93.0914 14.2717 92.652 13.7912C92.1988 13.3107 91.677 12.5693 91.4847 12.1574C91.2101 11.567 91.114 11.1277 91.0865 10.1666C91.059 9.48012 91.1002 8.58771 91.1964 8.17582C91.2925 7.76394 91.5534 7.02254 91.7868 6.54201C92.0478 6.02029 92.5696 5.29263 93.0502 4.8121C93.5034 4.34529 94.2724 3.7412 94.7668 3.46661C95.2612 3.20574 96.0577 2.84878 96.552 2.68402Z" fill="#CDCDCD"/>
<path d="M123.33 2.65657C123.825 2.49181 124.566 2.28587 124.978 2.18976C125.39 2.10739 126.64 2.02501 127.752 2.01128C129.043 1.99755 130.142 2.0662 130.773 2.20349C131.323 2.31333 132.202 2.57419 132.737 2.78013C133.273 2.9998 134.001 3.34304 134.385 3.56271C134.756 3.78238 135.594 4.49632 136.239 5.1416C137.173 6.08894 137.544 6.5832 138.079 7.62664C138.464 8.35431 138.889 9.4664 139.068 10.1666C139.233 10.8531 139.452 12.0887 139.535 12.9125C139.617 13.7363 139.645 14.9445 139.604 15.5898C139.549 16.235 139.398 17.3471 139.26 18.0611C139.109 18.775 138.807 19.8322 138.574 20.3951C138.354 20.958 137.956 21.7543 137.708 22.1662C137.475 22.5781 136.775 23.4156 136.17 24.0334C135.278 24.9258 134.825 25.2553 133.767 25.7908C133.053 26.1477 131.968 26.5733 131.364 26.7381C130.444 26.9852 129.881 27.0264 127.862 27.0401C125.816 27.0401 125.294 26.999 124.36 26.7381C123.756 26.5733 122.713 26.1615 122.026 25.832C121.229 25.4338 120.46 24.9121 119.842 24.3492C119.321 23.8686 118.606 23.0449 118.263 22.5231C117.906 22.0014 117.412 21.0678 117.165 20.4637C116.904 19.8596 116.588 18.8025 116.45 18.1297C116.327 17.4432 116.176 16.2762 116.121 15.5211C116.066 14.7248 116.093 13.5441 116.19 12.7066C116.286 11.9102 116.464 10.7982 116.615 10.2352C116.753 9.67234 117.151 8.65635 117.48 7.96988C117.796 7.28341 118.373 6.36353 118.73 5.91046C119.087 5.45738 119.719 4.8121 120.131 4.46886C120.529 4.12562 121.216 3.64509 121.655 3.41169C122.081 3.16456 122.836 2.82132 123.33 2.65657Z" fill="#CDCDCD"/>
<path d="M184.646 2.42316C185.25 2.27214 185.923 2.12111 186.157 2.09366C186.39 2.0662 187.406 2.02501 188.423 2.01128C189.631 1.99755 190.675 2.0662 191.444 2.21722C192.089 2.34079 192.982 2.56046 193.435 2.71148C193.888 2.87624 194.63 3.17829 195.083 3.41169C195.536 3.63136 196.346 4.11189 196.868 4.46886C197.39 4.82583 198.228 5.49857 199.615 6.77541L198.379 8.06599C197.706 8.76619 196.854 9.65861 196.484 10.0293C195.989 10.5373 195.77 10.6746 195.646 10.5785C195.536 10.5098 195.001 10.1254 194.451 9.74099C193.888 9.35656 193.119 8.88976 192.748 8.69754C192.364 8.50533 191.677 8.21701 191.197 8.05226C190.73 7.90123 189.892 7.69529 189.343 7.59918C188.491 7.46189 188.272 7.47562 187.736 7.66783C187.352 7.80513 187.049 8.0248 186.94 8.24447C186.802 8.53279 186.816 8.67008 187.008 9.08197C187.146 9.35656 187.475 9.74099 187.736 9.9332C187.997 10.1254 188.587 10.4549 189.041 10.6609C189.494 10.8531 190.455 11.1963 191.169 11.4023C191.883 11.5945 193.092 12.0064 193.847 12.3084C194.602 12.5967 195.701 13.1184 196.278 13.4617C196.868 13.8049 197.788 14.4914 198.324 15.0131C198.997 15.6584 199.422 16.2076 199.725 16.8254C200.137 17.6492 200.164 17.8139 200.15 19.0908C200.15 20.2029 200.082 20.6147 199.821 21.2875C199.642 21.7406 199.216 22.482 198.873 22.935C198.53 23.3744 197.871 24.0471 197.417 24.4178C196.964 24.7748 196.25 25.269 195.838 25.4887C195.426 25.7221 194.534 26.0928 193.847 26.3262C193.16 26.5596 192.089 26.8342 191.444 26.9303C190.798 27.0402 189.508 27.1225 188.56 27.1225C187.612 27.1225 186.225 27.0264 185.47 26.9166C184.715 26.8067 183.657 26.5871 183.136 26.4361C182.614 26.285 181.749 25.9555 181.213 25.7084C180.691 25.475 179.785 24.9395 179.222 24.5277C178.659 24.1158 177.835 23.4705 177.395 23.0861C176.97 22.7016 176.613 22.2897 176.613 22.1799C176.626 22.0701 177.629 20.9717 181.076 17.5256L181.831 18.1846C182.243 18.5553 183.026 19.1182 183.548 19.4615C184.069 19.8047 184.907 20.2441 185.402 20.4363C185.896 20.6422 186.734 20.9031 187.255 21.0129C187.777 21.1227 188.491 21.2188 188.835 21.2188C189.178 21.2188 189.672 21.109 189.933 20.9717C190.194 20.8481 190.469 20.5736 190.551 20.3676C190.661 20.0793 190.634 19.8871 190.441 19.5027C190.29 19.1869 189.961 18.8848 189.48 18.6102C189.096 18.3906 187.832 17.8963 186.706 17.5119C185.566 17.1275 184.097 16.5508 183.41 16.2213C182.724 15.9055 181.804 15.3975 181.35 15.0818C180.897 14.7797 180.197 14.1619 179.799 13.7225C179.387 13.2832 178.892 12.5693 178.7 12.1574C178.384 11.5258 178.316 11.1826 178.288 10.0293C178.247 8.9584 178.302 8.46414 178.522 7.76394C178.673 7.26968 178.961 6.56947 179.167 6.18505C179.373 5.81435 179.922 5.12787 180.389 4.6748C180.952 4.12562 181.611 3.65882 182.38 3.27439C183.026 2.94488 184.042 2.57419 184.646 2.42316Z" fill="#CDCDCD"/>
<path d="M0.698975 26.5733V14.56V2.54673H7.38672C11.2044 2.54673 14.5963 2.60165 15.2555 2.68402C15.9009 2.7664 16.9171 2.98607 17.5213 3.16456C18.1256 3.34304 18.9907 3.71374 19.4439 3.98833C19.8971 4.26292 20.5287 4.74345 20.8583 5.05923C21.1742 5.37501 21.6273 6.00656 21.8471 6.45964C22.0943 6.92644 22.3277 7.68156 22.3964 8.21701C22.4925 8.82111 22.4925 9.42521 22.3964 10.0018C22.314 10.4686 22.108 11.1689 21.9295 11.5395C21.7509 11.924 21.339 12.4869 21.0094 12.8164C20.6798 13.1459 20.1442 13.5303 19.8147 13.6676C19.4988 13.8186 19.2379 13.9834 19.2379 14.052C19.2379 14.107 19.54 14.258 19.9245 14.3953C20.2953 14.5189 20.9407 14.8895 21.3252 15.2191C21.7235 15.5486 22.1904 16.0291 22.3689 16.29C22.5474 16.5508 22.8083 17.0863 22.9457 17.4844C23.0967 17.8688 23.2615 18.7338 23.3027 19.4066C23.3714 20.1891 23.3439 20.8619 23.2203 21.3561C23.1242 21.768 22.8907 22.427 22.7122 22.7977C22.52 23.1822 22.2041 23.6902 21.9981 23.9373C21.8059 24.1844 21.2428 24.6649 20.7485 24.9807C20.2541 25.3102 19.4988 25.7084 19.0594 25.8731C18.6337 26.0242 17.6998 26.2576 17.0132 26.3674C15.997 26.5322 14.2255 26.5733 0.698975 26.5733Z" fill="#CDCDCD"/>
<path d="M28.576 26.5733V14.56V2.54673H36.8155V26.5733H28.576Z" fill="#CDCDCD"/>
<path d="M42.5832 26.5733V14.56V2.54673H51.372V19.9832H61.9461V26.5733H42.5832Z" fill="#CDCDCD"/>
<path d="M66.7524 26.5733V14.56V2.54673H75.5413V19.9832H86.1153V26.5733H66.7524Z" fill="#CDCDCD"/>
<path d="M143.655 26.5733V14.56V2.54673L151.688 2.533L154.023 5.86927C155.3 7.69529 156.646 9.58996 156.989 10.0842L158.239 11.8828C158.582 12.377 158.939 12.7889 159.021 12.8164C159.131 12.8301 159.172 11.4023 159.172 2.54673H166.725V26.5733L160.34 26.5596L159.282 25.0219C158.705 24.1707 157.909 23.0174 157.511 22.4545C157.113 21.8916 155.767 19.942 154.517 18.1434C153.267 16.3449 152.196 14.8484 152.128 14.8209C152.073 14.7934 152.031 17.4158 152.031 26.5733H143.655Z" fill="#CDCDCD"/>
<path d="M0.904963 41.6071C0.904963 39.8772 0.863765 38.0237 0.808835 37.4883L0.698975 36.5272L3.69267 36.5547C5.32684 36.5684 6.91981 36.6371 7.22193 36.7194C7.52404 36.7881 7.99095 36.994 8.25187 37.1725C8.51278 37.351 8.8561 37.708 9.03462 37.9688C9.21314 38.2297 9.39167 38.6965 9.43286 38.9985C9.47406 39.3006 9.4466 39.8086 9.3642 40.1381C9.28181 40.4539 9.06209 40.9069 8.52652 41.5385L8.93849 41.8131C9.17195 41.9641 9.4466 42.2799 9.55646 42.4996C9.66632 42.7192 9.80364 43.1448 9.84484 43.4332C9.88604 43.7078 9.85857 44.202 9.77618 44.5315C9.69378 44.861 9.4054 45.3416 9.11702 45.6573C8.8149 45.9731 8.32053 46.3164 7.97722 46.4399C7.48284 46.6184 6.70009 46.6733 0.698975 46.7557L0.808835 45.7672C0.863765 45.218 0.904963 43.3371 0.904963 41.6071Z" fill="#CDCDCD"/>
<path d="M196.511 38.4905V36.5959C196.525 36.5547 197.198 36.541 198.008 36.5684C198.818 36.5821 199.491 36.6096 199.505 36.6371C199.519 36.6508 199.477 36.9803 199.395 37.351C199.299 37.7766 199.271 39.6164 199.313 42.1563C199.34 44.4217 199.409 46.385 199.464 46.5223C199.546 46.742 199.422 46.7557 196.264 46.7557L196.401 46.3164C196.47 46.0692 196.525 45.1219 196.47 42.5682H192.899V44.2844C192.899 45.2317 192.941 46.1653 193.105 46.7557H189.81L189.947 46.385C190.043 46.1379 190.084 44.353 190.016 36.5959H193.105L192.954 37.1862C192.886 37.502 192.831 38.3258 192.899 40.2342L196.539 40.3028L196.511 38.4905Z" fill="#CDCDCD"/>
<path d="M117.851 57.3961C118.098 57.1764 118.606 56.8743 118.991 56.7371C119.527 56.5586 119.952 56.5174 120.694 56.5723C121.257 56.6135 121.916 56.7508 122.204 56.9018C122.493 57.0391 122.822 57.2725 122.96 57.4098C123.097 57.5608 123.248 57.9041 123.413 58.7004H122.479C121.847 58.7004 121.518 58.6455 121.449 58.5082C121.394 58.4121 121.216 58.261 121.037 58.1649C120.872 58.0825 120.57 58.0139 120.392 58.0139C120.199 58.0139 119.87 58.0963 119.664 58.2061C119.458 58.3022 119.238 58.4944 119.183 58.618C119.128 58.7416 119.087 59.0299 119.087 59.2495C119.087 59.4692 119.128 59.6614 119.183 59.6614C119.238 59.6614 119.527 59.5791 119.801 59.4555C120.09 59.3457 120.584 59.2495 120.9 59.2495C121.229 59.2495 121.724 59.3319 122.012 59.428C122.301 59.5104 122.74 59.7987 122.973 60.0459C123.385 60.4715 123.413 60.5539 123.413 61.5836C123.413 62.5446 123.372 62.6957 123.07 63.0252C122.877 63.2311 122.479 63.5194 122.177 63.6842C121.724 63.9176 121.38 63.9725 120.392 63.9725C119.389 63.9725 119.046 63.9176 118.606 63.6842C118.304 63.5194 117.92 63.2448 117.741 63.0663C117.577 62.9016 117.384 62.5309 117.302 62.27C117.219 62.0092 117.165 61.1168 117.165 60.2793C117.165 59.4555 117.219 58.5493 117.288 58.2885C117.371 58.0276 117.618 57.6157 117.851 57.3961Z" fill="#CDCDCD"/>
<path d="M68.6887 63.9176V60.2793V56.6409H74.3191L74.2504 58.2198L70.6113 58.2885V59.5241H74.0444V61.0344H70.6113V62.27H74.4564V63.9176H68.6887Z" fill="#CDCDCD"/>
<path d="M84.7558 58.2885V57.4647V56.6409H91.0728V58.2885H88.8755V63.9176H86.953V58.2885H84.7558Z" fill="#CDCDCD"/>
<path d="M93.1326 61.309L93.1464 58.9612L93.1601 56.6135L94.6432 56.6547C95.8929 56.6959 96.195 56.7508 96.5108 56.9979C96.7306 57.1627 97.0189 57.4373 97.1563 57.6157C97.2936 57.808 97.4446 58.2748 97.4721 58.7004C97.527 59.2221 97.4858 59.634 97.3348 60.0047C97.1975 60.3342 96.9091 60.6911 96.607 60.8971C96.1538 61.1991 95.9478 61.2403 93.1326 61.309Z" fill="#CDCDCD"/>
<path d="M126.091 60.7598V58.7004V56.6272L131.515 56.7096V58.2198L130.073 58.2473C129.277 58.261 128.453 58.2748 128.247 58.2748C127.917 58.2885 127.876 58.3434 127.876 59.1809L129.071 59.2633C129.826 59.3182 130.471 59.4418 130.815 59.6065C131.117 59.7438 131.446 60.0184 131.57 60.2106C131.68 60.4028 131.817 60.801 131.872 61.103C131.913 61.4051 131.9 61.8993 131.831 62.2014C131.762 62.5034 131.543 62.9291 131.337 63.135C131.131 63.3547 130.746 63.6155 130.485 63.7254C130.224 63.8352 129.73 63.9588 129.387 64C129.043 64.0411 128.412 64.0137 127.972 63.9313C127.464 63.8352 127.025 63.643 126.75 63.3959C126.516 63.1899 126.228 62.8192 126.132 62.5721C126.036 62.3387 125.953 62.0092 125.953 61.8582C125.953 61.611 126.036 61.5836 126.915 61.5836C127.588 61.5836 127.876 61.6385 127.862 61.7483C127.862 61.8444 127.972 62.0366 128.109 62.1739C128.26 62.325 128.576 62.4073 128.975 62.4211C129.469 62.4348 129.634 62.3661 129.84 62.1053C129.977 61.9268 130.073 61.6797 130.073 61.5424C130.073 61.4188 129.936 61.1854 129.757 61.0344C129.483 60.7873 129.263 60.7598 126.091 60.7598Z" fill="#CDCDCD"/>
<path d="M152.31 15.974C152.214 16.1525 152.187 16.0976 152.173 15.6995C152.173 15.4111 152.214 15.1777 152.255 15.1777C152.296 15.1777 152.516 15.4661 152.75 15.8368C153.134 16.4408 153.134 16.4546 152.805 16.1113C152.475 15.7544 152.434 15.7544 152.31 15.974Z" fill="#121C22"/>
<path d="M119.325 58.9748C119.311 58.6179 119.38 58.5218 119.778 58.357C120.039 58.2472 120.286 58.1648 120.355 58.1511C120.41 58.1511 120.616 58.2197 120.835 58.3021C121.041 58.3845 121.275 58.5355 121.343 58.6316C121.412 58.7414 121.659 58.8375 121.893 58.865C122.154 58.8925 122.318 58.9886 122.332 59.1533C122.373 59.3455 122.318 59.3593 122.099 59.2494C121.948 59.1808 121.467 59.1121 121.041 59.1121C120.602 59.1121 120.039 59.167 119.805 59.2494C119.366 59.3867 119.352 59.373 119.325 58.9748Z" fill="#121C22"/>
<path d="M129.034 59.1121C128.031 59.1121 128.004 59.0984 128.004 58.7689C128.004 58.4394 128.031 58.4256 128.965 58.4256C129.514 58.4256 129.926 58.4806 129.926 58.5629C129.926 58.6453 129.954 58.7963 129.995 58.9062C130.05 59.0709 129.885 59.1121 129.034 59.1121Z" fill="#121C22"/>
<path d="M127.454 61.1715C127.386 61.1715 127.317 61.1166 127.317 61.0343C127.317 60.9519 127.701 60.897 128.21 60.897C128.704 60.897 129.253 60.9793 129.446 61.0754C129.693 61.1853 129.789 61.35 129.789 61.6246C129.789 61.858 129.693 62.0502 129.514 62.1326C129.363 62.215 129.075 62.2699 128.869 62.2699C128.649 62.2699 128.374 62.1601 128.237 62.0228C128.1 61.8992 127.99 61.707 128.004 61.6246C128.004 61.5285 127.88 61.4461 127.729 61.4461C127.578 61.4461 127.482 61.3912 127.523 61.3088C127.564 61.2402 127.523 61.1715 127.454 61.1715Z" fill="#121C22"/>
<path d="M95.5674 61.5834C95.4163 61.6658 94.9769 61.6795 94.3864 61.5972L93.4663 61.4873L94.6336 61.4736C95.4575 61.4599 95.7322 61.4873 95.5674 61.5834Z" fill="#121C22"/>
<path d="M72.5928 62.0914C72.277 62.1189 71.7277 62.1189 71.3569 62.0914C70.9724 62.064 71.2196 62.0365 71.9062 62.0365C72.5791 62.0365 72.895 62.0502 72.5928 62.0914Z" fill="#121C22"/>
<path d="M169.707 4.81241C169.693 5.63618 169.665 4.9909 169.665 3.37082C169.665 1.75074 169.693 1.06426 169.707 1.86057C169.734 2.65688 169.734 3.97491 169.707 4.81241Z" fill="#121C22"/>
<path d="M28.3302 3.72778C28.3027 3.20606 28.3165 2.69807 28.3577 2.58824C28.3989 2.49213 28.6186 2.42348 29.3327 2.45094L28.4401 2.54705L28.3851 4.67512L28.3302 3.72778Z" fill="#121C22"/>
<path d="M36.9542 2.54705L36.6384 2.49213C36.3912 2.43721 36.3912 2.43721 37.0229 2.4784V24.6515L36.9542 2.54705Z" fill="#121C22"/>
<path d="M42.5434 21.0819C42.5296 24.1435 42.5159 21.6722 42.5159 15.5901C42.5159 9.5079 42.5296 7.00913 42.5434 10.0296C42.5708 13.0501 42.5708 18.0202 42.5434 21.0819Z" fill="#121C22"/>
<path d="M66.7126 21.0819C66.6989 24.1435 66.6852 21.6722 66.6852 15.5901C66.6852 9.5079 66.6989 7.00913 66.7126 10.0296C66.7401 13.0501 66.7401 18.0202 66.7126 21.0819Z" fill="#121C22"/>
<path d="M116.012 14.9722C115.985 15.2743 115.957 15.0821 115.957 14.5604C115.957 14.0249 115.985 13.7778 116.012 14.0112C116.04 14.2308 116.04 14.6702 116.012 14.9722Z" fill="#121C22"/>
<path d="M0.65915 26.0245C0.631685 26.3677 0.60422 26.1481 0.60422 25.544C0.60422 24.9399 0.631685 24.6653 0.65915 24.9261C0.686615 25.187 0.686615 25.6812 0.65915 26.0245Z" fill="#121C22"/>
<path d="M2.38945 36.4864C1.33204 36.5138 0.480628 36.4864 0.508093 36.4314V36.4177C0.54929 36.3628 1.88135 36.3353 3.48805 36.3491C5.09476 36.3628 5.93244 36.3903 5.36941 36.4177C4.80637 36.4452 3.46059 36.4726 2.38945 36.4864Z" fill="#121C22"/>
<path d="M192.269 36.4314C191.775 36.4589 191.006 36.4589 190.553 36.4314C190.099 36.404 190.498 36.3903 191.445 36.3903C192.393 36.3903 192.764 36.404 192.269 36.4314Z" fill="#121C22"/>
<path d="M198.723 36.4314C198.229 36.4589 197.46 36.4589 197.007 36.4314C196.554 36.404 196.952 36.3903 197.899 36.3903C198.847 36.3903 199.218 36.404 198.723 36.4314Z" fill="#121C22"/>
<path d="M190.031 42.6509C190.003 43.0628 189.99 42.7882 189.99 42.0331C189.99 41.278 190.003 40.9347 190.031 41.278C190.058 41.6212 190.058 42.239 190.031 42.6509Z" fill="#121C22"/>
<path d="M117.111 61.1857C117.097 61.7486 117.07 61.3505 117.07 60.2933C117.07 59.2361 117.084 58.7693 117.111 59.2636C117.138 59.7579 117.138 60.6228 117.111 61.1857Z" fill="#121C22"/>
<path d="M158.995 8.03968C158.982 8.75361 158.954 8.23189 158.954 6.87267C158.954 5.51345 158.982 4.92309 158.995 5.56837C159.023 6.21366 159.023 7.32575 158.995 8.03968Z" fill="#121C22"/>
<path d="M125.9 58.9761C125.873 59.4704 125.859 59.1271 125.859 58.221C125.859 57.3148 125.873 56.9167 125.9 57.3286C125.927 57.7404 125.927 58.4818 125.9 58.9761Z" fill="#121C22"/>
<path d="M68.498 60.9669C68.4843 61.571 68.4568 61.0218 68.4568 59.7312C68.4568 58.4407 68.4843 57.9601 68.498 58.6329C68.5254 59.3056 68.5254 60.3628 68.498 60.9669Z" fill="#121C22"/>
<path d="M73.2082 59.3468C72.7139 59.3743 71.9449 59.3743 71.4917 59.3468C71.0385 59.3193 71.4367 59.3056 72.3843 59.3056C73.3318 59.3056 73.7026 59.3193 73.2082 59.3468Z" fill="#121C22"/>
<path d="M143.545 3.72623C143.517 3.20451 143.531 2.69652 143.572 2.58669C143.627 2.44939 144.423 2.4082 147.705 2.4082C149.93 2.4082 151.784 2.44939 151.811 2.50431C151.839 2.57296 150.026 2.60042 143.654 2.5455L143.599 4.67357L143.545 3.72623Z" fill="#121C22"/>
<path d="M166.794 2.75144C166.739 2.57296 166.272 2.5455 163.951 2.50431L161.177 2.46312L163.979 2.47685C166.546 2.47685 166.794 2.50431 166.821 2.71025C166.849 2.87501 166.839 2.88874 166.794 2.75144Z" fill="#121C22"/>
<path d="M59.7486 19.9545C58.65 19.9682 56.7961 19.9682 55.6289 19.9545C54.4616 19.927 55.3542 19.9133 57.6201 19.9133C59.8859 19.9133 60.8472 19.927 59.7486 19.9545Z" fill="#121C22"/>
<path d="M82.476 19.9545C81.5696 19.9682 80.114 19.9682 79.2488 19.9545C78.3837 19.927 79.1252 19.8996 80.8967 19.8996C82.6682 19.8996 83.3823 19.927 82.476 19.9545Z" fill="#121C22"/>
<path d="M143.613 26.0229C143.586 26.3662 143.558 26.1465 143.558 25.5424C143.558 24.9383 143.586 24.6637 143.613 24.9246C143.641 25.1854 143.641 25.6797 143.613 26.0229Z" fill="#121C22"/>
<path d="M196.387 40.1643L196.415 39.1071L196.442 38.0362L196.483 38.9973C196.511 39.5328 196.497 40.0407 196.456 40.1369C196.415 40.2467 196.126 40.3016 194.945 40.2467L196.387 40.1643Z" fill="#121C22"/>
<path d="M197.967 46.8643C197.06 46.8918 196.277 46.8506 196.223 46.7957C196.168 46.7407 196.909 46.727 199.614 46.8368L197.967 46.8643Z" fill="#121C22"/>
<path d="M5.09314 46.8643C4.22799 46.8918 2.86847 46.8918 2.07199 46.8643C1.2755 46.8368 1.98959 46.8231 3.65123 46.8231C5.31286 46.8231 5.95829 46.8368 5.09314 46.8643Z" fill="#121C22"/>
<path d="M192.268 46.8643C191.773 46.8918 191.004 46.8918 190.551 46.8643C190.098 46.8368 190.496 46.8231 191.444 46.8231C192.391 46.8231 192.762 46.8368 192.268 46.8643Z" fill="#121C22"/>
<path d="M94.6979 56.6122C94.3958 56.6397 93.9289 56.6397 93.668 56.6122C93.407 56.5848 93.6542 56.5573 94.2173 56.5573C94.7803 56.5573 95 56.5848 94.6979 56.6122Z" fill="#121C22"/>
<path d="M86.8978 62.0079C86.8704 62.2688 86.8429 62.0217 86.8429 61.4588C86.8429 60.8821 86.8704 60.6762 86.8978 60.9782C86.9253 61.2803 86.9253 61.7334 86.8978 62.0079Z" fill="#121C22"/>
<path d="M127.725 60.8684C127.464 60.8959 126.969 60.8959 126.626 60.8684C126.283 60.8409 126.502 60.8135 127.107 60.8135C127.711 60.8135 127.986 60.8409 127.725 60.8684Z" fill="#121C22"/>
<path fill-rule="evenodd" clip-rule="evenodd" d="M14.5019 2.4789L0.700703 2.54755L0.632041 24.5834L0.590843 13.6684C0.577111 7.66865 0.590843 2.67111 0.632041 2.57501C0.673238 2.45144 2.18382 2.42398 14.5019 2.4789ZM32.8348 2.46517C34.8398 2.46517 35.6363 2.49263 34.6201 2.50636C33.6039 2.53382 31.9697 2.53382 30.9809 2.50636C29.9922 2.49263 30.8299 2.46517 32.8348 2.46517ZM49.3825 2.4789L42.5849 2.54755L42.53 4.67562L42.4751 3.72828C42.4476 3.20656 42.4613 2.69857 42.5025 2.58874C42.5575 2.45144 43.2304 2.41025 49.3825 2.4789ZM73.5518 2.4789L66.7542 2.54755L66.6993 4.67562L66.6443 3.72828C66.6169 3.20656 66.6306 2.69857 66.6718 2.58874C66.7267 2.45144 67.3996 2.41025 73.5518 2.4789ZM190.031 38.6561C190.059 38.9994 190.059 39.6172 190.031 40.0291C190.004 40.441 189.99 40.1664 189.99 39.4112C189.99 38.6561 190.004 38.3129 190.031 38.6561ZM91.1294 56.5731L84.7438 56.6418L84.6889 58.3579L84.6339 57.6166C84.5927 57.2184 84.6065 56.7928 84.6477 56.6967C84.7163 56.5457 85.3343 56.5045 91.1294 56.5731ZM126.147 56.5594L131.64 56.5731V57.7401L131.572 56.6418L126.147 56.5594ZM131.613 57.9049C131.627 57.9598 131.627 58.0971 131.613 58.2069C131.585 58.3717 131.393 58.4129 129.993 58.3717L130.775 58.3305C131.434 58.2893 131.572 58.2344 131.572 58.0422C131.572 57.9186 131.585 57.85 131.613 57.9049ZM89.8935 58.3305C90.4291 58.3305 90.6076 58.358 90.3055 58.3854C90.0034 58.4129 89.5639 58.4129 89.3442 58.3854C89.1245 58.358 89.3579 58.3305 89.8935 58.3305ZM122.44 58.7424C122.975 58.7424 123.154 58.7698 122.852 58.7973C122.549 58.8248 122.11 58.8248 121.89 58.7973C121.671 58.7698 121.904 58.7424 122.44 58.7424Z" fill="#121C22"/>
<path d="M159.131 6.73339C159.104 7.03544 159.09 6.73339 159.09 6.04692C159.09 5.36044 159.104 5.11331 159.131 5.49774C159.159 5.86844 159.159 6.43134 159.131 6.73339Z" fill="#121C22"/>
<path d="M11.6165 26.6686C9.65272 26.6961 6.38437 26.6961 4.33823 26.6686C2.29208 26.6549 3.89879 26.6412 7.90869 26.6412C11.9186 26.6412 13.5802 26.6549 11.6165 26.6686Z" fill="#121C22"/>
<path d="M33.5199 26.6686C32.8058 26.6961 31.6522 26.6961 30.9793 26.6686C30.3064 26.6549 30.8832 26.6274 32.2839 26.6274C33.6846 26.6274 34.2339 26.6549 33.5199 26.6686Z" fill="#121C22"/>
<path d="M56.5905 26.6686C53.9813 26.6961 49.7517 26.6961 47.1837 26.6686C44.6157 26.6549 46.7443 26.6412 51.9214 26.6412C57.0986 26.6412 59.1997 26.6549 56.5905 26.6686Z" fill="#121C22"/>
<path d="M80.1418 26.6686C77.7249 26.6961 73.7012 26.6961 71.2157 26.6686C68.7301 26.6549 70.6938 26.6412 75.6101 26.6412C80.5263 26.6412 82.5587 26.6549 80.1418 26.6686Z" fill="#121C22"/>
<path d="M150.452 26.6686C149.628 26.6961 148.2 26.6961 147.294 26.6686C146.388 26.6549 147.06 26.6274 148.804 26.6274C150.548 26.6274 151.276 26.6549 150.452 26.6686Z" fill="#121C22"/>
<path d="M163.704 26.6686C163.141 26.6961 162.18 26.6961 161.576 26.6686C160.971 26.6549 161.438 26.6274 162.606 26.6274C163.773 26.6274 164.267 26.6549 163.704 26.6686Z" fill="#121C22"/>
<path d="M73.2069 59.4821C72.7949 59.5096 72.0533 59.5096 71.559 59.4821C71.0646 59.4547 71.4079 59.4409 72.3143 59.4409C73.2206 59.4409 73.6188 59.4547 73.2069 59.4821Z" fill="#121C22"/>
<path d="M88.9581 62.7497C88.9444 63.3538 88.9169 62.887 88.9169 61.72C88.9169 60.553 88.9444 60.0588 88.9581 60.6217C88.9855 61.1846 88.9855 62.1456 88.9581 62.7497Z" fill="#121C22"/>
<path d="M68.6065 63.9854L68.5927 63.2303L68.579 62.4752L68.6751 63.9167L74.2368 63.9991L68.6065 63.9854Z" fill="#121C22"/>
<path d="M128.346 1.95629C128.044 1.98374 127.577 1.98374 127.316 1.95629C127.055 1.92883 127.302 1.90137 127.865 1.90137C128.428 1.90137 128.648 1.92883 128.346 1.95629Z" fill="#121C22"/>
<path d="M28.5379 20.0518C28.5241 23.2233 28.5104 20.6009 28.5104 14.2167C28.5104 7.83251 28.5241 5.23763 28.5379 8.45034C28.5653 11.663 28.5653 16.8802 28.5379 20.0518Z" fill="#121C22"/>
<path d="M169.846 9.82329C169.818 10.1665 169.791 9.91939 169.791 9.27411C169.791 8.62882 169.818 8.35423 169.846 8.65628C169.873 8.95833 169.873 9.48005 169.846 9.82329Z" fill="#121C22"/>
<path d="M4.75313 36.5546C4.1489 36.5821 3.10522 36.5821 2.4186 36.5546C1.73197 36.5409 2.22634 36.5134 3.5172 36.5134C4.80806 36.5134 5.35736 36.5409 4.75313 36.5546Z" fill="#121C22"/>
<path d="M190.925 36.6233C190.307 36.6507 189.799 36.6233 189.799 36.5683C189.799 36.4997 190.554 36.4722 191.474 36.486C192.408 36.4997 192.916 36.5271 192.614 36.5546C192.312 36.5683 191.557 36.6095 190.925 36.6233Z" fill="#121C22"/>
<path d="M198.656 36.5546C198.354 36.5821 197.805 36.5821 197.421 36.5546C197.036 36.5271 197.283 36.5134 197.97 36.5134C198.656 36.5134 198.959 36.5271 198.656 36.5546Z" fill="#121C22"/>
<path d="M0.935485 43.1173C0.921752 44.0235 0.894287 43.337 0.894287 41.6071C0.894287 39.8771 0.921752 39.1358 0.935485 39.9595C0.96295 40.797 0.96295 42.2112 0.935485 43.1173Z" fill="#121C22"/>
<path d="M93.0808 60.897C93.0533 61.1579 93.0258 60.9107 93.0258 60.3478C93.0258 59.7849 93.0533 59.5652 93.0808 59.8673C93.1082 60.1693 93.1082 60.6361 93.0808 60.897Z" fill="#121C22"/>
<path d="M159.133 10.7167C159.106 11.1697 159.092 10.854 159.092 10.0302C159.092 9.20641 159.106 8.82199 159.133 9.20641C159.16 9.57711 159.16 10.2636 159.133 10.7167Z" fill="#121C22"/>
<path d="M86.1171 26.5742L86.1446 24.2814L86.172 21.9748L86.2132 24.1716C86.2407 25.3798 86.227 26.4507 86.1858 26.5468C86.1446 26.6566 85.8425 26.6978 84.4005 26.6566L86.1171 26.5742Z" fill="#121C22"/>
<path d="M36.4054 26.6841C36.1444 26.7115 35.6501 26.7115 35.3068 26.6841C34.9634 26.6566 35.1832 26.6291 35.7874 26.6291C36.3916 26.6291 36.6663 26.6566 36.4054 26.6841Z" fill="#121C22"/>
<path d="M199.383 43.2006C199.356 44.0656 199.342 43.3791 199.342 41.6904C199.342 39.9879 199.356 39.274 199.383 40.1115C199.397 40.9353 199.397 42.322 199.383 43.2006Z" fill="#121C22"/>
<path d="M68.6493 61.049C68.6219 61.9139 68.5944 61.2687 68.5944 59.6074C68.5944 57.9324 68.6219 57.2322 68.6493 58.0285C68.6631 58.8111 68.6631 60.1703 68.6493 61.049Z" fill="#121C22"/>
<path d="M94.8373 61.4197C94.5352 61.4471 94.1094 61.4471 93.876 61.4197C93.6563 61.3922 93.9035 61.3648 94.4253 61.3648C94.9609 61.3648 95.1394 61.3922 94.8373 61.4197Z" fill="#121C22"/>
<path d="M36.9139 20.6689C36.9002 23.9502 36.8865 21.2043 36.8865 14.5592C36.8865 7.91416 36.9002 5.22318 36.9139 8.5869C36.9414 11.9506 36.9414 17.3875 36.9139 20.6689Z" fill="#121C22"/>
<path d="M86.3492 23.4864C86.3355 24.0905 86.308 23.5276 86.308 22.2507C86.308 20.9739 86.3355 20.4796 86.3492 21.1524C86.3767 21.8251 86.3767 22.8823 86.3492 23.4864Z" fill="#DDFCFD"/>
<path d="M12.0288 26.8089C10.2847 26.8364 7.38717 26.8364 5.57447 26.8089C3.76178 26.7952 5.17623 26.7815 8.73295 26.7815C12.2897 26.7815 13.7728 26.7952 12.0288 26.8089Z" fill="#DDFCFD"/>
<path d="M33.9321 26.8089C33.2181 26.8364 32.0645 26.8364 31.3916 26.8089C30.7187 26.7952 31.2955 26.7677 32.6962 26.7677C34.0969 26.7677 34.6462 26.7952 33.9321 26.8089Z" fill="#DDFCFD"/>
<path d="M56.1102 26.8089C53.8443 26.8364 50.0816 26.8364 47.7333 26.8089C45.3851 26.7952 47.239 26.7815 51.8531 26.7815C56.4672 26.7815 58.3761 26.7952 56.1102 26.8089Z" fill="#DDFCFD"/>
<path d="M81.3094 26.8089C78.7826 26.8364 74.6628 26.8364 72.1772 26.8089C69.6917 26.7952 71.7515 26.7815 76.7776 26.7815C81.8037 26.7815 83.8362 26.7952 81.3094 26.8089Z" fill="#DDFCFD"/>
<path d="M148.942 26.8089C148.187 26.8364 146.882 26.8364 146.058 26.8089C145.234 26.7952 145.852 26.7677 147.432 26.7677C149.011 26.7677 149.697 26.7952 148.942 26.8089Z" fill="#DDFCFD"/>
<path d="M163.911 26.8089C163.306 26.8364 162.263 26.8364 161.576 26.8089C160.889 26.7952 161.397 26.7677 162.675 26.7677C163.952 26.7677 164.515 26.7952 163.911 26.8089Z" fill="#DDFCFD"/>
<path d="M199.505 43.0509C199.492 43.8472 199.464 43.2294 199.464 41.678C199.464 40.1265 199.492 39.4812 199.505 40.2364C199.533 40.9915 199.533 42.2546 199.505 43.0509Z" fill="#DDFCFD"/>
<path d="M89.0957 61.929C89.082 62.6017 89.0545 62.08 89.0545 60.762C89.0545 59.4439 89.082 58.881 89.0957 59.5263C89.1232 60.1716 89.1232 61.2562 89.0957 61.929Z" fill="#DDFCFD"/>
<path d="M70.8727 64.1531C70.5293 64.1806 69.9114 64.1806 69.4994 64.1531C69.0874 64.1257 69.3621 64.112 70.1174 64.112C70.8727 64.112 71.216 64.1257 70.8727 64.1531Z" fill="#DDFCFD"/>
<path d="M176.572 4.81241C176.558 5.63618 176.531 4.9909 176.531 3.37082C176.531 1.75074 176.558 1.06426 176.572 1.86057C176.599 2.65688 176.599 3.97491 176.572 4.81241Z" fill="#121C22"/>
<path d="M51.3724 2.54705L50.315 2.50586L49.2576 2.46467L51.441 2.4784V17.7868L51.3724 2.54705Z" fill="#121C22"/>
<path d="M75.5416 2.54705L74.4842 2.50586L73.4268 2.45094L75.6103 2.4784V17.7868L75.5416 2.54705Z" fill="#121C22"/>
<path d="M152.142 23.7728C152.114 25.4341 152.1 24.1298 152.1 20.8897C152.1 17.6358 152.114 16.2765 152.142 17.8692C152.155 19.4481 152.155 22.1116 152.142 23.7728Z" fill="#121C22"/>
<path d="M74.3057 56.655L71.4631 56.6138L68.6067 56.5726L74.3744 56.5863L74.4156 57.4101C74.4293 57.8632 74.4018 58.2751 74.3469 58.33C74.292 58.3849 74.2508 58.0279 74.3057 56.655Z" fill="#121C22"/>
<path d="M86.8572 58.6183C86.7886 58.5222 86.2942 58.4261 85.7174 58.3986L84.6875 58.3437L85.7724 58.3574C86.6101 58.3712 86.871 58.4124 86.9122 58.5771C86.9488 58.7144 86.9305 58.7281 86.8572 58.6183Z" fill="#121C22"/>
<path d="M70.6803 62.2154L70.6666 61.6663L70.6391 61.1171L70.749 62.1468L74.5254 62.2154L74.5392 64.0003L74.4568 62.2841L70.6803 62.2154Z" fill="#121C22"/>
<path d="M127.409 61.5564C127.107 61.5839 126.64 61.5839 126.379 61.5564C126.105 61.529 126.352 61.5015 126.929 61.5015C127.492 61.5015 127.712 61.529 127.409 61.5564Z" fill="#121C22"/>
<path d="M143.616 19.5037C143.602 22.2908 143.588 20.0804 143.588 14.5611C143.588 9.04184 143.602 6.76274 143.616 9.48118C143.643 12.1996 143.643 16.7166 143.616 19.5037Z" fill="#121C22"/>
<path d="M51.4432 19.9156L51.4294 18.8447V17.7875L51.5118 19.847L53.5717 19.9156H51.4432Z" fill="#121C22"/>
<path d="M75.5987 19.9019V18.8447L75.585 17.7738L75.6674 19.8332L77.7272 19.9019H75.5987Z" fill="#121C22"/>
<path d="M73.3466 58.3856C73.0856 58.4131 72.5913 58.4131 72.248 58.3856C71.9046 58.3582 72.1244 58.3307 72.7286 58.3307C73.3328 58.3307 73.6075 58.3582 73.3466 58.3856Z" fill="#121C22"/>
<path d="M86.9006 60.0057C86.8731 60.3078 86.8456 60.1156 86.8456 59.5938C86.8456 59.0584 86.8731 58.8113 86.9006 59.0447C86.928 59.2643 86.928 59.7037 86.9006 60.0057Z" fill="#121C22"/>
<path d="M158.993 4.05715C158.966 4.31801 158.939 4.07088 158.939 3.50797C158.939 2.94506 158.966 2.72539 158.993 3.02744C159.021 3.32949 159.021 3.79629 158.993 4.05715Z" fill="#121C22"/>
<path d="M68.4961 63.2999C68.4686 63.602 68.4412 63.4235 68.4412 62.888C68.4412 62.3526 68.4686 62.1192 68.4961 62.3389C68.5236 62.5585 68.5236 62.9979 68.4961 63.2999Z" fill="#121C22"/>
<path d="M77.6049 57.1638C77.7971 57.0265 78.1954 56.8205 78.4975 56.7107C78.8683 56.5734 79.3901 56.5185 80.0767 56.5459C80.7634 56.5734 81.3264 56.697 81.7521 56.8892C82.1229 57.0539 82.4113 57.2736 82.4113 57.3697C82.3975 57.4521 82.2327 57.7404 81.656 58.4269L80.7634 58.1935C80.2553 58.0699 79.706 58.015 79.5 58.0562C79.2803 58.1111 79.0193 58.2484 78.9095 58.3582C78.7996 58.4681 78.7035 58.6054 78.7035 58.674C78.7035 58.7289 78.7721 58.8799 78.8683 59.0035C78.9919 59.1683 79.445 59.3193 80.2141 59.4566C80.887 59.5801 81.6285 59.8135 81.9581 60.0058C82.3426 60.2254 82.631 60.5275 82.7683 60.857C82.9056 61.1865 82.9743 61.6121 82.9331 61.9965C82.9056 62.3398 82.7546 62.8066 82.5898 63.0262C82.4387 63.2597 81.9993 63.5754 81.5736 63.7676C80.9831 64.0285 80.5986 64.0971 79.7334 64.0971C79.1292 64.0834 78.3876 64.001 78.0855 63.9049C77.7834 63.7951 77.344 63.5617 77.0968 63.3695C76.8496 63.1773 76.6573 62.9988 76.6436 62.9576C76.6436 62.9164 76.8496 62.6281 77.6049 61.7219L78.2503 62.0789C78.7172 62.326 79.1292 62.4359 79.6648 62.4496C80.0767 62.4496 80.5574 62.3947 80.7222 62.2986C80.9007 62.2025 81.038 61.9965 81.038 61.8318C81.0517 61.6533 80.9693 61.4336 80.8732 61.3513C80.7771 61.2551 80.1454 61.0904 79.4588 60.9668C78.7721 60.857 78.0443 60.651 77.8246 60.5138C77.6049 60.3902 77.3028 60.1293 77.1654 59.9371C77.0144 59.7449 76.8771 59.3193 76.8359 58.976C76.7809 58.5367 76.8359 58.2209 77.0144 57.8914C77.1517 57.6306 77.4126 57.301 77.6049 57.1638Z" fill="#CDCDCD"/>
<path d="M108.805 57.3834C109.08 57.0951 109.506 56.8205 109.876 56.697C110.247 56.5871 110.906 56.5185 111.524 56.5459C112.28 56.5734 112.733 56.6695 113.227 56.9166C113.612 57.1088 114.037 57.4383 114.188 57.6443C114.381 57.8914 114.477 58.2347 114.463 58.6054C114.463 58.9623 114.353 59.3467 114.161 59.6351C113.859 60.0607 113.859 60.0744 114.12 60.3902C114.257 60.5549 114.449 60.8295 114.532 61.008C114.614 61.1728 114.683 61.5297 114.683 61.7906C114.683 62.0515 114.614 62.4359 114.532 62.6556C114.449 62.8615 114.23 63.1635 114.051 63.342C113.872 63.5068 113.392 63.7402 113.007 63.85C112.609 63.9599 111.854 64.056 111.318 64.056C110.783 64.056 110.082 63.9599 109.739 63.85C109.396 63.7402 108.901 63.4244 108.64 63.1635C108.201 62.7105 108.16 62.6006 108.16 61.8592C108.16 61.1453 108.215 61.008 108.984 60.2117L108.682 59.69C108.489 59.3605 108.379 58.9486 108.366 58.5367C108.366 57.9875 108.434 57.7953 108.805 57.3834Z" fill="#CDCDCD"/>
<path d="M101.843 57.6306L103.147 57.15C103.861 56.8892 104.534 56.6695 104.617 56.6558C104.754 56.642 104.795 57.3422 104.864 62.4771L105.894 62.5457V63.9187H101.774V62.5457L102.941 62.4771V60.6922C102.941 59.1957 102.914 58.9074 102.735 58.9211C102.626 58.9349 102.392 58.976 102.214 59.031C101.925 59.1133 101.911 59.0722 101.843 57.6306Z" fill="#CDCDCD"/>
<path d="M3.51788 61.0355L2.35061 60.5687L1.18335 60.0881L60.0272 60.0744V61.0355H3.51788Z" fill="#CDCDCD"/>
<path d="M140.088 61.0355V60.5549V60.0744L198.932 60.0881L196.735 61.0355H140.088Z" fill="#CDCDCD"/>
<path d="M94.0564 63.1086C94.0427 62.9301 94.1526 62.6693 94.2899 62.532C94.4272 62.3947 94.7019 62.2711 94.8941 62.2711C95.0864 62.2711 95.3473 62.3535 95.4709 62.4496C95.5945 62.5457 95.7318 62.7928 95.7868 62.9988C95.8417 63.2597 95.7868 63.4656 95.622 63.6715C95.4709 63.8637 95.2374 63.9599 94.9079 63.9599C94.592 63.9599 94.3723 63.8637 94.2487 63.699C94.1526 63.5617 94.0702 63.2871 94.0564 63.1086Z" fill="#CDCDCD"/>
<g clip-path="url(#clip0_12818_197984)">
<path d="M8.36163 8.88867C8.3479 8.21592 8.3891 7.90014 8.52642 7.77658C8.66375 7.66674 9.00706 7.62555 9.55636 7.68047C10.0095 7.70793 10.6275 7.76285 10.9433 7.79031C11.3095 7.81776 11.6574 7.96879 11.987 8.24338C12.3166 8.50424 12.4951 8.77883 12.4951 8.9985C12.4951 9.19071 12.4265 9.43784 12.3303 9.56141C12.2342 9.68498 11.987 9.80854 11.7536 9.82227C11.5201 9.836 10.6824 9.84973 8.3891 9.82227L8.36163 8.88867Z" fill="#121C22"/>
<path d="M127.093 10.4676C127.134 10.2616 127.272 10.0008 127.395 9.89092C127.601 9.69871 127.642 9.71243 127.876 10.0282C128.082 10.3028 128.192 10.344 128.411 10.2342C128.645 10.1243 128.7 10.1518 128.782 10.4401C128.837 10.6186 129.071 10.9069 129.304 11.0579C129.524 11.1952 129.812 11.3325 129.922 11.3325C130.032 11.3325 130.334 11.4698 130.567 11.6483C130.924 11.8817 131.021 12.0464 131.021 12.3897C131.021 12.6643 131.089 12.8428 131.199 12.8428C131.323 12.8428 131.35 13.3096 131.282 14.9296C131.199 16.6321 131.144 17.0577 130.979 17.1676C130.856 17.2362 130.76 17.3735 130.746 17.4421C130.746 17.5108 130.512 17.7991 130.224 18.06C129.949 18.3346 129.483 18.7327 128.686 19.3643L128.37 19.021C128.192 18.8288 127.835 18.5817 127.574 18.4719C127.313 18.362 126.956 18.1423 126.777 17.9913C126.599 17.8403 126.242 17.552 125.981 17.3323C125.706 17.1126 125.528 16.838 125.528 16.6458C125.528 16.4811 125.459 16.1241 125.377 15.8632C125.28 15.6024 125.157 15.3553 125.088 15.3141C125.019 15.2729 124.937 15.0944 124.896 14.9022C124.868 14.71 124.813 14.3942 124.772 14.1745C124.731 13.9411 124.786 13.7214 124.91 13.5979C125.019 13.488 125.157 13.1448 125.225 12.8428C125.28 12.5407 125.363 12.2936 125.431 12.2936C125.486 12.2936 125.486 12.1837 125.445 12.0464C125.39 11.9092 125.459 11.7307 125.624 11.6071C125.775 11.4973 125.926 11.2913 125.981 11.154C126.036 11.0167 126.214 10.9206 126.42 10.9206C126.654 10.9206 126.764 10.8383 126.764 10.6735C126.764 10.4813 126.791 10.4676 126.887 10.646C126.983 10.8108 127.024 10.7696 127.093 10.4676Z" fill="#121C22"/>
<path d="M8.63628 19.3505C8.41656 19.3094 8.3891 19.1171 8.3891 17.9913V16.687H10.3803C11.4789 16.687 12.5363 16.7557 12.756 16.838C13.0582 16.9479 13.0856 17.0028 12.9208 17.0989C12.811 17.1813 12.7835 17.2362 12.8522 17.2362C12.9346 17.2362 13.017 17.401 13.0444 17.6069C13.0719 17.8266 13.0856 18.1423 13.0856 18.3346C13.0719 18.5268 13.017 18.7053 12.962 18.7464C12.8934 18.7876 12.8247 19.2132 12.7972 19.7075C12.7698 20.3665 12.6736 20.696 12.4539 20.9569C12.2891 21.1766 11.9596 21.3688 11.6849 21.4237C11.424 21.4649 10.861 21.4649 10.449 21.41C10.037 21.3688 9.51516 21.2452 9.28171 21.1491C9.06199 21.0667 8.75987 20.8882 8.63628 20.7647C8.48522 20.6137 8.3891 20.3253 8.3891 19.9821C8.3891 19.5565 8.44403 19.4329 8.63628 19.4192C8.856 19.4055 8.856 19.3917 8.63628 19.3505Z" fill="#121C22"/>
<path d="M25.3488 33.9862C25.4586 33.9862 25.5822 33.8626 25.6372 33.7116C25.7058 33.4507 25.8294 33.437 27.3812 33.437C28.3013 33.437 29.6608 33.4782 30.3886 33.5468C31.3773 33.6155 31.7619 33.6979 31.8168 33.8489C31.8717 33.9587 31.9267 37.6108 31.9541 41.9493C31.9816 46.2878 31.9678 50.0771 31.8717 50.8735H28.7132C26.6946 50.8735 25.5548 50.8185 25.5548 50.7362C25.5548 50.6538 25.4312 50.5989 25.2801 50.5989C25.129 50.5989 25.0055 50.6538 25.0055 50.7362C25.0055 50.8185 23.9069 50.8735 18.9631 50.8735L18.8945 49.1161C18.8533 48.155 18.8807 44.3382 18.9357 40.6175C18.9906 36.9106 19.0867 33.8214 19.1417 33.7528C19.2103 33.6979 20.5836 33.6292 22.204 33.6018C24.7445 33.5743 25.1428 33.6018 25.1428 33.7802C25.1428 33.8901 25.2389 33.9862 25.3488 33.9862Z" fill="#121C22"/>
<path d="M78.2465 33.588L79.2627 33.5331C79.8257 33.5194 83.2177 33.5194 86.8018 33.5468C90.386 33.588 93.3523 33.6429 93.3935 33.6704C93.4347 33.7116 93.4621 34.9747 93.4484 36.4987V42.8417C93.4484 44.805 93.4621 47.3862 93.4621 48.5669C93.4621 49.7476 93.4347 50.7499 93.3935 50.7911C93.3523 50.8323 91.5396 50.8872 89.3424 50.9009C87.1589 50.9146 83.7944 50.9146 78.425 50.8735L78.2877 50.187C78.2053 49.7614 78.1641 46.4938 78.2465 33.588Z" fill="#121C22"/>
<path d="M98.0625 33.5743L102.498 33.5331C104.929 33.5194 109.145 33.4919 111.864 33.4782C114.583 33.4645 117.467 33.4782 119.76 33.5743V37.5558C119.76 41.002 119.732 41.5374 119.554 41.5374C119.444 41.5374 119.348 41.661 119.348 41.812C119.348 42.0042 119.252 42.0866 119.06 42.0866C118.909 42.0866 118.689 42.1827 118.579 42.2925C118.469 42.4024 118.387 42.6495 118.387 42.8417C118.387 43.13 118.318 43.1849 117.563 43.1849V50.8735H111.177C104.888 50.8735 104.791 50.8735 104.791 50.5989C104.791 50.3517 104.695 50.3243 102.457 50.3243V48.8827L101.441 48.814C100.878 48.7728 100.37 48.6905 100.301 48.6356C100.246 48.5669 100.191 46.8919 100.191 44.9286C100.177 42.9515 100.164 41.2491 100.15 41.153C100.136 41.0706 99.9439 40.9882 99.7104 40.9882C99.4632 40.9882 99.271 40.9058 99.2298 40.7823C99.1886 40.6724 99.1611 40.4253 99.1611 40.2331C99.1611 39.9173 99.1062 39.8899 98.0625 39.8899V33.5743Z" fill="#121C22"/>
<path d="M124.388 33.588L125.541 33.5331C126.173 33.5194 129.016 33.4782 131.845 33.4645C134.673 33.4507 137.571 33.4782 139.535 33.6429V35.6337L140.015 35.7024C140.345 35.7436 140.523 35.8534 140.565 36.0456C140.606 36.2104 140.743 36.3202 140.908 36.3202C141.059 36.3202 141.183 36.3751 141.183 36.4575C141.183 36.5399 141.306 36.5948 141.457 36.5948C141.732 36.5948 141.732 36.6909 141.732 46.48H141.183C140.647 46.48 140.633 46.4938 140.565 47.0292C140.496 47.5509 140.469 47.5784 140.015 47.5784C139.548 47.5784 139.535 47.5921 139.535 48.6767H138.958C138.628 48.6767 138.175 48.7179 137.928 48.7729C137.502 48.8827 137.489 48.9101 137.42 49.7339L137.419 49.7421C137.338 50.5852 137.336 50.5989 136.926 50.5989C136.706 50.5989 136.514 50.6538 136.514 50.7362C136.514 50.8185 134.77 50.8735 126.626 50.8735V48.6767H124.429L124.402 42.8829C124.374 39.6839 124.36 36.2927 124.388 33.588Z" fill="#121C22"/>
<path d="M146.47 33.6429L147.362 33.5606C147.857 33.5194 149.161 33.4782 150.287 33.4645C151.4 33.4507 152.402 33.4645 152.512 33.5056C152.622 33.5468 152.718 33.6841 152.718 33.8077C152.732 34.0411 152.732 34.0411 152.897 33.8214C153.048 33.6018 153.432 33.588 156.879 33.5743C160.587 33.5743 160.683 33.5743 160.683 33.8489C160.683 33.9999 160.779 34.1235 160.889 34.1235C160.999 34.1235 161.205 34.2333 161.328 34.3569C161.534 34.5766 161.562 35.2218 161.617 40.9882C161.644 44.503 161.63 48.0726 161.507 50.4616H160.889C160.436 50.4616 160.271 50.5165 160.271 50.6675C160.271 50.846 159.461 50.8735 153.748 50.8735C147.321 50.8735 147.225 50.8735 147.225 50.5989C147.225 50.3929 147.129 50.3243 146.882 50.3243C146.689 50.3243 146.511 50.2282 146.47 50.1183C146.428 50.0085 146.401 48.2649 146.401 46.2329C146.401 43.4595 146.442 42.5259 146.566 42.3886C146.703 42.2513 146.703 42.1964 146.58 42.114C146.442 42.0454 146.415 41.0431 146.47 33.6429Z" fill="#121C22"/>
<path d="M166.547 34.604C166.574 34.1509 166.643 33.6979 166.684 33.588C166.739 33.437 167.233 33.4095 169.389 33.4507C171.573 33.5056 172.081 33.5468 172.397 33.7528C172.658 33.9175 173.056 33.9862 173.797 33.9862C174.621 33.9862 174.827 33.945 174.827 33.7802C174.827 33.6018 175.253 33.5743 181.213 33.6429V42.0179L180.595 42.0454L180.506 42.0525C180.165 42.0797 179.69 42.1174 179.4 42.1552C178.947 42.2101 178.837 42.2651 178.947 42.3886C179.03 42.4985 179.071 44.0911 179.016 50.3929L178.645 50.4204C178.412 50.4478 178.26 50.544 178.26 50.6675C178.26 50.846 177.725 50.8735 174.278 50.8735C171.71 50.8735 170.296 50.8185 170.296 50.7362C170.296 50.6538 169.884 50.5989 168.373 50.5989V42.4985H168.785C169.019 42.4985 169.197 42.4573 169.197 42.3886C169.197 42.3337 168.648 42.2101 167.961 42.114C166.78 41.963 166.725 41.9356 166.725 41.606C166.725 41.3589 166.657 41.2628 166.451 41.2628C166.19 41.2628 166.176 41.1667 166.176 38.3796C166.176 36.3477 166.217 35.4827 166.327 35.4552C166.423 35.4415 166.519 35.0571 166.547 34.604Z" fill="#121C22"/>
<path d="M38.6281 36.5261C38.6693 35.1806 38.7655 34.1784 38.8753 33.945L39.0538 33.5743H41.4982C43.05 33.5743 43.9563 33.6292 43.9563 33.7116C43.9563 33.7802 44.2722 33.8626 44.643 33.8763C45.1236 33.9038 45.3296 33.8626 45.3296 33.7391C45.3296 33.6155 46.0437 33.5743 48.4194 33.5743C51.5092 33.5743 51.5092 33.5743 51.5916 33.8763C51.6328 34.0548 51.6878 37.7755 51.7152 42.1552C51.729 46.5349 51.7152 50.2831 51.5779 50.8735H48.8726C47.156 50.8735 46.1536 50.8185 46.1536 50.7362C46.1536 50.6538 45.7828 50.5989 45.3296 50.5989C44.8764 50.5989 44.5056 50.6538 44.5056 50.7362C44.5056 50.8185 43.6542 50.8735 42.2398 50.8735C40.8253 50.8735 39.9739 50.8185 39.9739 50.7362C39.9739 50.6538 39.6993 50.5989 38.738 50.5989L38.6556 49.6653C38.6007 49.1573 38.6007 47.4823 38.6419 45.9308C38.6968 43.789 38.7655 43.0888 38.9028 43.0202C39.0401 42.9378 39.0538 42.6358 38.9852 41.5786C38.9302 40.8372 38.8204 39.8899 38.7243 39.478C38.6281 38.9837 38.5869 37.9403 38.6281 36.5261Z" fill="#121C22"/>
<path d="M58.609 34.2196C58.7051 33.7665 58.76 33.7116 59.1995 33.6567C59.4604 33.6292 62.3167 33.6018 71.4214 33.5606L71.4901 37.7206C71.5313 39.9997 71.545 43.7616 71.5313 46.0544C71.5038 48.361 71.4351 50.338 71.3802 50.4478C71.3253 50.5714 71.0506 50.7087 70.7622 50.7636C70.4876 50.8185 68.3453 50.8597 61.8086 50.8597V50.4478C61.8086 50.0634 61.7674 50.036 60.71 50.036L60.6414 48.7317L59.9136 48.7042C59.3643 48.6767 59.172 48.6081 59.1308 48.4296C59.0896 48.2923 58.9248 48.1413 58.7875 48.0864C58.554 48.004 58.5128 47.853 58.5128 46.6036L57.8537 46.6173C57.4966 46.6173 57.0023 46.5624 56.3019 46.3976V41.3589L56.3019 41.3445C56.3156 36.4024 56.3159 36.3065 56.5903 36.3065C56.7734 36.3065 56.8649 36.2149 56.8649 36.0319C56.8649 35.7985 56.9473 35.7573 58.5128 35.7573V35.2493C58.5128 34.961 58.554 34.5079 58.609 34.2196Z" fill="#121C22"/>
</g>
<path d="M10.9851 7.83247C10.7104 7.83247 10.422 7.77755 10.3671 7.7089C10.2985 7.62653 10.8066 7.6128 11.6305 7.66772C12.6604 7.73636 13.1411 7.83247 13.608 8.06587C13.9925 8.27181 14.3221 8.57386 14.4731 8.86218C14.6379 9.17796 14.7066 9.54866 14.6791 9.96054C14.6517 10.3038 14.5281 10.7431 14.3907 10.9491C14.2672 11.1687 13.8689 11.4708 13.4981 11.6355C12.9763 11.8827 12.5231 11.9376 10.9988 11.9925C9.9826 12.0337 8.98013 12.02 8.76041 11.965C8.40336 11.8827 8.38963 11.8689 8.38963 9.82325H10.271C11.9326 9.82325 12.1798 9.79579 12.3309 9.58985C12.427 9.45255 12.4957 9.19169 12.4957 8.99948C12.4957 8.77981 12.3171 8.50522 11.9876 8.24436C11.6442 7.94231 11.3559 7.83247 10.9851 7.83247Z" fill="#121C22"/>
<path d="M125.459 9.78206C125.693 9.48001 126.091 9.1505 126.352 9.0544C126.613 8.95829 127.3 8.87591 127.863 8.87591C128.563 8.86218 129.071 8.94456 129.442 9.12304C129.744 9.26034 130.156 9.60358 130.376 9.90562C130.582 10.1939 130.829 10.7843 130.939 11.1962C131.049 11.6081 131.172 12.1573 131.213 12.3907C131.255 12.6653 131.241 12.8437 131.158 12.8437C131.09 12.8437 131.021 12.6378 131.021 12.4044C131.021 12.0474 130.925 11.8827 130.568 11.6493C130.334 11.4708 130.032 11.3335 129.923 11.3335C129.813 11.3335 129.538 11.2099 129.305 11.0726C129.085 10.9353 128.851 10.647 128.796 10.4548C128.7 10.1528 128.645 10.1253 128.412 10.2351C128.192 10.345 128.082 10.3038 127.863 10.0292C127.615 9.72714 127.561 9.71341 127.382 9.89189C127.272 10.0017 127.135 10.2626 127.094 10.4685C127.025 10.7706 126.984 10.8118 126.888 10.647C126.791 10.4685 126.764 10.4823 126.764 10.6745C126.764 10.8392 126.654 10.9216 126.421 10.9216C126.215 10.9216 126.036 11.0177 125.981 11.155C125.926 11.2923 125.775 11.4982 125.624 11.6081C125.459 11.7316 125.391 11.9101 125.446 12.0474C125.487 12.1847 125.487 12.2946 125.432 12.2946C125.363 12.2946 125.281 12.5417 125.226 12.8437C125.157 13.1458 125.02 13.489 124.91 13.5989C124.787 13.7224 124.732 13.9421 124.773 14.1755C124.814 14.3952 124.869 14.7109 124.896 14.9032C124.938 15.0954 125.02 15.2739 125.089 15.315C125.157 15.3562 125.281 15.6034 125.377 15.8642C125.459 16.1251 125.528 16.4821 125.528 16.6468C125.528 16.839 125.707 17.1136 125.981 17.3333C126.242 17.553 126.599 17.8413 126.778 17.9923C126.956 18.1433 127.313 18.363 127.574 18.4728C127.835 18.5827 128.192 18.8298 128.687 19.3652L129.195 18.9534C129.483 18.7337 129.95 18.3355 130.225 18.0609C130.513 17.8001 130.746 17.498 130.746 17.4019C130.746 17.3196 130.843 17.2097 130.952 17.1685C131.117 17.1136 131.145 17.1823 131.076 17.4706C131.035 17.6902 130.856 18.1571 130.678 18.5415C130.499 18.9122 130.17 19.3927 129.936 19.5986C129.703 19.8183 129.277 20.038 129.002 20.1204C128.714 20.189 128.206 20.2577 127.863 20.2577C127.519 20.2577 127.011 20.189 126.737 20.1204C126.448 20.038 126.009 19.8046 125.775 19.5986C125.528 19.379 125.185 18.8984 125.02 18.5277C124.855 18.1571 124.649 17.4157 124.553 16.8939C124.457 16.2898 124.416 15.1778 124.457 13.8734C124.512 12.3495 124.594 11.6218 124.787 11.0726C124.938 10.6607 125.24 10.0841 125.459 9.78206Z" fill="#121C22"/>
<path d="M12.9214 17.0999C13.0862 17.0038 13.0724 16.9489 12.784 16.8253C12.4819 16.7017 12.4957 16.688 12.99 16.7429C13.2921 16.7704 13.7728 16.8939 14.0612 17.0175C14.3358 17.1411 14.6791 17.4019 14.8027 17.6079C14.94 17.8275 15.0774 18.212 15.1323 18.4728C15.1735 18.7337 15.1735 19.228 15.1048 19.5712C15.0224 19.9831 14.8439 20.34 14.5418 20.6421C14.2809 20.903 13.8002 21.1775 13.402 21.3011C13.0312 21.4109 12.4682 21.4933 12.1661 21.4796C11.864 21.4659 11.7541 21.4384 11.9326 21.3972C12.1111 21.3698 12.3721 21.1775 12.5094 20.9716C12.6604 20.7382 12.7703 20.2577 12.7978 19.7085C12.8252 19.2142 12.8939 18.7886 12.9626 18.7474C13.0175 18.7062 13.0724 18.5277 13.0862 18.3355C13.0862 18.1433 13.0724 17.8275 13.045 17.6079C13.0175 17.4019 12.9351 17.2372 12.8527 17.2372C12.784 17.2372 12.8115 17.1685 12.9214 17.0999Z" fill="#121C22"/>
<path d="M114.13 18.0884C114.13 18.0335 114.199 17.8275 114.281 17.6353C114.373 17.3974 114.473 17.3196 114.583 17.4019C114.679 17.4568 114.885 17.6216 115.05 17.7589C115.339 17.9786 115.352 18.0198 115.16 18.5415C115.064 18.8435 114.968 18.9808 114.968 18.8435C114.954 18.72 114.762 18.514 114.542 18.4042C114.322 18.2943 114.13 18.1571 114.13 18.0884Z" fill="#121C22"/>
<path d="M8.38963 21.4933L8.40336 20.9991C8.43083 20.546 8.44456 20.5323 8.65055 20.7519C8.77414 20.8755 8.99386 21.0402 9.14492 21.1226C9.29598 21.1913 9.69422 21.3011 10.0375 21.356C10.5731 21.4521 10.5044 21.4659 8.38963 21.4933Z" fill="#121C22"/>
<path d="M3.8579 40.5773V39.7536V38.9298H4.84664C5.39594 38.9298 6.00017 39.0122 6.19243 39.1083C6.41215 39.2181 6.54947 39.4103 6.5632 39.6574C6.59067 39.8771 6.49454 40.138 6.32975 40.3027C6.0963 40.5361 5.87658 40.5773 3.8579 40.5773Z" fill="#121C22"/>
<path d="M3.8579 44.2843L3.87163 43.4468L3.88536 42.6093L5.18995 42.6642C6.38468 42.7054 6.50827 42.7328 6.75546 43.0486C6.90652 43.2408 7.03011 43.4742 7.01638 43.5703C7.01638 43.6527 6.89279 43.8587 6.74173 44.0097C6.50827 44.2431 6.28855 44.2843 3.8579 44.2843Z" fill="#121C22"/>
<path d="M94.7672 59.3867C94.6848 59.3867 94.6299 59.2082 94.6299 58.9748C94.6299 58.7277 94.6986 58.563 94.8084 58.563C94.9046 58.563 94.9595 58.6591 94.9458 58.7689C94.9183 58.8787 94.9046 59.0709 94.9046 59.1808C94.9046 59.2906 94.8359 59.3867 94.7672 59.3867Z" fill="#121C22"/>
<path d="M2.27582 59.8123C1.75677 59.7986 1.74356 59.7983 2.00401 59.6064C2.15506 59.4828 2.30612 59.3867 2.34732 59.3867C2.38852 59.373 2.51211 59.4691 2.62197 59.5927C2.81422 59.7849 2.77303 59.8123 2.27866 59.8123L2.27582 59.8123Z" fill="#121C22"/>
<path d="M1.55083 60.7597C1.4959 60.7734 1.30365 60.6361 1.11139 60.4714C0.83674 60.2242 0.823008 60.183 1.04273 60.2654C1.19379 60.3341 1.64696 60.5125 2.05894 60.6773C2.47091 60.8283 2.82796 61.048 2.84169 61.1441C2.86915 61.2265 3.02021 61.3089 3.17127 61.3089C3.32233 61.3089 3.44592 61.3775 3.44592 61.4462C3.44592 61.5285 3.43219 61.6246 3.40472 61.6933C3.39099 61.7482 3.3086 61.7757 3.23993 61.7482C3.15754 61.7207 2.93782 61.7757 2.7181 61.858C2.51211 61.9267 2.19626 61.9679 2.00401 61.9267C1.70189 61.8718 1.66069 61.7894 1.66069 61.3089C1.66069 61.0068 1.61949 60.7597 1.55083 60.7597Z" fill="#121C22"/>
<path d="M197.212 61.2265C197.075 61.1578 197.212 61.0343 197.693 60.8146C198.063 60.6498 198.393 60.4988 198.407 60.4988C198.42 60.4851 198.365 60.6087 198.297 60.7597C198.228 60.9107 198.105 61.0343 198.036 61.0343C197.953 61.0343 197.899 61.1441 197.899 61.2814C197.912 61.4873 197.885 61.4873 197.693 61.3089C197.5 61.1304 197.487 61.1304 197.555 61.4187C197.596 61.5834 197.679 61.7207 197.761 61.7207C197.83 61.7207 197.871 61.7894 197.83 61.858C197.789 61.9404 197.555 61.9816 197.308 61.9679C197.075 61.9541 196.8 61.8718 196.718 61.7894C196.635 61.7207 196.594 61.5423 196.608 61.4187C196.649 61.2265 196.759 61.1853 197.033 61.2402C197.253 61.2814 197.322 61.2677 197.212 61.2265Z" fill="#121C22"/>
<path d="M8.34987 20.4623C8.33614 21.0664 8.30867 20.5996 8.30867 19.4326C8.30867 18.2656 8.33614 17.7713 8.34987 18.3342C8.37733 18.8971 8.37733 19.8582 8.34987 20.4623Z" fill="#121C22"/>
<path d="M5.78188 42.5942C5.43857 42.6217 4.91673 42.6217 4.61462 42.5942C4.3125 42.5668 4.58715 42.5393 5.23258 42.5393C5.87801 42.5393 6.1252 42.5668 5.78188 42.5942Z" fill="#121C22"/>
<path d="M45.4689 61.129C37.7238 61.1565 25.0898 61.1565 17.3859 61.129C9.68192 61.1153 16.0126 61.1016 31.4617 61.1016C46.9108 61.1016 53.214 61.1153 45.4689 61.129Z" fill="#121C22"/>
<path d="M182.726 61.129C175.022 61.1565 162.36 61.1565 154.574 61.129C146.788 61.1153 153.091 61.1016 168.581 61.1016C184.058 61.1016 190.43 61.1153 182.726 61.129Z" fill="#121C22"/>
<path d="M94.8367 58.5629C94.7269 58.5629 94.6307 58.4393 94.6307 58.2883C94.6307 58.0686 94.7269 58.0137 95.0427 58.0137C95.2762 58.0137 95.5783 58.1372 95.7293 58.2883C95.8804 58.4393 96.004 58.7276 96.004 58.9335C96.004 59.1532 95.9079 59.4553 95.798 59.62C95.647 59.8534 95.4547 59.9358 95.1114 59.9358C94.7269 59.9358 94.6307 59.8809 94.6307 59.6612C94.6307 59.5102 94.6857 59.3729 94.7406 59.3592C94.8093 59.3317 94.9054 59.1532 94.9466 58.9473C95.0153 58.659 94.9878 58.5629 94.8367 58.5629Z" fill="#121C22"/>
<path d="M78.9482 58.7139C78.9345 58.5629 79.0169 58.4118 79.113 58.3844C79.2228 58.3432 79.6486 58.302 80.0331 58.302C80.4313 58.2883 80.7609 58.3432 80.7609 58.4256C80.7609 58.5079 80.651 58.5217 80.5137 58.4667C80.3489 58.3981 80.3077 58.4118 80.3764 58.5354C80.445 58.6178 80.445 58.6864 80.3901 58.6864C80.3214 58.6727 80.0605 58.6727 79.7996 58.6864C79.3602 58.7139 79.3464 58.7276 79.6211 58.8512C79.7996 58.9198 80.0193 58.9335 80.1017 58.8924C80.1979 58.8512 80.3764 58.9198 80.4862 59.0434C80.6785 59.2356 80.651 59.2631 80.2803 59.2631C80.0605 59.2493 79.6623 59.1944 79.4288 59.112C79.1405 59.0297 78.9619 58.8786 78.9482 58.7139Z" fill="#121C22"/>
<path d="M78.0693 61.4049C78.0968 61.3225 78.0556 61.1303 78.0007 61.0067V60.993C77.8908 60.7733 77.9183 60.7733 78.5225 60.9655C78.8933 61.0753 79.3464 61.1715 79.5524 61.1715C79.7721 61.1715 80.1567 61.2676 80.4176 61.3774C80.6785 61.4872 80.8982 61.6794 80.8982 61.7893C80.8982 61.8991 80.7609 62.0639 80.5961 62.1462C80.4176 62.2424 79.9369 62.2835 79.525 62.2424C79.0169 62.2012 78.5774 62.0639 78.1517 61.803C77.8084 61.5971 77.6436 61.4598 77.7672 61.501C77.9045 61.5422 78.0418 61.5147 78.0693 61.4049Z" fill="#121C22"/>
<path d="M119.39 61.501C119.404 61.2676 119.555 61.0616 119.761 60.9518C119.967 60.8419 120.297 60.8008 120.585 60.8419C120.846 60.8831 121.148 60.993 121.244 61.0891C121.341 61.1715 121.423 61.3774 121.409 61.5284C121.409 61.6794 121.299 61.9128 121.162 62.0501C121.025 62.1874 120.736 62.2973 120.448 62.2835C120.187 62.2835 119.83 62.1874 119.651 62.0776C119.445 61.9403 119.363 61.7618 119.39 61.501Z" fill="#121C22"/>
<path d="M11.5517 21.59C10.9887 21.6175 10.0274 21.6175 9.42319 21.59C8.81895 21.5763 9.28586 21.5488 10.4531 21.5488C11.6204 21.5488 12.1148 21.5763 11.5517 21.59Z" fill="#121C22"/>
<path d="M3.79285 40.6466L3.77911 39.7541L3.76538 38.8617L3.86151 40.5779L5.92139 40.6466H3.79285Z" fill="#121C22"/>
<path d="M5.71393 44.381C5.41182 44.4085 4.86251 44.4085 4.478 44.381C4.09349 44.3536 4.34068 44.3398 5.02731 44.3398C5.71393 44.3398 6.01605 44.3536 5.71393 44.381Z" fill="#121C22"/>
<path d="M102.734 62.2706L102.762 60.6642L102.789 59.0441L102.83 60.5544C102.858 61.3919 102.844 62.147 102.803 62.2431C102.762 62.3255 102.528 62.3941 101.842 62.3667L102.734 62.2706Z" fill="#121C22"/>
<path d="M45.4009 59.9091C37.2438 59.9228 23.9233 59.9228 15.8073 59.9091C7.69142 59.8954 14.3654 59.8679 30.6385 59.8679C46.9115 59.8679 53.5581 59.8954 45.4009 59.9091Z" fill="#121C22"/>
<path d="M182.589 59.9091C174.734 59.9228 161.949 59.9228 154.163 59.9091C146.39 59.8954 152.817 59.8679 168.444 59.8679C184.086 59.8679 190.444 59.8954 182.589 59.9091Z" fill="#121C22"/>
<path d="M198.587 59.9091C198.244 59.9366 197.722 59.9366 197.42 59.9091C197.118 59.8816 197.393 59.8542 198.038 59.8542C198.683 59.8542 198.931 59.8816 198.587 59.9091Z" fill="#121C22"/>
<path d="M8.28089 8.80716C8.25343 8.28544 8.26716 7.77745 8.30836 7.66761C8.36329 7.53031 8.80273 7.48913 12.3045 7.54404L8.39075 7.62642L8.33582 9.75449L8.28089 8.80716Z" fill="#121C22"/>
<path d="M8.32209 12.0885L8.30836 11.1961L8.29462 10.3037L8.39075 12.0199L12.3045 12.1022L8.32209 12.0885Z" fill="#121C22"/>
<path d="M5.50692 38.8885C5.246 38.9159 4.75163 38.9159 4.40832 38.8885C4.06501 38.861 4.28473 38.8336 4.88896 38.8336C5.49319 38.8336 5.76784 38.861 5.50692 38.8885Z" fill="#121C22"/>
<path d="M45.7443 60.0333C38.0816 60.0608 25.4751 60.0608 17.73 60.0333C9.98483 60.0196 16.2606 60.0059 31.6685 60.0059C47.0764 60.0059 53.4071 60.0196 45.7443 60.0333Z" fill="#121C22"/>
<path d="M181.422 60.0333C174.13 60.0608 162.237 60.0608 154.987 60.0333C147.736 60.0196 153.696 60.0059 168.239 60.0059C182.781 60.0059 188.714 60.0196 181.422 60.0333Z" fill="#121C22"/>
<path d="M11.4825 16.6467C10.9607 16.6741 10.0269 16.6741 9.42262 16.6467C8.81839 16.6329 9.2441 16.6055 10.3839 16.6055C11.5237 16.6055 12.0043 16.6329 11.4825 16.6467Z" fill="#121C22"/>
<path d="M94.5231 59.1257C94.4956 58.6452 94.5094 58.1647 94.5506 58.0685C94.5918 57.9587 94.7291 57.8901 94.8664 57.8901C95.0999 57.9038 95.0999 57.9175 94.8801 57.9587C94.6742 57.9999 94.633 58.1921 94.578 60.0044L94.5231 59.1257Z" fill="#121C22"/>
<path d="M11.4112 21.7267C10.9168 21.7542 10.1478 21.7542 9.69461 21.7267C9.24144 21.6993 9.63968 21.6855 10.5872 21.6855C11.5348 21.6855 11.9056 21.6993 11.4112 21.7267Z" fill="#121C22"/>
<path d="M94.4531 59.5249C94.4257 59.7858 94.3982 59.5387 94.3982 58.9757C94.3982 58.4128 94.4257 58.1932 94.4531 58.4952C94.4806 58.7973 94.4806 59.2641 94.4531 59.5249Z" fill="#121C22"/>
<path d="M105.027 61.0363C105.013 61.7503 104.986 61.105 104.986 59.5948C104.986 58.0845 105.013 57.4941 105.027 58.2905C105.054 59.0868 105.054 60.3224 105.027 61.0363Z" fill="#DDFCFD"/>
<path d="M104.519 64.1529C104.107 64.1804 103.365 64.1804 102.871 64.1529C102.376 64.1255 102.72 64.1118 103.626 64.1118C104.532 64.1118 104.931 64.1255 104.519 64.1529Z" fill="#DDFCFD"/>
<path d="M11.6866 16.51C11.4257 16.5375 10.9313 16.5375 10.588 16.51C10.2447 16.4825 10.4644 16.4551 11.0686 16.4551C11.6729 16.4551 11.9475 16.4825 11.6866 16.51Z" fill="#121C22"/>
<path d="M62.9376 37.0653C63.3084 36.8868 63.9264 36.6397 64.3246 36.5299H64.3109C64.8327 36.3926 65.5056 36.3376 66.618 36.3788C67.4831 36.4063 68.362 36.4887 68.568 36.5848C68.9525 36.7358 68.9525 36.7495 68.9525 39.3443V39.3444L68.2247 39.0561C67.6479 38.8227 67.2771 38.7815 66.2472 38.8227C65.1074 38.8639 64.9426 38.9051 64.3933 39.2757C64.05 39.5229 63.6792 39.9485 63.4869 40.3055C63.2947 40.6899 63.1848 41.1704 63.1848 41.5686C63.1848 41.9393 63.281 42.461 63.4045 42.7356C63.5144 43.0239 63.7479 43.4083 63.9127 43.5731C64.0774 43.7516 64.462 44.0399 64.7641 44.1909C65.2035 44.4243 65.5468 44.4792 66.5493 44.4792C67.538 44.4792 67.8951 44.4106 68.9525 43.8751L68.8838 46.5524L68.3345 46.7309C68.0187 46.8407 67.181 46.9231 66.3433 46.9231C65.2447 46.9231 64.6817 46.8544 64.0088 46.6348C63.5144 46.4837 62.8003 46.1405 62.4295 45.8796C62.045 45.6188 61.5507 45.1382 61.3172 44.8087C61.07 44.4792 60.7542 43.8339 60.5894 43.3671C60.4109 42.8317 60.301 42.1589 60.301 41.6098C60.301 41.088 60.4109 40.3604 60.5756 39.8661C60.7267 39.3856 61.0288 38.7815 61.2348 38.5206C61.4408 38.2598 61.7566 37.9028 61.9489 37.7243C62.1412 37.5458 62.5806 37.2575 62.9376 37.0653Z" fill="#CDCDCD"/>
<path d="M129.321 37.1751C129.623 36.9829 130.213 36.7083 130.625 36.571C131.202 36.3788 131.696 36.3376 132.754 36.3651C133.729 36.4063 134.347 36.5024 134.882 36.7083C135.308 36.8594 135.967 37.285 136.379 37.6557C136.864 38.095 137.249 38.6122 137.533 39.2071C137.89 39.9348 137.972 40.3055 138.013 41.2665C138.055 42.1178 138 42.6807 137.821 43.326C137.684 43.8339 137.368 44.4792 137.093 44.8362C136.832 45.1794 136.517 45.5364 136.407 45.6325C136.283 45.7286 135.967 45.9483 135.706 46.1268C135.445 46.3053 134.855 46.5661 134.402 46.6897C133.935 46.8407 133.138 46.9368 132.548 46.9368C131.957 46.9368 131.161 46.8407 130.694 46.6897C130.241 46.5661 129.65 46.319 129.389 46.1405C129.128 45.9757 128.634 45.5364 128.291 45.1657C127.865 44.6852 127.577 44.1909 127.357 43.5319C127.082 42.7356 127.041 42.3649 127.082 41.3352C127.123 40.3878 127.22 39.921 127.481 39.3444C127.673 38.9325 128.044 38.3421 128.304 38.0538C128.565 37.7518 129.019 37.3673 129.321 37.1751Z" fill="#CDCDCD"/>
<path d="M21.9323 41.5411C21.9323 39.619 21.8911 37.6969 21.8362 37.285L21.7263 36.5299L25.338 36.5573C27.3155 36.571 28.9771 36.5848 29.0458 36.5985C29.1007 36.5985 29.1419 37.1614 29.1419 39.0698L28.7024 38.9325C28.4553 38.8501 27.4665 38.7952 24.7475 38.7952L24.8161 40.6487H28.5926V42.5708L24.7475 42.4335V44.4243L29.1419 44.3557V46.7583H21.7263L21.8362 45.9071C21.8911 45.4266 21.9323 43.4632 21.9323 41.5411Z" fill="#CDCDCD"/>
<path d="M41.5836 41.6098C41.5836 39.7975 41.5286 37.9165 41.46 37.4223L41.3226 36.5161L41.8719 36.5299C42.1556 36.5434 43.7811 36.5569 48.5517 36.5965L48.7931 36.5985V39.0698L48.34 38.9325C48.0928 38.8501 47.104 38.7952 46.1428 38.7952C44.4399 38.7952 44.3987 38.8089 44.3163 39.0973C44.2751 39.2757 44.2614 39.6876 44.3301 40.6487H48.1752L48.2164 42.5708H44.3301V44.3557H48.7931V46.7583H41.3776L41.4737 45.8247C41.5286 45.3167 41.5836 43.4221 41.5836 41.6098Z" fill="#CDCDCD"/>
<path d="M81.0783 37.3673C81.0234 36.9829 81.0097 36.6397 81.0783 36.6122C81.1332 36.571 81.7924 36.5436 82.534 36.5573C83.2755 36.571 83.9209 36.5848 83.9621 36.5985C83.9896 36.5985 84.0033 37.436 83.9621 40.3192L87.6013 40.2505L87.6425 39.2208C87.6562 38.6442 87.6287 37.8342 87.5738 37.3948C87.4914 36.8868 87.5051 36.6122 87.6013 36.5985C87.6699 36.5985 88.1918 36.571 88.7685 36.5436C89.3316 36.5161 89.9495 36.5299 90.4851 36.626L90.4439 41.1155C90.4164 43.93 90.4439 45.811 90.6911 46.7721H87.3953L87.4914 46.2503C87.5463 45.962 87.6013 45.0284 87.6013 42.5846H84.0308L83.9896 44.3007C83.9621 45.2344 84.0171 46.1817 84.2368 46.7721H80.941L81.0646 46.2503C81.147 45.962 81.2019 44.0124 81.2019 41.8981C81.2019 39.7837 81.147 37.738 81.0783 37.3673Z" fill="#CDCDCD"/>
<path d="M103.517 41.8294C102.803 39.1385 102.171 36.8594 102.144 36.7495C102.075 36.571 102.281 36.5436 103.49 36.5573C104.259 36.571 104.959 36.5848 105.042 36.5985C105.11 36.5985 105.179 36.8044 105.193 37.0516C105.206 37.2987 105.495 38.7952 105.866 40.3878C106.223 41.9667 106.566 43.326 106.621 43.4083C106.689 43.477 106.799 43.2848 106.909 42.9278C106.992 42.5846 107.349 41.1567 108.351 37.2301H110.095L110.397 38.3971C110.576 39.0286 110.905 40.3329 111.139 41.2803C111.386 42.2139 111.633 43.0788 111.702 43.2024C111.771 43.3122 111.853 43.3671 111.894 43.3397C111.922 43.2985 112.279 41.8432 112.663 40.1132C113.048 38.3696 113.322 36.8731 113.281 36.777C113.226 36.6534 113.556 36.5985 114.668 36.571C115.465 36.5573 116.192 36.571 116.275 36.626C116.357 36.6671 116.398 36.7633 116.343 36.8319C116.289 36.9005 115.712 38.9325 115.066 41.3489C114.421 43.7653 113.817 45.962 113.624 46.7721L110.562 46.7034L109.958 44.1634C109.628 42.763 109.326 41.5823 109.285 41.5548C109.257 41.5137 109.175 41.6372 109.106 41.8294C109.038 42.0079 108.736 43.2024 107.925 46.7721H106.374C105.522 46.7721 104.836 46.7446 104.836 46.7309C104.836 46.7171 104.245 44.5067 103.517 41.8294Z" fill="#CDCDCD"/>
<path d="M149.81 36.6122L152.487 36.571C153.957 36.5573 155.467 36.5848 155.852 36.6397C156.223 36.6946 156.813 36.8868 157.157 37.0516C157.527 37.2438 157.939 37.6145 158.186 37.9852C158.461 38.3833 158.64 38.8501 158.708 39.3581C158.763 39.77 158.763 40.3192 158.722 40.5938C158.667 40.8546 158.516 41.2803 158.392 41.5548C158.255 41.8157 157.926 42.2276 157.651 42.4747C157.376 42.7219 157.157 42.9964 157.157 43.0925C157.157 43.1887 157.541 44.0536 158.873 46.7721H157.253C155.673 46.7721 155.646 46.7583 155.632 46.4563C155.632 46.2915 155.399 45.5639 154.602 43.5456L152.762 43.477V44.7813C152.762 45.4952 152.817 46.2366 153.037 46.7721H151.389C149.741 46.7721 149.741 46.7721 149.823 46.4563C149.878 46.2915 149.947 44.3557 149.974 42.1727C150.002 39.976 149.974 37.8342 149.81 36.6122Z" fill="#CDCDCD"/>
<path d="M170.038 37.8616C170.024 37.2026 170.051 36.626 170.093 36.5985C170.134 36.5573 171.892 36.5573 173.993 36.571C176.094 36.5848 177.893 36.6122 177.989 36.6122C178.112 36.6122 178.167 36.9417 178.167 37.8479C178.167 38.9462 178.14 39.0698 177.92 39.0149C177.783 38.9874 177.247 38.9188 176.725 38.8639C175.901 38.7815 175.723 38.8089 175.558 39.0149C175.38 39.2208 175.366 39.7288 175.448 42.6395C175.489 44.493 175.572 46.1817 175.695 46.7721H172.537L172.592 46.319C172.633 46.0718 172.702 44.5204 172.757 42.8591C172.812 41.1979 172.798 39.5915 172.647 38.7403L171.562 38.8364C170.958 38.8913 170.381 38.9737 170.271 39.0149C170.093 39.0698 170.051 38.8776 170.038 37.8616Z" fill="#CDCDCD"/>
<path d="M128.605 15.8653C128.578 15.9065 128.551 15.3985 128.551 14.7394C128.551 14.0667 128.605 13.5312 128.66 13.5312C128.715 13.5312 128.743 14.0392 128.715 14.6708C128.688 15.2886 128.647 15.8241 128.605 15.8653Z" fill="#121C22"/>
<path d="M11.1118 10.6074C11.098 10.4972 11.1394 10.3732 11.1945 10.3318C11.2496 10.2905 11.4149 10.3043 11.5664 10.3732C11.7042 10.4558 11.8006 10.566 11.7593 10.6487C11.718 10.7176 11.5664 10.7865 11.4149 10.7865C11.2633 10.7865 11.1256 10.7038 11.1118 10.6074Z" fill="#121C22"/>
<path d="M87.4925 40.1666L87.5199 39.178L87.5474 38.1758L87.5886 39.0682C87.616 39.5625 87.6023 40.043 87.5611 40.1254C87.5199 40.2489 87.2453 40.2901 86.0505 40.2489L87.4925 40.1666Z" fill="#121C22"/>
<path d="M24.8423 39.4526C24.8148 39.178 24.8697 39.0819 25.0757 39.0407C25.2244 39.0002 25.8922 38.9729 26.555 38.9459L26.5863 38.9446C27.2592 38.9309 27.7948 38.9446 27.7536 38.9858C27.7124 39.0407 27.2867 39.0956 26.7923 39.1231C26.2979 39.1643 25.7624 39.1917 25.5976 39.1917C25.419 39.2055 25.3092 39.2604 25.3504 39.3428C25.3916 39.4251 25.3229 39.4801 25.213 39.4801C25.1032 39.4801 24.9796 39.5624 24.9521 39.6448C24.9109 39.7409 24.8697 39.6585 24.8423 39.4526Z" fill="#121C22"/>
<path d="M44.5073 40.4411L44.4798 39.6997L44.4661 38.9721L45.2076 39.027C45.6196 39.0544 45.9766 39.1094 46.0178 39.1505C46.059 39.178 45.8393 39.2055 45.5372 39.2055C45.2213 39.2055 44.9055 39.2878 44.8094 39.3702C44.7132 39.4663 44.6446 39.6585 44.6446 39.7821C44.6446 39.9194 44.727 40.0704 44.8094 40.1253C44.9055 40.1803 45.2076 40.2626 45.4685 40.3176C45.908 40.3999 45.8805 40.4137 44.5073 40.4411Z" fill="#121C22"/>
<path d="M25.4465 40.4274C24.9247 40.4274 24.8697 40.3999 24.8972 40.1391C24.9109 39.9331 24.9659 39.8919 25.062 40.0018C25.1444 40.0842 25.3916 40.2077 25.6113 40.2764C26.0233 40.3999 26.0095 40.4137 25.4465 40.4274Z" fill="#121C22"/>
<path d="M111.522 42.1436C111.385 41.6905 111.247 41.1413 111.192 40.9079C111.11 40.5647 111.124 40.5372 111.275 40.7432C111.371 40.8667 111.495 40.9354 111.549 40.8805C111.618 40.8255 111.659 40.853 111.659 40.9491C111.659 41.0452 111.714 41.1139 111.783 41.1139C111.865 41.1139 111.879 41.0452 111.824 40.9491C111.76 40.8393 111.783 40.8164 111.893 40.8805C111.989 40.9354 112.126 40.8805 112.209 40.7432C112.332 40.5235 112.346 40.5235 112.277 40.7706C112.25 40.9216 112.14 41.361 112.058 41.7317C111.989 42.1161 111.879 42.5417 111.838 42.6928C111.769 42.8987 111.687 42.7614 111.522 42.1436Z" fill="#121C22"/>
<path d="M106.468 42.3495C106.386 42.02 106.359 41.6768 106.4 41.5944C106.455 41.512 106.496 41.5257 106.523 41.6356C106.551 41.7454 106.661 41.7729 106.798 41.7042C106.977 41.6219 107.004 41.663 106.908 42.0063C106.853 42.2397 106.757 42.5417 106.716 42.6928C106.633 42.9124 106.578 42.8438 106.468 42.3495Z" fill="#121C22"/>
<path d="M108.844 43.3792C108.968 42.8575 109.105 42.3358 109.133 42.2122C109.174 42.1024 109.352 42.5966 109.531 43.3106C109.709 44.0382 109.86 44.6561 109.86 44.6835C109.874 44.7247 109.764 44.6149 109.627 44.4501C109.49 44.2854 109.297 44.1481 109.174 44.1481C109.064 44.1344 108.858 44.3128 108.721 44.5188C108.556 44.7796 108.501 44.8208 108.556 44.6149C108.583 44.4639 108.721 43.9147 108.844 43.3792Z" fill="#121C22"/>
<path d="M24.8423 43.544C24.8285 43.1458 24.8697 42.7751 24.9247 42.7202C24.9933 42.6653 25.4465 42.6378 26.8472 42.679L25.9958 42.7202C25.1444 42.7614 25.1307 42.7751 25.0483 43.2145C25.0071 43.4616 25.0071 43.8048 25.0483 43.9696C25.1032 44.1344 25.0757 44.2716 24.9933 44.2716C24.9247 44.2716 24.856 43.9421 24.8423 43.544Z" fill="#121C22"/>
<path d="M44.4798 43.544C44.4661 43.1458 44.5073 42.7751 44.5622 42.7202C44.6308 42.6653 44.7682 42.6241 44.8643 42.6241C45.0154 42.6241 45.0154 42.7065 44.8506 43.0772C44.727 43.3655 44.6995 43.5989 44.7819 43.7225C44.8506 43.846 44.9055 44.0108 44.9055 44.1069C44.9055 44.203 44.8231 44.2716 44.6995 44.2716C44.5485 44.2716 44.4935 44.0932 44.4798 43.544Z" fill="#121C22"/>
<path d="M110.382 58.77C110.382 58.7013 110.478 58.5366 110.616 58.3993C110.753 58.262 111.041 58.1384 111.261 58.1384C111.481 58.1384 111.769 58.2071 111.92 58.2757C112.085 58.3581 112.195 58.5503 112.195 58.7563C112.195 58.9622 112.085 59.1544 111.92 59.2368C111.769 59.3192 111.481 59.3741 111.275 59.3741C111.069 59.3741 110.78 59.2643 110.657 59.1407C110.52 59.0034 110.396 58.8386 110.382 58.77Z" fill="#121C22"/>
<path d="M110.327 61.8179C110.272 61.5983 110.327 61.4472 110.561 61.2688C110.726 61.1315 111.069 61.0216 111.33 61.0216C111.577 61.0216 111.893 61.0766 112.03 61.1452C112.167 61.2138 112.318 61.3649 112.373 61.4884C112.428 61.612 112.428 61.8042 112.373 61.9278C112.318 62.0376 112.071 62.2024 111.824 62.271C111.536 62.3534 111.206 62.3534 110.89 62.2573C110.574 62.1749 110.382 62.0239 110.327 61.8179Z" fill="#121C22"/>
<path d="M169.843 38.4492C169.816 38.8337 169.802 38.5453 169.802 37.8314C169.802 37.1175 169.816 36.8017 169.843 37.1449C169.871 37.4882 169.871 38.0648 169.843 38.4492Z" fill="#121C22"/>
<path d="M80.9938 42.98C80.9801 43.8175 80.9526 43.1996 80.9526 41.607C80.9526 40.0144 80.9801 39.3417 80.9938 40.0968C81.0213 40.8519 81.0213 42.1425 80.9938 42.98Z" fill="#121C22"/>
<path d="M21.8066 42.4308C21.7791 42.9662 21.7654 42.5544 21.7654 41.5384C21.7654 40.5224 21.7791 40.0831 21.8066 40.5773C21.834 41.0716 21.834 41.8953 21.8066 42.4308Z" fill="#121C22"/>
<path d="M26.3108 40.5361C26.0087 40.5636 25.5418 40.5636 25.2809 40.5361C25.02 40.5087 25.2672 40.4812 25.8302 40.4812C26.3932 40.4812 26.613 40.5087 26.3108 40.5361Z" fill="#121C22"/>
<path d="M45.9484 40.5361C45.6463 40.5636 45.1793 40.5636 44.9184 40.5361C44.6575 40.5087 44.9047 40.4812 45.4677 40.4812C46.0308 40.4812 46.2505 40.5087 45.9484 40.5361Z" fill="#121C22"/>
<path d="M87.4481 44.6275C87.4206 44.9982 87.4069 44.7236 87.4069 44.0097C87.4069 43.2958 87.4206 42.98 87.4481 43.3232C87.4755 43.6665 87.4755 44.2431 87.4481 44.6275Z" fill="#121C22"/>
<path d="M28.6758 41.7444C28.6483 42.0465 28.6208 41.868 28.6208 41.3325C28.6208 40.7971 28.6483 40.5637 28.6758 40.7833C28.7032 41.003 28.7032 41.4424 28.6758 41.7444Z" fill="#121C22"/>
<path d="M46.1573 44.3805C45.8964 44.4079 45.402 44.4079 45.0587 44.3805C44.7154 44.353 44.9351 44.3256 45.5393 44.3256C46.1436 44.3256 46.4182 44.353 46.1573 44.3805Z" fill="#121C22"/>
<path d="M26.4501 38.8889C26.148 38.9164 25.6811 38.9164 25.4202 38.8889C25.1593 38.8614 25.4064 38.834 25.9695 38.834C26.5325 38.834 26.7522 38.8614 26.4501 38.8889Z" fill="#121C22"/>
<path d="M171.535 36.4182C171.275 36.4457 170.78 36.4457 170.437 36.4182C170.094 36.3907 170.313 36.3633 170.917 36.3633C171.522 36.3633 171.796 36.3907 171.535 36.4182Z" fill="#121C22"/>
<path d="M41.4472 43.4614C41.4335 44.4774 41.406 43.7086 41.406 41.7452C41.406 39.7819 41.4335 38.9444 41.4472 39.8918C41.4747 40.8391 41.4747 42.4454 41.4472 43.4614Z" fill="#121C22"/>
<path d="M172.497 39.068L171.92 39.0268L171.357 38.9719L172.565 38.9993V44.5598L172.497 39.068Z" fill="#121C22"/>
<path d="M175.559 41.759C175.545 40.3998 175.559 39.2053 175.587 39.1092C175.614 38.9993 175.834 38.9444 176.671 38.9856L175.641 39.0817L175.587 44.2303L175.559 41.759Z" fill="#121C22"/>
<path d="M86.5174 42.7475C86.0367 42.775 85.254 42.775 84.8008 42.7475C84.3476 42.72 84.7596 42.6926 85.6934 42.6926C86.641 42.6926 87.0117 42.72 86.5174 42.7475Z" fill="#121C22"/>
<path d="M26.5888 36.5549C25.9159 36.5823 24.831 36.5823 24.1856 36.5549C23.5402 36.5411 24.1032 36.5137 25.4215 36.5137C26.7399 36.5137 27.2617 36.5411 26.5888 36.5549Z" fill="#121C22"/>
<path d="M47.1876 36.5549C46.2813 36.5823 44.8256 36.5823 43.9605 36.5549C43.0953 36.5411 43.8369 36.5137 45.6084 36.5137C47.3799 36.5137 48.094 36.5411 47.1876 36.5549Z" fill="#121C22"/>
<path d="M104.04 36.5549C103.738 36.5823 103.189 36.5823 102.804 36.5549C102.42 36.5274 102.667 36.5137 103.354 36.5137C104.04 36.5137 104.342 36.5274 104.04 36.5549Z" fill="#121C22"/>
<path d="M115.232 36.5549C114.82 36.5823 114.175 36.5823 113.79 36.5549C113.406 36.5274 113.749 36.5137 114.546 36.5137C115.342 36.5137 115.644 36.5274 115.232 36.5549Z" fill="#121C22"/>
<path d="M153.821 36.5549C153.107 36.5823 151.871 36.5823 151.074 36.5549C150.278 36.5411 150.868 36.5137 152.379 36.5137C153.889 36.5137 154.535 36.5411 153.821 36.5549Z" fill="#121C22"/>
<path d="M175.793 36.5549C174.777 36.5823 173.17 36.5823 172.222 36.5549C171.275 36.5411 172.112 36.5137 174.076 36.5137C176.04 36.5137 176.809 36.5411 175.793 36.5549Z" fill="#121C22"/>
<path d="M41.5847 43.1862C41.571 44.1335 41.5435 43.4196 41.5435 41.6073C41.5435 39.795 41.571 39.0262 41.5847 39.8911C41.6122 40.7561 41.6122 42.2389 41.5847 43.1862Z" fill="#121C22"/>
<path d="M172.73 43.1862C172.717 43.9001 172.689 43.2823 172.689 41.8133C172.689 40.3442 172.717 39.7538 172.73 40.509C172.758 41.2641 172.758 42.4723 172.73 43.1862Z" fill="#121C22"/>
<path d="M169.984 39.1238C169.929 39.0963 169.901 38.4922 169.915 37.8057V37.792C169.915 37.1055 169.956 36.7211 169.97 36.9408C169.998 37.1604 170.039 37.7645 170.053 38.2725C170.08 38.7668 170.053 39.1512 169.984 39.1238Z" fill="#121C22"/>
<path d="M81.1344 43.1328C81.1207 44.0389 81.0932 43.325 81.0932 41.5539C81.0932 39.7828 81.1207 39.0414 81.1344 39.9063C81.1619 40.7713 81.1619 42.2266 81.1344 43.1328Z" fill="#121C22"/>
<path d="M46.8443 38.9041C46.4323 38.9315 45.6907 38.9315 45.1964 38.9041C44.702 38.8766 45.0453 38.8629 45.9517 38.8629C46.858 38.8629 47.2563 38.8766 46.8443 38.9041Z" fill="#121C22"/>
<path d="M21.9472 42.8582C21.9335 43.6133 21.906 43.0504 21.906 41.6225C21.906 40.1809 21.9335 39.5631 21.9472 40.2496C21.9747 40.9223 21.9747 42.1031 21.9472 42.8582Z" fill="#121C22"/>
<path d="M26.3141 40.6889C26.012 40.7164 25.5451 40.7164 25.2842 40.6889C25.0233 40.6615 25.2705 40.634 25.8335 40.634C26.3965 40.634 26.6163 40.6615 26.3141 40.6889Z" fill="#121C22"/>
<path d="M45.8143 40.6889C45.5122 40.7164 45.0728 40.7164 44.8531 40.6889C44.6196 40.6615 44.8668 40.634 45.4024 40.634C45.9242 40.634 46.1165 40.6615 45.8143 40.6889Z" fill="#121C22"/>
<path d="M46.2263 42.6111C45.9242 42.6385 45.3612 42.6385 44.9904 42.6111C44.6059 42.5836 44.8531 42.5699 45.5397 42.5699C46.2126 42.5699 46.5284 42.5836 46.2263 42.6111Z" fill="#121C22"/>
<path d="M87.5887 44.1625C87.5612 44.5057 87.5338 44.286 87.5338 43.682C87.5338 43.0779 87.5612 42.8033 87.5887 43.0641C87.6162 43.325 87.6162 43.8192 87.5887 44.1625Z" fill="#121C22"/>
<path d="M29.2245 38.4492C29.1971 38.8337 29.1833 38.5453 29.1833 37.8314C29.1833 37.1175 29.1971 36.8017 29.2245 37.1449C29.252 37.4882 29.252 38.0648 29.2245 38.4492Z" fill="#121C22"/>
<path d="M48.8621 38.4492C48.8346 38.8337 48.8209 38.5453 48.8209 37.8314C48.8209 37.1175 48.8346 36.8017 48.8621 37.1449C48.8895 37.4882 48.8895 38.0648 48.8621 38.4492Z" fill="#121C22"/>
<path d="M175.476 43.5978C175.462 44.3117 175.435 43.79 175.435 42.4308C175.435 41.0716 175.462 40.4812 175.476 41.1265C175.503 41.7718 175.503 42.8839 175.476 43.5978Z" fill="#121C22"/>
<path d="M48.8209 46.4124C48.7934 46.1927 48.7522 45.5886 48.7385 45.0669C48.711 44.5589 48.7385 44.147 48.7934 44.147C48.8621 44.147 48.8895 44.7511 48.8758 45.4787C48.8758 46.2201 48.8346 46.632 48.8209 46.4124Z" fill="#121C22"/>
<path d="M29.2245 46.2751C29.1971 46.5771 29.1833 46.2613 29.1833 45.5886C29.1833 44.9158 29.1971 44.655 29.2245 45.0394C29.252 45.4101 29.252 45.973 29.2245 46.2751Z" fill="#121C22"/>
<path d="M178.359 38.2437C178.332 38.5045 178.304 38.2574 178.304 37.6945C178.304 37.1316 178.332 36.9119 178.359 37.214C178.387 37.516 178.387 37.9828 178.359 38.2437Z" fill="#DDFCFD"/>
<path d="M90.4715 43.0497C90.4578 43.9146 90.4303 43.2693 90.4303 41.6081C90.4303 39.9468 90.4578 39.2329 90.4715 40.0292C90.499 40.8255 90.499 42.1847 90.4715 43.0497Z" fill="#121C22"/>
<path d="M24.8026 44.354L24.7888 43.5577V42.7751L24.8712 44.2853L26.9998 44.3677L24.8026 44.354Z" fill="#121C22"/>
<path d="M84.0172 44.2716C83.976 44.5462 83.9623 44.2991 83.9623 43.7224C83.9623 43.1595 83.976 42.9398 84.0172 43.2419C84.0447 43.5439 84.0447 44.0107 84.0172 44.2716Z" fill="#121C22"/>
<path d="M83.9882 40.2341L83.9744 39.3416L83.9607 38.4492L84.0568 40.1654L85.4987 40.2615L83.9882 40.2341Z" fill="#121C22"/>
<path d="M149.946 43.3232C149.918 43.9685 149.891 43.4742 149.891 42.2248C149.891 40.9754 149.918 40.4537 149.946 41.0578C149.959 41.6619 149.959 42.6779 149.946 43.3232Z" fill="#121C22"/>
<path d="M178.223 38.2437C178.196 38.5045 178.168 38.2574 178.168 37.6945C178.168 37.1316 178.196 36.9119 178.223 37.214C178.251 37.516 178.251 37.9828 178.223 38.2437Z" fill="#121C22"/>
<path d="M86.1878 42.5959C85.8856 42.6234 85.4462 42.6234 85.2265 42.5959C85.0068 42.5685 85.2402 42.541 85.7758 42.541C86.3113 42.541 86.4899 42.5685 86.1878 42.5959Z" fill="#121C22"/>
<path d="M130.9 39.522C131.078 39.3435 131.422 39.1513 131.641 39.0827C131.861 39.014 132.246 38.9454 132.465 38.9454C132.685 38.9316 133.111 39.0003 133.386 39.0689C133.674 39.1513 134.072 39.3984 134.278 39.6181C134.498 39.8515 134.731 40.2359 134.827 40.4831C134.91 40.7165 134.992 41.197 134.992 41.5402C135.006 41.8835 134.937 42.3777 134.869 42.6386C134.786 42.8995 134.567 43.2839 134.388 43.4898C134.196 43.7095 133.825 43.9704 133.564 44.0802C133.303 44.19 132.836 44.2861 132.534 44.2861C132.232 44.2861 131.82 44.2175 131.614 44.1351C131.394 44.0527 131.078 43.8605 130.9 43.6958C130.721 43.531 130.46 43.1466 130.323 42.8445C130.186 42.5425 130.062 41.9796 130.062 41.6089C130.062 41.2245 130.186 40.6753 130.323 40.3732C130.46 40.0712 130.721 39.6868 130.9 39.522Z" fill="#121C22"/>
<path d="M152.858 40.9911V39.9614V38.9316H153.778C154.396 38.9316 154.877 39.014 155.193 39.1788C155.632 39.3984 155.673 39.4671 155.673 40.03C155.673 40.538 155.618 40.6616 155.33 40.8126C155.138 40.9087 154.506 40.9911 152.858 40.9911Z" fill="#121C22"/>
<path d="M152.816 40.5777C152.789 40.8385 152.761 40.5914 152.761 40.0285C152.761 39.4656 152.789 39.2459 152.816 39.5479C152.844 39.85 152.844 40.3168 152.816 40.5777Z" fill="#121C22"/>
<path d="M154.298 41.0862C153.996 41.1136 153.529 41.1136 153.268 41.0862C153.007 41.0587 153.254 41.0312 153.817 41.0312C154.38 41.0312 154.6 41.0587 154.298 41.0862Z" fill="#121C22"/>
<path d="M153.448 38.9597C153.063 38.9871 152.775 38.9597 152.802 38.9047V38.891C152.844 38.8361 153.31 38.8086 153.86 38.8086C154.409 38.8223 154.697 38.8498 154.505 38.8773C154.313 38.9047 153.846 38.9459 153.448 38.9597Z" fill="#121C22"/>
<defs>
<clipPath id="clip0_12818_197984">
<rect width="172.79" height="20.4656" fill="white" transform="translate(8.37866 7.61523)"/>
</clipPath>
</defs>
</svg>
